<svg width="1489" height="1417" viewBox="0 0 1489 1417" fill="none" xmlns="http://www.w3.org/2000/svg">
<g opacity="0.4">
<rect width="1440" height="1320" transform="translate(24.0396 48.5186)" fill="#F7F8F9"/>
<line x1="1488.04" y1="721.019" x2="0.0395508" y2="721.019" stroke="#D5DAE1"/>
<line x1="1488.04" y1="745.019" x2="0.0395508" y2="745.019" stroke="#D5DAE1"/>
<line x1="1488.04" y1="769.019" x2="0.0395508" y2="769.019" stroke="#D5DAE1"/>
<line x1="1488.04" y1="793.019" x2="0.0395508" y2="793.019" stroke="#D5DAE1"/>
<line x1="1488.04" y1="817.019" x2="0.0395508" y2="817.019" stroke="#D5DAE1"/>
<line x1="1488.04" y1="841.019" x2="0.0395508" y2="841.019" stroke="#D5DAE1"/>
<line x1="1488.04" y1="865.019" x2="0.0395508" y2="865.019" stroke="#D5DAE1"/>
<line x1="1488.04" y1="889.019" x2="0.0395508" y2="889.019" stroke="#D5DAE1"/>
<line x1="1488.04" y1="913.019" x2="0.0395508" y2="913.019" stroke="#D5DAE1"/>
<line x1="1488.04" y1="937.019" x2="0.0395508" y2="937.019" stroke="#D5DAE1"/>
<line x1="1488.04" y1="961.018" x2="0.0395508" y2="961.018" stroke="#D5DAE1"/>
<line x1="1488.04" y1="985.018" x2="0.0395508" y2="985.018" stroke="#D5DAE1"/>
<line x1="1488.04" y1="1009.02" x2="0.0395508" y2="1009.02" stroke="#D5DAE1"/>
<line x1="1488.04" y1="1033.02" x2="0.0395508" y2="1033.02" stroke="#D5DAE1"/>
<line x1="1488.04" y1="1057.02" x2="0.0395508" y2="1057.02" stroke="#D5DAE1"/>
<line x1="1488.04" y1="1081.02" x2="0.0395508" y2="1081.02" stroke="#D5DAE1"/>
<line x1="1488.04" y1="1105.02" x2="0.0395508" y2="1105.02" stroke="#D5DAE1"/>
<line x1="1488.04" y1="1129.02" x2="0.0395508" y2="1129.02" stroke="#D5DAE1"/>
<line x1="1488.04" y1="1153.02" x2="0.0395508" y2="1153.02" stroke="#D5DAE1"/>
<line x1="1488.04" y1="1177.02" x2="0.0395508" y2="1177.02" stroke="#D5DAE1"/>
<line x1="1488.04" y1="1201.02" x2="0.0395508" y2="1201.02" stroke="#D5DAE1"/>
<line x1="1488.04" y1="1225.02" x2="0.0395508" y2="1225.02" stroke="#D5DAE1"/>
<line x1="1488.04" y1="1249.02" x2="0.0395508" y2="1249.02" stroke="#D5DAE1"/>
<line x1="1488.04" y1="1273.02" x2="0.0395508" y2="1273.02" stroke="#D5DAE1"/>
<line x1="1488.04" y1="1297.02" x2="0.0395508" y2="1297.02" stroke="#D5DAE1"/>
<line x1="1488.04" y1="1321.02" x2="0.0395508" y2="1321.02" stroke="#D5DAE1"/>
<line x1="1488.04" y1="1345.02" x2="0.0395508" y2="1345.02" stroke="#D5DAE1"/>
<line x1="1488.04" y1="1369.02" x2="0.0395508" y2="1369.02" stroke="#D5DAE1"/>
<line x1="1488.04" y1="1393.02" x2="0.0395508" y2="1393.02" stroke="#D5DAE1"/>
<line x1="48.5396" y1="696.519" x2="48.5395" y2="1416.52" stroke="#D5DAE1"/>
<line x1="48.5396" y1="696.519" x2="48.5395" y2="1416.52" stroke="#D5DAE1"/>
<line x1="72.5396" y1="696.519" x2="72.5395" y2="1416.52" stroke="#D5DAE1"/>
<line x1="96.5396" y1="696.519" x2="96.5395" y2="1416.52" stroke="#D5DAE1"/>
<line x1="120.54" y1="696.519" x2="120.54" y2="1416.52" stroke="#D5DAE1"/>
<line x1="144.54" y1="696.519" x2="144.54" y2="1416.52" stroke="#D5DAE1"/>
<line x1="168.54" y1="696.519" x2="168.54" y2="1416.52" stroke="#D5DAE1"/>
<line x1="192.54" y1="696.519" x2="192.54" y2="1416.52" stroke="#D5DAE1"/>
<line x1="216.54" y1="696.519" x2="216.54" y2="1416.52" stroke="#D5DAE1"/>
<line x1="240.54" y1="696.519" x2="240.54" y2="1416.52" stroke="#D5DAE1"/>
<line x1="264.54" y1="696.519" x2="264.54" y2="1416.52" stroke="#D5DAE1"/>
<line x1="288.54" y1="696.519" x2="288.54" y2="1416.52" stroke="#D5DAE1"/>
<line x1="312.54" y1="696.519" x2="312.54" y2="1416.52" stroke="#D5DAE1"/>
<line x1="336.54" y1="696.519" x2="336.54" y2="1416.52" stroke="#D5DAE1"/>
<line x1="360.54" y1="696.519" x2="360.54" y2="1416.52" stroke="#D5DAE1"/>
<line x1="384.54" y1="696.519" x2="384.54" y2="1416.52" stroke="#D5DAE1"/>
<line x1="408.54" y1="696.519" x2="408.54" y2="1416.52" stroke="#D5DAE1"/>
<line x1="432.54" y1="696.519" x2="432.54" y2="1416.52" stroke="#D5DAE1"/>
<line x1="456.54" y1="696.519" x2="456.54" y2="1416.52" stroke="#D5DAE1"/>
<line x1="480.54" y1="696.519" x2="480.54" y2="1416.52" stroke="#D5DAE1"/>
<line x1="504.54" y1="696.519" x2="504.54" y2="1416.52" stroke="#D5DAE1"/>
<line x1="528.54" y1="696.519" x2="528.539" y2="1416.52" stroke="#D5DAE1"/>
<line x1="552.54" y1="696.519" x2="552.539" y2="1416.52" stroke="#D5DAE1"/>
<line x1="576.54" y1="696.519" x2="576.539" y2="1416.52" stroke="#D5DAE1"/>
<line x1="600.54" y1="696.519" x2="600.539" y2="1416.52" stroke="#D5DAE1"/>
<line x1="624.54" y1="696.519" x2="624.539" y2="1416.52" stroke="#D5DAE1"/>
<line x1="648.54" y1="696.519" x2="648.539" y2="1416.52" stroke="#D5DAE1"/>
<line x1="672.54" y1="696.519" x2="672.539" y2="1416.52" stroke="#D5DAE1"/>
<line x1="696.54" y1="696.519" x2="696.539" y2="1416.52" stroke="#D5DAE1"/>
<line x1="720.54" y1="696.519" x2="720.539" y2="1416.52" stroke="#D5DAE1"/>
<line x1="744.54" y1="696.519" x2="744.539" y2="1416.52" stroke="#D5DAE1"/>
<line x1="768.54" y1="696.519" x2="768.539" y2="1416.52" stroke="#D5DAE1"/>
<line x1="792.54" y1="696.519" x2="792.539" y2="1416.52" stroke="#D5DAE1"/>
<line x1="816.54" y1="696.519" x2="816.539" y2="1416.52" stroke="#D5DAE1"/>
<line x1="840.54" y1="696.519" x2="840.539" y2="1416.52" stroke="#D5DAE1"/>
<line x1="864.54" y1="696.519" x2="864.539" y2="1416.52" stroke="#D5DAE1"/>
<line x1="888.54" y1="696.519" x2="888.539" y2="1416.52" stroke="#D5DAE1"/>
<line x1="912.54" y1="696.519" x2="912.539" y2="1416.52" stroke="#D5DAE1"/>
<line x1="936.54" y1="696.519" x2="936.539" y2="1416.52" stroke="#D5DAE1"/>
<line x1="960.54" y1="696.519" x2="960.539" y2="1416.52" stroke="#D5DAE1"/>
<line x1="984.54" y1="696.519" x2="984.539" y2="1416.52" stroke="#D5DAE1"/>
<line x1="1008.54" y1="696.519" x2="1008.54" y2="1416.52" stroke="#D5DAE1"/>
<line x1="1032.54" y1="696.519" x2="1032.54" y2="1416.52" stroke="#D5DAE1"/>
<line x1="1056.54" y1="696.519" x2="1056.54" y2="1416.52" stroke="#D5DAE1"/>
<line x1="1080.54" y1="696.519" x2="1080.54" y2="1416.52" stroke="#D5DAE1"/>
<line x1="1104.54" y1="696.519" x2="1104.54" y2="1416.52" stroke="#D5DAE1"/>
<line x1="1128.54" y1="696.519" x2="1128.54" y2="1416.52" stroke="#D5DAE1"/>
<line x1="1152.54" y1="696.519" x2="1152.54" y2="1416.52" stroke="#D5DAE1"/>
<line x1="1176.54" y1="696.519" x2="1176.54" y2="1416.52" stroke="#D5DAE1"/>
<line x1="1200.54" y1="696.519" x2="1200.54" y2="1416.52" stroke="#D5DAE1"/>
<line x1="1224.54" y1="696.519" x2="1224.54" y2="1416.52" stroke="#D5DAE1"/>
<line x1="1248.54" y1="696.519" x2="1248.54" y2="1416.52" stroke="#D5DAE1"/>
<line x1="1272.54" y1="696.519" x2="1272.54" y2="1416.52" stroke="#D5DAE1"/>
<line x1="1296.54" y1="696.519" x2="1296.54" y2="1416.52" stroke="#D5DAE1"/>
<line x1="1320.54" y1="696.519" x2="1320.54" y2="1416.52" stroke="#D5DAE1"/>
<line x1="1344.54" y1="696.519" x2="1344.54" y2="1416.52" stroke="#D5DAE1"/>
<line x1="1368.54" y1="696.519" x2="1368.54" y2="1416.52" stroke="#D5DAE1"/>
<line x1="1392.54" y1="696.519" x2="1392.54" y2="1416.52" stroke="#D5DAE1"/>
<line x1="1416.54" y1="696.519" x2="1416.54" y2="1416.52" stroke="#D5DAE1"/>
<line x1="1440.54" y1="696.519" x2="1440.54" y2="1416.52" stroke="#D5DAE1"/>
<line x1="1464.54" y1="696.519" x2="1464.54" y2="1416.52" stroke="#D5DAE1"/>
<line x1="24.5396" y1="0.518555" x2="24.5395" y2="720.519" stroke="#D5DAE1"/>
<line x1="1488.04" y1="25.0186" x2="0.0395508" y2="25.0186" stroke="#D5DAE1"/>
<line x1="1488.04" y1="49.0186" x2="0.0395508" y2="49.0186" stroke="#D5DAE1"/>
<line x1="1488.04" y1="73.0186" x2="0.0395508" y2="73.0186" stroke="#D5DAE1"/>
<line x1="1488.04" y1="97.0186" x2="0.0395508" y2="97.0186" stroke="#D5DAE1"/>
<line x1="1488.04" y1="121.019" x2="0.0395508" y2="121.019" stroke="#D5DAE1"/>
<line x1="1488.04" y1="145.019" x2="0.0395508" y2="145.019" stroke="#D5DAE1"/>
<line x1="1488.04" y1="169.019" x2="0.0395508" y2="169.019" stroke="#D5DAE1"/>
<line x1="1488.04" y1="193.019" x2="0.0395508" y2="193.019" stroke="#D5DAE1"/>
<line x1="1488.04" y1="217.019" x2="0.0395508" y2="217.019" stroke="#D5DAE1"/>
<line x1="1488.04" y1="241.019" x2="0.0395508" y2="241.019" stroke="#D5DAE1"/>
<line x1="1488.04" y1="265.019" x2="0.0395508" y2="265.019" stroke="#D5DAE1"/>
<line x1="1488.04" y1="289.019" x2="0.0395508" y2="289.019" stroke="#D5DAE1"/>
<line x1="1488.04" y1="313.019" x2="0.0395508" y2="313.019" stroke="#D5DAE1"/>
<line x1="1488.04" y1="337.019" x2="0.0395508" y2="337.019" stroke="#D5DAE1"/>
<line x1="1488.04" y1="361.019" x2="0.0395508" y2="361.019" stroke="#D5DAE1"/>
<line x1="1488.04" y1="385.019" x2="0.0395508" y2="385.019" stroke="#D5DAE1"/>
<line x1="1488.04" y1="409.019" x2="0.0395508" y2="409.019" stroke="#D5DAE1"/>
<line x1="1488.04" y1="433.019" x2="0.0395508" y2="433.019" stroke="#D5DAE1"/>
<line x1="1488.04" y1="457.019" x2="0.0395508" y2="457.019" stroke="#D5DAE1"/>
<line x1="1488.04" y1="481.019" x2="0.0395508" y2="481.019" stroke="#D5DAE1"/>
<line x1="1488.04" y1="505.019" x2="0.0395508" y2="505.019" stroke="#D5DAE1"/>
<line x1="1488.04" y1="529.019" x2="0.0395508" y2="529.019" stroke="#D5DAE1"/>
<line x1="1488.04" y1="553.019" x2="0.0395508" y2="553.019" stroke="#D5DAE1"/>
<line x1="1488.04" y1="577.019" x2="0.0395508" y2="577.019" stroke="#D5DAE1"/>
<line x1="1488.04" y1="601.019" x2="0.0395508" y2="601.019" stroke="#D5DAE1"/>
<line x1="1488.04" y1="625.019" x2="0.0395508" y2="625.019" stroke="#D5DAE1"/>
<line x1="1488.04" y1="649.019" x2="0.0395508" y2="649.019" stroke="#D5DAE1"/>
<line x1="1488.04" y1="673.019" x2="0.0395508" y2="673.019" stroke="#D5DAE1"/>
<line x1="1488.04" y1="697.019" x2="0.0395508" y2="697.019" stroke="#D5DAE1"/>
<line x1="48.5396" y1="0.518555" x2="48.5395" y2="720.519" stroke="#D5DAE1"/>
<line x1="48.5396" y1="0.518555" x2="48.5395" y2="720.519" stroke="#D5DAE1"/>
<line x1="72.5396" y1="0.518555" x2="72.5395" y2="720.519" stroke="#D5DAE1"/>
<line x1="96.5396" y1="0.518555" x2="96.5395" y2="720.519" stroke="#D5DAE1"/>
<line x1="120.54" y1="0.518555" x2="120.54" y2="720.519" stroke="#D5DAE1"/>
<line x1="144.54" y1="0.518555" x2="144.54" y2="720.519" stroke="#D5DAE1"/>
<line x1="168.54" y1="0.518555" x2="168.54" y2="720.519" stroke="#D5DAE1"/>
<line x1="192.54" y1="0.518555" x2="192.54" y2="720.519" stroke="#D5DAE1"/>
<line x1="216.54" y1="0.518555" x2="216.54" y2="720.519" stroke="#D5DAE1"/>
<line x1="240.54" y1="0.518555" x2="240.54" y2="720.519" stroke="#D5DAE1"/>
<line x1="264.54" y1="0.518555" x2="264.54" y2="720.519" stroke="#D5DAE1"/>
<line x1="288.54" y1="0.518555" x2="288.54" y2="720.519" stroke="#D5DAE1"/>
<line x1="312.54" y1="0.518555" x2="312.54" y2="720.519" stroke="#D5DAE1"/>
<line x1="336.54" y1="0.518555" x2="336.54" y2="720.519" stroke="#D5DAE1"/>
<line x1="360.54" y1="0.518555" x2="360.54" y2="720.519" stroke="#D5DAE1"/>
<line x1="384.54" y1="0.518555" x2="384.54" y2="720.519" stroke="#D5DAE1"/>
<line x1="408.54" y1="0.518555" x2="408.54" y2="720.519" stroke="#D5DAE1"/>
<line x1="432.54" y1="0.518555" x2="432.54" y2="720.519" stroke="#D5DAE1"/>
<line x1="456.54" y1="0.518555" x2="456.54" y2="720.519" stroke="#D5DAE1"/>
<line x1="480.54" y1="0.518555" x2="480.54" y2="720.519" stroke="#D5DAE1"/>
<line x1="504.54" y1="0.518555" x2="504.54" y2="720.519" stroke="#D5DAE1"/>
<line x1="528.54" y1="0.518555" x2="528.539" y2="720.519" stroke="#D5DAE1"/>
<line x1="552.54" y1="0.518555" x2="552.539" y2="720.519" stroke="#D5DAE1"/>
<line x1="576.54" y1="0.518555" x2="576.539" y2="720.519" stroke="#D5DAE1"/>
<line x1="600.54" y1="0.518555" x2="600.539" y2="720.519" stroke="#D5DAE1"/>
<line x1="624.54" y1="0.518555" x2="624.539" y2="720.519" stroke="#D5DAE1"/>
<line x1="648.54" y1="0.518555" x2="648.539" y2="720.519" stroke="#D5DAE1"/>
<line x1="672.54" y1="0.518555" x2="672.539" y2="720.519" stroke="#D5DAE1"/>
<line x1="696.54" y1="0.518555" x2="696.539" y2="720.519" stroke="#D5DAE1"/>
<line x1="720.54" y1="0.518555" x2="720.539" y2="720.519" stroke="#D5DAE1"/>
<line x1="744.54" y1="0.518555" x2="744.539" y2="720.519" stroke="#D5DAE1"/>
<line x1="768.54" y1="0.518555" x2="768.539" y2="720.519" stroke="#D5DAE1"/>
<line x1="792.54" y1="0.518555" x2="792.539" y2="720.519" stroke="#D5DAE1"/>
<line x1="816.54" y1="0.518555" x2="816.539" y2="720.519" stroke="#D5DAE1"/>
<line x1="840.54" y1="0.518555" x2="840.539" y2="720.519" stroke="#D5DAE1"/>
<line x1="864.54" y1="0.518555" x2="864.539" y2="720.519" stroke="#D5DAE1"/>
<line x1="888.54" y1="0.518555" x2="888.539" y2="720.519" stroke="#D5DAE1"/>
<line x1="912.54" y1="0.518555" x2="912.539" y2="720.519" stroke="#D5DAE1"/>
<line x1="936.54" y1="0.518555" x2="936.539" y2="720.519" stroke="#D5DAE1"/>
<line x1="960.54" y1="0.518555" x2="960.539" y2="720.519" stroke="#D5DAE1"/>
<line x1="984.54" y1="0.518555" x2="984.539" y2="720.519" stroke="#D5DAE1"/>
<line x1="1008.54" y1="0.518555" x2="1008.54" y2="720.519" stroke="#D5DAE1"/>
<line x1="1032.54" y1="0.518555" x2="1032.54" y2="720.519" stroke="#D5DAE1"/>
<line x1="1056.54" y1="0.518555" x2="1056.54" y2="720.519" stroke="#D5DAE1"/>
<line x1="1080.54" y1="0.518555" x2="1080.54" y2="720.519" stroke="#D5DAE1"/>
<line x1="1104.54" y1="0.518555" x2="1104.54" y2="720.519" stroke="#D5DAE1"/>
<line x1="1128.54" y1="0.518555" x2="1128.54" y2="720.519" stroke="#D5DAE1"/>
<line x1="1152.54" y1="0.518555" x2="1152.54" y2="720.519" stroke="#D5DAE1"/>
<line x1="1176.54" y1="0.518555" x2="1176.54" y2="720.519" stroke="#D5DAE1"/>
<line x1="1200.54" y1="0.518555" x2="1200.54" y2="720.519" stroke="#D5DAE1"/>
<line x1="1224.54" y1="0.518555" x2="1224.54" y2="720.519" stroke="#D5DAE1"/>
<line x1="1248.54" y1="0.518555" x2="1248.54" y2="720.519" stroke="#D5DAE1"/>
<line x1="1272.54" y1="0.518555" x2="1272.54" y2="720.519" stroke="#D5DAE1"/>
<line x1="1296.54" y1="0.518555" x2="1296.54" y2="720.519" stroke="#D5DAE1"/>
<line x1="1320.54" y1="0.518555" x2="1320.54" y2="720.519" stroke="#D5DAE1"/>
<line x1="1344.54" y1="0.518555" x2="1344.54" y2="720.519" stroke="#D5DAE1"/>
<line x1="1368.54" y1="0.518555" x2="1368.54" y2="720.519" stroke="#D5DAE1"/>
<line x1="1392.54" y1="0.518555" x2="1392.54" y2="720.519" stroke="#D5DAE1"/>
<line x1="1416.54" y1="0.518555" x2="1416.54" y2="720.519" stroke="#D5DAE1"/>
<line x1="1440.54" y1="0.518555" x2="1440.54" y2="720.519" stroke="#D5DAE1"/>
<line x1="1464.54" y1="0.518555" x2="1464.54" y2="720.519" stroke="#D5DAE1"/>
</g>
</svg>
