<svg width="306" height="38" viewBox="0 0 306 38" fill="none" xmlns="http://www.w3.org/2000/svg">
<path d="M12.1611 13.1294L0.898926 1.86716V27.6764L12.1611 38V13.1294Z" fill="#F15A29"/>
<path d="M35.624 11.2722L24.3618 0.0100098V27.1974L35.624 37.5211V11.2722Z" fill="#39B54A"/>
<path d="M24.3618 27.1972V-3.05176e-05L12.1611 13.1392V37.9902L24.3618 27.1972Z" fill="#BE1E2D"/>
<path d="M35.6245 37.3962V21.4414L47.356 24.5618L35.6245 37.3962Z" fill="#006036"/>
<path d="M56.5899 26.5C56.4366 26.5 56.3063 26.454 56.1989 26.362C56.1069 26.27 56.0609 26.1473 56.0609 25.994V10.929C56.0609 10.7603 56.1069 10.63 56.1989 10.538C56.3063 10.446 56.4366 10.4 56.5899 10.4H57.1649C57.3949 10.4 57.5559 10.4997 57.6479 10.699L62.8689 20.865L68.1129 10.699C68.2203 10.4997 68.3813 10.4 68.5959 10.4H69.1479C69.3166 10.4 69.4469 10.446 69.5389 10.538C69.6309 10.63 69.6769 10.7603 69.6769 10.929V25.994C69.6769 26.1473 69.6233 26.27 69.5159 26.362C69.4239 26.454 69.3013 26.5 69.1479 26.5H68.7339C68.5806 26.5 68.4579 26.454 68.3659 26.362C68.2739 26.27 68.2279 26.1473 68.2279 25.994V13.528L63.8349 22.176C63.6969 22.4827 63.4593 22.636 63.1219 22.636H62.6159C62.2786 22.636 62.0409 22.4827 61.9029 22.176L57.5099 13.528V25.994C57.5099 26.1473 57.4639 26.27 57.3719 26.362C57.2799 26.454 57.1573 26.5 57.0039 26.5H56.5899ZM76.2382 26.73C75.5022 26.73 74.8199 26.5767 74.1912 26.27C73.5625 25.9633 73.0565 25.5493 72.6732 25.028C72.3052 24.5067 72.1212 23.9317 72.1212 23.303C72.1212 22.291 72.5275 21.463 73.3402 20.819C74.1682 20.175 75.2799 19.761 76.6752 19.577L80.3092 19.071V18.266C80.3092 17.4227 80.0485 16.7787 79.5272 16.334C79.0212 15.874 78.2392 15.644 77.1812 15.644C76.3992 15.644 75.7552 15.7973 75.2492 16.104C74.7585 16.4107 74.4442 16.7787 74.3062 17.208C74.2449 17.392 74.1682 17.5223 74.0762 17.599C73.9995 17.6603 73.8922 17.691 73.7542 17.691H73.4322C73.2942 17.691 73.1715 17.645 73.0642 17.553C72.9722 17.4457 72.9262 17.323 72.9262 17.185C72.9262 16.8477 73.0795 16.4567 73.3862 16.012C73.6929 15.552 74.1682 15.1533 74.8122 14.816C75.4562 14.4787 76.2459 14.31 77.1812 14.31C78.8219 14.31 79.9872 14.701 80.6772 15.483C81.3672 16.265 81.7122 17.2157 81.7122 18.335V25.994C81.7122 26.1473 81.6662 26.27 81.5742 26.362C81.4822 26.454 81.3595 26.5 81.2062 26.5H80.8152C80.6619 26.5 80.5392 26.454 80.4472 26.362C80.3552 26.27 80.3092 26.1473 80.3092 25.994V24.913C79.9719 25.419 79.4735 25.8483 78.8142 26.201C78.1702 26.5537 77.3115 26.73 76.2382 26.73ZM76.4682 25.396C77.5875 25.396 78.5075 25.028 79.2282 24.292C79.9489 23.556 80.3092 22.498 80.3092 21.118V20.336L77.3422 20.75C76.0849 20.9187 75.1342 21.21 74.4902 21.624C73.8462 22.038 73.5242 22.5593 73.5242 23.188C73.5242 23.8933 73.8155 24.4377 74.3982 24.821C74.9962 25.2043 75.6862 25.396 76.4682 25.396ZM85.1883 30.87C85.0349 30.87 84.9123 30.824 84.8203 30.732C84.7283 30.64 84.6823 30.5173 84.6823 30.364V15.046C84.6823 14.8927 84.7283 14.77 84.8203 14.678C84.9123 14.586 85.0349 14.54 85.1883 14.54H85.5793C85.7326 14.54 85.8553 14.586 85.9473 14.678C86.0393 14.77 86.0853 14.8927 86.0853 15.046V16.127C86.9746 14.9157 88.2626 14.31 89.9493 14.31C91.6053 14.31 92.8243 14.839 93.6063 15.897C94.4036 16.9397 94.8253 18.2277 94.8713 19.761C94.8866 19.9143 94.8943 20.1673 94.8943 20.52C94.8943 20.8727 94.8866 21.1257 94.8713 21.279C94.8253 22.8123 94.4036 24.108 93.6063 25.166C92.8243 26.2087 91.6053 26.73 89.9493 26.73C88.2779 26.73 86.9899 26.1243 86.0853 24.913V30.364C86.0853 30.5173 86.0393 30.64 85.9473 30.732C85.8553 30.824 85.7326 30.87 85.5793 30.87H85.1883ZM89.8113 25.396C91.0533 25.396 91.9579 25.005 92.5253 24.223C93.1079 23.4257 93.4223 22.406 93.4683 21.164C93.4836 21.0107 93.4913 20.796 93.4913 20.52C93.4913 19.094 93.2153 17.9287 92.6633 17.024C92.1113 16.104 91.1606 15.644 89.8113 15.644C88.5999 15.644 87.6876 16.0503 87.0743 16.863C86.4609 17.6603 86.1313 18.6033 86.0853 19.692L86.0623 20.589L86.0853 21.486C86.1006 22.1453 86.2463 22.774 86.5223 23.372C86.7983 23.9547 87.2123 24.4377 87.7643 24.821C88.3163 25.2043 88.9986 25.396 89.8113 25.396ZM97.8625 26.5C97.7092 26.5 97.5865 26.454 97.4945 26.362C97.4025 26.27 97.3565 26.1473 97.3565 25.994V10.676C97.3565 10.5227 97.4025 10.4 97.4945 10.308C97.5865 10.216 97.7092 10.17 97.8625 10.17H98.2535C98.4069 10.17 98.5295 10.216 98.6215 10.308C98.7135 10.4 98.7595 10.5227 98.7595 10.676V25.994C98.7595 26.1473 98.7135 26.27 98.6215 26.362C98.5295 26.454 98.4069 26.5 98.2535 26.5H97.8625ZM106.249 26.73C104.792 26.73 103.619 26.2547 102.73 25.304C101.84 24.338 101.334 23.05 101.212 21.44L101.189 20.52L101.212 19.6C101.334 18.0053 101.833 16.725 102.707 15.759C103.596 14.793 104.777 14.31 106.249 14.31C107.843 14.31 109.085 14.839 109.975 15.897C110.879 16.955 111.332 18.404 111.332 20.244V20.589C111.332 20.7423 111.278 20.865 111.171 20.957C111.079 21.049 110.956 21.095 110.803 21.095H102.615V21.325C102.645 22.0457 102.806 22.7203 103.098 23.349C103.404 23.9623 103.826 24.4607 104.363 24.844C104.899 25.212 105.528 25.396 106.249 25.396C107.092 25.396 107.774 25.235 108.296 24.913C108.832 24.5757 109.216 24.2383 109.446 23.901C109.584 23.717 109.683 23.602 109.745 23.556C109.821 23.51 109.952 23.487 110.136 23.487H110.504C110.642 23.487 110.757 23.5253 110.849 23.602C110.941 23.6787 110.987 23.7783 110.987 23.901C110.987 24.223 110.78 24.614 110.366 25.074C109.967 25.5187 109.407 25.9097 108.687 26.247C107.966 26.569 107.153 26.73 106.249 26.73ZM109.929 19.807V19.715C109.929 18.5343 109.591 17.5607 108.917 16.794C108.257 16.0273 107.368 15.644 106.249 15.644C105.129 15.644 104.24 16.0273 103.581 16.794C102.937 17.5607 102.615 18.5343 102.615 19.715V19.807H109.929ZM114.48 26.5C114.327 26.5 114.204 26.454 114.112 26.362C114.02 26.27 113.974 26.1473 113.974 25.994V10.906C113.974 10.7527 114.02 10.63 114.112 10.538C114.204 10.446 114.327 10.4 114.48 10.4H114.917C115.071 10.4 115.193 10.446 115.285 10.538C115.377 10.63 115.423 10.7527 115.423 10.906V25.12H123.358C123.527 25.12 123.657 25.166 123.749 25.258C123.841 25.35 123.887 25.4803 123.887 25.649V25.994C123.887 26.1473 123.834 26.27 123.726 26.362C123.634 26.454 123.512 26.5 123.358 26.5H114.48ZM128.806 26.73C128.07 26.73 127.387 26.5767 126.759 26.27C126.13 25.9633 125.624 25.5493 125.241 25.028C124.873 24.5067 124.689 23.9317 124.689 23.303C124.689 22.291 125.095 21.463 125.908 20.819C126.736 20.175 127.847 19.761 129.243 19.577L132.877 19.071V18.266C132.877 17.4227 132.616 16.7787 132.095 16.334C131.589 15.874 130.807 15.644 129.749 15.644C128.967 15.644 128.323 15.7973 127.817 16.104C127.326 16.4107 127.012 16.7787 126.874 17.208C126.812 17.392 126.736 17.5223 126.644 17.599C126.567 17.6603 126.46 17.691 126.322 17.691H126C125.862 17.691 125.739 17.645 125.632 17.553C125.54 17.4457 125.494 17.323 125.494 17.185C125.494 16.8477 125.647 16.4567 125.954 16.012C126.26 15.552 126.736 15.1533 127.38 14.816C128.024 14.4787 128.813 14.31 129.749 14.31C131.389 14.31 132.555 14.701 133.245 15.483C133.935 16.265 134.28 17.2157 134.28 18.335V25.994C134.28 26.1473 134.234 26.27 134.142 26.362C134.05 26.454 133.927 26.5 133.774 26.5H133.383C133.229 26.5 133.107 26.454 133.015 26.362C132.923 26.27 132.877 26.1473 132.877 25.994V24.913C132.539 25.419 132.041 25.8483 131.382 26.201C130.738 26.5537 129.879 26.73 128.806 26.73ZM129.036 25.396C130.155 25.396 131.075 25.028 131.796 24.292C132.516 23.556 132.877 22.498 132.877 21.118V20.336L129.91 20.75C128.652 20.9187 127.702 21.21 127.058 21.624C126.414 22.038 126.092 22.5593 126.092 23.188C126.092 23.8933 126.383 24.4377 126.966 24.821C127.564 25.2043 128.254 25.396 129.036 25.396ZM142.517 26.73C140.83 26.73 139.542 26.1243 138.653 24.913V25.994C138.653 26.1473 138.607 26.27 138.515 26.362C138.423 26.454 138.3 26.5 138.147 26.5H137.756C137.603 26.5 137.48 26.454 137.388 26.362C137.296 26.27 137.25 26.1473 137.25 25.994V10.676C137.25 10.5227 137.296 10.4 137.388 10.308C137.48 10.216 137.603 10.17 137.756 10.17H138.147C138.3 10.17 138.423 10.216 138.515 10.308C138.607 10.4 138.653 10.5227 138.653 10.676V16.127C139.558 14.9157 140.846 14.31 142.517 14.31C144.173 14.31 145.392 14.8543 146.174 15.943C146.971 17.0163 147.393 18.3273 147.439 19.876C147.454 20.0293 147.462 20.244 147.462 20.52C147.462 20.796 147.454 21.0107 147.439 21.164C147.393 22.7127 146.971 24.0313 146.174 25.12C145.392 26.1933 144.173 26.73 142.517 26.73ZM142.379 25.396C143.621 25.396 144.526 25.005 145.093 24.223C145.676 23.4257 145.99 22.406 146.036 21.164C146.051 21.0107 146.059 20.796 146.059 20.52C146.059 19.094 145.783 17.9287 145.231 17.024C144.679 16.104 143.728 15.644 142.379 15.644C141.566 15.644 140.884 15.8357 140.332 16.219C139.78 16.6023 139.366 17.093 139.09 17.691C138.814 18.2737 138.668 18.8947 138.653 19.554L138.63 20.451L138.653 21.348C138.699 22.4367 139.029 23.3873 139.642 24.2C140.255 24.9973 141.168 25.396 142.379 25.396ZM153.674 26.73C152.677 26.73 151.834 26.5613 151.144 26.224C150.469 25.8867 149.955 25.5033 149.603 25.074C149.265 24.6447 149.097 24.2997 149.097 24.039C149.097 23.901 149.15 23.7937 149.258 23.717C149.365 23.625 149.48 23.579 149.603 23.579H149.948C150.055 23.579 150.139 23.602 150.201 23.648C150.277 23.6787 150.362 23.7553 150.454 23.878C150.791 24.3533 151.197 24.729 151.673 25.005C152.163 25.2657 152.83 25.396 153.674 25.396C154.624 25.396 155.391 25.2197 155.974 24.867C156.556 24.499 156.848 23.9777 156.848 23.303C156.848 22.889 156.725 22.5517 156.48 22.291C156.25 22.0303 155.866 21.808 155.33 21.624C154.808 21.4247 154.026 21.2023 152.984 20.957C151.619 20.6503 150.684 20.2287 150.178 19.692C149.687 19.1553 149.442 18.473 149.442 17.645C149.442 17.0777 149.595 16.541 149.902 16.035C150.224 15.529 150.691 15.115 151.305 14.793C151.933 14.471 152.685 14.31 153.559 14.31C154.479 14.31 155.253 14.471 155.882 14.793C156.526 15.0997 157.001 15.46 157.308 15.874C157.63 16.288 157.791 16.6253 157.791 16.886C157.791 17.024 157.737 17.139 157.63 17.231C157.538 17.3077 157.423 17.346 157.285 17.346H156.94C156.725 17.346 156.556 17.2463 156.434 17.047C156.127 16.587 155.774 16.242 155.376 16.012C154.992 15.7667 154.387 15.644 153.559 15.644C152.669 15.644 151.995 15.828 151.535 16.196C151.075 16.564 150.845 17.047 150.845 17.645C150.845 18.013 150.937 18.3197 151.121 18.565C151.305 18.8103 151.65 19.0403 152.156 19.255C152.662 19.4543 153.398 19.6613 154.364 19.876C155.79 20.198 156.794 20.6273 157.377 21.164C157.959 21.7007 158.251 22.4137 158.251 23.303C158.251 23.9317 158.074 24.5067 157.722 25.028C157.369 25.5493 156.848 25.9633 156.158 26.27C155.468 26.5767 154.64 26.73 153.674 26.73Z" fill="#040303"/>
<path d="M191.512 26.73C187.571 26.73 185.547 24.614 185.44 20.382C185.425 19.922 185.417 19.278 185.417 18.45C185.417 17.622 185.425 16.978 185.44 16.518C185.501 14.4327 186.069 12.8533 187.142 11.78C188.215 10.7067 189.672 10.17 191.512 10.17C193.352 10.17 194.809 10.7067 195.882 11.78C196.955 12.8533 197.523 14.4327 197.584 16.518C197.615 17.438 197.63 18.082 197.63 18.45C197.63 18.818 197.615 19.462 197.584 20.382C197.477 24.614 195.453 26.73 191.512 26.73ZM191.512 25.35C192.892 25.35 193.988 24.936 194.801 24.108C195.629 23.2647 196.074 21.9843 196.135 20.267C196.166 19.347 196.181 18.7413 196.181 18.45C196.181 18.1587 196.166 17.553 196.135 16.633C196.074 14.9157 195.629 13.643 194.801 12.815C193.973 11.9717 192.877 11.55 191.512 11.55C190.147 11.55 189.051 11.9717 188.223 12.815C187.395 13.643 186.95 14.9157 186.889 16.633C186.874 17.093 186.866 17.6987 186.866 18.45C186.866 19.2013 186.874 19.807 186.889 20.267C186.95 21.9843 187.387 23.2647 188.2 24.108C189.028 24.936 190.132 25.35 191.512 25.35ZM200.829 30.87C200.676 30.87 200.553 30.824 200.461 30.732C200.369 30.64 200.323 30.5173 200.323 30.364V15.046C200.323 14.8927 200.369 14.77 200.461 14.678C200.553 14.586 200.676 14.54 200.829 14.54H201.22C201.374 14.54 201.496 14.586 201.588 14.678C201.68 14.77 201.726 14.8927 201.726 15.046V16.127C202.616 14.9157 203.904 14.31 205.59 14.31C207.246 14.31 208.465 14.839 209.247 15.897C210.045 16.9397 210.466 18.2277 210.512 19.761C210.528 19.9143 210.535 20.1673 210.535 20.52C210.535 20.8727 210.528 21.1257 210.512 21.279C210.466 22.8123 210.045 24.108 209.247 25.166C208.465 26.2087 207.246 26.73 205.59 26.73C203.919 26.73 202.631 26.1243 201.726 24.913V30.364C201.726 30.5173 201.68 30.64 201.588 30.732C201.496 30.824 201.374 30.87 201.22 30.87H200.829ZM205.452 25.396C206.694 25.396 207.599 25.005 208.166 24.223C208.749 23.4257 209.063 22.406 209.109 21.164C209.125 21.0107 209.132 20.796 209.132 20.52C209.132 19.094 208.856 17.9287 208.304 17.024C207.752 16.104 206.802 15.644 205.452 15.644C204.241 15.644 203.329 16.0503 202.715 16.863C202.102 17.6603 201.772 18.6033 201.726 19.692L201.703 20.589L201.726 21.486C201.742 22.1453 201.887 22.774 202.163 23.372C202.439 23.9547 202.853 24.4377 203.405 24.821C203.957 25.2043 204.64 25.396 205.452 25.396ZM217.414 26.73C215.957 26.73 214.784 26.2547 213.895 25.304C213.005 24.338 212.499 23.05 212.377 21.44L212.354 20.52L212.377 19.6C212.499 18.0053 212.998 16.725 213.872 15.759C214.761 14.793 215.942 14.31 217.414 14.31C219.008 14.31 220.25 14.839 221.14 15.897C222.044 16.955 222.497 18.404 222.497 20.244V20.589C222.497 20.7423 222.443 20.865 222.336 20.957C222.244 21.049 222.121 21.095 221.968 21.095H213.78V21.325C213.81 22.0457 213.971 22.7203 214.263 23.349C214.569 23.9623 214.991 24.4607 215.528 24.844C216.064 25.212 216.693 25.396 217.414 25.396C218.257 25.396 218.939 25.235 219.461 24.913C219.997 24.5757 220.381 24.2383 220.611 23.901C220.749 23.717 220.848 23.602 220.91 23.556C220.986 23.51 221.117 23.487 221.301 23.487H221.669C221.807 23.487 221.922 23.5253 222.014 23.602C222.106 23.6787 222.152 23.7783 222.152 23.901C222.152 24.223 221.945 24.614 221.531 25.074C221.132 25.5187 220.572 25.9097 219.852 26.247C219.131 26.569 218.318 26.73 217.414 26.73ZM221.094 19.807V19.715C221.094 18.5343 220.756 17.5607 220.082 16.794C219.422 16.0273 218.533 15.644 217.414 15.644C216.294 15.644 215.405 16.0273 214.746 16.794C214.102 17.5607 213.78 18.5343 213.78 19.715V19.807H221.094ZM225.346 26.5C225.193 26.5 225.07 26.454 224.978 26.362C224.886 26.27 224.84 26.1473 224.84 25.994V15.046C224.84 14.8927 224.886 14.77 224.978 14.678C225.07 14.586 225.193 14.54 225.346 14.54H225.737C225.891 14.54 226.013 14.586 226.105 14.678C226.197 14.77 226.243 14.8927 226.243 15.046V16.127C226.703 15.529 227.225 15.0767 227.807 14.77C228.405 14.4633 229.172 14.31 230.107 14.31C231.61 14.31 232.768 14.793 233.58 15.759C234.393 16.7097 234.799 17.944 234.799 19.462V25.994C234.799 26.1473 234.753 26.27 234.661 26.362C234.569 26.454 234.447 26.5 234.293 26.5H233.902C233.749 26.5 233.626 26.454 233.534 26.362C233.442 26.27 233.396 26.1473 233.396 25.994V19.577C233.396 18.335 233.09 17.369 232.476 16.679C231.878 15.989 231.012 15.644 229.877 15.644C228.773 15.644 227.892 15.9967 227.232 16.702C226.573 17.392 226.243 18.3503 226.243 19.577V25.994C226.243 26.1473 226.197 26.27 226.105 26.362C226.013 26.454 225.891 26.5 225.737 26.5H225.346ZM242.846 26.73C241.65 26.73 240.607 26.5383 239.718 26.155C238.844 25.7563 238.169 25.2427 237.694 24.614C237.234 23.9853 236.988 23.3107 236.958 22.59C236.958 22.4673 237.004 22.36 237.096 22.268C237.188 22.176 237.303 22.13 237.441 22.13H237.901C238.177 22.13 238.345 22.2833 238.407 22.59C238.514 23.326 238.936 23.97 239.672 24.522C240.408 25.074 241.466 25.35 242.846 25.35C244.302 25.35 245.383 25.0893 246.089 24.568C246.809 24.0313 247.17 23.2877 247.17 22.337C247.17 21.7543 246.993 21.279 246.641 20.911C246.303 20.5277 245.805 20.198 245.146 19.922C244.486 19.6307 243.49 19.2703 242.156 18.841C240.975 18.4577 240.047 18.082 239.373 17.714C238.713 17.346 238.223 16.8937 237.901 16.357C237.579 15.8203 237.418 15.138 237.418 14.31C237.418 13.528 237.625 12.8227 238.039 12.194C238.468 11.5653 239.081 11.0747 239.879 10.722C240.676 10.354 241.627 10.17 242.731 10.17C243.865 10.17 244.839 10.377 245.652 10.791C246.464 11.1897 247.078 11.7033 247.492 12.332C247.906 12.9453 248.128 13.5663 248.159 14.195C248.159 14.3177 248.113 14.425 248.021 14.517C247.944 14.609 247.829 14.655 247.676 14.655H247.216C247.108 14.655 247.001 14.6243 246.894 14.563C246.786 14.4863 246.725 14.3637 246.71 14.195C246.618 13.4283 246.204 12.7997 245.468 12.309C244.747 11.803 243.835 11.55 242.731 11.55C241.55 11.55 240.607 11.78 239.902 12.24C239.212 12.7 238.867 13.39 238.867 14.31C238.867 14.908 239.02 15.4063 239.327 15.805C239.649 16.1883 240.124 16.5257 240.753 16.817C241.381 17.093 242.309 17.4303 243.536 17.829C244.793 18.2277 245.774 18.611 246.48 18.979C247.185 19.347 247.714 19.7917 248.067 20.313C248.435 20.8343 248.619 21.509 248.619 22.337C248.619 23.717 248.105 24.798 247.078 25.58C246.05 26.3467 244.64 26.73 242.846 26.73ZM255.507 26.73C253.912 26.73 252.67 26.247 251.781 25.281C250.907 24.2997 250.447 23.0347 250.401 21.486L250.378 20.52L250.401 19.554C250.447 18.0053 250.907 16.748 251.781 15.782C252.67 14.8007 253.912 14.31 255.507 14.31C257.101 14.31 258.336 14.8007 259.21 15.782C260.099 16.748 260.567 18.0053 260.613 19.554C260.628 19.7073 260.636 20.0293 260.636 20.52C260.636 21.0107 260.628 21.3327 260.613 21.486C260.567 23.0347 260.099 24.2997 259.21 25.281C258.336 26.247 257.101 26.73 255.507 26.73ZM255.507 25.396C256.595 25.396 257.469 25.051 258.129 24.361C258.803 23.6557 259.164 22.659 259.21 21.371C259.225 21.2177 259.233 20.934 259.233 20.52C259.233 20.106 259.225 19.8223 259.21 19.669C259.164 18.381 258.803 17.392 258.129 16.702C257.469 15.9967 256.595 15.644 255.507 15.644C254.418 15.644 253.536 15.9967 252.862 16.702C252.202 17.392 251.85 18.381 251.804 19.669L251.781 20.52L251.804 21.371C251.85 22.659 252.202 23.6557 252.862 24.361C253.536 25.051 254.418 25.396 255.507 25.396ZM267.573 26.73C266.07 26.73 264.928 26.2547 264.146 25.304C263.364 24.3533 262.973 23.1113 262.973 21.578V15.046C262.973 14.8927 263.019 14.77 263.111 14.678C263.203 14.586 263.325 14.54 263.479 14.54H263.87C264.023 14.54 264.146 14.586 264.238 14.678C264.33 14.77 264.376 14.8927 264.376 15.046V21.463C264.376 24.085 265.518 25.396 267.803 25.396C268.907 25.396 269.781 25.051 270.425 24.361C271.084 23.6557 271.414 22.6897 271.414 21.463V15.046C271.414 14.8927 271.46 14.77 271.552 14.678C271.644 14.586 271.766 14.54 271.92 14.54H272.311C272.464 14.54 272.587 14.586 272.679 14.678C272.771 14.77 272.817 14.8927 272.817 15.046V25.994C272.817 26.1473 272.771 26.27 272.679 26.362C272.587 26.454 272.464 26.5 272.311 26.5H271.92C271.766 26.5 271.644 26.454 271.552 26.362C271.46 26.27 271.414 26.1473 271.414 25.994V24.913C270.954 25.511 270.425 25.9633 269.827 26.27C269.244 26.5767 268.493 26.73 267.573 26.73ZM276.358 26.5C276.205 26.5 276.082 26.454 275.99 26.362C275.898 26.27 275.852 26.1473 275.852 25.994V15.069C275.852 14.9157 275.898 14.793 275.99 14.701C276.082 14.5937 276.205 14.54 276.358 14.54H276.726C276.879 14.54 277.002 14.5937 277.094 14.701C277.201 14.793 277.255 14.9157 277.255 15.069V16.127C277.807 15.069 278.85 14.54 280.383 14.54H281.234C281.387 14.54 281.51 14.586 281.602 14.678C281.694 14.77 281.74 14.8927 281.74 15.046V15.368C281.74 15.5213 281.694 15.644 281.602 15.736C281.51 15.828 281.387 15.874 281.234 15.874H280.245C279.325 15.874 278.597 16.1423 278.06 16.679C277.523 17.2157 277.255 17.944 277.255 18.864V25.994C277.255 26.1473 277.201 26.27 277.094 26.362C277.002 26.454 276.879 26.5 276.726 26.5H276.358ZM287.419 26.73C285.825 26.73 284.59 26.27 283.716 25.35C282.842 24.4147 282.382 23.1113 282.336 21.44L282.313 20.52L282.336 19.6C282.382 17.9287 282.842 16.633 283.716 15.713C284.59 14.7777 285.825 14.31 287.419 14.31C288.431 14.31 289.29 14.494 289.995 14.862C290.716 15.2147 291.253 15.6747 291.605 16.242C291.958 16.794 292.15 17.369 292.18 17.967C292.196 18.105 292.15 18.2277 292.042 18.335C291.935 18.427 291.812 18.473 291.674 18.473H291.352C291.199 18.473 291.084 18.4423 291.007 18.381C290.946 18.3043 290.877 18.174 290.8 17.99C290.494 17.1467 290.064 16.5487 289.512 16.196C288.96 15.828 288.263 15.644 287.419 15.644C286.315 15.644 285.434 15.9813 284.774 16.656C284.13 17.3153 283.785 18.335 283.739 19.715L283.716 20.52L283.739 21.325C283.785 22.705 284.13 23.7323 284.774 24.407C285.434 25.0663 286.315 25.396 287.419 25.396C288.263 25.396 288.96 25.2197 289.512 24.867C290.064 24.499 290.494 23.8933 290.8 23.05C290.877 22.866 290.946 22.7433 291.007 22.682C291.084 22.6053 291.199 22.567 291.352 22.567H291.674C291.812 22.567 291.935 22.6207 292.042 22.728C292.15 22.82 292.196 22.935 292.18 23.073C292.15 23.671 291.958 24.2537 291.605 24.821C291.253 25.373 290.716 25.833 289.995 26.201C289.29 26.5537 288.431 26.73 287.419 26.73ZM298.968 26.73C297.512 26.73 296.339 26.2547 295.449 25.304C294.56 24.338 294.054 23.05 293.931 21.44L293.908 20.52L293.931 19.6C294.054 18.0053 294.552 16.725 295.426 15.759C296.316 14.793 297.496 14.31 298.968 14.31C300.563 14.31 301.805 14.839 302.694 15.897C303.599 16.955 304.051 18.404 304.051 20.244V20.589C304.051 20.7423 303.998 20.865 303.89 20.957C303.798 21.049 303.676 21.095 303.522 21.095H295.334V21.325C295.365 22.0457 295.526 22.7203 295.817 23.349C296.124 23.9623 296.546 24.4607 297.082 24.844C297.619 25.212 298.248 25.396 298.968 25.396C299.812 25.396 300.494 25.235 301.015 24.913C301.552 24.5757 301.935 24.2383 302.165 23.901C302.303 23.717 302.403 23.602 302.464 23.556C302.541 23.51 302.671 23.487 302.855 23.487H303.223C303.361 23.487 303.476 23.5253 303.568 23.602C303.66 23.6787 303.706 23.7783 303.706 23.901C303.706 24.223 303.499 24.614 303.085 25.074C302.687 25.5187 302.127 25.9097 301.406 26.247C300.686 26.569 299.873 26.73 298.968 26.73ZM302.648 19.807V19.715C302.648 18.5343 302.311 17.5607 301.636 16.794C300.977 16.0273 300.088 15.644 298.968 15.644C297.849 15.644 296.96 16.0273 296.3 16.794C295.656 17.5607 295.334 18.5343 295.334 19.715V19.807H302.648Z" fill="#040303"/>
<line opacity="0.6" x1="172.399" y1="8.77585" x2="172.399" y2="29.2242" stroke="#040303"/>
</svg>
