<svg width="306" height="39" viewBox="0 0 306 39" fill="none" xmlns="http://www.w3.org/2000/svg">
<path d="M12.1611 13.6821L0.898926 2.41992V28.2291L12.1611 38.5528V13.6821Z" fill="#F15A29"/>
<path d="M35.624 11.8247L24.3618 0.5625V27.7499L35.624 38.0736V11.8247Z" fill="#39B54A"/>
<path d="M24.3618 27.75V0.552734L12.1611 13.692V38.5429L24.3618 27.75Z" fill="#BE1E2D"/>
<path d="M35.6245 37.9489V21.9941L47.356 25.1145L35.6245 37.9489Z" fill="#006036"/>
<path d="M56.5899 27.0527C56.4366 27.0527 56.3063 27.0067 56.1989 26.9147C56.1069 26.8227 56.0609 26.7001 56.0609 26.5467V11.4817C56.0609 11.3131 56.1069 11.1827 56.1989 11.0907C56.3063 10.9987 56.4366 10.9527 56.5899 10.9527H57.1649C57.3949 10.9527 57.5559 11.0524 57.6479 11.2517L62.8689 21.4177L68.1129 11.2517C68.2203 11.0524 68.3813 10.9527 68.5959 10.9527H69.1479C69.3166 10.9527 69.4469 10.9987 69.5389 11.0907C69.6309 11.1827 69.6769 11.3131 69.6769 11.4817V26.5467C69.6769 26.7001 69.6233 26.8227 69.5159 26.9147C69.4239 27.0067 69.3013 27.0527 69.1479 27.0527H68.7339C68.5806 27.0527 68.4579 27.0067 68.3659 26.9147C68.2739 26.8227 68.2279 26.7001 68.2279 26.5467V14.0807L63.8349 22.7287C63.6969 23.0354 63.4593 23.1887 63.1219 23.1887H62.6159C62.2786 23.1887 62.0409 23.0354 61.9029 22.7287L57.5099 14.0807V26.5467C57.5099 26.7001 57.4639 26.8227 57.3719 26.9147C57.2799 27.0067 57.1573 27.0527 57.0039 27.0527H56.5899ZM76.2382 27.2827C75.5022 27.2827 74.8199 27.1294 74.1912 26.8227C73.5625 26.5161 73.0565 26.1021 72.6732 25.5807C72.3052 25.0594 72.1212 24.4844 72.1212 23.8557C72.1212 22.8437 72.5275 22.0157 73.3402 21.3717C74.1682 20.7277 75.2799 20.3137 76.6752 20.1297L80.3092 19.6237V18.8187C80.3092 17.9754 80.0485 17.3314 79.5272 16.8867C79.0212 16.4267 78.2392 16.1967 77.1812 16.1967C76.3992 16.1967 75.7552 16.3501 75.2492 16.6567C74.7585 16.9634 74.4442 17.3314 74.3062 17.7607C74.2449 17.9447 74.1682 18.0751 74.0762 18.1517C73.9995 18.2131 73.8922 18.2437 73.7542 18.2437H73.4322C73.2942 18.2437 73.1715 18.1977 73.0642 18.1057C72.9722 17.9984 72.9262 17.8757 72.9262 17.7377C72.9262 17.4004 73.0795 17.0094 73.3862 16.5647C73.6929 16.1047 74.1682 15.7061 74.8122 15.3687C75.4562 15.0314 76.2459 14.8627 77.1812 14.8627C78.8219 14.8627 79.9872 15.2537 80.6772 16.0357C81.3672 16.8177 81.7122 17.7684 81.7122 18.8877V26.5467C81.7122 26.7001 81.6662 26.8227 81.5742 26.9147C81.4822 27.0067 81.3595 27.0527 81.2062 27.0527H80.8152C80.6619 27.0527 80.5392 27.0067 80.4472 26.9147C80.3552 26.8227 80.3092 26.7001 80.3092 26.5467V25.4657C79.9719 25.9717 79.4735 26.4011 78.8142 26.7537C78.1702 27.1064 77.3115 27.2827 76.2382 27.2827ZM76.4682 25.9487C77.5875 25.9487 78.5075 25.5807 79.2282 24.8447C79.9489 24.1087 80.3092 23.0507 80.3092 21.6707V20.8887L77.3422 21.3027C76.0849 21.4714 75.1342 21.7627 74.4902 22.1767C73.8462 22.5907 73.5242 23.1121 73.5242 23.7407C73.5242 24.4461 73.8155 24.9904 74.3982 25.3737C74.9962 25.7571 75.6862 25.9487 76.4682 25.9487ZM85.1883 31.4227C85.0349 31.4227 84.9123 31.3767 84.8203 31.2847C84.7283 31.1927 84.6823 31.0701 84.6823 30.9167V15.5987C84.6823 15.4454 84.7283 15.3227 84.8203 15.2307C84.9123 15.1387 85.0349 15.0927 85.1883 15.0927H85.5793C85.7326 15.0927 85.8553 15.1387 85.9473 15.2307C86.0393 15.3227 86.0853 15.4454 86.0853 15.5987V16.6797C86.9746 15.4684 88.2626 14.8627 89.9493 14.8627C91.6053 14.8627 92.8243 15.3917 93.6063 16.4497C94.4036 17.4924 94.8253 18.7804 94.8713 20.3137C94.8866 20.4671 94.8943 20.7201 94.8943 21.0727C94.8943 21.4254 94.8866 21.6784 94.8713 21.8317C94.8253 23.3651 94.4036 24.6607 93.6063 25.7187C92.8243 26.7614 91.6053 27.2827 89.9493 27.2827C88.2779 27.2827 86.9899 26.6771 86.0853 25.4657V30.9167C86.0853 31.0701 86.0393 31.1927 85.9473 31.2847C85.8553 31.3767 85.7326 31.4227 85.5793 31.4227H85.1883ZM89.8113 25.9487C91.0533 25.9487 91.9579 25.5577 92.5253 24.7757C93.1079 23.9784 93.4223 22.9587 93.4683 21.7167C93.4836 21.5634 93.4913 21.3487 93.4913 21.0727C93.4913 19.6467 93.2153 18.4814 92.6633 17.5767C92.1113 16.6567 91.1606 16.1967 89.8113 16.1967C88.5999 16.1967 87.6876 16.6031 87.0743 17.4157C86.4609 18.2131 86.1313 19.1561 86.0853 20.2447L86.0623 21.1417L86.0853 22.0387C86.1006 22.6981 86.2463 23.3267 86.5223 23.9247C86.7983 24.5074 87.2123 24.9904 87.7643 25.3737C88.3163 25.7571 88.9986 25.9487 89.8113 25.9487ZM97.8625 27.0527C97.7092 27.0527 97.5865 27.0067 97.4945 26.9147C97.4025 26.8227 97.3565 26.7001 97.3565 26.5467V11.2287C97.3565 11.0754 97.4025 10.9527 97.4945 10.8607C97.5865 10.7687 97.7092 10.7227 97.8625 10.7227H98.2535C98.4069 10.7227 98.5295 10.7687 98.6215 10.8607C98.7135 10.9527 98.7595 11.0754 98.7595 11.2287V26.5467C98.7595 26.7001 98.7135 26.8227 98.6215 26.9147C98.5295 27.0067 98.4069 27.0527 98.2535 27.0527H97.8625ZM106.249 27.2827C104.792 27.2827 103.619 26.8074 102.73 25.8567C101.84 24.8907 101.334 23.6027 101.212 21.9927L101.189 21.0727L101.212 20.1527C101.334 18.5581 101.833 17.2777 102.707 16.3117C103.596 15.3457 104.777 14.8627 106.249 14.8627C107.843 14.8627 109.085 15.3917 109.975 16.4497C110.879 17.5077 111.332 18.9567 111.332 20.7967V21.1417C111.332 21.2951 111.278 21.4177 111.171 21.5097C111.079 21.6017 110.956 21.6477 110.803 21.6477H102.615V21.8777C102.645 22.5984 102.806 23.2731 103.098 23.9017C103.404 24.5151 103.826 25.0134 104.363 25.3967C104.899 25.7647 105.528 25.9487 106.249 25.9487C107.092 25.9487 107.774 25.7877 108.296 25.4657C108.832 25.1284 109.216 24.7911 109.446 24.4537C109.584 24.2697 109.683 24.1547 109.745 24.1087C109.821 24.0627 109.952 24.0397 110.136 24.0397H110.504C110.642 24.0397 110.757 24.0781 110.849 24.1547C110.941 24.2314 110.987 24.3311 110.987 24.4537C110.987 24.7757 110.78 25.1667 110.366 25.6267C109.967 26.0714 109.407 26.4624 108.687 26.7997C107.966 27.1217 107.153 27.2827 106.249 27.2827ZM109.929 20.3597V20.2677C109.929 19.0871 109.591 18.1134 108.917 17.3467C108.257 16.5801 107.368 16.1967 106.249 16.1967C105.129 16.1967 104.24 16.5801 103.581 17.3467C102.937 18.1134 102.615 19.0871 102.615 20.2677V20.3597H109.929ZM114.48 27.0527C114.327 27.0527 114.204 27.0067 114.112 26.9147C114.02 26.8227 113.974 26.7001 113.974 26.5467V11.4587C113.974 11.3054 114.02 11.1827 114.112 11.0907C114.204 10.9987 114.327 10.9527 114.48 10.9527H114.917C115.071 10.9527 115.193 10.9987 115.285 11.0907C115.377 11.1827 115.423 11.3054 115.423 11.4587V25.6727H123.358C123.527 25.6727 123.657 25.7187 123.749 25.8107C123.841 25.9027 123.887 26.0331 123.887 26.2017V26.5467C123.887 26.7001 123.834 26.8227 123.726 26.9147C123.634 27.0067 123.512 27.0527 123.358 27.0527H114.48ZM128.806 27.2827C128.07 27.2827 127.387 27.1294 126.759 26.8227C126.13 26.5161 125.624 26.1021 125.241 25.5807C124.873 25.0594 124.689 24.4844 124.689 23.8557C124.689 22.8437 125.095 22.0157 125.908 21.3717C126.736 20.7277 127.847 20.3137 129.243 20.1297L132.877 19.6237V18.8187C132.877 17.9754 132.616 17.3314 132.095 16.8867C131.589 16.4267 130.807 16.1967 129.749 16.1967C128.967 16.1967 128.323 16.3501 127.817 16.6567C127.326 16.9634 127.012 17.3314 126.874 17.7607C126.812 17.9447 126.736 18.0751 126.644 18.1517C126.567 18.2131 126.46 18.2437 126.322 18.2437H126C125.862 18.2437 125.739 18.1977 125.632 18.1057C125.54 17.9984 125.494 17.8757 125.494 17.7377C125.494 17.4004 125.647 17.0094 125.954 16.5647C126.26 16.1047 126.736 15.7061 127.38 15.3687C128.024 15.0314 128.813 14.8627 129.749 14.8627C131.389 14.8627 132.555 15.2537 133.245 16.0357C133.935 16.8177 134.28 17.7684 134.28 18.8877V26.5467C134.28 26.7001 134.234 26.8227 134.142 26.9147C134.05 27.0067 133.927 27.0527 133.774 27.0527H133.383C133.229 27.0527 133.107 27.0067 133.015 26.9147C132.923 26.8227 132.877 26.7001 132.877 26.5467V25.4657C132.539 25.9717 132.041 26.4011 131.382 26.7537C130.738 27.1064 129.879 27.2827 128.806 27.2827ZM129.036 25.9487C130.155 25.9487 131.075 25.5807 131.796 24.8447C132.516 24.1087 132.877 23.0507 132.877 21.6707V20.8887L129.91 21.3027C128.652 21.4714 127.702 21.7627 127.058 22.1767C126.414 22.5907 126.092 23.1121 126.092 23.7407C126.092 24.4461 126.383 24.9904 126.966 25.3737C127.564 25.7571 128.254 25.9487 129.036 25.9487ZM142.517 27.2827C140.83 27.2827 139.542 26.6771 138.653 25.4657V26.5467C138.653 26.7001 138.607 26.8227 138.515 26.9147C138.423 27.0067 138.3 27.0527 138.147 27.0527H137.756C137.603 27.0527 137.48 27.0067 137.388 26.9147C137.296 26.8227 137.25 26.7001 137.25 26.5467V11.2287C137.25 11.0754 137.296 10.9527 137.388 10.8607C137.48 10.7687 137.603 10.7227 137.756 10.7227H138.147C138.3 10.7227 138.423 10.7687 138.515 10.8607C138.607 10.9527 138.653 11.0754 138.653 11.2287V16.6797C139.558 15.4684 140.846 14.8627 142.517 14.8627C144.173 14.8627 145.392 15.4071 146.174 16.4957C146.971 17.5691 147.393 18.8801 147.439 20.4287C147.454 20.5821 147.462 20.7967 147.462 21.0727C147.462 21.3487 147.454 21.5634 147.439 21.7167C147.393 23.2654 146.971 24.5841 146.174 25.6727C145.392 26.7461 144.173 27.2827 142.517 27.2827ZM142.379 25.9487C143.621 25.9487 144.526 25.5577 145.093 24.7757C145.676 23.9784 145.99 22.9587 146.036 21.7167C146.051 21.5634 146.059 21.3487 146.059 21.0727C146.059 19.6467 145.783 18.4814 145.231 17.5767C144.679 16.6567 143.728 16.1967 142.379 16.1967C141.566 16.1967 140.884 16.3884 140.332 16.7717C139.78 17.1551 139.366 17.6457 139.09 18.2437C138.814 18.8264 138.668 19.4474 138.653 20.1067L138.63 21.0037L138.653 21.9007C138.699 22.9894 139.029 23.9401 139.642 24.7527C140.255 25.5501 141.168 25.9487 142.379 25.9487ZM153.674 27.2827C152.677 27.2827 151.834 27.1141 151.144 26.7767C150.469 26.4394 149.955 26.0561 149.603 25.6267C149.265 25.1974 149.097 24.8524 149.097 24.5917C149.097 24.4537 149.15 24.3464 149.258 24.2697C149.365 24.1777 149.48 24.1317 149.603 24.1317H149.948C150.055 24.1317 150.139 24.1547 150.201 24.2007C150.277 24.2314 150.362 24.3081 150.454 24.4307C150.791 24.9061 151.197 25.2817 151.673 25.5577C152.163 25.8184 152.83 25.9487 153.674 25.9487C154.624 25.9487 155.391 25.7724 155.974 25.4197C156.556 25.0517 156.848 24.5304 156.848 23.8557C156.848 23.4417 156.725 23.1044 156.48 22.8437C156.25 22.5831 155.866 22.3607 155.33 22.1767C154.808 21.9774 154.026 21.7551 152.984 21.5097C151.619 21.2031 150.684 20.7814 150.178 20.2447C149.687 19.7081 149.442 19.0257 149.442 18.1977C149.442 17.6304 149.595 17.0937 149.902 16.5877C150.224 16.0817 150.691 15.6677 151.305 15.3457C151.933 15.0237 152.685 14.8627 153.559 14.8627C154.479 14.8627 155.253 15.0237 155.882 15.3457C156.526 15.6524 157.001 16.0127 157.308 16.4267C157.63 16.8407 157.791 17.1781 157.791 17.4387C157.791 17.5767 157.737 17.6917 157.63 17.7837C157.538 17.8604 157.423 17.8987 157.285 17.8987H156.94C156.725 17.8987 156.556 17.7991 156.434 17.5997C156.127 17.1397 155.774 16.7947 155.376 16.5647C154.992 16.3194 154.387 16.1967 153.559 16.1967C152.669 16.1967 151.995 16.3807 151.535 16.7487C151.075 17.1167 150.845 17.5997 150.845 18.1977C150.845 18.5657 150.937 18.8724 151.121 19.1177C151.305 19.3631 151.65 19.5931 152.156 19.8077C152.662 20.0071 153.398 20.2141 154.364 20.4287C155.79 20.7507 156.794 21.1801 157.377 21.7167C157.959 22.2534 158.251 22.9664 158.251 23.8557C158.251 24.4844 158.074 25.0594 157.722 25.5807C157.369 26.1021 156.848 26.5161 156.158 26.8227C155.468 27.1294 154.64 27.2827 153.674 27.2827Z" fill="white"/>
<path d="M191.512 27.2827C187.571 27.2827 185.547 25.1667 185.44 20.9347C185.425 20.4747 185.417 19.8307 185.417 19.0027C185.417 18.1747 185.425 17.5307 185.44 17.0707C185.501 14.9854 186.069 13.4061 187.142 12.3327C188.215 11.2594 189.672 10.7227 191.512 10.7227C193.352 10.7227 194.809 11.2594 195.882 12.3327C196.955 13.4061 197.523 14.9854 197.584 17.0707C197.615 17.9907 197.63 18.6347 197.63 19.0027C197.63 19.3707 197.615 20.0147 197.584 20.9347C197.477 25.1667 195.453 27.2827 191.512 27.2827ZM191.512 25.9027C192.892 25.9027 193.988 25.4887 194.801 24.6607C195.629 23.8174 196.074 22.5371 196.135 20.8197C196.166 19.8997 196.181 19.2941 196.181 19.0027C196.181 18.7114 196.166 18.1057 196.135 17.1857C196.074 15.4684 195.629 14.1957 194.801 13.3677C193.973 12.5244 192.877 12.1027 191.512 12.1027C190.147 12.1027 189.051 12.5244 188.223 13.3677C187.395 14.1957 186.95 15.4684 186.889 17.1857C186.874 17.6457 186.866 18.2514 186.866 19.0027C186.866 19.7541 186.874 20.3597 186.889 20.8197C186.95 22.5371 187.387 23.8174 188.2 24.6607C189.028 25.4887 190.132 25.9027 191.512 25.9027ZM200.829 31.4227C200.676 31.4227 200.553 31.3767 200.461 31.2847C200.369 31.1927 200.323 31.0701 200.323 30.9167V15.5987C200.323 15.4454 200.369 15.3227 200.461 15.2307C200.553 15.1387 200.676 15.0927 200.829 15.0927H201.22C201.374 15.0927 201.496 15.1387 201.588 15.2307C201.68 15.3227 201.726 15.4454 201.726 15.5987V16.6797C202.616 15.4684 203.904 14.8627 205.59 14.8627C207.246 14.8627 208.465 15.3917 209.247 16.4497C210.045 17.4924 210.466 18.7804 210.512 20.3137C210.528 20.4671 210.535 20.7201 210.535 21.0727C210.535 21.4254 210.528 21.6784 210.512 21.8317C210.466 23.3651 210.045 24.6607 209.247 25.7187C208.465 26.7614 207.246 27.2827 205.59 27.2827C203.919 27.2827 202.631 26.6771 201.726 25.4657V30.9167C201.726 31.0701 201.68 31.1927 201.588 31.2847C201.496 31.3767 201.374 31.4227 201.22 31.4227H200.829ZM205.452 25.9487C206.694 25.9487 207.599 25.5577 208.166 24.7757C208.749 23.9784 209.063 22.9587 209.109 21.7167C209.125 21.5634 209.132 21.3487 209.132 21.0727C209.132 19.6467 208.856 18.4814 208.304 17.5767C207.752 16.6567 206.802 16.1967 205.452 16.1967C204.241 16.1967 203.329 16.6031 202.715 17.4157C202.102 18.2131 201.772 19.1561 201.726 20.2447L201.703 21.1417L201.726 22.0387C201.742 22.6981 201.887 23.3267 202.163 23.9247C202.439 24.5074 202.853 24.9904 203.405 25.3737C203.957 25.7571 204.64 25.9487 205.452 25.9487ZM217.414 27.2827C215.957 27.2827 214.784 26.8074 213.895 25.8567C213.005 24.8907 212.499 23.6027 212.377 21.9927L212.354 21.0727L212.377 20.1527C212.499 18.5581 212.998 17.2777 213.872 16.3117C214.761 15.3457 215.942 14.8627 217.414 14.8627C219.008 14.8627 220.25 15.3917 221.14 16.4497C222.044 17.5077 222.497 18.9567 222.497 20.7967V21.1417C222.497 21.2951 222.443 21.4177 222.336 21.5097C222.244 21.6017 222.121 21.6477 221.968 21.6477H213.78V21.8777C213.81 22.5984 213.971 23.2731 214.263 23.9017C214.569 24.5151 214.991 25.0134 215.528 25.3967C216.064 25.7647 216.693 25.9487 217.414 25.9487C218.257 25.9487 218.939 25.7877 219.461 25.4657C219.997 25.1284 220.381 24.7911 220.611 24.4537C220.749 24.2697 220.848 24.1547 220.91 24.1087C220.986 24.0627 221.117 24.0397 221.301 24.0397H221.669C221.807 24.0397 221.922 24.0781 222.014 24.1547C222.106 24.2314 222.152 24.3311 222.152 24.4537C222.152 24.7757 221.945 25.1667 221.531 25.6267C221.132 26.0714 220.572 26.4624 219.852 26.7997C219.131 27.1217 218.318 27.2827 217.414 27.2827ZM221.094 20.3597V20.2677C221.094 19.0871 220.756 18.1134 220.082 17.3467C219.422 16.5801 218.533 16.1967 217.414 16.1967C216.294 16.1967 215.405 16.5801 214.746 17.3467C214.102 18.1134 213.78 19.0871 213.78 20.2677V20.3597H221.094ZM225.346 27.0527C225.193 27.0527 225.07 27.0067 224.978 26.9147C224.886 26.8227 224.84 26.7001 224.84 26.5467V15.5987C224.84 15.4454 224.886 15.3227 224.978 15.2307C225.07 15.1387 225.193 15.0927 225.346 15.0927H225.737C225.891 15.0927 226.013 15.1387 226.105 15.2307C226.197 15.3227 226.243 15.4454 226.243 15.5987V16.6797C226.703 16.0817 227.225 15.6294 227.807 15.3227C228.405 15.0161 229.172 14.8627 230.107 14.8627C231.61 14.8627 232.768 15.3457 233.58 16.3117C234.393 17.2624 234.799 18.4967 234.799 20.0147V26.5467C234.799 26.7001 234.753 26.8227 234.661 26.9147C234.569 27.0067 234.447 27.0527 234.293 27.0527H233.902C233.749 27.0527 233.626 27.0067 233.534 26.9147C233.442 26.8227 233.396 26.7001 233.396 26.5467V20.1297C233.396 18.8877 233.09 17.9217 232.476 17.2317C231.878 16.5417 231.012 16.1967 229.877 16.1967C228.773 16.1967 227.892 16.5494 227.232 17.2547C226.573 17.9447 226.243 18.9031 226.243 20.1297V26.5467C226.243 26.7001 226.197 26.8227 226.105 26.9147C226.013 27.0067 225.891 27.0527 225.737 27.0527H225.346ZM242.846 27.2827C241.65 27.2827 240.607 27.0911 239.718 26.7077C238.844 26.3091 238.169 25.7954 237.694 25.1667C237.234 24.5381 236.988 23.8634 236.958 23.1427C236.958 23.0201 237.004 22.9127 237.096 22.8207C237.188 22.7287 237.303 22.6827 237.441 22.6827H237.901C238.177 22.6827 238.345 22.8361 238.407 23.1427C238.514 23.8787 238.936 24.5227 239.672 25.0747C240.408 25.6267 241.466 25.9027 242.846 25.9027C244.302 25.9027 245.383 25.6421 246.089 25.1207C246.809 24.5841 247.17 23.8404 247.17 22.8897C247.17 22.3071 246.993 21.8317 246.641 21.4637C246.303 21.0804 245.805 20.7507 245.146 20.4747C244.486 20.1834 243.49 19.8231 242.156 19.3937C240.975 19.0104 240.047 18.6347 239.373 18.2667C238.713 17.8987 238.223 17.4464 237.901 16.9097C237.579 16.3731 237.418 15.6907 237.418 14.8627C237.418 14.0807 237.625 13.3754 238.039 12.7467C238.468 12.1181 239.081 11.6274 239.879 11.2747C240.676 10.9067 241.627 10.7227 242.731 10.7227C243.865 10.7227 244.839 10.9297 245.652 11.3437C246.464 11.7424 247.078 12.2561 247.492 12.8847C247.906 13.4981 248.128 14.1191 248.159 14.7477C248.159 14.8704 248.113 14.9777 248.021 15.0697C247.944 15.1617 247.829 15.2077 247.676 15.2077H247.216C247.108 15.2077 247.001 15.1771 246.894 15.1157C246.786 15.0391 246.725 14.9164 246.71 14.7477C246.618 13.9811 246.204 13.3524 245.468 12.8617C244.747 12.3557 243.835 12.1027 242.731 12.1027C241.55 12.1027 240.607 12.3327 239.902 12.7927C239.212 13.2527 238.867 13.9427 238.867 14.8627C238.867 15.4607 239.02 15.9591 239.327 16.3577C239.649 16.7411 240.124 17.0784 240.753 17.3697C241.381 17.6457 242.309 17.9831 243.536 18.3817C244.793 18.7804 245.774 19.1637 246.48 19.5317C247.185 19.8997 247.714 20.3444 248.067 20.8657C248.435 21.3871 248.619 22.0617 248.619 22.8897C248.619 24.2697 248.105 25.3507 247.078 26.1327C246.05 26.8994 244.64 27.2827 242.846 27.2827ZM255.507 27.2827C253.912 27.2827 252.67 26.7997 251.781 25.8337C250.907 24.8524 250.447 23.5874 250.401 22.0387L250.378 21.0727L250.401 20.1067C250.447 18.5581 250.907 17.3007 251.781 16.3347C252.67 15.3534 253.912 14.8627 255.507 14.8627C257.101 14.8627 258.336 15.3534 259.21 16.3347C260.099 17.3007 260.567 18.5581 260.613 20.1067C260.628 20.2601 260.636 20.5821 260.636 21.0727C260.636 21.5634 260.628 21.8854 260.613 22.0387C260.567 23.5874 260.099 24.8524 259.21 25.8337C258.336 26.7997 257.101 27.2827 255.507 27.2827ZM255.507 25.9487C256.595 25.9487 257.469 25.6037 258.129 24.9137C258.803 24.2084 259.164 23.2117 259.21 21.9237C259.225 21.7704 259.233 21.4867 259.233 21.0727C259.233 20.6587 259.225 20.3751 259.21 20.2217C259.164 18.9337 258.803 17.9447 258.129 17.2547C257.469 16.5494 256.595 16.1967 255.507 16.1967C254.418 16.1967 253.536 16.5494 252.862 17.2547C252.202 17.9447 251.85 18.9337 251.804 20.2217L251.781 21.0727L251.804 21.9237C251.85 23.2117 252.202 24.2084 252.862 24.9137C253.536 25.6037 254.418 25.9487 255.507 25.9487ZM267.573 27.2827C266.07 27.2827 264.928 26.8074 264.146 25.8567C263.364 24.9061 262.973 23.6641 262.973 22.1307V15.5987C262.973 15.4454 263.019 15.3227 263.111 15.2307C263.203 15.1387 263.325 15.0927 263.479 15.0927H263.87C264.023 15.0927 264.146 15.1387 264.238 15.2307C264.33 15.3227 264.376 15.4454 264.376 15.5987V22.0157C264.376 24.6377 265.518 25.9487 267.803 25.9487C268.907 25.9487 269.781 25.6037 270.425 24.9137C271.084 24.2084 271.414 23.2424 271.414 22.0157V15.5987C271.414 15.4454 271.46 15.3227 271.552 15.2307C271.644 15.1387 271.766 15.0927 271.92 15.0927H272.311C272.464 15.0927 272.587 15.1387 272.679 15.2307C272.771 15.3227 272.817 15.4454 272.817 15.5987V26.5467C272.817 26.7001 272.771 26.8227 272.679 26.9147C272.587 27.0067 272.464 27.0527 272.311 27.0527H271.92C271.766 27.0527 271.644 27.0067 271.552 26.9147C271.46 26.8227 271.414 26.7001 271.414 26.5467V25.4657C270.954 26.0637 270.425 26.5161 269.827 26.8227C269.244 27.1294 268.493 27.2827 267.573 27.2827ZM276.358 27.0527C276.205 27.0527 276.082 27.0067 275.99 26.9147C275.898 26.8227 275.852 26.7001 275.852 26.5467V15.6217C275.852 15.4684 275.898 15.3457 275.99 15.2537C276.082 15.1464 276.205 15.0927 276.358 15.0927H276.726C276.879 15.0927 277.002 15.1464 277.094 15.2537C277.201 15.3457 277.255 15.4684 277.255 15.6217V16.6797C277.807 15.6217 278.85 15.0927 280.383 15.0927H281.234C281.387 15.0927 281.51 15.1387 281.602 15.2307C281.694 15.3227 281.74 15.4454 281.74 15.5987V15.9207C281.74 16.0741 281.694 16.1967 281.602 16.2887C281.51 16.3807 281.387 16.4267 281.234 16.4267H280.245C279.325 16.4267 278.597 16.6951 278.06 17.2317C277.523 17.7684 277.255 18.4967 277.255 19.4167V26.5467C277.255 26.7001 277.201 26.8227 277.094 26.9147C277.002 27.0067 276.879 27.0527 276.726 27.0527H276.358ZM287.419 27.2827C285.825 27.2827 284.59 26.8227 283.716 25.9027C282.842 24.9674 282.382 23.6641 282.336 21.9927L282.313 21.0727L282.336 20.1527C282.382 18.4814 282.842 17.1857 283.716 16.2657C284.59 15.3304 285.825 14.8627 287.419 14.8627C288.431 14.8627 289.29 15.0467 289.995 15.4147C290.716 15.7674 291.253 16.2274 291.605 16.7947C291.958 17.3467 292.15 17.9217 292.18 18.5197C292.196 18.6577 292.15 18.7804 292.042 18.8877C291.935 18.9797 291.812 19.0257 291.674 19.0257H291.352C291.199 19.0257 291.084 18.9951 291.007 18.9337C290.946 18.8571 290.877 18.7267 290.8 18.5427C290.494 17.6994 290.064 17.1014 289.512 16.7487C288.96 16.3807 288.263 16.1967 287.419 16.1967C286.315 16.1967 285.434 16.5341 284.774 17.2087C284.13 17.8681 283.785 18.8877 283.739 20.2677L283.716 21.0727L283.739 21.8777C283.785 23.2577 284.13 24.2851 284.774 24.9597C285.434 25.6191 286.315 25.9487 287.419 25.9487C288.263 25.9487 288.96 25.7724 289.512 25.4197C290.064 25.0517 290.494 24.4461 290.8 23.6027C290.877 23.4187 290.946 23.2961 291.007 23.2347C291.084 23.1581 291.199 23.1197 291.352 23.1197H291.674C291.812 23.1197 291.935 23.1734 292.042 23.2807C292.15 23.3727 292.196 23.4877 292.18 23.6257C292.15 24.2237 291.958 24.8064 291.605 25.3737C291.253 25.9257 290.716 26.3857 289.995 26.7537C289.29 27.1064 288.431 27.2827 287.419 27.2827ZM298.968 27.2827C297.512 27.2827 296.339 26.8074 295.449 25.8567C294.56 24.8907 294.054 23.6027 293.931 21.9927L293.908 21.0727L293.931 20.1527C294.054 18.5581 294.552 17.2777 295.426 16.3117C296.316 15.3457 297.496 14.8627 298.968 14.8627C300.563 14.8627 301.805 15.3917 302.694 16.4497C303.599 17.5077 304.051 18.9567 304.051 20.7967V21.1417C304.051 21.2951 303.998 21.4177 303.89 21.5097C303.798 21.6017 303.676 21.6477 303.522 21.6477H295.334V21.8777C295.365 22.5984 295.526 23.2731 295.817 23.9017C296.124 24.5151 296.546 25.0134 297.082 25.3967C297.619 25.7647 298.248 25.9487 298.968 25.9487C299.812 25.9487 300.494 25.7877 301.015 25.4657C301.552 25.1284 301.935 24.7911 302.165 24.4537C302.303 24.2697 302.403 24.1547 302.464 24.1087C302.541 24.0627 302.671 24.0397 302.855 24.0397H303.223C303.361 24.0397 303.476 24.0781 303.568 24.1547C303.66 24.2314 303.706 24.3311 303.706 24.4537C303.706 24.7757 303.499 25.1667 303.085 25.6267C302.687 26.0714 302.127 26.4624 301.406 26.7997C300.686 27.1217 299.873 27.2827 298.968 27.2827ZM302.648 20.3597V20.2677C302.648 19.0871 302.311 18.1134 301.636 17.3467C300.977 16.5801 300.088 16.1967 298.968 16.1967C297.849 16.1967 296.96 16.5801 296.3 17.3467C295.656 18.1134 295.334 19.0871 295.334 20.2677V20.3597H302.648Z" fill="white"/>
<line opacity="0.6" x1="172.399" y1="9.32812" x2="172.399" y2="29.7765" stroke="white"/>
</svg>
