<svg width="49" height="49" viewBox="0 0 49 49" fill="none" xmlns="http://www.w3.org/2000/svg">
<rect x="1.04639" y="0.530029" width="47" height="47" rx="4.5" fill="white" stroke="#B7BFC7"/>
<path d="M20.9464 15.03H17.1464C16.5863 15.03 16.3063 15.03 16.0924 15.139C15.9042 15.2349 15.7513 15.3879 15.6554 15.576C15.5464 15.79 15.5464 16.07 15.5464 16.63V20.43C15.5464 20.9901 15.5464 21.2701 15.6554 21.484C15.7513 21.6722 15.9042 21.8252 16.0924 21.921C16.3063 22.03 16.5863 22.03 17.1464 22.03H20.9464C21.5064 22.03 21.7865 22.03 22.0004 21.921C22.1885 21.8252 22.3415 21.6722 22.4374 21.484C22.5464 21.2701 22.5464 20.9901 22.5464 20.43V16.63C22.5464 16.07 22.5464 15.79 22.4374 15.576C22.3415 15.3879 22.1885 15.2349 22.0004 15.139C21.7865 15.03 21.5064 15.03 20.9464 15.03Z" stroke="#1F284F" stroke-width="2" stroke-linecap="round" stroke-linejoin="round"/>
<path d="M31.9464 15.03H28.1464C27.5863 15.03 27.3063 15.03 27.0924 15.139C26.9042 15.2349 26.7513 15.3879 26.6554 15.576C26.5464 15.79 26.5464 16.07 26.5464 16.63V20.43C26.5464 20.9901 26.5464 21.2701 26.6554 21.484C26.7513 21.6722 26.9042 21.8252 27.0924 21.921C27.3063 22.03 27.5863 22.03 28.1464 22.03H31.9464C32.5064 22.03 32.7865 22.03 33.0004 21.921C33.1885 21.8252 33.3415 21.6722 33.4374 21.484C33.5464 21.2701 33.5464 20.9901 33.5464 20.43V16.63C33.5464 16.07 33.5464 15.79 33.4374 15.576C33.3415 15.3879 33.1885 15.2349 33.0004 15.139C32.7865 15.03 32.5064 15.03 31.9464 15.03Z" stroke="#1F284F" stroke-width="2" stroke-linecap="round" stroke-linejoin="round"/>
<path d="M31.9464 26.03H28.1464C27.5863 26.03 27.3063 26.03 27.0924 26.139C26.9042 26.2349 26.7513 26.3879 26.6554 26.576C26.5464 26.79 26.5464 27.07 26.5464 27.63V31.43C26.5464 31.9901 26.5464 32.2701 26.6554 32.484C26.7513 32.6722 26.9042 32.8252 27.0924 32.921C27.3063 33.03 27.5863 33.03 28.1464 33.03H31.9464C32.5064 33.03 32.7865 33.03 33.0004 32.921C33.1885 32.8252 33.3415 32.6722 33.4374 32.484C33.5464 32.2701 33.5464 31.9901 33.5464 31.43V27.63C33.5464 27.07 33.5464 26.79 33.4374 26.576C33.3415 26.3879 33.1885 26.2349 33.0004 26.139C32.7865 26.03 32.5064 26.03 31.9464 26.03Z" stroke="#1F284F" stroke-width="2" stroke-linecap="round" stroke-linejoin="round"/>
<path d="M20.9464 26.03H17.1464C16.5863 26.03 16.3063 26.03 16.0924 26.139C15.9042 26.2349 15.7513 26.3879 15.6554 26.576C15.5464 26.79 15.5464 27.07 15.5464 27.63V31.43C15.5464 31.9901 15.5464 32.2701 15.6554 32.484C15.7513 32.6722 15.9042 32.8252 16.0924 32.921C16.3063 33.03 16.5863 33.03 17.1464 33.03H20.9464C21.5064 33.03 21.7865 33.03 22.0004 32.921C22.1885 32.8252 22.3415 32.6722 22.4374 32.484C22.5464 32.2701 22.5464 31.9901 22.5464 31.43V27.63C22.5464 27.07 22.5464 26.79 22.4374 26.576C22.3415 26.3879 22.1885 26.2349 22.0004 26.139C21.7865 26.03 21.5064 26.03 20.9464 26.03Z" stroke="#1F284F" stroke-width="2" stroke-linecap="round" stroke-linejoin="round"/>
</svg>
