<svg width="49" height="49" viewBox="0 0 49 49" fill="none" xmlns="http://www.w3.org/2000/svg">
<rect x="1.04639" y="0.530029" width="47" height="47" rx="4.5" fill="white" stroke="#B7BFC7"/>
<path d="M33.5464 24.03L21.5464 24.03M33.5464 18.03L21.5464 18.03M33.5464 30.03L21.5464 30.03M17.5464 24.03C17.5464 24.5823 17.0987 25.03 16.5464 25.03C15.9941 25.03 15.5464 24.5823 15.5464 24.03C15.5464 23.4777 15.9941 23.03 16.5464 23.03C17.0987 23.03 17.5464 23.4777 17.5464 24.03ZM17.5464 18.03C17.5464 18.5823 17.0987 19.03 16.5464 19.03C15.9941 19.03 15.5464 18.5823 15.5464 18.03C15.5464 17.4777 15.9941 17.03 16.5464 17.03C17.0987 17.03 17.5464 17.4777 17.5464 18.03ZM17.5464 30.03C17.5464 30.5823 17.0987 31.03 16.5464 31.03C15.9941 31.03 15.5464 30.5823 15.5464 30.03C15.5464 29.4777 15.9941 29.03 16.5464 29.03C17.0987 29.03 17.5464 29.4777 17.5464 30.03Z" stroke="#1F284F" stroke-width="2" stroke-linecap="round" stroke-linejoin="round"/>
</svg>
