<svg width="123" height="52" viewBox="0 0 123 52" fill="none" xmlns="http://www.w3.org/2000/svg">
<g clip-path="url(#clip0_78_2572)">
<path d="M61.9152 21.9949L63.9852 6.5249H64.2252L70.0252 19.2049L75.8052 6.5449H76.0352L78.0352 21.9849H76.6352L75.2352 10.9849L70.1952 21.9949H69.8252L64.7252 10.8349L63.2952 21.9949H61.9152Z" fill="white"/>
<path d="M91.2352 10.5851V22.0051H89.8752V20.0051C89.3641 20.6999 88.7093 21.2763 87.9552 21.6951C86.9402 22.2153 85.7797 22.3788 84.6605 22.1594C83.5413 21.9399 82.5285 21.3501 81.7852 20.4851C80.7257 19.3153 80.1564 17.7829 80.1952 16.2051C80.1671 14.6445 80.7482 13.1343 81.8152 11.9951C82.2912 11.4385 82.8836 10.9933 83.5506 10.6909C84.2176 10.3885 84.9429 10.2363 85.6752 10.2451C86.501 10.2334 87.3153 10.4404 88.0352 10.8451C88.7871 11.2883 89.4216 11.9056 89.8852 12.6451V10.5851H91.2352ZM85.7852 11.7051C85.0424 11.7016 84.314 11.9097 83.6852 12.3051C83.0312 12.719 82.5022 13.3032 82.1552 13.9951C81.7837 14.705 81.5882 15.4938 81.5852 16.2951C81.5838 17.1001 81.7795 17.8932 82.1552 18.6051C82.5051 19.3061 83.037 19.9002 83.6952 20.3251C84.3164 20.7234 85.0374 20.9383 85.7752 20.9451C86.5313 20.9343 87.2705 20.7195 87.9147 20.3235C88.5589 19.9275 89.0842 19.3649 89.4352 18.6951C89.8061 17.9714 89.9949 17.1682 89.9852 16.3551C90.0244 15.1369 89.5908 13.9508 88.7752 13.0451C88.4052 12.6166 87.9457 12.2746 87.429 12.0431C86.9124 11.8115 86.3513 11.6962 85.7852 11.7051Z" fill="white"/>
<path d="M94.3252 10.5951H95.6852V12.6951C96.1695 11.9578 96.8203 11.3447 97.5852 10.9051C98.2975 10.5005 99.1062 10.2966 99.9252 10.3151C100.657 10.3063 101.383 10.4585 102.05 10.7609C102.717 11.0633 103.309 11.5085 103.785 12.0651C104.85 13.2125 105.424 14.7304 105.385 16.2951C105.421 17.8712 104.848 19.4005 103.785 20.5651C103.311 21.1191 102.722 21.5628 102.059 21.8651C101.396 22.1674 100.674 22.321 99.9452 22.3151C99.1227 22.3305 98.31 22.1342 97.5852 21.7451C96.8333 21.3272 96.1815 20.7505 95.6752 20.0551V26.1951H94.2952L94.3252 10.5951ZM99.7752 11.7251C99.2081 11.7128 98.6453 11.8256 98.1268 12.0554C97.6083 12.2853 97.1468 12.6266 96.7752 13.0551C95.9722 13.9671 95.5467 15.1506 95.5852 16.3651C95.5724 17.1774 95.7577 17.9806 96.1252 18.7051C96.4758 19.3871 97.0089 19.9584 97.6652 20.3551C98.3026 20.7488 99.036 20.9598 99.7852 20.9651C100.52 20.9655 101.238 20.7537 101.855 20.3551C102.511 19.9315 103.042 19.3414 103.395 18.6451C103.773 17.9336 103.97 17.1405 103.97 16.3351C103.97 15.5297 103.773 14.7366 103.395 14.0251C103.049 13.3357 102.524 12.7519 101.875 12.3351C101.248 11.9357 100.519 11.724 99.7752 11.7251Z" fill="white"/>
<path d="M107.705 6.20508H109.075V22.0251H107.685L107.705 6.20508Z" fill="white"/>
<path d="M120.805 18.2653L121.945 18.9253C121.626 19.6388 121.187 20.2917 120.645 20.8553C120.171 21.3434 119.603 21.7311 118.975 21.9953C118.308 22.261 117.594 22.3902 116.875 22.3753C116.102 22.4132 115.332 22.2659 114.627 21.9459C113.923 21.6259 113.305 21.1423 112.825 20.5353C111.871 19.3684 111.357 17.9028 111.375 16.3953C111.339 14.9977 111.764 13.627 112.585 12.4953C113.049 11.8132 113.677 11.2582 114.41 10.8809C115.144 10.5036 115.96 10.316 116.785 10.3353C117.635 10.3191 118.476 10.5145 119.232 10.9037C119.988 11.293 120.635 11.8639 121.115 12.5653C121.909 13.708 122.315 15.0748 122.275 16.4653H112.745C112.719 17.6593 113.136 18.8207 113.915 19.7253C114.268 20.1334 114.706 20.4588 115.199 20.6783C115.691 20.8978 116.226 21.006 116.765 20.9953C117.303 20.9955 117.836 20.8937 118.335 20.6953C118.817 20.5116 119.258 20.2366 119.635 19.8853C120.105 19.4074 120.499 18.8612 120.805 18.2653ZM120.805 15.1953C120.674 14.5211 120.405 13.8811 120.015 13.3153C119.65 12.833 119.178 12.4426 118.635 12.1753C118.077 11.8933 117.461 11.746 116.835 11.7453C116.339 11.7381 115.847 11.8298 115.386 12.0153C114.926 12.2007 114.508 12.4761 114.155 12.8253C113.533 13.4832 113.104 14.2997 112.915 15.1853L120.805 15.1953Z" fill="white"/>
<path d="M71.6952 27.385H73.1252V41.385H78.5852V42.875H71.6652L71.6952 27.385Z" fill="white"/>
<path d="M91.2252 31.4352V42.8552H89.8652V40.8552C89.354 41.5538 88.695 42.1308 87.9351 42.5452C86.9202 43.0655 85.7597 43.229 84.6405 43.0095C83.5212 42.79 82.5085 42.2003 81.7652 41.3352C80.7179 40.1746 80.1529 38.6582 80.1851 37.0952C80.1543 35.536 80.7317 34.026 81.7952 32.8852C82.2744 32.33 82.8689 31.8858 83.5372 31.5836C84.2056 31.2814 84.9317 31.1284 85.6652 31.1352C86.491 31.1235 87.3052 31.3305 88.0252 31.7352C88.7747 32.1815 89.4085 32.7982 89.8752 33.5352V31.4352H91.2252ZM85.7752 32.5552C85.0322 32.5506 84.3035 32.7588 83.6751 33.1552C83.0181 33.5685 82.4857 34.1527 82.1352 34.8452C81.7612 35.556 81.5657 36.3471 81.5657 37.1502C81.5657 37.9534 81.7612 38.7445 82.1352 39.4552C82.485 40.1563 83.0169 40.7503 83.6751 41.1752C84.292 41.5748 85.0102 41.7899 85.7452 41.7952C86.503 41.7862 87.2442 41.5723 87.8903 41.1762C88.5364 40.7801 89.0633 40.2165 89.4152 39.5452C89.7826 38.8207 89.9679 38.0175 89.9552 37.2052C89.997 35.9884 89.5671 34.8025 88.7551 33.8952C88.3862 33.4681 87.9283 33.1268 87.4135 32.8953C86.8987 32.6638 86.3395 32.5478 85.7752 32.5552Z" fill="white"/>
<path d="M94.3552 42.8651L94.3852 26.9951H95.7452V33.3751C96.2552 32.6767 96.9102 32.0968 97.6652 31.6751C98.3834 31.2992 99.1847 31.11 99.9952 31.1251C100.723 31.1219 101.443 31.2778 102.105 31.5818C102.766 31.8858 103.353 32.3306 103.825 32.8851C104.853 34.0622 105.42 35.5722 105.42 37.1351C105.42 38.6981 104.853 40.208 103.825 41.3851C103.348 41.9399 102.755 42.3832 102.089 42.6839C101.422 42.9845 100.697 43.1351 99.9652 43.1251C99.1458 43.1367 98.338 42.9296 97.6252 42.5251C96.8745 42.0768 96.2379 41.4607 95.7652 40.7251V42.8251L94.3552 42.8651ZM99.8152 41.7551C100.558 41.7598 101.287 41.5516 101.915 41.1551C102.567 40.7347 103.096 40.1478 103.445 39.4551C103.823 38.7439 104.019 37.9504 104.015 37.1451C104.015 36.3371 103.82 35.541 103.445 34.8251C103.096 34.1296 102.568 33.5394 101.915 33.1151C101.299 32.7135 100.581 32.4983 99.8452 32.4951C99.0954 32.4957 98.3607 32.7071 97.7252 33.1051C97.0663 33.5017 96.5299 34.0727 96.1752 34.7551C95.8078 35.4797 95.6225 36.2828 95.6352 37.0951C95.598 38.3142 96.0271 39.5016 96.8352 40.4151C97.2059 40.8402 97.6642 41.18 98.1785 41.4113C98.6929 41.6426 99.2513 41.7599 99.8152 41.7551Z" fill="white"/>
<path d="M113.215 32.725L112.335 33.725C112.08 33.3959 111.758 33.1237 111.391 32.9257C111.025 32.7277 110.621 32.6082 110.205 32.575C109.993 32.5694 109.782 32.6083 109.585 32.6892C109.389 32.7702 109.212 32.8914 109.065 33.045C108.913 33.1851 108.792 33.3552 108.71 33.5446C108.627 33.7339 108.585 33.9384 108.585 34.145C108.592 34.5322 108.73 34.9057 108.975 35.205C109.435 35.6958 109.981 36.099 110.585 36.395C111.388 36.7737 112.1 37.3192 112.675 37.995C113.035 38.5255 113.224 39.1539 113.215 39.795C113.233 40.6785 112.903 41.5335 112.295 42.175C112.007 42.4978 111.652 42.7543 111.255 42.9269C110.858 43.0995 110.428 43.1842 109.995 43.175C109.386 43.1714 108.787 43.0241 108.245 42.745C107.702 42.4607 107.233 42.0531 106.875 41.555L107.735 40.555C107.982 40.9216 108.31 41.2267 108.693 41.4468C109.076 41.667 109.504 41.7964 109.945 41.825C110.203 41.8314 110.459 41.785 110.698 41.6887C110.937 41.5924 111.154 41.4482 111.335 41.265C111.667 40.9527 111.872 40.5281 111.909 40.0735C111.946 39.619 111.813 39.167 111.535 38.805C111.041 38.301 110.463 37.888 109.825 37.585C109.062 37.2113 108.395 36.6673 107.875 35.995C107.532 35.4657 107.354 34.8459 107.365 34.215C107.344 33.8087 107.406 33.4024 107.547 33.0207C107.688 32.6391 107.905 32.2901 108.185 31.995C108.454 31.7138 108.779 31.492 109.139 31.3439C109.499 31.1958 109.886 31.1247 110.275 31.135C110.848 31.1847 111.405 31.3515 111.91 31.625C112.416 31.8985 112.86 32.2729 113.215 32.725Z" fill="white"/>
<path d="M16.8752 50.9451L0.585205 35.3351L0.645205 0.995117L16.9352 16.6051L16.8752 50.9451Z" fill="#F15A29"/>
<path d="M49.5152 51.0049L33.2252 35.3949L33.2752 1.04492L49.5652 16.6649L49.5152 51.0049Z" fill="#39B54A"/>
<path d="M16.8752 50.9449L33.2252 35.3949L33.2752 1.04492L16.9352 16.6049L16.8752 50.9449Z" fill="#BE1E2D"/>
<path d="M49.5553 28.5952L49.5153 51.0052L65.6153 36.9052L49.5553 28.5952Z" fill="#006738"/>
</g>
<defs>
<clipPath id="clip0_78_2572">
<rect width="121.72" height="50.01" fill="white" transform="translate(0.585205 0.995117)"/>
</clipPath>
</defs>
</svg>
