<svg width="105" height="120" viewBox="0 0 105 120" fill="none" xmlns="http://www.w3.org/2000/svg">
<path d="M11.7084 59.0679L10.709 60.8003L20.9215 66.6917L21.9209 64.9593L11.7084 59.0679Z" />
<path d="M21.9039 64.9468L20.9033 66.6785L31.1117 72.577L32.1123 70.8453L21.9039 64.9468Z" />
<path d="M11.694 82.6225L10.6934 84.3542L20.9017 90.2528L21.9024 88.5211L11.694 82.6225Z" />
<path d="M21.9174 88.5401L20.918 90.2725L31.1304 96.1639L32.1298 94.4315L21.9174 88.5401Z" />
<path d="M32.108 94.4104L31.1074 96.1421L41.3158 102.041L42.3164 100.309L32.108 94.4104Z" />
<path d="M21.9039 64.9468L20.9033 66.6785L31.1117 72.577L32.1123 70.8453L21.9039 64.9468Z" />
<path d="M52.0605 25.5749C51.7105 25.5749 51.3806 25.3949 51.1906 25.0749C51.1006 24.9149 51.0605 24.7449 51.0605 24.5649C51.0605 24.2249 51.2405 23.8849 51.5605 23.7049L61.7705 17.8149C62.2505 17.5349 62.8605 17.7049 63.1405 18.1849C63.4205 18.6649 63.2505 19.2749 62.7705 19.5549L52.5605 25.4549C52.4005 25.5449 52.2305 25.5849 52.0605 25.5849V25.5749Z" />
<path d="M32.1244 23.7058L31.125 25.4382L41.3375 31.3297L42.3369 29.5973L32.1244 23.7058Z" />
<path d="M52.0599 49.1549C51.7099 49.1549 51.3799 48.9749 51.1899 48.6549C50.9099 48.1749 51.0799 47.5649 51.5599 47.2849L71.9799 35.495L82.1899 29.6049C82.6699 29.3249 83.2799 29.4949 83.5599 29.9749C83.8399 30.4549 83.6699 31.0649 83.1899 31.3449L52.5599 49.025C52.3999 49.115 52.2299 49.1549 52.0599 49.1549Z" />
<path d="M52.0605 25.5749C51.8905 25.5749 51.7105 25.5349 51.5605 25.4449C51.2505 25.2649 51.0605 24.9349 51.0605 24.5749V12.7849C51.0605 12.4249 51.2505 12.0949 51.5605 11.9149L61.7705 6.02489C62.0805 5.84489 62.4605 5.84489 62.7705 6.02489C63.0805 6.20489 63.2705 6.53489 63.2705 6.89489V18.6849C63.2705 19.0449 63.0805 19.3749 62.7705 19.5549L52.5605 25.4449C52.4105 25.5349 52.2305 25.5749 52.0605 25.5749ZM53.0605 13.3649V22.8449L61.2705 18.1049V8.62487L53.0605 13.3649Z" />
<path d="M11.7035 35.4851L10.7041 37.2175L20.9166 43.109L21.916 41.3766L11.7035 35.4851Z" />
<path d="M42.3248 29.5705L41.3242 31.3022L51.5326 37.2008L52.5332 35.4691L42.3248 29.5705Z" />
<path d="M21.9069 41.3696L20.9062 43.1013L31.1146 48.9999L32.1152 47.2682L21.9069 41.3696Z" />
<path d="M52.0605 49.1549C51.8905 49.1549 51.7105 49.115 51.5605 49.025C51.2505 48.845 51.0605 48.5149 51.0605 48.1549V36.365C51.0605 36.005 51.2505 35.675 51.5605 35.495L71.9805 23.7049L82.1906 17.8149C82.5006 17.6349 82.8806 17.6349 83.1906 17.8149C83.5006 17.9949 83.6906 18.3249 83.6906 18.6849V30.4749C83.6906 30.8349 83.5006 31.1649 83.1906 31.3449L52.5605 49.025C52.4105 49.115 52.2305 49.1549 52.0605 49.1549ZM53.0605 36.9449V46.4249L81.6906 29.8949V20.4149L53.0605 36.9449Z" />
<path d="M32.1205 47.2786L31.1211 49.011L41.3336 54.9024L42.333 53.17L32.1205 47.2786Z" />
<path d="M42.3209 53.1477L41.3203 54.8794L51.5287 60.778L52.5293 59.0463L42.3209 53.1477Z" />
<path d="M52.0605 119.885C51.8905 119.885 51.7105 119.845 51.5605 119.755C51.2505 119.575 51.0605 119.245 51.0605 118.885V59.935C51.0605 59.575 51.2505 59.245 51.5605 59.065L102.611 29.595C102.921 29.415 103.301 29.415 103.611 29.595C103.921 29.775 104.111 30.105 104.111 30.465V42.255C104.111 42.615 103.921 42.945 103.611 43.125L63.2705 66.415V75.895L102.611 53.185C102.921 53.005 103.301 53.005 103.611 53.185C103.921 53.365 104.111 53.695 104.111 54.055V65.845C104.111 66.205 103.921 66.535 103.611 66.715L63.2705 90.005V99.485L102.611 76.775C102.921 76.595 103.301 76.595 103.611 76.775C103.921 76.955 104.111 77.285 104.111 77.645V89.435C104.111 89.795 103.921 90.125 103.611 90.305L52.5605 119.775C52.4105 119.865 52.2305 119.905 52.0605 119.905V119.885ZM53.0605 60.515V117.155L102.111 88.835V79.355L62.7705 102.065C62.4605 102.245 62.0805 102.245 61.7705 102.065C61.4605 101.885 61.2705 101.555 61.2705 101.195V89.405C61.2705 89.045 61.4605 88.715 61.7705 88.535L102.111 65.245V55.765L62.7705 78.475C62.4605 78.655 62.0805 78.655 61.7705 78.475C61.4605 78.295 61.2705 77.965 61.2705 77.605V65.815C61.2705 65.455 61.4605 65.125 61.7705 64.945L102.111 41.655V32.175L53.0605 60.495V60.515Z" />
<path d="M52.0596 25.5749C51.8896 25.5749 51.7096 25.5349 51.5596 25.4449L41.3496 19.5549C41.0396 19.3749 40.8496 19.0449 40.8496 18.6849V6.89489C40.8496 6.53489 41.0396 6.20489 41.3496 6.02489C41.6596 5.84489 42.0396 5.84489 42.3496 6.02489L52.5596 11.9149C52.8696 12.0949 53.0596 12.4249 53.0596 12.7849V24.5749C53.0596 24.9349 52.8696 25.2649 52.5596 25.4449C52.4096 25.5349 52.2296 25.5749 52.0596 25.5749ZM42.8496 18.1049L51.0596 22.8449V13.3649L42.8496 8.62487V18.1049Z" />
<path d="M31.1299 37.2349L20.9199 31.3349C20.6099 31.1549 20.4199 30.8249 20.4199 30.4649V18.6749C20.4199 18.3149 20.6099 17.9849 20.9199 17.8049C21.2299 17.6249 21.6099 17.6249 21.9199 17.8049L32.1299 23.7049L31.1299 25.4349L22.4199 20.4049V29.8849L32.1299 35.4949L31.1299 37.2249V37.2349Z" />
<path d="M32.1244 23.7058L31.125 25.4382L41.3375 31.3297L42.3369 29.5973L32.1244 23.7058Z" />
<path d="M32.1273 35.4871L31.1279 37.2195L41.3404 43.1109L42.3398 41.3785L32.1273 35.4871Z" />
<path d="M52.0499 49.155C51.8799 49.155 51.6999 49.115 51.5499 49.025L41.3398 43.125L42.3398 41.395L51.0499 46.425V36.945L41.3398 31.335L42.3398 29.605L52.5499 35.505C52.8599 35.685 53.0499 36.015 53.0499 36.375V48.165C53.0499 48.525 52.8599 48.855 52.5499 49.035C52.3899 49.125 52.2199 49.165 52.0499 49.165V49.155Z" />
<path d="M62.2695 102.205C62.0995 102.205 61.9195 102.165 61.7695 102.075C61.4595 101.895 61.2695 101.565 61.2695 101.205V89.415C61.2695 89.055 61.4595 88.725 61.7695 88.545L82.1896 76.755L82.6896 77.625L82.1896 76.755L92.3995 70.865C92.7095 70.685 93.0895 70.685 93.3995 70.865L103.61 76.755C103.92 76.935 104.11 77.265 104.11 77.625C104.11 77.985 103.92 78.315 103.61 78.495L62.7695 102.075C62.6195 102.165 62.4395 102.205 62.2695 102.205V102.205ZM63.2695 89.995V99.475L101.11 77.625L92.8995 72.885L83.1896 78.495L63.2695 89.995Z" />
<path d="M62.2695 78.6249C62.0995 78.6249 61.9195 78.5849 61.7695 78.4949C61.4595 78.3149 61.2695 77.9849 61.2695 77.6249V65.8349C61.2695 65.4749 61.4595 65.1449 61.7695 64.9649L82.1896 53.1749L82.6896 54.0449L82.1896 53.1749L92.3995 47.2849C92.7095 47.1049 93.0895 47.1049 93.3995 47.2849L103.61 53.1749C103.92 53.3549 104.11 53.6849 104.11 54.0449C104.11 54.4049 103.92 54.7349 103.61 54.9149L62.7695 78.4949C62.6195 78.5849 62.4395 78.6249 62.2695 78.6249V78.6249ZM63.2695 66.4149V75.8949L101.11 54.0449L92.8995 49.3049L83.1896 54.9149L63.2695 66.4149Z" />
<path d="M10.71 96.1749L0.5 90.2849C0.19 90.1049 0 89.7749 0 89.4149V77.6249C0 77.2649 0.19 76.9349 0.5 76.7549C0.81 76.5749 1.19 76.5749 1.5 76.7549L11.71 82.6449L10.71 84.3749L2 79.3549V88.8349L11.71 94.4349L10.71 96.1649V96.1749Z" />
<path d="M11.694 82.6225L10.6934 84.3542L20.9017 90.2528L21.9024 88.5211L11.694 82.6225Z" />
<path d="M11.692 94.4011L10.6914 96.1328L20.8998 102.031L21.9004 100.3L11.692 94.4011Z" />
<path d="M21.9096 100.322L20.9102 102.054L31.1227 107.945L32.1221 106.213L21.9096 100.322Z" />
<path d="M21.9174 88.5401L20.918 90.2725L31.1304 96.1639L32.1298 94.4315L21.9174 88.5401Z" />
<path d="M82.6895 90.415C82.3395 90.415 82.0094 90.235 81.8194 89.915C81.7294 89.755 81.6895 89.585 81.6895 89.415C81.6895 89.065 81.8695 88.735 82.1895 88.545L92.3994 82.655C92.8794 82.375 93.4894 82.545 93.7694 83.025C93.8594 83.185 93.8994 83.355 93.8994 83.525C93.8994 83.875 93.7194 84.205 93.3994 84.395L83.1895 90.285C83.0295 90.375 82.8595 90.415 82.6895 90.415Z" />
<path d="M72.4808 96.3149C72.2608 96.3149 72.0508 96.2449 71.8708 96.1049C71.7708 96.0249 71.6808 95.9249 71.6108 95.8149C71.5708 95.7449 71.5408 95.6749 71.5208 95.6049C71.4108 95.2449 71.5208 94.8449 71.7908 94.5849C71.8408 94.5249 71.9108 94.4849 71.9708 94.4449L82.1808 88.5449C82.6608 88.2649 83.2708 88.4349 83.5508 88.9149C83.8308 89.3949 83.6608 90.0049 83.1808 90.2849L72.9708 96.1749H72.9507V96.1949L72.9008 96.2149H72.8808L72.8608 96.2349H72.8307V96.2549H72.8207C72.7007 96.2949 72.5808 96.3249 72.4608 96.3249L72.4808 96.3149Z" />
<path d="M62.2695 102.205C61.9195 102.205 61.5895 102.025 61.3995 101.705C61.3095 101.545 61.2695 101.375 61.2695 101.205C61.2695 100.855 61.4495 100.525 61.7695 100.335L71.9796 94.445C72.4596 94.165 73.0695 94.335 73.3495 94.815C73.4395 94.975 73.4796 95.145 73.4796 95.315C73.4796 95.665 73.2996 95.995 72.9796 96.185L62.7695 102.075C62.6095 102.165 62.4395 102.205 62.2695 102.205Z" />
<path d="M21.9069 41.3696L20.9062 43.1013L31.1146 48.9999L32.1152 47.2682L21.9069 41.3696Z" />
<path d="M31.1297 60.5951L20.9297 54.7051L21.9197 52.9651L22.2897 53.1751L32.1297 58.8551L31.1297 60.5951Z" />
<path d="M52.05 119.885C51.88 119.885 51.71 119.845 51.55 119.755L31.13 107.965L32.13 106.235L51.05 117.155V60.525L41.34 54.915L42.34 53.185L52.55 59.085C52.86 59.265 53.05 59.595 53.05 59.955V118.895C53.05 119.255 52.86 119.585 52.55 119.765C52.4 119.855 52.22 119.895 52.05 119.895V119.885ZM41.84 102.205C41.67 102.205 41.49 102.165 41.34 102.075L31.13 96.175L32.13 94.445L40.84 99.475V89.995L31.13 84.395C30.82 84.215 30.63 83.885 30.63 83.525H31.63L32.13 82.655L42.34 88.545C42.65 88.725 42.84 89.055 42.84 89.415V101.205C42.84 101.565 42.65 101.895 42.34 102.075C42.18 102.165 42.01 102.205 41.84 102.205V102.205ZM41.84 78.625C41.67 78.625 41.5 78.585 41.34 78.495L31.13 72.605L32.13 70.875L40.84 75.895V65.625H42.84V77.625C42.84 77.985 42.65 78.315 42.34 78.495C42.19 78.585 42.01 78.625 41.84 78.625ZM10.71 72.595L0.5 66.705C0.19 66.525 0 66.195 0 65.835V54.045C0 53.685 0.19 53.355 0.5 53.175C0.81 52.995 1.19 52.995 1.5 53.175L11.71 59.075L10.71 60.805L2 55.775V65.255L11.71 70.855L10.71 72.585V72.595Z" />
<path d="M20.94 54.7049L10.75 49.0349L0.5 43.115C0.19 42.935 0 42.605 0 42.245V30.4549C0 30.0949 0.19 29.765 0.5 29.585C0.81 29.405 1.19 29.405 1.5 29.585L21.92 41.3749L20.92 43.1049L2 32.1849V41.6649L11.87 47.3549L21.91 52.9449L20.94 54.6949V54.7049Z" />
<path d="M32.4606 59.029L31.4609 60.7612L41.3 66.4395L42.2997 64.7073L32.4606 59.029Z" />
<path d="M32.1205 47.2786L31.1211 49.011L41.3336 54.9024L42.333 53.17L32.1205 47.2786Z" />
<path d="M32.1212 58.8408L31.0986 60.5596L31.4682 60.7794L32.4908 59.0606L32.1212 58.8408Z" />
<path d="M82.6905 66.8349C82.3405 66.8349 82.0105 66.6549 81.8205 66.3349C81.6505 66.0449 81.6505 65.7049 81.7805 65.4149C81.8605 65.2249 82.0005 65.0749 82.1905 64.9649L92.4005 59.0649C92.8805 58.7849 93.4905 58.9549 93.7705 59.4349C94.0505 59.9149 93.8805 60.5249 93.4005 60.8049L83.1905 66.6949C83.0305 66.7849 82.8605 66.8249 82.6905 66.8249V66.8349Z" />
<path d="M72.4805 72.7348C72.1305 72.7348 71.8005 72.5548 71.6105 72.2348C71.5205 72.0748 71.4805 71.9048 71.4805 71.7348C71.4805 71.3848 71.6605 71.0548 71.9805 70.8648L82.1905 64.9748C82.6705 64.6948 83.2805 64.8648 83.5605 65.3448C83.6505 65.5048 83.6905 65.6748 83.6905 65.8448C83.6905 66.1948 83.5105 66.5248 83.1905 66.7148L72.9805 72.6048C72.8205 72.6948 72.6505 72.7348 72.4805 72.7348Z" />
<path d="M62.2697 78.6249C61.9197 78.6249 61.5897 78.4449 61.3997 78.1249C61.3897 78.1049 61.3797 78.0849 61.3697 78.0649C61.2397 77.7949 61.2397 77.4849 61.3497 77.2249V77.205C61.4297 77.015 61.5697 76.8649 61.7597 76.7549L71.9697 70.865C72.4497 70.585 73.0597 70.755 73.3397 71.235C73.6197 71.715 73.4497 72.3249 72.9697 72.6049L62.7597 78.495C62.5997 78.585 62.4297 78.6249 62.2597 78.6249H62.2697Z" />
<path d="M62.2695 31.4651C61.9195 31.4651 61.5895 31.2851 61.3995 30.9651C61.3095 30.8051 61.2695 30.6351 61.2695 30.4651C61.2695 30.1151 61.4495 29.785 61.7695 29.595L71.9796 23.705C72.4596 23.425 73.0695 23.595 73.3495 24.075C73.4395 24.235 73.4796 24.405 73.4796 24.575C73.4796 24.925 73.2996 25.255 72.9796 25.445L62.7695 31.3351C62.6095 31.4251 62.4395 31.4651 62.2695 31.4651Z" />
<path d="M52.0599 37.365C51.7099 37.365 51.3799 37.185 51.1899 36.865C50.9099 36.385 51.0799 35.775 51.5599 35.495L61.7699 29.6049C62.2499 29.3249 62.8599 29.4949 63.1399 29.9749C63.2299 30.1349 63.2699 30.305 63.2699 30.485C63.2699 30.825 63.0899 31.1549 62.7699 31.3449L52.5599 37.245C52.3999 37.335 52.2299 37.3749 52.0599 37.3749V37.365Z" />
<path d="M82.6899 43.2548C82.3399 43.2548 82.0098 43.0748 81.8198 42.7548C81.7198 42.5748 81.6699 42.3748 81.6899 42.1748C81.7099 41.9348 81.8099 41.7148 81.9799 41.5448C82.0399 41.4848 82.1099 41.4348 82.1899 41.3848L92.3999 35.4948C92.8799 35.2148 93.4899 35.3848 93.7699 35.8648C94.0499 36.3448 93.8799 36.9548 93.3999 37.2348L83.1899 43.1248H83.1699C83.0899 43.1748 83.0099 43.2048 82.9299 43.2248C82.8499 43.2448 82.7699 43.2548 82.6899 43.2548Z" />
<path d="M72.4808 49.155C72.2608 49.155 72.0508 49.085 71.8708 48.945C71.7708 48.865 71.6808 48.765 71.6108 48.655C71.5708 48.585 71.5408 48.515 71.5208 48.445C71.4108 48.085 71.5208 47.685 71.7908 47.425C71.8408 47.365 71.9108 47.325 71.9708 47.285L82.1808 41.385C82.6608 41.105 83.2708 41.275 83.5508 41.755C83.8308 42.235 83.6608 42.845 83.1808 43.125L72.9708 49.015H72.9507V49.035L72.9008 49.055H72.8808L72.8608 49.075H72.8307V49.095H72.8207C72.7007 49.135 72.5808 49.165 72.4608 49.165L72.4808 49.155Z" />
<path d="M62.2695 55.0449C61.9195 55.0449 61.5895 54.8649 61.3995 54.5449C61.3095 54.3849 61.2695 54.2149 61.2695 54.0449C61.2695 53.6949 61.4495 53.3649 61.7695 53.1749L71.9796 47.2849C72.4596 47.0049 73.0695 47.1749 73.3495 47.6549C73.4395 47.8149 73.4796 47.9849 73.4796 48.1549C73.4796 48.5049 73.2996 48.8349 72.9796 49.0249L62.7695 54.9149C62.6095 55.0049 62.4395 55.0449 62.2695 55.0449Z" />
<path d="M52.06 60.945C51.71 60.945 51.38 60.765 51.19 60.445C51.09 60.265 51.04 60.065 51.06 59.865C51.08 59.625 51.18 59.405 51.35 59.235C51.41 59.175 51.48 59.125 51.56 59.075L61.77 53.185C62.25 52.905 62.86 53.075 63.14 53.555C63.42 54.035 63.25 54.645 62.77 54.925L52.56 60.815H52.54C52.46 60.865 52.38 60.895 52.3 60.915C52.22 60.935 52.14 60.945 52.06 60.945Z" />
<path d="M52.0596 13.785C51.8896 13.785 51.7096 13.745 51.5596 13.655L41.3496 7.76501C41.0396 7.58501 40.8496 7.25501 40.8496 6.89501C40.8496 6.53501 41.0396 6.20501 41.3496 6.02501L51.5596 0.135C51.8696 -0.045 52.2496 -0.045 52.5596 0.135L62.7696 6.02501C63.0796 6.20501 63.2696 6.53501 63.2696 6.89501C63.2696 7.25501 63.0796 7.58501 62.7696 7.76501L52.5596 13.655C52.4096 13.745 52.2296 13.785 52.0596 13.785ZM43.8496 6.89501L52.0596 11.635L60.2696 6.89501L52.0596 2.15499L43.8496 6.89501Z" />
<path d="M31.1299 25.445L20.9199 19.545C20.6099 19.365 20.4199 19.035 20.4199 18.675C20.4199 18.315 20.6099 17.985 20.9199 17.805L31.1299 11.915C31.4399 11.735 31.8199 11.735 32.1299 11.915L42.3399 17.805L41.3399 19.535L31.6299 13.935L23.4199 18.675L32.1299 23.705L31.1299 25.435V25.445Z" />
<path d="M10.71 37.2351L0.5 31.3351C0.19 31.1551 0 30.8251 0 30.4651C0 30.1051 0.19 29.7751 0.5 29.5951L10.71 23.7051C11.02 23.5251 11.4 23.5251 11.71 23.7051L21.92 29.5951L20.92 31.3251L11.21 25.7251L3 30.4651L11.71 35.4951L10.71 37.2251V37.2351Z" />
<path d="M52.0508 37.365C51.8808 37.365 51.7008 37.325 51.5508 37.235L31.1309 25.445L32.1309 23.715L52.0508 35.215L80.6808 18.685L72.4708 13.945L52.5508 25.445C52.2408 25.625 51.8608 25.625 51.5508 25.445L41.3408 19.545L42.3408 17.815L52.0508 23.425L71.9708 11.925C72.2808 11.745 72.6608 11.745 72.9708 11.925L83.1808 17.815C83.4908 17.995 83.6808 18.325 83.6808 18.685C83.6808 19.045 83.4908 19.375 83.1808 19.555L52.5508 37.245C52.4008 37.335 52.2208 37.375 52.0508 37.375V37.365Z" />
<path d="M11.7035 35.4851L10.7041 37.2175L20.9166 43.109L21.916 41.3766L11.7035 35.4851Z" />
<path d="M21.899 29.571L20.8984 31.3027L31.1068 37.2013L32.1074 35.4696L21.899 29.571Z" />
<path d="M21.9069 41.3696L20.9062 43.1013L31.1146 48.9999L32.1152 47.2682L21.9069 41.3696Z" />
<path d="M32.1273 35.4871L31.1279 37.2195L41.3404 43.1109L42.3398 41.3785L32.1273 35.4871Z" />
<path d="M52.0499 60.9448C51.8799 60.9448 51.6999 60.8948 51.5499 60.8148L41.3398 54.9148L42.3398 53.1848L52.0499 58.7948L101.1 30.4748L92.8898 25.7348L52.5499 49.0248C52.2399 49.2048 51.8599 49.2048 51.5499 49.0248L41.3398 43.1248L42.3398 41.3948L52.0499 47.0048L92.3898 23.7148C92.6998 23.5348 93.0798 23.5348 93.3898 23.7148L103.6 29.6048C103.91 29.7848 104.1 30.1148 104.1 30.4748C104.1 30.8348 103.91 31.1648 103.6 31.3448L52.5499 60.8248C52.3999 60.9148 52.2199 60.9548 52.0499 60.9548V60.9448Z" />
<path d="M32.1205 47.2786L31.1211 49.011L41.3336 54.9024L42.333 53.17L32.1205 47.2786Z" />
<path d="M10.71 84.385L0.5 78.495C0.19 78.315 0 77.985 0 77.625C0 77.265 0.19 76.935 0.5 76.755L10.71 70.855C11.02 70.675 11.4 70.675 11.71 70.855C11.75 70.875 11.7899 70.905 11.8199 70.925L21.92 76.755L20.92 78.485L11.2 72.875L3 77.615L11.71 82.635L10.71 84.365V84.385Z" />
<path d="M11.694 82.6225L10.6934 84.3542L20.9017 90.2528L21.9024 88.5211L11.694 82.6225Z" />
<path d="M21.9154 76.7486L20.916 78.481L31.1285 84.3724L32.1279 82.64L21.9154 76.7486Z" />
<path d="M41.3408 90.285L31.1309 84.3951C30.8209 84.2151 30.6309 83.8851 30.6309 83.5251H31.6309L32.1309 82.655L42.3408 88.545L41.3408 90.2751V90.285Z" />
<path d="M21.9174 88.5401L20.918 90.2725L31.1304 96.1639L32.1298 94.4315L21.9174 88.5401Z" />
<path d="M41.8408 102.205C41.6708 102.205 41.4908 102.165 41.3408 102.075L31.1309 96.175L32.1309 94.445L40.8408 99.475V89.415H42.8408V101.205C42.8408 101.565 42.6508 101.895 42.3408 102.075C42.1808 102.165 42.0108 102.205 41.8408 102.205Z" />
<path d="M1.48956 54.9148L0.519531 53.1648L10.9196 47.3748C11.2196 47.2048 11.5895 47.2048 11.8895 47.3748L22.2896 53.1648L21.2996 54.9048L20.9296 54.6948L11.3995 49.3848L1.48956 54.9048V54.9148Z" />
<path d="M31.4901 60.8051L31.1201 60.5851L21.29 54.915L22.29 53.175L32.52 59.0851L31.4901 60.8051Z" />
<path d="M42.84 77.6249H40.84V66.205L31.5 60.8149L32.5 59.085L42.34 64.765C42.65 64.945 42.84 65.2749 42.84 65.6349V77.6349V77.6249Z" />
</svg>
