<svg width="105" height="120" viewBox="0 0 105 120" fill="none" xmlns="http://www.w3.org/2000/svg">
<path d="M72.4698 72.735C72.2998 72.735 72.1298 72.695 71.9698 72.605L61.7598 66.715C61.4398 66.525 61.2598 66.195 61.2598 65.845C61.2598 65.675 61.2998 65.505 61.3898 65.345C61.6698 64.865 62.2798 64.705 62.7598 64.975L72.9698 70.865C73.2898 71.055 73.4698 71.385 73.4698 71.735C73.4698 71.905 73.4298 72.075 73.3398 72.235C73.1498 72.555 72.8198 72.735 72.4698 72.735Z" />
<path d="M31.64 72.7352C31.29 72.7352 30.96 72.5552 30.77 72.2352C30.49 71.7552 30.66 71.1452 31.14 70.8652L41.35 64.9752C41.51 64.8852 41.69 64.8552 41.86 64.8452C42.2 64.8452 42.54 65.0252 42.72 65.3452C42.96 65.7652 42.86 66.2952 42.51 66.6052C42.51 66.6052 42.41 66.6852 42.36 66.7152L32.15 72.6052C31.99 72.6952 31.82 72.7352 31.65 72.7352H31.64Z" />
<path d="M20.92 90.2851L10.71 84.3851C10.4 84.2051 10.21 83.8751 10.21 83.5151C10.21 83.1551 10.4 82.8251 10.71 82.6451L41.34 64.9651L42.34 66.6951L13.21 83.5051L21.92 88.5451L20.91 90.2751L20.92 90.2851Z" />
<path d="M31.1299 96.1752L20.9199 90.2952L21.9199 88.5552L32.1399 94.4552L31.1299 96.1752Z" />
<path d="M32.1139 94.4036L31.1133 96.1353L41.3216 102.034L42.3222 100.302L32.1139 94.4036Z" />
<path d="M42.3451 100.366L41.3457 102.098L51.5582 107.99L52.5576 106.257L42.3451 100.366Z" />
<path d="M11.21 84.525C11.04 84.525 10.86 84.485 10.71 84.395C10.4 84.215 10.21 83.885 10.21 83.525V36.365C10.21 36.005 10.4 35.675 10.71 35.495L51.55 11.915C51.86 11.735 52.24 11.735 52.55 11.915C52.86 12.095 53.05 12.425 53.05 12.785V48.155C53.05 48.515 52.86 48.845 52.55 49.025C52.24 49.205 51.86 49.205 51.55 49.025L31.6299 37.525L22.42 42.845V53.485L42.34 64.985C42.65 65.165 42.84 65.495 42.84 65.855C42.84 66.215 42.65 66.545 42.34 66.725L11.71 84.405C11.56 84.495 11.38 84.535 11.21 84.535V84.525ZM12.21 36.945V81.795L39.84 65.845L20.92 54.925C20.61 54.745 20.42 54.415 20.42 54.055V42.265C20.42 41.905 20.61 41.575 20.92 41.395L31.1299 35.495C31.4399 35.315 31.8199 35.315 32.1299 35.495L51.05 46.415V14.515L12.21 36.935V36.945Z" />
<path d="M21.4297 43.2651C21.0797 43.2651 20.7497 43.0851 20.5597 42.7651C20.4697 42.6051 20.4297 42.4351 20.4297 42.2651C20.4297 41.9251 20.6097 41.5851 20.9297 41.3951L31.1396 35.4951L32.1396 37.2251L21.9297 43.1251C21.7697 43.2151 21.5997 43.2551 21.4297 43.2551V43.2651Z" />
<path d="M52.0498 96.315C51.8798 96.315 51.6998 96.265 51.5498 96.185C51.2398 96.005 51.0498 95.675 51.0498 95.315V59.945C51.0498 59.585 51.2398 59.255 51.5498 59.075L82.1798 41.395C82.4898 41.215 82.8698 41.215 83.1798 41.395C83.4898 41.575 83.6798 41.905 83.6798 42.265V54.055C83.6798 54.415 83.4898 54.745 83.1798 54.925L63.2598 66.425V89.425C63.2598 89.785 63.0698 90.115 62.7598 90.295L52.5498 96.185C52.3998 96.275 52.2198 96.315 52.0498 96.315ZM53.0498 60.525V93.585L61.2598 88.845V65.845C61.2598 65.485 61.4498 65.155 61.7598 64.975L81.6798 53.475V43.995L53.0498 60.525V60.525Z" />
<path d="M52.557 11.9385L51.5576 13.6709L61.7701 19.5623L62.7695 17.8299L52.557 11.9385Z" />
<path d="M62.7709 17.8379L61.7715 19.5703L71.984 25.4618L72.9834 23.7294L62.7709 17.8379Z" />
<path d="M71.4697 24.5852V24.5752H73.4697L71.4697 24.5852Z" />
<path d="M32.111 47.2395L31.1104 48.9712L41.3187 54.8698L42.3193 53.1381L32.111 47.2395Z" />
<path d="M83.1627 29.5625L82.1621 31.2942L92.3705 37.1928L93.3711 35.4611L83.1627 29.5625Z" />
<path d="M42.3451 53.2L41.3457 54.9324L51.5582 60.8238L52.5576 59.0914L42.3451 53.2Z" />
<path d="M52.0498 119.895C51.8798 119.895 51.6998 119.855 51.5498 119.765C51.2398 119.585 51.0498 119.255 51.0498 118.895V107.105C51.0498 106.745 51.2398 106.415 51.5498 106.235L91.8898 82.9452V36.3652C91.8898 36.0052 92.0798 35.6752 92.3898 35.4952L102.6 29.6052C102.91 29.4252 103.29 29.4252 103.6 29.6052C103.91 29.7852 104.1 30.1152 104.1 30.4752V89.4252C104.1 89.7852 103.91 90.1152 103.6 90.2952L52.5498 119.765C52.3998 119.855 52.2198 119.895 52.0498 119.895V119.895ZM53.0498 107.685V117.165L102.1 88.8452V32.2052L93.8898 36.9452V83.5253C93.8898 83.8853 93.6998 84.2153 93.3898 84.3953L53.0498 107.685V107.685Z" />
<path d="M52.0498 49.155C51.8798 49.155 51.6998 49.115 51.5498 49.025C51.2398 48.845 51.0498 48.515 51.0498 48.155V12.795C51.0498 12.435 51.2398 12.105 51.5498 11.925C51.8598 11.745 52.2398 11.745 52.5498 11.925L62.7598 17.8151L61.7598 19.545L53.0498 14.525V46.425L61.7598 41.4051L62.7598 43.1351L52.5498 49.025C52.3998 49.115 52.2198 49.155 52.0498 49.155Z" />
<path d="M72.9547 35.4495L71.9541 37.1812L82.1625 43.0797L83.1631 41.348L72.9547 35.4495Z" />
<path d="M72.9838 23.7322L71.9844 25.4646L82.1969 31.356L83.1962 29.6236L72.9838 23.7322Z" />
<path d="M92.8896 84.5253C92.7196 84.5253 92.5496 84.4853 92.3896 84.3953L82.1797 78.5052L83.1797 76.7753L91.8896 81.7952V36.9552L82.1797 31.3452L83.1797 29.6152L93.3896 35.5152C93.6996 35.6952 93.8896 36.0253 93.8896 36.3853V83.5352C93.8896 83.8952 93.6996 84.2252 93.3896 84.4052C93.2396 84.4952 93.0596 84.5352 92.8896 84.5352V84.5253Z" />
<path d="M83.6797 42.2651H81.6797V54.0551H83.6797V42.2651Z" />
<path d="M10.71 96.1852L0.5 90.2952C0.19 90.1152 0 89.7852 0 89.4252V30.4752C0 30.1152 0.19 29.7852 0.5 29.6052C0.81 29.4252 1.19 29.4252 1.5 29.6052L11.71 35.4952C12.02 35.6752 12.21 36.0052 12.21 36.3652V83.5253H10.21V36.9452L2 32.2052V88.8452L11.71 94.4452L10.71 96.1752V96.1852Z" />
<path d="M11.7236 82.6803L10.7227 84.4119L20.93 90.3122L21.9309 88.5807L11.7236 82.6803Z" />
<path d="M11.7084 94.4192L10.709 96.1516L20.9215 102.043L21.9209 100.311L11.7084 94.4192Z" />
<path d="M31.1299 96.1752L20.9199 90.2952L21.9199 88.5552L32.1399 94.4552L31.1299 96.1752Z" />
<path d="M31.1299 107.975L20.9199 102.085C20.6099 101.905 20.4199 101.575 20.4199 101.215H21.4199L21.9199 100.345L32.1299 106.235L31.1299 107.965V107.975Z" />
<path d="M32.1139 94.4036L31.1133 96.1353L41.3216 102.034L42.3222 100.302L32.1139 94.4036Z" />
<path d="M32.1244 106.203L31.125 107.935L41.3375 113.827L42.3369 112.094L32.1244 106.203Z" />
<path d="M84.6396 89.2952C84.2896 89.2952 83.9597 89.1152 83.7697 88.7952C83.6797 88.6352 83.6396 88.4652 83.6396 88.2952C83.6396 87.9452 83.8196 87.6152 84.1396 87.4252L92.3896 82.6552C92.8696 82.3752 93.4796 82.5453 93.7596 83.0253C93.8496 83.1853 93.8896 83.3553 93.8896 83.5253C93.8896 83.8753 93.7096 84.2053 93.3896 84.3953L85.1396 89.1652C84.9796 89.2552 84.8096 89.2952 84.6396 89.2952Z" />
<path d="M75.2599 94.7051C75.1899 94.7051 75.1199 94.7051 75.0499 94.6851C75.0499 94.6851 75.0299 94.6851 75.0199 94.6851C74.9399 94.6651 74.8599 94.6351 74.7899 94.5951C74.6299 94.5051 74.4999 94.3751 74.3999 94.2151C74.1199 93.7351 74.2899 93.1251 74.7699 92.8451L74.7999 92.8251L82.1899 88.5551C82.6699 88.2851 83.2799 88.4451 83.5599 88.9251C83.8399 89.4051 83.6699 90.0151 83.1899 90.2951L75.7699 94.5851C75.6099 94.6751 75.4399 94.7151 75.2699 94.7151L75.2599 94.7051Z" />
<path d="M69.8203 97.8452C69.4703 97.8452 69.1403 97.6652 68.9503 97.3452C68.8603 97.1852 68.8203 97.0152 68.8203 96.8452C68.8203 96.4952 69.0003 96.1653 69.3203 95.9753L71.9703 94.4453C72.4503 94.1653 73.0603 94.3353 73.3403 94.8153C73.4303 94.9753 73.4703 95.1453 73.4703 95.3153C73.4703 95.6653 73.2903 95.9953 72.9703 96.1853L70.3203 97.7152C70.1603 97.8052 69.9903 97.8452 69.8203 97.8452Z" />
<path d="M52.0599 108.105C51.7099 108.105 51.3799 107.925 51.1899 107.605C50.9099 107.125 51.0799 106.515 51.5599 106.235L61.7699 100.345C62.2499 100.065 62.8599 100.235 63.1399 100.715C63.4199 101.195 63.2499 101.805 62.7699 102.085L52.5599 107.975C52.3999 108.065 52.2299 108.105 52.0599 108.105Z" />
<path d="M52.0499 119.895C51.8799 119.895 51.6999 119.855 51.5499 119.765L41.3398 113.875C41.0298 113.695 40.8398 113.365 40.8398 113.005H41.8398L42.3398 112.135L51.0499 117.155V107.675L41.3398 102.075L42.3398 100.345L52.5499 106.235C52.8599 106.415 53.0499 106.745 53.0499 107.105V118.895C53.0499 119.255 52.8599 119.585 52.5499 119.765C52.3999 119.855 52.2199 119.895 52.0499 119.895V119.895Z" />
<path d="M52.0499 96.315C51.8799 96.315 51.6999 96.265 51.5499 96.185L41.3399 90.295C41.0299 90.115 40.8399 89.785 40.8399 89.425V66.425L20.9199 54.925C20.6099 54.745 20.4199 54.415 20.4199 54.055V42.265C20.4199 41.905 20.6099 41.575 20.9199 41.395C21.2299 41.215 21.6099 41.215 21.9199 41.395L52.5499 59.075C52.8599 59.255 53.0499 59.585 53.0499 59.945V95.315C53.0499 95.675 52.8599 96.005 52.5499 96.185C52.3999 96.275 52.2199 96.315 52.0499 96.315ZM42.8399 88.845L51.0499 93.585V60.525L22.4199 43.995V53.475L42.3399 64.975C42.6499 65.155 42.8399 65.485 42.8399 65.845V88.845Z" />
<path d="M41.8398 19.685C41.4898 19.685 41.1598 19.505 40.9698 19.185C40.8798 19.025 40.8398 18.855 40.8398 18.685C40.8398 18.335 41.0198 18.005 41.3398 17.815L51.5499 11.925C52.0299 11.645 52.6399 11.815 52.9199 12.295C53.0099 12.455 53.0499 12.625 53.0499 12.795C53.0499 13.145 52.8699 13.475 52.5499 13.665L42.3398 19.555C42.1798 19.645 42.0098 19.685 41.8398 19.685Z" />
<path d="M31.6396 25.5751C31.2896 25.5751 30.9597 25.3951 30.7697 25.0751C30.6797 24.9151 30.6396 24.7451 30.6396 24.5751C30.6396 24.2251 30.8196 23.8951 31.1396 23.7051L41.3497 17.8152C41.8297 17.5352 42.4397 17.7051 42.7197 18.1851C42.8097 18.3451 42.8497 18.5151 42.8497 18.6851C42.8497 19.0351 42.6697 19.3651 42.3497 19.5551L32.1396 25.4452C31.9796 25.5352 31.8096 25.5751 31.6396 25.5751Z" />
<path d="M21.4297 31.4751C21.0797 31.4751 20.7497 31.2951 20.5597 30.9751C20.4697 30.8151 20.4297 30.6451 20.4297 30.4751C20.4297 30.1251 20.6097 29.795 20.9297 29.605L31.1396 23.7151C31.6196 23.4351 32.2296 23.6051 32.5096 24.0851C32.5996 24.2451 32.6396 24.4151 32.6396 24.5851C32.6396 24.9351 32.4596 25.265 32.1396 25.455L21.9297 31.3451C21.7697 31.4351 21.5997 31.4751 21.4297 31.4751Z" />
<path d="M11.2197 37.3652C10.8697 37.3652 10.5397 37.1852 10.3497 36.8652C10.2597 36.7052 10.2197 36.5352 10.2197 36.3652C10.2197 36.0152 10.3997 35.6852 10.7197 35.4952L20.9297 29.6052C21.4097 29.3252 22.0197 29.4952 22.2997 29.9752C22.3897 30.1352 22.4297 30.3052 22.4297 30.4752C22.4297 30.8252 22.2497 31.1552 21.9297 31.3452L11.7197 37.2352C11.5597 37.3252 11.3897 37.3652 11.2197 37.3652Z" />
<path d="M62.2598 55.0551C61.9098 55.0551 61.5798 54.8751 61.3898 54.5551C61.2998 54.3951 61.2598 54.2251 61.2598 54.0551C61.2598 53.7051 61.4398 53.3751 61.7598 53.1851L71.9698 47.2951C72.4498 47.0151 73.0598 47.1852 73.3398 47.6652C73.4298 47.8252 73.4698 47.9952 73.4698 48.1652C73.4698 48.5152 73.2898 48.8451 72.9698 49.0351L62.7598 54.9251C62.5998 55.0151 62.4298 55.0551 62.2598 55.0551Z" />
<path d="M52.0599 60.945C51.7099 60.945 51.3799 60.765 51.1899 60.445C50.9099 59.965 51.0799 59.355 51.5599 59.075L61.7699 53.175C62.2499 52.895 62.8599 53.065 63.1399 53.545C63.2299 53.705 63.2699 53.875 63.2699 54.045C63.2699 54.385 63.0899 54.725 62.7699 54.915L52.5599 60.815C52.3999 60.905 52.2299 60.945 52.0599 60.945Z" />
<path d="M52.0499 60.9451C51.8799 60.9451 51.6999 60.8951 51.5499 60.8151L20.9199 43.1351C20.6099 42.9551 20.4199 42.6251 20.4199 42.2651C20.4199 41.9051 20.6099 41.5751 20.9199 41.3951L31.1299 35.4951C31.4399 35.3151 31.8199 35.3151 32.1299 35.4951L52.0499 46.9951L71.9699 35.4951C72.2799 35.3151 72.6599 35.3151 72.9699 35.4951L83.1799 41.3951C83.4899 41.5751 83.6799 41.9051 83.6799 42.2651C83.6799 42.6251 83.4899 42.9551 83.1799 43.1351L52.5499 60.8151C52.3999 60.9051 52.2199 60.9451 52.0499 60.9451ZM23.4199 42.2651L52.0499 58.7951L80.6799 42.2651L72.4699 37.5251L62.7599 43.1351L52.5499 49.0251C52.2399 49.2051 51.8599 49.2051 51.5499 49.0251L31.6299 37.5251L23.4199 42.2651V42.2651Z" />
<path d="M11.21 37.365C11.04 37.365 10.86 37.325 10.71 37.235L0.5 31.345C0.19 31.165 0 30.835 0 30.475C0 30.115 0.19 29.785 0.5 29.605L51.55 0.135C51.86 -0.045 52.24 -0.045 52.55 0.135L62.76 6.02498L61.76 7.755L52.05 2.15499L3 30.465L11.21 35.205L51.55 11.925L52.55 13.655L11.71 37.225C11.56 37.315 11.38 37.355 11.21 37.355V37.365Z" />
<path d="M62.7399 5.98607L61.7393 7.71777L71.9476 13.6163L72.9482 11.8846L62.7399 5.98607Z" />
<path d="M52.557 11.9385L51.5576 13.6709L61.7701 19.5623L62.7695 17.8299L52.557 11.9385Z" />
<path d="M62.7709 17.8379L61.7715 19.5703L71.984 25.4618L72.9834 23.7294L62.7709 17.8379Z" />
<path d="M72.9808 11.9407L71.9814 13.6731L82.1939 19.5645L83.1933 17.8321L72.9808 11.9407Z" />
<path d="M83.1647 17.7739L82.1641 19.5056L92.3725 25.4042L93.3731 23.6725L83.1647 17.7739Z" />
<path d="M72.9838 23.7322L71.9844 25.4646L82.1969 31.356L83.1962 29.6236L72.9838 23.7322Z" />
<path d="M92.8896 37.3751C92.7196 37.3751 92.5396 37.3351 92.3896 37.2451L82.1797 31.3451L83.1797 29.6151L92.8896 35.2251L101.1 30.4851L92.3896 25.4651L93.3896 23.7351L103.6 29.6251C103.91 29.8051 104.1 30.1351 104.1 30.4951C104.1 30.8551 103.91 31.1851 103.6 31.3651L93.3896 37.2651C93.2396 37.3551 93.0596 37.3951 92.8896 37.3951V37.3751Z" />
<path d="M52.05 108.105C51.88 108.105 51.7 108.065 51.55 107.975L10.71 84.3951C10.4 84.2151 10.21 83.8851 10.21 83.5251C10.21 83.1651 10.4 82.8351 10.71 82.6551L41.34 64.9751C41.65 64.7951 42.03 64.7951 42.34 64.9751C42.65 65.1551 42.84 65.4851 42.84 65.8451V88.8451L52.05 94.1551L61.2599 88.8451V65.8451C61.2599 65.4851 61.4499 65.1551 61.7599 64.9751C62.0699 64.7951 62.4499 64.7951 62.7599 64.9751L93.39 82.6551C93.7 82.8351 93.89 83.1651 93.89 83.5251C93.89 83.8851 93.7 84.2151 93.39 84.3951L52.55 107.975C52.4 108.065 52.22 108.105 52.05 108.105V108.105ZM13.21 83.5251L52.05 105.945L90.89 83.5251L63.2599 67.5751V89.4251C63.2599 89.7851 63.0699 90.1151 62.7599 90.2951L52.55 96.1851C52.24 96.3651 51.86 96.3651 51.55 96.1851L41.34 90.2951C41.03 90.1151 40.84 89.7851 40.84 89.4251V67.5751L13.21 83.5251Z" />
</svg>
