<svg width="105" height="120" viewBox="0 0 105 120" fill="none" xmlns="http://www.w3.org/2000/svg">
<path d="M11.2207 96.3149C11.0507 96.3149 10.8707 96.2749 10.7207 96.1849C10.4107 96.0049 10.2207 95.6749 10.2207 95.3149V48.1549C10.2207 47.7949 10.4107 47.4649 10.7207 47.2849C11.0307 47.1049 11.4107 47.1049 11.7207 47.2849L21.9307 53.1749C22.2407 53.3549 22.4307 53.6849 22.4307 54.0449V89.4149C22.4307 89.7749 22.2407 90.1049 21.9307 90.2849L11.7207 96.1749C11.5707 96.2649 11.3907 96.3049 11.2207 96.3049V96.3149ZM12.2207 49.8949V93.5849L20.4307 88.8449V54.6349L12.2207 49.8949Z" />
<path d="M31.6406 108.105C31.4706 108.105 31.2906 108.065 31.1406 107.975C30.8306 107.795 30.6406 107.465 30.6406 107.105V59.9449C30.6406 59.5849 30.8306 59.2549 31.1406 59.0749C31.4506 58.8949 31.8306 58.8949 32.1406 59.0749L42.3506 64.9649C42.6606 65.1449 42.8506 65.4749 42.8506 65.8349V101.205C42.8506 101.565 42.6606 101.895 42.3506 102.075L32.1406 107.965C31.9906 108.055 31.8106 108.095 31.6406 108.095V108.105ZM32.6406 61.6849V105.375L40.8506 100.635V66.4249L32.6406 61.6849V61.6849Z" />
<path d="M32.0807 23.675L31.0801 25.4067L41.2885 31.3053L42.2891 29.5736L32.0807 23.675Z" />
<path d="M51.0508 12.7949V12.7849H53.0508L51.0508 12.7949Z" />
<path d="M52.5463 11.9204L51.5469 13.6528L61.7594 19.5443L62.7588 17.8119L52.5463 11.9204Z" />
<path d="M11.6627 35.4643L10.6621 37.196L20.8705 43.0946L21.8711 41.3629L11.6627 35.4643Z" />
<path d="M62.7806 17.8296L61.7812 19.562L71.9937 25.4534L72.9931 23.721L62.7806 17.8296Z" />
<path d="M21.9369 41.4082L20.9375 43.1406L31.15 49.0321L32.1494 47.2997L21.9369 41.4082Z" />
<path d="M71.4707 24.585V24.575H73.4707L71.4707 24.585Z" />
<path d="M72.9623 23.7141L71.9629 25.4465L82.1754 31.338L83.1748 29.6056L72.9623 23.7141Z" />
<path d="M62.2607 43.265C62.0907 43.265 61.9207 43.225 61.7607 43.135L51.5508 37.245C51.2408 37.065 51.0508 36.735 51.0508 36.375C51.0508 36.015 51.2408 35.685 51.5508 35.505C51.8608 35.325 52.2408 35.315 52.5508 35.505L62.7607 41.405C63.2407 41.685 63.4008 42.295 63.1308 42.775C62.9408 43.095 62.6107 43.275 62.2607 43.275V43.265Z" />
<path d="M32.108 47.2722L31.1074 49.0039L41.3158 54.9025L42.3164 53.1708L32.108 47.2722Z" />
<path d="M42.3334 53.1819L41.334 54.9143L51.5465 60.8057L52.5459 59.0733L42.3334 53.1819Z" />
<path d="M52.0605 119.895C51.8905 119.895 51.7105 119.855 51.5605 119.765C51.2505 119.585 51.0605 119.255 51.0605 118.895V59.945C51.0605 59.585 51.2505 59.255 51.5605 59.075L102.611 29.605C102.921 29.425 103.301 29.425 103.611 29.605C103.921 29.785 104.111 30.115 104.111 30.475V42.265C104.111 42.625 103.921 42.955 103.611 43.135L63.2705 66.425V75.905L102.611 53.195C102.921 53.015 103.301 53.015 103.611 53.195C103.921 53.375 104.111 53.705 104.111 54.065V65.855C104.111 66.215 103.921 66.545 103.611 66.725L63.2705 90.015V99.495L102.611 76.785C102.921 76.605 103.301 76.605 103.611 76.785C103.921 76.965 104.111 77.295 104.111 77.655V89.445C104.111 89.805 103.921 90.135 103.611 90.315L52.5605 119.785C52.4105 119.875 52.2305 119.915 52.0605 119.915V119.895ZM53.0605 60.525V117.165L102.111 88.845V79.365L62.7705 102.075C62.4605 102.255 62.0805 102.255 61.7705 102.075C61.4605 101.895 61.2705 101.565 61.2705 101.205V89.415C61.2705 89.055 61.4605 88.725 61.7705 88.545L102.111 65.255V55.775L62.7705 78.485C62.4605 78.665 62.0805 78.665 61.7705 78.485C61.4605 78.305 61.2705 77.975 61.2705 77.615V65.825C61.2705 65.465 61.4605 65.135 61.7705 64.955L102.111 41.665V32.185L53.0605 60.505V60.525Z" />
<path d="M51.5499 25.4449L41.3398 19.5549C41.0298 19.3749 40.8398 19.0449 40.8398 18.6849V6.89489C40.8398 6.53489 41.0298 6.20489 41.3398 6.02489C41.6498 5.84489 42.0298 5.84489 42.3398 6.02489L52.5499 11.9149C52.8599 12.0949 53.0499 12.4249 53.0499 12.7849H52.0499L51.5499 13.6549L42.8398 8.63489V18.1149L52.5499 23.7149L51.5499 25.4449Z" />
<path d="M31.1299 37.2349L20.9199 31.3449C20.6099 31.1649 20.4199 30.8349 20.4199 30.4749V18.6849C20.4199 18.3249 20.6099 17.9949 20.9199 17.8149C21.2299 17.6349 21.6099 17.6349 21.9199 17.8149L32.1299 23.7049L31.1299 25.4349L22.4199 20.4149V29.8949L32.1299 35.4949L31.1299 37.2249V37.2349Z" />
<path d="M52.4967 23.6743L51.4961 25.406L61.7045 31.3046L62.7051 29.5729L52.4967 23.6743Z" />
<path d="M52.5463 11.9204L51.5469 13.6528L61.7594 19.5443L62.7588 17.8119L52.5463 11.9204Z" />
<path d="M32.0787 35.4636L31.0781 37.1953L41.2865 43.0939L42.2871 41.3622L32.0787 35.4636Z" />
<path d="M32.0807 23.675L31.0801 25.4067L41.2885 31.3053L42.2891 29.5736L32.0807 23.675Z" />
<path d="M62.7826 29.6211L61.7832 31.3535L71.9957 37.245L72.9951 35.5126L62.7826 29.6211Z" />
<path d="M71.9698 25.445L61.7598 19.555L62.7598 17.825L72.9698 23.715C73.2798 23.895 73.4698 24.225 73.4698 24.585H72.4698L71.9698 25.455V25.445Z" />
<path d="M42.351 41.4104L41.3516 43.1428L51.5641 49.0343L52.5635 47.3019L42.351 41.4104Z" />
<path d="M51.5499 37.235L41.3398 31.345L42.3398 29.615L52.5499 35.505C52.8599 35.685 53.0499 36.015 53.0499 36.375H52.0499L51.5499 37.245V37.235Z" />
<path d="M72.4707 37.3749C72.3007 37.3749 72.1307 37.3349 71.9707 37.2449C71.6607 37.0649 71.4707 36.7349 71.4707 36.3749H72.4707L71.9707 35.5049L80.6807 30.4749L71.9707 25.4549L72.9707 23.7249L83.1807 29.6149C83.4907 29.7949 83.6807 30.1249 83.6807 30.4849C83.6807 30.8449 83.4907 31.1749 83.1807 31.3549L72.9707 37.2549C72.8207 37.3449 72.6407 37.3849 72.4707 37.3849V37.3749Z" />
<path d="M52.5508 49.0249L51.5508 47.2949L60.2607 42.2749L51.5508 37.2549L52.5508 35.5249L62.7607 41.4149C63.0707 41.5949 63.2607 41.9249 63.2607 42.2849C63.2607 42.6449 63.0707 42.9749 62.7607 43.1549L52.5508 49.0449V49.0249Z" />
<path d="M62.2695 102.215C62.0995 102.215 61.9195 102.175 61.7695 102.085C61.4595 101.905 61.2695 101.575 61.2695 101.215V89.425C61.2695 89.065 61.4595 88.735 61.7695 88.555L82.1896 76.765L82.6896 77.635L82.1896 76.765L92.3995 70.875C92.7095 70.695 93.0895 70.695 93.3995 70.875L103.61 76.765C103.92 76.945 104.11 77.275 104.11 77.635C104.11 77.995 103.92 78.325 103.61 78.505L62.7695 102.085C62.6195 102.175 62.4395 102.215 62.2695 102.215ZM63.2695 90.005V99.485L101.11 77.635L92.8995 72.895L83.1896 78.505L63.2695 90.005Z" />
<path d="M62.2695 78.6349C62.0995 78.6349 61.9195 78.5949 61.7695 78.5049C61.4595 78.3249 61.2695 77.9949 61.2695 77.6349V65.8449C61.2695 65.4849 61.4595 65.1549 61.7695 64.9749L82.1896 53.1849L82.6896 54.0549L82.1896 53.1849L92.3995 47.2949C92.7095 47.1149 93.0895 47.1149 93.3995 47.2949L103.61 53.1849C103.92 53.3649 104.11 53.6949 104.11 54.0549C104.11 54.4149 103.92 54.7449 103.61 54.9249L62.7695 78.5049C62.6195 78.5949 62.4395 78.6349 62.2695 78.6349ZM63.2695 66.4249V75.9049L101.11 54.0549L92.8995 49.3149L63.2695 66.4249Z" />
<path d="M82.6899 90.425C82.3399 90.425 82.0098 90.245 81.8198 89.925C81.7198 89.745 81.6699 89.545 81.6899 89.345C81.7099 89.105 81.8099 88.885 81.9799 88.715C82.0399 88.655 82.1099 88.605 82.1899 88.555L92.3999 82.665C92.8799 82.385 93.4899 82.555 93.7699 83.035C94.0499 83.515 93.8799 84.125 93.3999 84.405L83.1899 90.295H83.1699C83.0899 90.345 83.0099 90.375 82.9299 90.395C82.8499 90.415 82.7699 90.425 82.6899 90.425V90.425Z" />
<path d="M72.4808 96.3149C72.2608 96.3149 72.0508 96.2449 71.8708 96.1049C71.7708 96.0249 71.6808 95.9249 71.6108 95.8149C71.5708 95.7449 71.5408 95.6749 71.5208 95.6049C71.4108 95.2449 71.5208 94.8449 71.7908 94.5849C71.8408 94.5249 71.9108 94.4849 71.9708 94.4449L82.1808 88.5449C82.6608 88.2649 83.2708 88.4349 83.5508 88.9149C83.8308 89.3949 83.6608 90.0049 83.1808 90.2849L72.9708 96.1749H72.9507V96.1949L72.9008 96.2149H72.8808L72.8608 96.2349H72.8307V96.2549H72.8207C72.7007 96.2949 72.5808 96.3249 72.4608 96.3249L72.4808 96.3149Z" />
<path d="M62.2695 102.215C61.9195 102.215 61.5895 102.035 61.3995 101.715C61.3095 101.555 61.2695 101.385 61.2695 101.215C61.2695 100.865 61.4495 100.535 61.7695 100.345L71.9796 94.4548C72.4596 94.1748 73.0695 94.3448 73.3495 94.8248C73.4395 94.9848 73.4796 95.1548 73.4796 95.3248C73.4796 95.6748 73.2996 96.0048 72.9796 96.1948L62.7695 102.085C62.6095 102.175 62.4395 102.215 62.2695 102.215Z" />
<path d="M52.05 119.895C51.88 119.895 51.71 119.855 51.55 119.765L41.34 113.875C41.03 113.695 40.84 113.365 40.84 113.005V66.425L32.63 61.685V107.115C32.63 107.475 32.44 107.805 32.13 107.985C31.82 108.165 31.44 108.165 31.13 107.985L20.92 102.095C20.61 101.915 20.42 101.585 20.42 101.225V54.635L12.21 49.895V95.325C12.21 95.685 12.02 96.015 11.71 96.195C11.4 96.375 11.02 96.375 10.71 96.195L0.5 90.305C0.19 90.125 0 89.795 0 89.435V30.475C0 30.115 0.19 29.785 0.5 29.605C0.81 29.425 1.19 29.425 1.5 29.605L11.71 35.495L10.71 37.225L2 32.205V88.845L10.21 93.585V48.155C10.21 47.795 10.4 47.465 10.71 47.285C11.02 47.105 11.4 47.105 11.71 47.285L21.92 53.185C22.23 53.365 22.42 53.695 22.42 54.055V100.635L30.63 105.375V59.945C30.63 59.585 30.82 59.255 31.13 59.075C31.44 58.895 31.82 58.895 32.13 59.075L42.34 64.975C42.65 65.155 42.84 65.485 42.84 65.845V112.425L51.05 117.165V60.525L41.34 54.925L42.34 53.195L52.55 59.085C52.86 59.265 53.05 59.595 53.05 59.955V118.905C53.05 119.265 52.86 119.595 52.55 119.775C52.4 119.865 52.22 119.905 52.05 119.905V119.895Z" />
<path d="M11.6627 35.4643L10.6621 37.196L20.8705 43.0946L21.8711 41.3629L11.6627 35.4643Z" />
<path d="M21.9375 41.4152L20.9375 43.1472L41.3584 54.9372L42.3584 53.2052L21.9375 41.4152Z" />
<path d="M82.6905 66.8449C82.3405 66.8449 82.0105 66.6649 81.8205 66.3449C81.6505 66.0549 81.6505 65.7149 81.7805 65.4249C81.8605 65.2349 82.0005 65.0849 82.1905 64.9749L92.4005 59.0749C92.8805 58.7949 93.4905 58.9649 93.7705 59.4449C94.0505 59.9249 93.8805 60.5349 93.4005 60.8149L83.1905 66.7049C83.0305 66.7949 82.8605 66.8349 82.6905 66.8349V66.8449Z" />
<path d="M72.4805 72.7348C72.1305 72.7348 71.8005 72.5548 71.6105 72.2348C71.5205 72.0748 71.4805 71.9048 71.4805 71.7348C71.4805 71.3848 71.6605 71.0548 71.9805 70.8648L82.1905 64.9748C82.6705 64.6948 83.2805 64.8648 83.5605 65.3448C83.6505 65.5048 83.6905 65.6748 83.6905 65.8448C83.6905 66.1948 83.5105 66.5248 83.1905 66.7148L72.9805 72.6048C72.8205 72.6948 72.6505 72.7348 72.4805 72.7348Z" />
<path d="M62.2697 78.635C61.9197 78.635 61.5897 78.455 61.3997 78.135C61.3897 78.115 61.3797 78.095 61.3697 78.075C61.2397 77.805 61.2397 77.495 61.3497 77.235V77.215C61.4297 77.025 61.5697 76.875 61.7597 76.765L71.9697 70.875C72.4497 70.595 73.0597 70.765 73.3397 71.245C73.6197 71.725 73.4497 72.335 72.9697 72.615L62.7597 78.505C62.5997 78.595 62.4297 78.635 62.2597 78.635H62.2697Z" />
<path d="M82.6899 43.2648C82.3399 43.2648 82.0098 43.0848 81.8198 42.7648C81.7198 42.5848 81.6699 42.3849 81.6899 42.1849C81.7099 41.9449 81.8099 41.7249 81.9799 41.5549C82.0399 41.4949 82.1099 41.4449 82.1899 41.3949L92.3999 35.5049C92.8799 35.2249 93.4899 35.3948 93.7699 35.8748C94.0499 36.3548 93.8799 36.9649 93.3999 37.2449L83.1899 43.1349H83.1699C83.0899 43.1849 83.0099 43.2149 82.9299 43.2349C82.8499 43.2549 82.7699 43.2648 82.6899 43.2648Z" />
<path d="M72.4808 49.165C72.2608 49.165 72.0508 49.095 71.8708 48.955C71.7708 48.875 71.6808 48.775 71.6108 48.665C71.5708 48.595 71.5408 48.525 71.5208 48.455C71.4108 48.095 71.5208 47.695 71.7908 47.435C71.8408 47.375 71.9108 47.335 71.9708 47.295L82.1808 41.405C82.6608 41.125 83.2708 41.295 83.5508 41.775C83.8308 42.255 83.6608 42.865 83.1808 43.145L72.9708 49.035H72.9507V49.055L72.9008 49.075H72.8808L72.8608 49.095H72.8307V49.115H72.8207C72.7007 49.155 72.5808 49.185 72.4608 49.185L72.4808 49.165Z" />
<path d="M62.2695 55.0549C61.9195 55.0549 61.5895 54.8749 61.3995 54.5549C61.3095 54.3949 61.2695 54.2249 61.2695 54.0549C61.2695 53.7049 61.4495 53.3749 61.7695 53.1849L71.9796 47.2949C72.4596 47.0149 73.0695 47.1849 73.3495 47.6649C73.4395 47.8249 73.4796 47.9949 73.4796 48.1649C73.4796 48.5149 73.2996 48.8449 72.9796 49.0349L62.7695 54.9249C62.6095 55.0149 62.4395 55.0549 62.2695 55.0549Z" />
<path d="M52.06 60.9448C51.71 60.9448 51.38 60.7648 51.19 60.4448C51.09 60.2648 51.04 60.0648 51.06 59.8648C51.08 59.6248 51.18 59.4048 51.35 59.2348C51.41 59.1748 51.48 59.1248 51.56 59.0748L61.77 53.1848C62.25 52.9048 62.86 53.0748 63.14 53.5548C63.42 54.0348 63.25 54.6448 62.77 54.9248L52.56 60.8148H52.54C52.46 60.8648 52.38 60.8948 52.3 60.9148C52.22 60.9348 52.14 60.9448 52.06 60.9448Z" />
<path d="M51.5499 13.655L41.3398 7.765C41.0298 7.585 40.8398 7.255 40.8398 6.895C40.8398 6.535 41.0298 6.205 41.3398 6.025L51.5499 0.135C51.8599 -0.045 52.2399 -0.045 52.5499 0.135L62.7598 6.025L61.7598 7.755L52.0499 2.155L43.8398 6.895L52.5499 11.915L51.5499 13.645V13.655Z" />
<path d="M31.1299 25.4448L20.9199 19.5548C20.6099 19.3748 20.4199 19.0448 20.4199 18.6848C20.4199 18.3248 20.6099 17.9948 20.9199 17.8148L31.1299 11.9148C31.4399 11.7348 31.8199 11.7348 32.1299 11.9148L42.3399 17.8148L41.3399 19.5448L31.6299 13.9348L23.4199 18.6748L32.1299 23.6948L31.1299 25.4248V25.4448Z" />
<path d="M42.3568 17.8274L41.3574 19.5598L51.5699 25.4513L52.5693 23.7189L42.3568 17.8274Z" />
<path d="M32.0807 23.675L31.0801 25.4067L41.2885 31.3053L42.2891 29.5736L32.0807 23.675Z" />
<path d="M10.71 37.2348L0.5 31.3448C0.19 31.1648 0 30.8348 0 30.4748C0 30.1148 0.19 29.7848 0.5 29.6048L10.71 23.7048C11.02 23.5248 11.4 23.5248 11.71 23.7048L21.92 29.6048L20.92 31.3348L11.21 25.7248L3 30.4648L11.71 35.4848L10.71 37.2148V37.2348Z" />
<path d="M21.9447 29.6167L20.9453 31.3491L31.1578 37.2406L32.1572 35.5082L21.9447 29.6167Z" />
<path d="M11.6627 35.4643L10.6621 37.196L20.8705 43.0946L21.8711 41.3629L11.6627 35.4643Z" />
<path d="M62.7369 6.00853L61.7363 7.74023L71.9447 13.6388L72.9453 11.9071L62.7369 6.00853Z" />
<path d="M52.5463 11.9204L51.5469 13.6528L61.7594 19.5443L62.7588 17.8119L52.5463 11.9204Z" />
<path d="M72.9701 11.9226L71.9707 13.655L82.1832 19.5465L83.1826 17.8141L72.9701 11.9226Z" />
<path d="M62.7806 17.8296L61.7812 19.562L71.9937 25.4534L72.9931 23.721L62.7806 17.8296Z" />
<path d="M83.1608 17.8066L82.1602 19.5383L92.3685 25.4369L93.3691 23.7052L83.1608 17.8066Z" />
<path d="M72.9623 23.7141L71.9629 25.4465L82.1754 31.338L83.1748 29.6056L72.9623 23.7141Z" />
<path d="M42.351 41.4104L41.3516 43.1428L51.5641 49.0343L52.5635 47.3019L42.351 41.4104Z" />
<path d="M32.108 47.2722L31.1074 49.0039L41.3158 54.9025L42.3164 53.1708L32.108 47.2722Z" />
<path d="M32.0787 35.4636L31.0781 37.1953L41.2865 43.0939L42.2871 41.3622L32.0787 35.4636Z" />
<path d="M21.9369 41.4082L20.9375 43.1406L31.15 49.0321L32.1494 47.2997L21.9369 41.4082Z" />
<path d="M82.1674 29.5786L71.958 35.4753L72.9583 37.2072L83.1677 31.3104L82.1674 29.5786Z" />
<path d="M52.0499 60.9449C51.8799 60.9449 51.7099 60.9049 51.5499 60.8149L41.3398 54.9249L42.3398 53.1949L52.0499 58.7949L101.1 30.4849L92.3898 25.4649L93.3898 23.7349L103.6 29.6249C103.91 29.8049 104.1 30.1349 104.1 30.4949C104.1 30.8549 103.91 31.1849 103.6 31.3649L52.5499 60.8349C52.3899 60.9249 52.2199 60.9649 52.0499 60.9649V60.9449Z" />
<path d="M61.7955 41.4476L51.584 47.3408L52.5837 49.073L62.7952 43.1798L61.7955 41.4476Z" />
<path d="M52.5055 35.4629L51.5049 37.1946L61.7133 43.0931L62.7139 41.3614L52.5055 35.4629Z" />
<path d="M71.9698 37.235L61.7598 31.345L62.7598 29.615L72.9698 35.505C73.2798 35.685 73.4698 36.015 73.4698 36.375H72.4698L71.9698 37.245V37.235Z" />
<path d="M42.3588 29.6189L41.3594 31.3513L51.5719 37.2428L52.5713 35.5104L42.3588 29.6189Z" />
<path d="M52.4967 23.6743L51.4961 25.406L61.7045 31.3046L62.7051 29.5729L52.4967 23.6743Z" />
</svg>
