<svg width="105" height="120" viewBox="0 0 105 120" fill="none" xmlns="http://www.w3.org/2000/svg">
<path d="M21.4199 102.215C21.2499 102.215 21.0699 102.175 20.9199 102.085C20.6099 101.905 20.4199 101.575 20.4199 101.215V54.055C20.4199 53.695 20.6099 53.365 20.9199 53.185C21.2299 53.005 21.6099 53.005 21.9199 53.185L32.1299 59.075C32.4399 59.255 32.6299 59.5851 32.6299 59.9451V95.3151C32.6299 95.6751 32.4399 96.005 32.1299 96.185L21.9199 102.075C21.7699 102.165 21.5899 102.205 21.4199 102.205V102.215ZM22.4199 55.795V99.485L30.6299 94.745V60.535L22.4199 55.795V55.795Z" />
<path d="M11.7164 35.5168L10.7158 37.2485L20.9242 43.1471L21.9248 41.4154L11.7164 35.5168Z" />
<path d="M41.33 31.355L31.1299 25.455L31.6299 24.595V23.585C31.8099 23.585 31.9799 23.635 32.1299 23.715L42.33 29.615L41.33 31.345V31.355Z" />
<path d="M42.3607 53.2298L41.3613 54.9622L51.5738 60.8536L52.5732 59.1212L42.3607 53.2298Z" />
<path d="M71.9598 49.0349L61.7598 43.1449L62.2598 42.2849V41.2749C62.4398 41.2749 62.6098 41.3249 62.7598 41.4049L72.9598 47.2949L71.9598 49.0249V49.0349Z" />
<path d="M42.3792 17.8902L41.3789 19.6221L51.5796 25.5138L52.5799 23.782L42.3792 17.8902Z" />
<path d="M41.8391 19.6951H41.8291V17.6951L41.8391 19.6951Z" />
<path d="M52.511 23.6617L51.5098 25.3931L61.7075 31.2902L62.7087 29.5588L52.511 23.6617Z" />
<path d="M52.05 25.585H52.04V23.585L52.05 25.585Z" />
<path d="M21.8949 41.3562L20.8955 43.0886L31.108 48.9801L32.1074 47.2477L21.8949 41.3562Z" />
<path d="M51.5398 37.2451L41.3398 31.3551L41.8398 30.4951V29.4851C42.0098 29.4851 42.1898 29.5351 42.3398 29.6151L52.5398 35.5051L51.5398 37.2351V37.2451Z" />
<path d="M62.8021 29.6946L61.8018 31.4265L72.0025 37.3183L73.0028 35.5864L62.8021 29.6946Z" />
<path d="M62.259 31.4851H62.249V29.4851L62.259 31.4851Z" />
<path d="M32.1315 47.2947L31.1309 49.0264L41.3393 54.925L42.3399 53.1932L32.1315 47.2947Z" />
<path d="M61.7498 43.145L51.5498 37.245L52.0498 36.3849V35.375C52.2198 35.375 52.3998 35.425 52.5598 35.505L62.7598 41.405L61.7598 43.1349L61.7498 43.145Z" />
<path d="M72.9397 35.4466L71.9385 37.178L82.1361 43.0751L83.1373 41.3437L72.9397 35.4466Z" />
<path d="M72.47 37.375H72.46V35.375L72.47 37.375Z" />
<path d="M52.0498 119.905C51.8798 119.905 51.7098 119.865 51.5498 119.775C51.2398 119.595 51.0498 119.265 51.0498 118.905V59.9549C51.0498 59.5949 51.2398 59.265 51.5498 59.085L71.9598 47.295C72.1098 47.205 72.2898 47.165 72.4598 47.165C73.0098 47.165 73.4698 47.615 73.4698 48.165V93.595L81.6698 88.855V42.285C81.6698 41.925 81.8598 41.595 82.1698 41.415L102.59 29.625C102.9 29.445 103.28 29.445 103.59 29.625C103.9 29.805 104.09 30.135 104.09 30.495V89.435C104.09 89.795 103.9 90.125 103.59 90.305L52.5498 119.785C52.3998 119.875 52.2198 119.915 52.0498 119.915V119.905ZM53.0498 60.535V117.175L102.09 88.855V32.225L83.6698 42.865V89.435C83.6698 89.795 83.4798 90.125 83.1698 90.305L72.9698 96.2049C72.6598 96.3849 72.2798 96.3849 71.9698 96.2049C71.6598 96.0249 71.4698 95.695 71.4698 95.335V49.905L53.0498 60.545V60.535Z" />
<path d="M41.3301 31.355L31.1801 25.485C31.0901 25.435 31 25.375 30.92 25.295C30.73 25.105 30.6201 24.855 30.6201 24.585V12.795C30.6201 12.435 30.82 12.105 31.13 11.925C31.44 11.745 31.82 11.745 32.13 11.925L42.3301 17.825L41.3301 19.555L32.63 14.525V24.0051L42.3301 29.6251L41.3301 31.355Z" />
<path d="M51.5398 37.2451L41.3398 31.3551L41.8398 30.4951V29.4851C42.0198 29.4851 42.1898 29.5351 42.3398 29.6151L52.5398 35.5051L51.5398 37.2351V37.2451Z" />
<path d="M42.3792 17.8902L41.3789 19.6221L51.5796 25.5138L52.5799 23.782L42.3792 17.8902Z" />
<path d="M61.7498 43.145L51.5498 37.245L52.0498 36.3849V35.375C52.2298 35.375 52.3998 35.425 52.5498 35.505L62.7498 41.405L61.7498 43.1349V43.145Z" />
<path d="M52.511 23.6617L51.5098 25.3931L61.7075 31.2902L62.7087 29.5588L52.511 23.6617Z" />
<path d="M71.9598 49.0349L61.7598 43.1449L62.2598 42.2849V41.2749C62.4398 41.2749 62.6098 41.3249 62.7598 41.4049L72.9598 47.2949L71.9598 49.0249V49.0349Z" />
<path d="M71.9598 37.2451L61.7598 31.3551L62.2598 30.4951V29.4851C62.4398 29.4851 62.6098 29.5351 62.7598 29.6151L72.9598 35.5051L71.9598 37.2351V37.2451Z" />
<path d="M82.6697 90.425C82.4997 90.425 82.3197 90.385 82.1697 90.295L71.9697 84.405C71.6597 84.225 71.4697 83.895 71.4697 83.535V48.165H72.4697V47.165C73.0197 47.165 73.4697 47.615 73.4697 48.165V82.955L81.6697 87.695V42.855L71.9697 37.245L72.4697 36.3849V35.375C72.6497 35.375 72.8197 35.425 72.9697 35.505L83.1697 41.405C83.4797 41.585 83.6697 41.915 83.6697 42.275V89.425C83.6697 89.785 83.4797 90.115 83.1697 90.295C83.0197 90.385 82.8397 90.425 82.6697 90.425V90.425Z" />
<path d="M72.4697 96.325C72.2997 96.325 72.1197 96.2751 71.9697 96.1951C71.6597 96.0151 71.4697 95.685 71.4697 95.325V83.535C71.4697 83.175 71.6597 82.845 71.9697 82.665C72.2797 82.485 72.6597 82.485 72.9697 82.665L83.1797 88.555C83.4897 88.735 83.6797 89.065 83.6797 89.425C83.6797 89.785 83.4897 90.115 83.1797 90.295L72.9697 96.185C72.8197 96.275 72.6397 96.3151 72.4697 96.3151V96.325ZM73.4697 85.265V93.585L80.6797 89.425L73.4697 85.265V85.265Z" />
<path d="M10.71 96.195L0.5 90.295C0.19 90.115 0 89.785 0 89.425V30.485C0 30.125 0.19 29.795 0.5 29.615C0.81 29.435 1.19 29.435 1.5 29.615L11.71 35.505L10.71 37.235L2 32.2049V88.8349L11.71 94.445L10.71 96.175V96.195Z" />
<path d="M11.7164 35.5168L10.7158 37.2485L20.9242 43.1471L21.9248 41.4154L11.7164 35.5168Z" />
<path d="M41.34 113.875L31.1299 107.985C30.8199 107.805 30.6299 107.475 30.6299 107.115V60.5351L22.4199 55.7951V101.215C22.4199 101.575 22.2299 101.905 21.9199 102.085C21.6099 102.265 21.2299 102.265 20.9199 102.085L10.71 96.1951L11.71 94.4651L20.4199 99.4951V54.0751C20.4199 53.7151 20.6099 53.3851 20.9199 53.2051C21.2299 53.0251 21.6099 53.0251 21.9199 53.2051L32.1299 59.0951C32.4399 59.2751 32.6299 59.6051 32.6299 59.9651V106.545L42.34 112.145L41.34 113.875Z" />
<path d="M21.8949 41.3562L20.8955 43.0886L31.108 48.9801L32.1074 47.2477L21.8949 41.3562Z" />
<path d="M32.1315 47.2947L31.1309 49.0264L41.3393 54.925L42.3399 53.1932L32.1315 47.2947Z" />
<path d="M72.4697 96.3251C72.1197 96.3251 71.7897 96.1451 71.5997 95.8251C71.5097 95.6651 71.4697 95.4951 71.4697 95.3251C71.4697 94.9751 71.6497 94.6451 71.9697 94.4551L82.1797 88.5652C82.6597 88.2852 83.2697 88.4551 83.5497 88.9351C83.6397 89.0951 83.6797 89.2651 83.6797 89.4351C83.6797 89.7851 83.4997 90.1151 83.1797 90.3051L72.9697 96.1952C72.8097 96.2852 72.6397 96.3251 72.4697 96.3251Z" />
<path d="M52.0498 119.905C51.8798 119.905 51.6998 119.865 51.5498 119.775L41.3398 113.875L42.3398 112.145L51.0498 117.175V60.5351L41.3398 54.9351L42.3398 53.2051L52.5498 59.0951C52.8598 59.2751 53.0498 59.6051 53.0498 59.9651V118.915C53.0498 119.275 52.8598 119.605 52.5498 119.785C52.3898 119.875 52.2198 119.915 52.0498 119.915V119.905Z" />
<path d="M41.8391 19.6951H41.8291V17.6951L41.8391 19.6951Z" />
<path d="M52.05 25.585H52.04V23.585L52.05 25.585Z" />
<path d="M62.259 31.4851H62.249V29.4851L62.259 31.4851Z" />
<path d="M72.47 37.375H72.46V35.375L72.47 37.375Z" />
<path d="M82.6797 43.2751C82.3297 43.2751 81.9997 43.0951 81.8097 42.7751C81.7197 42.6151 81.6797 42.4451 81.6797 42.2751C81.6797 41.9251 81.8597 41.5951 82.1797 41.4051L92.3896 35.5151C92.8696 35.2351 93.4796 35.4051 93.7596 35.8851C93.8496 36.0451 93.8896 36.2151 93.8896 36.3851C93.8896 36.7351 93.7096 37.0652 93.3896 37.2552L83.1797 43.1451C83.0197 43.2351 82.8497 43.2751 82.6797 43.2751Z" />
<path d="M52.0498 60.955C51.6998 60.955 51.3698 60.775 51.1798 60.455C51.0898 60.295 51.0498 60.125 51.0498 59.955C51.0498 59.605 51.2298 59.275 51.5498 59.085L61.7598 53.195C62.2398 52.915 62.8498 53.085 63.1298 53.565C63.2198 53.725 63.2598 53.895 63.2598 54.065C63.2598 54.415 63.0798 54.745 62.7598 54.935L52.5498 60.825C52.3898 60.915 52.2198 60.955 52.0498 60.955Z" />
<path d="M41.8397 19.6951C41.6597 19.6951 41.4897 19.6451 41.3397 19.5651L31.1396 13.665C30.8296 13.485 30.6396 13.155 30.6396 12.795C30.6396 12.435 30.8296 12.105 31.1396 11.925L51.5497 0.135C51.8597 -0.045 52.2397 -0.045 52.5497 0.135L62.7596 6.03502L61.7596 7.76501L52.0497 2.15502L33.6396 12.795L42.3397 17.825L41.8397 18.685V19.6951Z" />
<path d="M10.71 37.245L0.5 31.355C0.19 31.175 0 30.845 0 30.485C0 30.125 0.19 29.795 0.5 29.615L20.92 17.8249C21.23 17.6449 21.61 17.6449 21.92 17.8249L32.1201 23.715L31.1201 25.445L21.42 19.845L3 30.475L11.71 35.505L10.71 37.235V37.245Z" />
<path d="M52.0498 25.585C51.8698 25.585 51.6898 25.535 51.5398 25.455L41.3398 19.565L42.3398 17.835L52.5398 23.725L52.0398 24.585V25.595L52.0498 25.585Z" />
<path d="M62.7201 5.98489L61.7207 7.71729L71.9332 13.6087L72.9326 11.8763L62.7201 5.98489Z" />
<path d="M62.2598 31.4851C62.0798 31.4851 61.8998 31.4351 61.7498 31.3551L51.5498 25.4551L52.5498 23.7251L62.7498 29.6251L62.2498 30.4851V31.4951L62.2598 31.4851Z" />
<path d="M72.9635 11.9363L71.9629 13.668L82.1713 19.5665L83.1719 17.8348L72.9635 11.9363Z" />
<path d="M72.4698 37.375C72.2898 37.375 72.1098 37.325 71.9598 37.245L61.7598 31.355L62.7598 29.625L72.9598 35.515L72.4598 36.375V37.3849L72.4698 37.375Z" />
<path d="M83.1361 17.7686L82.1367 19.501L92.3492 25.3924L93.3486 23.66L83.1361 17.7686Z" />
<path d="M61.7495 43.1451L51.6295 37.2851C51.6295 37.2851 51.5696 37.2551 51.5496 37.2451L41.3496 31.3551L41.8496 30.4951V29.4851C42.0196 29.4851 42.1996 29.5351 42.3496 29.6151L52.4696 35.4651C52.4696 35.4651 52.5296 35.4951 52.5596 35.5051L62.7595 41.4051L61.7595 43.1351L61.7495 43.1451Z" />
<path d="M21.9131 41.3905L20.9131 43.1226L41.334 54.9126L42.334 53.1805L21.9131 41.3905Z" />
<path d="M82.6697 43.2751C82.4997 43.2751 82.3197 43.2351 82.1697 43.1451L71.9697 37.2451L72.9697 35.5151L82.6697 41.1251L101.09 30.4851L92.3796 25.4551L93.3796 23.7251L103.59 29.6251C103.9 29.8051 104.09 30.1351 104.09 30.4951C104.09 30.8551 103.9 31.1851 103.59 31.3651L83.1697 43.1551C83.0197 43.2451 82.8397 43.2851 82.6697 43.2851V43.2751Z" />
<path d="M73.4698 83.535H71.4698V49.895L52.5498 60.825C52.2398 61.005 51.8598 61.005 51.5498 60.825L41.3398 54.9351L42.3398 53.205L52.0498 58.8051L71.9598 47.3051C72.1098 47.2151 72.2898 47.175 72.4598 47.175C73.0098 47.175 73.4698 47.625 73.4698 48.175V83.545V83.535Z" />
<path d="M71.9598 49.0349L61.7598 43.1449L62.2598 42.2849V41.2749C62.4398 41.2749 62.6098 41.3249 62.7598 41.4049L72.9598 47.2949L71.9598 49.0249V49.0349Z" />
</svg>
