<svg width="105" height="120" viewBox="0 0 105 120" fill="none" xmlns="http://www.w3.org/2000/svg">
<path d="M62.2696 43.2751C61.9196 43.2751 61.5896 43.0951 61.3996 42.7751C61.2896 42.5851 61.2496 42.3751 61.2696 42.1851C61.2996 41.9351 61.4096 41.7051 61.5896 41.5451C61.6396 41.4951 61.6996 41.4551 61.7596 41.4151L71.9696 35.5251C72.4496 35.2451 73.0596 35.4151 73.3396 35.8951C73.6196 36.3751 73.4496 36.9851 72.9696 37.2651L62.7596 43.1551C62.5996 43.2451 62.4296 43.2851 62.2596 43.2851L62.2696 43.2751Z" />
<path d="M11.6937 82.617L10.6943 84.3494L20.9069 90.2408L21.9063 88.5084L11.6937 82.617Z" />
<path d="M21.9274 88.5681L20.9268 90.2998L31.1351 96.1984L32.1357 94.4667L21.9274 88.5681Z" />
<path d="M32.1097 94.4107L31.1104 96.1431L41.3228 102.034L42.3222 100.302L32.1097 94.4107Z" />
<path d="M42.3424 100.346L41.3418 102.078L51.5502 107.976L52.5508 106.245L42.3424 100.346Z" />
<path d="M52.0596 119.905C51.8896 119.905 51.7096 119.865 51.5596 119.775C51.2496 119.595 51.0596 119.265 51.0596 118.905V107.115C51.0596 106.755 51.2496 106.425 51.5596 106.245L82.1896 88.5652L102.61 76.7751C102.92 76.5951 103.3 76.5951 103.61 76.7751C103.92 76.9551 104.11 77.2851 104.11 77.6451V89.4352C104.11 89.7952 103.92 90.1252 103.61 90.3052L52.5596 119.775C52.4096 119.865 52.2296 119.905 52.0596 119.905V119.905ZM53.0596 107.695V117.175L102.11 88.8552V79.3752L53.0596 107.695Z" />
<path d="M52.5609 35.5254L51.5615 37.2578L61.774 43.1492L62.7734 41.4168L52.5609 35.5254Z" />
<path d="M52.0596 49.1649C51.8896 49.1649 51.7096 49.1149 51.5596 49.0349L41.3496 43.1449C41.0396 42.9649 40.8496 42.6349 40.8496 42.2749C40.8496 41.9149 41.0396 41.5849 41.3496 41.4049L51.5596 35.5149C51.8696 35.3349 52.2496 35.3349 52.5596 35.5149C52.8696 35.6949 53.0596 36.0249 53.0596 36.3849V48.1749C53.0596 48.5349 52.8696 48.8649 52.5596 49.0449C52.4096 49.1349 52.2296 49.1749 52.0596 49.1749V49.1649ZM43.8496 42.2749L51.0596 46.4349V38.1149L43.8496 42.2749V42.2749Z" />
<path d="M11.6888 59.0342L10.6895 60.7666L20.9019 66.658L21.9013 64.9256L11.6888 59.0342Z" />
<path d="M62.2699 43.2751C61.9199 43.2751 61.5899 43.0951 61.3999 42.7751C61.1199 42.2951 61.2899 41.6851 61.7699 41.4051L71.9799 35.5151C72.4599 35.2351 73.0699 35.4051 73.3499 35.8851C73.3699 35.9151 73.3899 35.9551 73.3999 35.9851C73.5999 36.4551 73.4199 36.9951 72.9799 37.2451L72.9299 37.2751L62.7699 43.1451C62.6099 43.2351 62.4399 43.2751 62.2699 43.2751V43.2751Z" />
<path d="M21.9205 64.9807L20.9199 66.7124L31.1283 72.611L32.1289 70.8793L21.9205 64.9807Z" />
<path d="M32.1146 70.8277L31.1152 72.5601L41.3277 78.4515L42.3271 76.7191L32.1146 70.8277Z" />
<path d="M42.3453 76.7688L41.3447 78.5005L51.5531 84.399L52.5537 82.6673L42.3453 76.7688Z" />
<path d="M52.0498 96.325C51.8798 96.325 51.7098 96.2851 51.5498 96.1951C51.2398 96.0151 51.0498 95.685 51.0498 95.325V83.535C51.0498 83.175 51.2398 82.845 51.5498 82.665L82.0698 65.045C82.0698 65.045 82.1398 64.995 82.1798 64.975L102.6 53.1951C102.91 53.0151 103.29 53.0151 103.6 53.1951C103.91 53.3751 104.1 53.7051 104.1 54.0651V65.845C104.1 66.205 103.91 66.535 103.6 66.715L52.5498 96.1951C52.3998 96.2851 52.2198 96.325 52.0498 96.325ZM53.0498 84.115V93.595L102.1 65.275V55.805L83.2798 66.655C83.2798 66.655 83.2098 66.705 83.1698 66.725L53.0398 84.115H53.0498Z" />
<path d="M52.5514 11.9287L51.5508 13.6604L61.7591 19.559L62.7597 17.8273L52.5514 11.9287Z" />
<path d="M31.6396 37.3751C31.4696 37.3751 31.2896 37.335 31.1396 37.245L20.9297 31.355C20.6197 31.175 20.4297 30.845 20.4297 30.485C20.4297 30.125 20.6197 29.795 20.9297 29.615L51.5597 11.935C51.8697 11.755 52.2497 11.755 52.5597 11.935C52.8697 12.115 53.0597 12.445 53.0597 12.805V24.595C53.0597 24.955 52.8697 25.285 52.5597 25.465L32.1396 37.2551C31.9896 37.3451 31.8096 37.385 31.6396 37.385V37.3751ZM23.4297 30.485L31.6396 35.225L51.0597 24.015V14.535L23.4297 30.485Z" />
<path d="M11.7164 35.5073L10.7158 37.239L20.9242 43.1376L21.9248 41.4059L11.7164 35.5073Z" />
<path d="M62.7387 17.7671L61.7393 19.4995L71.9517 25.3909L72.9511 23.6585L62.7387 17.7671Z" />
<path d="M21.9056 41.3655L20.9062 43.0979L31.1188 48.9894L32.1182 47.257L21.9056 41.3655Z" />
<path d="M72.9762 23.7268L71.9756 25.4585L82.184 31.3571L83.1846 29.6254L72.9762 23.7268Z" />
<path d="M32.1305 47.2952L31.1299 49.0269L41.3383 54.9254L42.3389 53.1937L32.1305 47.2952Z" />
<path d="M42.3519 53.2193L41.3525 54.9517L51.565 60.8431L52.5644 59.1107L42.3519 53.2193Z" />
<path d="M52.0596 72.745C51.8896 72.745 51.7096 72.705 51.5596 72.615C51.2496 72.435 51.0596 72.105 51.0596 71.745V59.9549C51.0596 59.5949 51.2496 59.265 51.5596 59.085L102.61 29.615C102.92 29.435 103.3 29.435 103.61 29.615C103.92 29.795 104.11 30.125 104.11 30.485V42.275C104.11 42.635 103.92 42.9649 103.61 43.1449L52.5596 72.615C52.4096 72.705 52.2296 72.745 52.0596 72.745ZM53.0596 60.535V70.0149L102.11 41.695V32.215L53.0596 60.535Z" />
<path d="M52.0596 49.1651C51.8896 49.1651 51.7096 49.1251 51.5596 49.0351C51.2496 48.8551 51.0596 48.5251 51.0596 48.1651V36.3751C51.0596 36.0151 51.2496 35.6851 51.5596 35.5051C51.8696 35.3251 52.2496 35.3251 52.5596 35.5051L62.7695 41.3951C63.0795 41.5751 63.2695 41.9051 63.2695 42.2651C63.2695 42.6251 63.0795 42.9551 62.7695 43.1351L52.5596 49.0351C52.4096 49.1251 52.2296 49.1651 52.0596 49.1651ZM53.0596 38.1051V46.4351L60.2695 42.2751L53.0596 38.1151V38.1051Z" />
<path d="M61.7598 31.355L51.5498 25.455C51.2398 25.275 51.0498 24.945 51.0498 24.585V12.795C51.0498 12.435 51.2398 12.105 51.5498 11.925C51.8598 11.745 52.2398 11.745 52.5498 11.925L62.7598 17.825L61.7598 19.555L53.0498 14.525V24.0051L62.7598 29.615L61.7598 31.345V31.355Z" />
<path d="M62.7416 29.5684L61.7422 31.3008L71.9547 37.1922L72.9541 35.4598L62.7416 29.5684Z" />
<path d="M62.7387 17.7671L61.7393 19.4995L71.9517 25.3909L72.9511 23.6585L62.7387 17.7671Z" />
<path d="M72.9697 37.2451L71.9697 35.5151L80.6797 30.4851L71.9697 25.4551L72.9697 23.7251L83.1797 29.6251C83.4897 29.8051 83.6797 30.1351 83.6797 30.4951C83.6797 30.8551 83.4897 31.1851 83.1797 31.3651L72.9697 37.2551V37.2451Z" />
<path d="M10.71 96.1949L0.5 90.2949C0.19 90.1149 0 89.7849 0 89.4249V77.6349C0 77.2749 0.19 76.9449 0.5 76.7649C0.81 76.5849 1.19 76.5849 1.5 76.7649L11.71 82.6649L10.71 84.3949L2 79.3649V88.8449L11.71 94.4549L10.71 96.1849V96.1949Z" />
<path d="M11.6937 82.617L10.6943 84.3494L20.9069 90.2408L21.9063 88.5084L11.6937 82.617Z" />
<path d="M11.6957 94.4082L10.6963 96.1406L20.9088 102.032L21.9082 100.3L11.6957 94.4082Z" />
<path d="M21.9274 88.5681L20.9268 90.2998L31.1351 96.1984L32.1357 94.4667L21.9274 88.5681Z" />
<path d="M21.9166 100.346L20.916 102.078L31.1244 107.977L32.125 106.245L21.9166 100.346Z" />
<path d="M32.1097 94.4107L31.1104 96.1431L41.3228 102.034L42.3222 100.302L32.1097 94.4107Z" />
<path d="M32.1127 106.202L31.1133 107.934L41.3258 113.826L42.3252 112.093L32.1127 106.202Z" />
<path d="M82.6904 90.425C82.3404 90.425 82.0104 90.245 81.8204 89.925C81.7304 89.765 81.6904 89.595 81.6904 89.425C81.6904 89.075 81.8704 88.745 82.1904 88.555L92.4004 82.665C92.8804 82.385 93.4904 82.555 93.7704 83.035C93.8604 83.195 93.9004 83.365 93.9004 83.535C93.9004 83.885 93.7204 84.215 93.4004 84.405L83.1904 90.295C83.0304 90.385 82.8604 90.425 82.6904 90.425Z" />
<path d="M72.4805 96.3251C72.1305 96.3251 71.8005 96.1451 71.6105 95.8251C71.5205 95.6651 71.4805 95.4951 71.4805 95.3251C71.4805 94.9751 71.6605 94.6451 71.9805 94.4551L82.1905 88.5652C82.6705 88.2852 83.2805 88.4551 83.5605 88.9351C83.6505 89.0951 83.6905 89.2651 83.6905 89.4351C83.6905 89.7851 83.5105 90.1151 83.1905 90.3051L72.9805 96.1952C72.8205 96.2852 72.6505 96.3251 72.4805 96.3251Z" />
<path d="M62.2699 102.215C61.9199 102.215 61.5899 102.035 61.3999 101.715C61.1199 101.235 61.2899 100.625 61.7699 100.345L71.9799 94.455C72.4599 94.175 73.0699 94.345 73.3499 94.825C73.4399 94.985 73.4799 95.1551 73.4799 95.3351C73.4799 95.6751 73.2999 96.0051 72.9799 96.1951L62.7699 102.095C62.6099 102.185 62.4399 102.225 62.2699 102.225V102.215Z" />
<path d="M52.0599 108.115C51.7099 108.115 51.3799 107.935 51.1899 107.615C50.9099 107.135 51.0799 106.525 51.5599 106.245L61.7699 100.345C62.2499 100.065 62.8599 100.235 63.1399 100.715C63.2299 100.875 63.2799 101.055 63.2699 101.235C63.2699 101.575 63.0899 101.905 62.7699 102.085L52.5599 107.985C52.3999 108.075 52.2299 108.115 52.0599 108.115Z" />
<path d="M52.0499 119.905C51.8799 119.905 51.6999 119.865 51.5499 119.775L41.3398 113.875L42.3398 112.145L51.0499 117.175V107.695L41.3398 102.085L42.3398 100.355L52.5499 106.255C52.8599 106.435 53.0499 106.765 53.0499 107.125V118.915C53.0499 119.275 52.8599 119.605 52.5499 119.785C52.3899 119.875 52.2199 119.915 52.0499 119.915V119.905Z" />
<path d="M31.13 84.405L0.5 66.715C0.19 66.535 0 66.205 0 65.845V54.055C0 53.695 0.19 53.365 0.5 53.185C0.81 53.005 1.19 53.005 1.5 53.185L11.71 59.085L10.71 60.8151L2 55.785V65.265L32.13 82.665L31.13 84.395V84.405Z" />
<path d="M11.6888 59.0342L10.6895 60.7666L20.9019 66.658L21.9013 64.9256L11.6888 59.0342Z" />
<path d="M21.9205 64.9807L20.9199 66.7124L31.1283 72.611L32.1289 70.8793L21.9205 64.9807Z" />
<path d="M32.1146 70.8277L31.1152 72.5601L41.3277 78.4515L42.3271 76.7191L32.1146 70.8277Z" />
<path d="M53.0499 95.3249H51.0499V84.1149L41.3398 78.5049L42.3398 76.7749L52.5499 82.6749C52.8599 82.8549 53.0499 83.1849 53.0499 83.5449V95.3349V95.3249Z" />
<path d="M42.3444 88.5574L41.3438 90.2891L51.5521 96.1876L52.5527 94.4559L42.3444 88.5574Z" />
<path d="M32.1176 82.6192L31.1182 84.3516L41.3307 90.243L42.3301 88.5106L32.1176 82.6192Z" />
<path d="M41.8496 43.2751C41.4996 43.2751 41.1696 43.0951 40.9796 42.7751C40.8896 42.6151 40.8496 42.4451 40.8496 42.2751C40.8496 41.9251 41.0296 41.5951 41.3496 41.4051L51.5596 35.5151C52.0396 35.2351 52.6496 35.4051 52.9296 35.8851C53.0196 36.0451 53.0596 36.2151 53.0596 36.3851C53.0596 36.7351 52.8796 37.0652 52.5596 37.2552L42.3496 43.1451C42.1896 43.2351 42.0196 43.2751 41.8496 43.2751Z" />
<path d="M82.6904 66.8552C82.3404 66.8552 82.0104 66.6752 81.8204 66.3552C81.7304 66.1952 81.6904 66.0252 81.6904 65.8552C81.6904 65.5052 81.8704 65.1752 82.1904 64.9852L92.4004 59.0952C92.8804 58.8152 93.4904 58.9852 93.7704 59.4652C93.8604 59.6252 93.9004 59.7952 93.9004 59.9652C93.9004 60.3152 93.7204 60.6452 93.4004 60.8352L83.1904 66.7252C83.0304 66.8152 82.8604 66.8552 82.6904 66.8552Z" />
<path d="M72.4805 72.7451C72.1305 72.7451 71.8005 72.5651 71.6105 72.2451C71.5205 72.0851 71.4805 71.9151 71.4805 71.7451C71.4805 71.3951 71.6605 71.0651 71.9805 70.8751L82.1905 64.9851C82.6705 64.7051 83.2805 64.8751 83.5605 65.3551C83.6505 65.5151 83.6905 65.6851 83.6905 65.8551C83.6905 66.2051 83.5105 66.5351 83.1905 66.7251L72.9805 72.6151C72.8205 72.7051 72.6505 72.7451 72.4805 72.7451Z" />
<path d="M62.2695 78.6349C61.9195 78.6349 61.5895 78.4549 61.3995 78.1349C61.3095 77.9749 61.2695 77.8049 61.2695 77.6349C61.2695 77.2849 61.4495 76.9549 61.7695 76.7649L71.9796 70.875C72.4596 70.595 73.0695 70.765 73.3495 71.245C73.4395 71.405 73.4796 71.575 73.4796 71.745C73.4796 72.095 73.2996 72.425 72.9796 72.615L62.7695 78.505C62.6095 78.595 62.4395 78.6349 62.2695 78.6349Z" />
<path d="M52.0599 84.5351C51.7099 84.5351 51.3799 84.3551 51.1899 84.0351C50.9099 83.5551 51.0799 82.9451 51.5599 82.6651L61.7699 76.7751C62.2499 76.4951 62.8599 76.6651 63.1399 77.1451C63.2299 77.3051 63.2699 77.4751 63.2699 77.6451C63.2699 77.9851 63.0899 78.3251 62.7699 78.5151L52.5599 84.4051C52.3999 84.4951 52.2299 84.5351 52.0599 84.5351Z" />
<path d="M31.13 60.8249L20.92 54.935C20.92 54.935 20.85 54.885 20.81 54.865L0.5 43.1449C0.19 42.9649 0 42.635 0 42.275V30.485C0 30.125 0.19 29.795 0.5 29.615C0.81 29.435 1.19 29.435 1.5 29.615L11.71 35.505L10.71 37.235L2 32.2049V41.685L21.92 53.175C21.92 53.175 21.99 53.225 22.03 53.245L32.13 59.0749L31.13 60.805V60.8249Z" />
<path d="M11.7164 35.5073L10.7158 37.239L20.9242 43.1376L21.9248 41.4059L11.7164 35.5073Z" />
<path d="M21.9056 41.3655L20.9062 43.0979L31.1188 48.9894L32.1182 47.257L21.9056 41.3655Z" />
<path d="M32.1305 47.2952L31.1299 49.0269L41.3383 54.9254L42.3389 53.1937L32.1305 47.2952Z" />
<path d="M53.0499 71.7451H51.0499V60.5351L41.3398 54.9351L42.3398 53.2051L52.5499 59.0951C52.8599 59.2751 53.0499 59.6051 53.0499 59.9651V71.7551V71.7451Z" />
<path d="M51.5499 72.6151L41.3398 66.7251C41.0298 66.5451 40.8398 66.2151 40.8398 65.8551H41.8398L42.3398 64.9851L52.5499 70.8751L51.5499 72.6051V72.6151Z" />
<path d="M32.1127 59.0462L31.1133 60.7786L41.3258 66.67L42.3252 64.9376L32.1127 59.0462Z" />
<path d="M41.8502 19.695C41.7602 19.695 41.6802 19.685 41.6002 19.665H41.5902C41.4602 19.625 41.3302 19.565 41.2302 19.475C41.1402 19.395 41.0602 19.305 41.0002 19.195C40.8102 18.865 40.8302 18.475 41.0102 18.175C41.0902 18.035 41.2102 17.915 41.3602 17.835L51.5702 11.945C52.0502 11.665 52.6602 11.835 52.9402 12.315C53.2202 12.795 53.0502 13.405 52.5702 13.685L42.3602 19.575C42.2002 19.665 42.0302 19.705 41.8602 19.705L41.8502 19.695Z" />
<path d="M31.64 25.5851C31.29 25.5851 30.96 25.4051 30.77 25.0851C30.49 24.6051 30.66 23.9951 31.14 23.7151L41.35 17.8152C41.83 17.5352 42.44 17.7051 42.72 18.1851C42.81 18.3451 42.85 18.5151 42.85 18.6851C42.85 19.0251 42.67 19.3651 42.35 19.5551L32.14 25.4551C31.98 25.5451 31.81 25.5851 31.64 25.5851Z" />
<path d="M21.4297 31.4851C21.0797 31.4851 20.7497 31.3051 20.5597 30.9851C20.4697 30.8251 20.4297 30.6551 20.4297 30.4851C20.4297 30.1351 20.6097 29.8051 20.9297 29.6151L31.1396 23.7251C31.6196 23.4451 32.2296 23.6151 32.5096 24.0951C32.5996 24.2551 32.6396 24.4251 32.6396 24.5951C32.6396 24.9451 32.4596 25.2751 32.1396 25.4651L21.9297 31.3551C21.7697 31.4451 21.5997 31.4851 21.4297 31.4851Z" />
<path d="M82.6904 43.2751C82.3404 43.2751 82.0104 43.0951 81.8204 42.7751C81.7304 42.6151 81.6904 42.4451 81.6904 42.2751C81.6904 41.9251 81.8704 41.5951 82.1904 41.4051L92.4004 35.5151C92.8804 35.2351 93.4904 35.4051 93.7704 35.8851C93.8604 36.0451 93.9004 36.2151 93.9004 36.3851C93.9004 36.7351 93.7204 37.0652 93.4004 37.2552L83.1904 43.1451C83.0304 43.2351 82.8604 43.2751 82.6904 43.2751Z" />
<path d="M72.4805 49.165C72.1305 49.165 71.8005 48.985 71.6105 48.665C71.5205 48.505 71.4805 48.335 71.4805 48.165C71.4805 47.815 71.6605 47.485 71.9805 47.295L82.1905 41.405C82.6705 41.125 83.2805 41.295 83.5605 41.775C83.6505 41.935 83.6905 42.105 83.6905 42.275C83.6905 42.625 83.5105 42.955 83.1905 43.145L72.9805 49.035C72.8205 49.125 72.6505 49.165 72.4805 49.165Z" />
<path d="M62.2695 55.0652C61.9195 55.0652 61.5895 54.8852 61.3995 54.5652C61.3095 54.4052 61.2695 54.2352 61.2695 54.0652C61.2695 53.7152 61.4495 53.3852 61.7695 53.1952L71.9796 47.3051C72.4596 47.0251 73.0695 47.1951 73.3495 47.6751C73.4395 47.8351 73.4796 48.0051 73.4796 48.1751C73.4796 48.5251 73.2996 48.8551 72.9796 49.0451L62.7695 54.9351C62.6095 55.0251 62.4395 55.0652 62.2695 55.0652Z" />
<path d="M52.0596 60.955C51.7096 60.955 51.3796 60.775 51.1896 60.455C51.0996 60.295 51.0596 60.125 51.0596 59.955C51.0596 59.605 51.2396 59.275 51.5596 59.085L61.7695 53.195C62.2495 52.915 62.8595 53.085 63.1395 53.565C63.2295 53.725 63.2695 53.895 63.2695 54.065C63.2695 54.415 63.0895 54.745 62.7695 54.935L52.5596 60.825C52.3996 60.915 52.2296 60.955 52.0596 60.955Z" />
<path d="M10.71 37.245L0.5 31.355C0.19 31.175 0 30.845 0 30.485C0 30.125 0.19 29.795 0.5 29.615L51.55 0.135C51.86 -0.045 52.24 -0.045 52.55 0.135L62.7599 6.03502L61.7599 7.76501L52.05 2.15502L3 30.475L11.71 35.5051L10.71 37.235V37.245Z" />
<path d="M51.5514 12.0308L20.917 29.7104L21.9167 31.4427L52.5511 13.763L51.5514 12.0308Z" />
<path d="M62.7357 5.98537L61.7363 7.71777L71.9489 13.6092L72.9483 11.8768L62.7357 5.98537Z" />
<path d="M52.5514 11.9287L51.5508 13.6604L61.7591 19.559L62.7597 17.8273L52.5514 11.9287Z" />
<path d="M72.9781 11.9382L71.9775 13.6699L82.1859 19.5685L83.1865 17.8368L72.9781 11.9382Z" />
<path d="M62.7387 17.7671L61.7393 19.4995L71.9517 25.3909L72.9511 23.6585L62.7387 17.7671Z" />
<path d="M83.1527 17.7793L82.1533 19.5117L92.3658 25.4031L93.3652 23.6707L83.1527 17.7793Z" />
<path d="M72.9762 23.7268L71.9756 25.4585L82.184 31.3571L83.1846 29.6254L72.9762 23.7268Z" />
<path d="M52.05 60.9551C51.88 60.9551 51.71 60.9151 51.55 60.8251L10.71 37.2451L11.71 35.5151L52.05 58.8051L101.1 30.4851L92.39 25.4551L93.39 23.7251L103.6 29.6251C103.91 29.8051 104.1 30.1351 104.1 30.4951C104.1 30.8551 103.91 31.1851 103.6 31.3651L52.55 60.8351C52.39 60.9251 52.22 60.9651 52.05 60.9651V60.9551ZM52.05 49.1651C51.88 49.1651 51.71 49.1251 51.55 49.0351L41.34 43.1451C41.34 43.1451 41.27 43.0951 41.23 43.0751L20.92 31.3551L21.92 29.6251L42.34 41.4051C42.34 41.4051 42.41 41.4551 42.45 41.4751L52.05 47.0151L82.18 29.6251L83.18 31.3551L52.55 49.0351C52.39 49.1251 52.22 49.1651 52.05 49.1651V49.1651Z" />
<path d="M10.71 60.8251L0.5 54.9252C0.19 54.7452 0 54.4152 0 54.0552C0 53.6952 0.19 53.3652 0.5 53.1852L10.71 47.2952C11.02 47.1152 11.4 47.1152 11.71 47.2952L21.92 53.1852L20.92 54.9152L11.21 49.3152L3 54.0552L11.71 59.0851L10.71 60.8152V60.8251Z" />
<path d="M11.6888 59.0342L10.6895 60.7666L20.9019 66.658L21.9013 64.9256L11.6888 59.0342Z" />
<path d="M31.1299 60.825L20.9199 54.9351C20.6099 54.7551 20.4199 54.4251 20.4199 54.0651H21.4199L21.9199 53.1951L32.1299 59.085L31.1299 60.8151V60.825Z" />
<path d="M21.9205 64.9807L20.9199 66.7124L31.1283 72.611L32.1289 70.8793L21.9205 64.9807Z" />
<path d="M32.1127 59.0462L31.1133 60.7786L41.3258 66.67L42.3252 64.9376L32.1127 59.0462Z" />
<path d="M32.1146 70.8277L31.1152 72.5601L41.3277 78.4515L42.3271 76.7191L32.1146 70.8277Z" />
<path d="M51.5499 72.6151L41.3398 66.7251C41.0298 66.5451 40.8398 66.2151 40.8398 65.8551H41.8398L42.3398 64.9851L52.5499 70.8751L51.5499 72.6051V72.6151Z" />
<path d="M52.0499 84.5349C51.8799 84.5349 51.6999 84.4949 51.5499 84.4049L41.3398 78.5049L42.3398 76.7749L52.0499 82.3849L101.1 54.0649L92.8898 49.3249L62.8699 66.6549C62.8699 66.6549 62.7998 66.7049 62.7598 66.7249L52.5499 72.6149L51.5499 70.8849L61.6498 65.0549C61.6498 65.0549 61.7198 65.0049 61.7598 64.9849L92.3898 47.3049C92.6998 47.1249 93.0798 47.1249 93.3898 47.3049L103.6 53.2049C103.91 53.3849 104.1 53.7149 104.1 54.0749C104.1 54.4349 103.91 54.7649 103.6 54.9449L52.5499 84.4149C52.3999 84.5049 52.2199 84.5449 52.0499 84.5449V84.5349Z" />
<path d="M10.71 84.405L0.5 78.505C0.19 78.325 0 77.9949 0 77.6349C0 77.2749 0.19 76.9449 0.5 76.7649L10.71 70.875C11.02 70.695 11.4 70.695 11.71 70.875L21.92 76.7649L20.92 78.495L11.21 72.8949L3 77.6349L11.71 82.665L10.71 84.3949V84.405Z" />
<path d="M11.6937 82.617L10.6943 84.3494L20.9069 90.2408L21.9063 88.5084L11.6937 82.617Z" />
<path d="M21.9195 76.7693L20.9189 78.501L31.1273 84.3995L32.1279 82.6678L21.9195 76.7693Z" />
<path d="M32.1176 82.6192L31.1182 84.3516L41.3307 90.243L42.3301 88.5106L32.1176 82.6192Z" />
<path d="M21.9274 88.5681L20.9268 90.2998L31.1351 96.1984L32.1357 94.4667L21.9274 88.5681Z" />
<path d="M42.3444 88.5574L41.3438 90.2891L51.5521 96.1876L52.5527 94.4559L42.3444 88.5574Z" />
<path d="M32.1097 94.4107L31.1104 96.1431L41.3228 102.034L42.3222 100.302L32.1097 94.4107Z" />
<path d="M52.0499 108.115C51.8799 108.115 51.6999 108.065 51.5499 107.985L41.3398 102.085L42.3398 100.355L52.0499 105.965L101.1 77.645L92.8898 72.905L52.5499 96.1951L51.5499 94.465L92.3898 70.885C92.6998 70.705 93.0798 70.705 93.3898 70.885L103.6 76.775C103.91 76.955 104.1 77.285 104.1 77.645C104.1 78.005 103.91 78.335 103.6 78.515L52.5499 107.995C52.3999 108.085 52.2199 108.125 52.0499 108.125V108.115Z" />
<path d="M41.8398 43.2651C41.6698 43.2651 41.4998 43.2251 41.3398 43.1351L31.1299 37.2451C30.8199 37.0651 30.6299 36.7351 30.6299 36.3751C30.6299 36.0151 30.8199 35.6851 31.1299 35.5051L51.5499 23.7151C51.8599 23.5351 52.2399 23.5351 52.5499 23.7151L62.7598 29.6151L61.7598 31.3451L52.0499 25.7351L33.6299 36.3651L41.8398 41.1051L51.5499 35.5051L52.5499 37.2351L42.3398 43.1251C42.1798 43.2151 42.0098 43.2551 41.8398 43.2551V43.2651Z" />
<path d="M52.5609 35.5254L51.5615 37.2578L61.774 43.1492L62.7734 41.4168L52.5609 35.5254Z" />
<path d="M62.7598 43.135L62.2598 42.275H61.2598C61.2598 41.925 61.4498 41.585 61.7598 41.405L70.4698 36.385L61.7598 31.3651L62.7598 29.635L72.9698 35.525C73.2798 35.705 73.4698 36.035 73.4698 36.395C73.4698 36.755 73.2798 37.085 72.9698 37.265L62.7598 43.155V43.135Z" />
</svg>
