<svg width="105" height="120" viewBox="0 0 105 120" fill="none" xmlns="http://www.w3.org/2000/svg">
<path d="M21.4297 102.215C21.2597 102.215 21.0797 102.175 20.9297 102.085C20.6197 101.905 20.4297 101.575 20.4297 101.215V65.8448C20.4297 65.4848 20.6197 65.1548 20.9297 64.9748C21.2397 64.7948 21.6197 64.7948 21.9297 64.9748L42.3497 76.7648C42.6597 76.9448 42.8497 77.2748 42.8497 77.6348C42.8497 77.9948 42.6597 78.3248 42.3497 78.5048L32.6397 84.1048V95.3148C32.6397 95.6748 32.4497 96.0048 32.1397 96.1848L21.9297 102.075C21.7797 102.165 21.5997 102.205 21.4297 102.205V102.215ZM22.4297 67.5848V99.4848L30.6397 94.7448V83.5348C30.6397 83.1748 30.8297 82.8448 31.1397 82.6648L39.8497 77.6348L22.4297 67.5748V67.5848Z" />
<path d="M62.2705 90.425C62.0005 90.425 61.7305 90.315 61.5405 90.105C61.4905 90.055 61.4405 89.995 61.4105 89.925C61.3605 89.845 61.3305 89.765 61.3105 89.675C61.2705 89.535 61.2705 89.395 61.2905 89.255V89.235V89.215C61.3105 89.115 61.3405 89.025 61.3905 88.935C61.4705 88.775 61.6005 88.645 61.7605 88.555L71.9705 82.665C72.4505 82.385 73.0605 82.555 73.3405 83.035C73.6205 83.515 73.4505 84.125 72.9705 84.405L62.7605 90.295C62.7605 90.295 62.6705 90.345 62.6305 90.365H62.5905V90.385H62.5805C62.4805 90.425 62.3705 90.435 62.2705 90.435V90.425Z" />
<path d="M42.3373 88.553L41.3379 90.2854L51.5504 96.1768L52.5498 94.4444L42.3373 88.553Z" />
<path d="M52.0605 119.895C51.8905 119.895 51.7105 119.855 51.5605 119.765C51.2505 119.585 51.0605 119.255 51.0605 118.895V95.315C51.0605 94.955 51.2505 94.625 51.5605 94.445L71.9805 82.655C72.2905 82.475 72.6705 82.475 72.9805 82.655C73.2905 82.835 73.4805 83.165 73.4805 83.525V107.105C73.4805 107.465 73.2905 107.795 72.9805 107.975L52.5605 119.765C52.4105 119.855 52.2305 119.895 52.0605 119.895ZM53.0605 95.895V117.165L71.4805 106.535V85.265L53.0605 95.895Z" />
<path d="M11.7094 35.5056L10.71 37.238L20.9225 43.1295L21.9219 41.3971L11.7094 35.5056Z" />
<path d="M52.0605 37.3751C51.7105 37.3751 51.3806 37.1951 51.1906 36.8751C51.1006 36.7151 51.0605 36.5451 51.0605 36.3751C51.0605 36.0351 51.2405 35.695 51.5605 35.515L71.9805 23.7251C72.4605 23.4451 73.0705 23.6151 73.3505 24.0951C73.6305 24.5751 73.4605 25.1851 72.9805 25.4651L52.5605 37.2551C52.4005 37.3451 52.2305 37.385 52.0605 37.385V37.3751Z" />
<path d="M21.901 41.3716L20.9004 43.1033L31.1088 49.0018L32.1094 47.2701L21.901 41.3716Z" />
<path d="M42.3307 17.7937L41.3301 19.5254L51.5385 25.424L52.5391 23.6923L42.3307 17.7937Z" />
<path d="M52.0605 37.3751C51.8905 37.3751 51.7105 37.335 51.5605 37.245C51.2505 37.065 51.0605 36.7351 51.0605 36.3751V24.585C51.0605 24.225 51.2505 23.895 51.5605 23.715L71.9805 11.925C72.2905 11.745 72.6705 11.745 72.9805 11.925C73.2905 12.105 73.4805 12.435 73.4805 12.795V24.585C73.4805 24.945 73.2905 25.275 72.9805 25.455L52.5605 37.245C52.4105 37.335 52.2305 37.3751 52.0605 37.3751ZM53.0605 25.165V34.645L71.4805 24.015V14.5351L53.0605 25.165Z" />
<path d="M32.1254 47.2893L31.126 49.0217L41.3385 54.9132L42.3379 53.1808L32.1254 47.2893Z" />
<path d="M42.3248 53.1694L41.3242 54.9011L51.5326 60.7997L52.5332 59.068L42.3248 53.1694Z" />
<path d="M82.6798 102.215C82.5098 102.215 82.3398 102.175 82.1798 102.085C81.8698 101.905 81.6798 101.575 81.6798 101.215V67.5749L52.5498 84.3949C52.2398 84.5749 51.8598 84.5749 51.5498 84.3949C51.2398 84.2149 51.0498 83.885 51.0498 83.525V59.9449C51.0498 59.5849 51.2398 59.2549 51.5498 59.0749L102.6 29.595C102.91 29.415 103.29 29.415 103.6 29.595C103.91 29.775 104.1 30.105 104.1 30.465V89.4149C104.1 89.7749 103.91 90.105 103.6 90.285L83.1798 102.075C83.0298 102.165 82.8498 102.205 82.6798 102.205V102.215ZM82.6798 64.845C82.8498 64.845 83.0198 64.885 83.1798 64.975C83.4898 65.155 83.6798 65.485 83.6798 65.845V99.4849L102.1 88.8549V32.215L53.0498 60.535V81.805L82.1798 64.9849C82.3298 64.8949 82.5098 64.8549 82.6798 64.8549V64.845Z" />
<path d="M71.4697 83.5349V83.5249H73.4697L71.4697 83.5349Z" />
<path d="M41.3399 113.875L31.1299 107.975C30.8199 107.795 30.6299 107.465 30.6299 107.105V83.5351C30.6299 83.1751 30.8199 82.845 31.1299 82.665C31.4399 82.485 31.8199 82.485 32.1299 82.665L42.3399 88.555L41.3399 90.2851L32.6299 85.265V106.525L42.3399 112.135L41.3399 113.865V113.875Z" />
<path d="M52.0498 119.895C51.8798 119.895 51.7098 119.855 51.5498 119.765L41.3398 113.875L42.3398 112.145L51.0498 117.165V95.8949L41.3398 90.2949L42.3398 88.5649L52.5498 94.4549C52.8598 94.6349 53.0498 94.9649 53.0498 95.3249V118.905C53.0498 119.265 52.8598 119.595 52.5498 119.775C52.3998 119.865 52.2198 119.905 52.0498 119.905V119.895Z" />
<path d="M41.3399 31.3451L31.1299 25.455C30.8199 25.275 30.6299 24.945 30.6299 24.585V12.795C30.6299 12.435 30.8199 12.105 31.1299 11.925C31.4399 11.745 31.8199 11.745 32.1299 11.925L42.3399 17.8151L41.3399 19.545L32.6299 14.525V24.0051L42.3399 29.605L41.3399 31.335V31.3451Z" />
<path d="M52.0498 37.375C51.8798 37.375 51.6998 37.335 51.5498 37.245L41.3398 31.345L42.3398 29.615L51.0498 34.645V25.1649L41.3398 19.555L42.3398 17.825L52.5498 23.725C52.8598 23.905 53.0498 24.235 53.0498 24.595V36.3849C53.0498 36.7449 52.8598 37.075 52.5498 37.255C52.3898 37.345 52.2198 37.3849 52.0498 37.3849V37.375Z" />
<path d="M10.71 96.185L0.5 90.295C0.19 90.115 0 89.785 0 89.425V30.475C0 30.115 0.19 29.785 0.5 29.605C0.81 29.425 1.19 29.425 1.5 29.605L11.71 35.505L10.71 37.235L2 32.205V88.845L11.71 94.445L10.71 96.175V96.185Z" />
<path d="M11.7094 35.5056L10.71 37.238L20.9225 43.1295L21.9219 41.3971L11.7094 35.5056Z" />
<path d="M21.4199 102.215C21.2499 102.215 21.0699 102.175 20.9199 102.085L10.71 96.185L11.71 94.455L20.4199 99.485V65.845H22.4199V101.215C22.4199 101.575 22.2299 101.905 21.9199 102.085C21.7599 102.175 21.5899 102.215 21.4199 102.215Z" />
<path d="M31.6396 96.315C31.0896 96.315 30.6396 95.865 30.6396 95.315V83.525C30.6396 83.165 30.8296 82.835 31.1396 82.655C31.4496 82.475 31.8296 82.475 32.1396 82.655L42.3496 88.545C42.5696 88.675 42.7196 88.875 42.7996 89.095C42.8896 89.365 42.8597 89.655 42.7197 89.915C42.4397 90.395 41.8296 90.555 41.3596 90.285L32.6497 85.255V95.315C32.6497 95.865 32.1997 96.315 31.6497 96.315H31.6396Z" />
<path d="M82.6797 102.215C82.5097 102.215 82.3397 102.175 82.1797 102.085L71.9697 96.1948C71.6597 96.0148 71.4697 95.6848 71.4697 95.3248V83.5348H73.4697V94.7448L81.6797 99.4848V67.5748L72.9697 72.6048L71.9697 70.8748L82.1797 64.9748C82.4897 64.7948 82.8697 64.7948 83.1797 64.9748C83.4897 65.1548 83.6797 65.4848 83.6797 65.8448V101.215C83.6797 101.575 83.4897 101.905 83.1797 102.085C83.0297 102.175 82.8497 102.215 82.6797 102.215V102.215Z" />
<path d="M71.9698 84.395L61.7598 78.505C61.4498 78.325 61.2598 77.995 61.2598 77.635C61.2598 77.275 61.4498 76.945 61.7598 76.765L71.9698 70.875L72.9698 72.605L64.2598 77.625L72.9698 82.645L71.9698 84.375V84.395Z" />
<path d="M52.0605 96.3249C51.7105 96.3249 51.3806 96.1449 51.1906 95.8249C51.1006 95.6649 51.0605 95.4949 51.0605 95.3249C51.0605 94.9749 51.2405 94.6449 51.5605 94.4549L61.7706 88.5649C62.2506 88.2849 62.8606 88.4549 63.1406 88.9349C63.2306 89.0949 63.2706 89.2649 63.2706 89.4349C63.2706 89.7849 63.0906 90.1149 62.7706 90.3049L52.5605 96.1949C52.4005 96.2849 52.2305 96.3249 52.0605 96.3249Z" />
<path d="M52.0605 25.5849C51.7105 25.5849 51.3806 25.4049 51.1906 25.0849C51.1006 24.9249 51.0605 24.7549 51.0605 24.5849C51.0605 24.2349 51.2405 23.9049 51.5605 23.7149L61.7706 17.8249C62.2506 17.5449 62.8606 17.7149 63.1406 18.1949C63.2306 18.3549 63.2706 18.5249 63.2706 18.6949C63.2706 19.0449 63.0906 19.3749 62.7706 19.5649L52.5605 25.4549C52.4005 25.5449 52.2305 25.5849 52.0605 25.5849Z" />
<path d="M82.6899 43.2648C82.3399 43.2648 82.0099 43.0848 81.8199 42.7648C81.7199 42.5848 81.6699 42.3848 81.6899 42.1848C81.7099 41.9448 81.8099 41.7248 81.9799 41.5548C82.0399 41.4948 82.1099 41.4448 82.1899 41.3948L92.3999 35.5049C92.8799 35.2249 93.4899 35.3948 93.7699 35.8748C94.0499 36.3548 93.8799 36.9648 93.3999 37.2448L83.1899 43.1348H83.1699C83.0899 43.1848 83.0099 43.2148 82.9299 43.2348C82.8499 43.2548 82.7699 43.2648 82.6899 43.2648Z" />
<path d="M72.4799 49.165C72.4799 49.165 72.3799 49.165 72.3399 49.155H72.3299C72.0799 49.115 71.8599 48.985 71.6999 48.775C71.6999 48.775 71.6499 48.705 71.6299 48.665C71.6199 48.645 71.6099 48.625 71.5999 48.605C71.4899 48.375 71.4699 48.125 71.5399 47.895C71.5899 47.725 71.6799 47.565 71.8099 47.445C71.8699 47.395 71.9299 47.345 71.9999 47.305L82.2099 41.405C82.6899 41.125 83.2999 41.295 83.5799 41.775C83.8599 42.255 83.6899 42.865 83.2099 43.145L72.9999 49.035C72.8399 49.125 72.6699 49.165 72.4999 49.165H72.4799Z" />
<path d="M62.2695 55.0549C61.9195 55.0549 61.5895 54.8749 61.3995 54.5549C61.3095 54.3949 61.2695 54.2249 61.2695 54.0549C61.2695 53.7049 61.4495 53.3749 61.7695 53.1849L71.9795 47.2949C72.4595 47.0149 73.0695 47.1849 73.3495 47.6649C73.4395 47.8249 73.4795 47.9949 73.4795 48.1649C73.4795 48.5149 73.2995 48.8449 72.9795 49.0349L62.7695 54.9249C62.6095 55.0149 62.4395 55.0549 62.2695 55.0549Z" />
<path d="M53.0498 83.5349H51.0498V60.5349L41.3398 54.9248L42.3398 53.1948L52.5498 59.0948C52.8598 59.2748 53.0498 59.6048 53.0498 59.9648V83.5448V83.5349Z" />
<path d="M21.9388 64.9964L20.9385 66.7283L51.5667 84.4186L52.567 82.6867L21.9388 64.9964Z" />
<path d="M21.901 41.3716L20.9004 43.1033L31.1088 49.0018L32.1094 47.2701L21.901 41.3716Z" />
<path d="M32.1254 47.2893L31.126 49.0217L41.3385 54.9132L42.3379 53.1808L32.1254 47.2893Z" />
<path d="M52.0595 60.955C51.7895 60.955 51.5196 60.845 51.3296 60.635C51.2796 60.585 51.2296 60.525 51.1996 60.455C51.1496 60.375 51.1195 60.295 51.0995 60.205C51.0595 60.065 51.0596 59.925 51.0796 59.785V59.765V59.745C51.0996 59.645 51.1295 59.555 51.1795 59.465C51.2595 59.305 51.3895 59.165 51.5495 59.075L61.7596 53.185C62.2396 52.905 62.8495 53.075 63.1295 53.555C63.4095 54.035 63.2396 54.645 62.7596 54.925L52.5495 60.815C52.5495 60.815 52.4695 60.865 52.4195 60.885H52.3795V60.905H52.3695C52.2695 60.945 52.1595 60.955 52.0595 60.955V60.955Z" />
<path d="M31.64 84.5349C31.29 84.5349 30.96 84.3549 30.77 84.0349C30.49 83.5549 30.66 82.9449 31.14 82.6649L41.3499 76.7649C41.8299 76.4849 42.44 76.6549 42.72 77.1349C43 77.6149 42.8299 78.2249 42.3499 78.5049L32.14 84.3949C31.98 84.4849 31.81 84.5249 31.64 84.5249V84.5349Z" />
<path d="M72.4706 84.5351C72.3306 84.5351 72.1805 84.505 72.0505 84.445C72.0205 84.435 72.0006 84.4251 71.9706 84.4051L61.7605 78.5151C61.2805 78.2351 61.1205 77.6251 61.3905 77.1451C61.6705 76.6651 62.2805 76.5051 62.7605 76.7751L72.9706 82.6651C73.2906 82.8451 73.4706 83.1851 73.4706 83.5351C73.4706 83.7051 73.4306 83.8751 73.3406 84.0351C73.1506 84.3551 72.8206 84.5351 72.4706 84.5351Z" />
<path d="M52.5498 37.245L51.5498 35.5149L82.1798 17.8249C82.4898 17.6449 82.8698 17.6449 83.1798 17.8249L93.3898 23.725L92.3898 25.4549L82.6798 19.845L52.5498 37.245V37.245Z" />
<path d="M21.9111 41.3815L20.9111 43.1135L41.332 54.9035L42.332 53.1715L21.9111 41.3815Z" />
<path d="M42.3287 29.5823L41.3281 31.314L51.5365 37.2125L52.5371 35.4808L42.3287 29.5823Z" />
<path d="M32.1303 23.7163L31.1309 25.4487L41.3434 31.3402L42.3428 29.6078L32.1303 23.7163Z" />
<path d="M11.7094 35.5056L10.71 37.238L20.9225 43.1295L21.9219 41.3971L11.7094 35.5056Z" />
<path d="M10.71 37.2449L0.5 31.3449C0.19 31.1649 0 30.8349 0 30.4749C0 30.1149 0.19 29.7849 0.5 29.6049L20.92 17.8149C21.23 17.6349 21.61 17.6349 21.92 17.8149L32.13 23.7149L31.13 25.4449L21.42 19.8349L3 30.4749L11.71 35.5049L10.71 37.2349V37.2449Z" />
<path d="M52.0498 60.9549C51.8798 60.9549 51.6998 60.9049 51.5498 60.8249L41.3398 54.9249L42.3398 53.1949L52.0498 58.8049L101.1 30.4849L92.3898 25.4649L93.3898 23.7349L103.6 29.6249C103.91 29.8049 104.1 30.1349 104.1 30.4949C104.1 30.8549 103.91 31.1849 103.6 31.3649L52.5498 60.8449C52.3998 60.9349 52.2198 60.9749 52.0498 60.9749V60.9549Z" />
<path d="M41.3399 90.2949L31.1299 84.4049C30.8199 84.2249 30.6299 83.8949 30.6299 83.5349C30.6299 83.1749 30.8199 82.8349 31.1299 82.6549L41.3399 76.7649C41.6499 76.5849 42.0299 76.5849 42.3399 76.7649L52.5499 82.6649L51.5499 84.3949L41.8399 78.7849L33.6199 83.5249L42.3399 88.5549L41.3399 90.2849V90.2949Z" />
<path d="M52.0498 96.3149C51.8798 96.3149 51.7098 96.2749 51.5498 96.1849L41.3398 90.2949L42.3398 88.5649L52.0498 94.1649L70.4698 83.5349L62.2598 78.7949L52.5498 84.4049L51.5498 82.6749L61.7598 76.7749C62.0698 76.5949 62.4498 76.5949 62.7598 76.7749L72.9698 82.6749C73.2798 82.8549 73.4698 83.1849 73.4698 83.5449C73.4698 83.9049 73.2798 84.2349 72.9698 84.4149L52.5498 96.1949C52.3898 96.2849 52.2198 96.3249 52.0498 96.3249V96.3149Z" />
<path d="M41.3399 19.555L31.1299 13.665C30.8199 13.485 30.6299 13.155 30.6299 12.795C30.6299 12.435 30.8199 12.105 31.1299 11.925L51.5499 0.135C51.8599 -0.045 52.2399 -0.045 52.5499 0.135L62.7599 6.02501L61.7599 7.75503L52.0499 2.15502L33.6299 12.795L42.3399 17.815L41.3399 19.545V19.555Z" />
<path d="M52.0498 25.5849C51.8798 25.5849 51.6998 25.5449 51.5498 25.4549L41.3398 19.5549L42.3398 17.8249L52.0498 23.4349L70.4698 12.7949L61.7598 7.76489L62.7598 6.03491L72.9698 11.9349C73.2798 12.1149 73.4698 12.4449 73.4698 12.8049C73.4698 13.1649 73.2798 13.4949 72.9698 13.6749L52.5498 25.4649C52.3998 25.5549 52.2198 25.5949 52.0498 25.5949V25.5849Z" />
</svg>
