<svg width="105" height="120" viewBox="0 0 105 120" fill="none" xmlns="http://www.w3.org/2000/svg">
<path d="M31.6299 90.4252C31.4599 90.4252 31.2799 90.3853 31.1299 90.2953L20.9199 84.3953C20.6099 84.2153 20.4199 83.8853 20.4199 83.5253C20.4199 83.1653 20.6099 82.8353 20.9199 82.6553L31.1299 76.7653L41.34 70.8652L42.34 72.5953L32.6299 78.2053V89.4153C32.6299 89.7753 32.4399 90.1053 32.1299 90.2853C31.9699 90.3753 31.7999 90.4153 31.6299 90.4153V90.4252ZM23.4199 83.5253L30.6299 87.6953V79.3652L23.4199 83.5253V83.5253Z" />
<path d="M41.8496 108.105C41.6796 108.105 41.4996 108.055 41.3496 107.975C41.0396 107.795 40.8496 107.465 40.8496 107.105V95.3151C40.8496 94.9551 41.0396 94.6251 41.3496 94.4451C41.6596 94.2651 42.0396 94.2651 42.3496 94.4451L52.5596 100.335C52.8696 100.515 53.0596 100.845 53.0596 101.205C53.0596 101.565 52.8696 101.895 52.5596 102.075L42.3496 107.965C42.1996 108.055 42.0196 108.095 41.8496 108.095V108.105ZM42.8496 97.0451V105.365L50.0596 101.205L42.8496 97.0451V97.0451Z" />
<path d="M20.9199 72.6052L10.71 66.7152C10.4 66.5352 10.21 66.2052 10.21 65.8452C10.21 65.4852 10.4 65.1552 10.71 64.9752L20.9199 59.0752L21.9199 60.8052L13.21 65.8352L21.9199 70.8652L20.9199 72.5952V72.6052Z" />
<path d="M21.4297 84.5251C21.2597 84.5251 21.0797 84.4751 20.9297 84.3951C20.6197 84.2151 20.4297 83.8851 20.4297 83.5251V71.735C20.4297 71.375 20.6197 71.045 20.9297 70.865L31.1397 64.9751C31.4497 64.7951 31.8297 64.7951 32.1397 64.9751L42.3497 70.865C42.6597 71.045 42.8497 71.375 42.8497 71.735C42.8497 72.095 42.6597 72.4251 42.3497 72.6051L32.1397 78.495L21.9297 84.3851C21.7797 84.4751 21.5997 84.5151 21.4297 84.5151V84.5251ZM22.4297 72.3151V81.7951L39.8497 71.735L31.6397 66.995L22.4297 72.3151V72.3151Z" />
<path d="M11.2197 66.8451C11.0497 66.8451 10.8697 66.8051 10.7197 66.7151C10.4097 66.5351 10.2197 66.2051 10.2197 65.8451V54.055C10.2197 53.695 10.4097 53.365 10.7197 53.185C11.0297 53.005 11.4097 53.005 11.7197 53.185L21.9297 59.0751C22.2397 59.2551 22.4297 59.5851 22.4297 59.9451C22.4297 60.3051 22.2397 60.6351 21.9297 60.8151L11.7197 66.7051C11.5697 66.7951 11.3897 66.8351 11.2197 66.8351V66.8451ZM12.2197 55.7851V64.1051L19.4297 59.9451L12.2197 55.7851V55.7851Z" />
<path d="M31.64 31.4753C31.29 31.4753 30.96 31.2953 30.77 30.9753C30.49 30.4953 30.66 29.8853 31.14 29.6053L41.3499 23.7153C41.8299 23.4353 42.44 23.6053 42.72 24.0853C42.81 24.2453 42.8499 24.4153 42.8499 24.5853C42.8499 24.9253 42.6699 25.2653 42.3499 25.4553L32.14 31.3453C31.98 31.4353 31.81 31.4753 31.64 31.4753Z" />
<path d="M21.4297 60.9451C21.2597 60.9451 21.0797 60.9051 20.9297 60.8151C20.6197 60.6351 20.4297 60.3051 20.4297 59.9451V48.1551C20.4297 47.7951 20.6197 47.4651 20.9297 47.2851C21.2397 47.1051 21.6197 47.1051 21.9297 47.2851L32.1397 53.1751C32.4497 53.3551 32.6397 53.6852 32.6397 54.0452C32.6397 54.4052 32.4497 54.7352 32.1397 54.9152L21.9297 60.8051C21.7797 60.8951 21.5997 60.9351 21.4297 60.9351V60.9451ZM22.4297 49.8851V58.2051L29.6397 54.0452L22.4297 49.8851V49.8851Z" />
<path d="M42.348 47.3198L41.3486 49.0522L51.5611 54.9437L52.5605 53.2113L42.348 47.3198Z" />
<path d="M62.2706 108.105C62.1006 108.105 61.9206 108.065 61.7706 107.975C61.4606 107.795 61.2706 107.465 61.2706 107.105V97.0452L52.5605 102.075C52.2505 102.255 51.8705 102.255 51.5605 102.075C51.2505 101.895 51.0605 101.565 51.0605 101.205V54.0452C51.0605 53.6852 51.2505 53.3552 51.5605 53.1752L92.4006 29.5952C92.7106 29.4152 93.0906 29.4152 93.4006 29.5952C93.7106 29.7752 93.9006 30.1052 93.9006 30.4652V40.5252L102.611 35.4952C102.921 35.3152 103.301 35.3152 103.611 35.4952C103.921 35.6752 104.111 36.0052 104.111 36.3652V71.7352C104.111 72.0952 103.921 72.4252 103.611 72.6052L93.9006 78.2152V89.4252C93.9006 89.7852 93.7106 90.1152 93.4006 90.2952L62.7706 107.975C62.6206 108.065 62.4406 108.105 62.2706 108.105ZM62.2706 94.3152C62.4406 94.3152 62.6206 94.3552 62.7706 94.4452C63.0806 94.6252 63.2706 94.9552 63.2706 95.3152V105.375L91.9006 88.8452V77.6352C91.9006 77.2752 92.0906 76.9452 92.4006 76.7652L102.111 71.1552V38.0952L93.4006 43.1252C93.0906 43.3052 92.7106 43.3052 92.4006 43.1252C92.0906 42.9452 91.9006 42.6152 91.9006 42.2552V32.1952L53.0605 54.6152V99.4652L61.7706 94.4352C61.9206 94.3452 62.1006 94.3052 62.2706 94.3052V94.3152ZM72.4805 90.4252C72.3105 90.4252 72.1405 90.3852 71.9805 90.2952C71.6705 90.1152 71.4805 89.7852 71.4805 89.4252V79.3652L62.7706 84.3952C62.4606 84.5752 62.0806 84.5752 61.7706 84.3952C61.4606 84.2152 61.2706 83.8852 61.2706 83.5252V71.7352C61.2706 71.3752 61.4606 71.0452 61.7706 70.8652L71.4805 65.2652V54.0552C71.4805 53.6952 71.6705 53.3652 71.9805 53.1852L82.1906 47.2952C82.5006 47.1152 82.8806 47.1152 83.1906 47.2952C83.5006 47.4752 83.6906 47.8052 83.6906 48.1652V58.2152L92.4006 53.1852C92.7106 53.0052 93.0906 53.0052 93.4006 53.1852C93.7106 53.3652 93.9006 53.6952 93.9006 54.0552V65.8452C93.9006 66.2052 93.7106 66.5352 93.4006 66.7152L83.6906 72.3152V83.5252C83.6906 83.8852 83.5006 84.2152 83.1906 84.3952L72.9805 90.2952C72.8305 90.3852 72.6505 90.4252 72.4805 90.4252ZM72.4805 76.6352C72.6505 76.6352 72.8305 76.6752 72.9805 76.7652C73.2905 76.9452 73.4805 77.2752 73.4805 77.6352V87.6952L81.6906 82.9552V72.3152L72.4805 67.0052L63.2706 72.3152V81.7952L71.9805 76.7652C72.1405 76.6752 72.3105 76.6352 72.4805 76.6352ZM73.4805 65.2652L82.6906 70.5752L91.9006 65.2652V55.7852L83.1906 60.8152C82.8806 60.9952 82.5006 60.9952 82.1906 60.8152C81.8806 60.6352 81.6906 60.3052 81.6906 59.9452V49.8952L73.4805 54.6352V65.2752V65.2652Z" />
<path d="M52.0498 19.6852C51.8798 19.6852 51.7098 19.6452 51.5498 19.5552L41.3398 13.6652C41.0198 13.4752 40.8398 13.1453 40.8398 12.7953C40.8398 12.6253 40.8798 12.4553 40.9698 12.2953C41.2498 11.8153 41.8598 11.6552 42.3398 11.9252L52.5498 17.8152C52.8698 18.0052 53.0498 18.3352 53.0498 18.6852C53.0498 18.8552 53.0098 19.0252 52.9198 19.1852C52.7298 19.5052 52.3998 19.6852 52.0498 19.6852Z" />
<path d="M41.8496 25.5851C41.6796 25.5851 41.4996 25.5351 41.3496 25.4551L31.1396 19.5651C30.8296 19.3851 30.6396 19.0551 30.6396 18.6951C30.6396 18.3351 30.8296 18.0051 31.1396 17.8251L41.3496 11.935C41.6596 11.755 42.0396 11.755 42.3496 11.935C42.6596 12.115 42.8496 12.445 42.8496 12.805V24.5951C42.8496 24.9551 42.6596 25.2851 42.3496 25.4651C42.1996 25.5551 42.0196 25.5951 41.8496 25.5951V25.5851ZM33.6396 18.6951L40.8496 22.8551V14.5351L33.6396 18.6951V18.6951Z" />
<path d="M62.7445 11.8777L61.7451 13.6101L71.9576 19.5015L72.957 17.7691L62.7445 11.8777Z" />
<path d="M41.8496 37.3751C41.6796 37.3751 41.4996 37.335 41.3496 37.245L31.1396 31.3551C30.8296 31.1751 30.6396 30.845 30.6396 30.485C30.6396 30.125 30.8296 29.795 31.1396 29.615L41.3496 23.7251C41.6596 23.5451 42.0396 23.5451 42.3496 23.7251C42.6596 23.9051 42.8496 24.2351 42.8496 24.5951V36.3851C42.8496 36.7451 42.6596 37.0751 42.3496 37.2551C42.1996 37.3451 42.0196 37.3851 41.8496 37.3851V37.3751ZM33.6396 30.485L40.8496 34.6451V26.3251L33.6396 30.485V30.485Z" />
<path d="M21.9115 35.4663L20.9121 37.1987L31.1246 43.0902L32.124 41.3578L21.9115 35.4663Z" />
<path d="M32.1354 41.3972L31.1348 43.1289L41.3432 49.0275L42.3438 47.2958L32.1354 41.3972Z" />
<path d="M92.8897 31.4752C92.7197 31.4752 92.5497 31.4352 92.3897 31.3452L82.1797 25.4552C81.8697 25.2752 81.6797 24.9452 81.6797 24.5852C81.6797 24.2252 81.8697 23.8952 82.1797 23.7152L92.3897 17.8152C92.6997 17.6352 93.0797 17.6352 93.3897 17.8152C93.6997 17.9952 93.8897 18.3252 93.8897 18.6852V30.4752C93.8897 30.8352 93.6997 31.1652 93.3897 31.3452C93.2397 31.4352 93.0597 31.4752 92.8897 31.4752ZM84.6797 24.5852L91.8897 28.7452V20.4152L84.6797 24.5852V24.5852Z" />
<path d="M71.9698 78.5051L61.7598 72.6051C61.4498 72.4251 61.2598 72.095 61.2598 71.735C61.2598 71.375 61.4498 71.0451 61.7598 70.8651L71.9698 64.9751L72.9698 66.7051L64.2598 71.735L72.9698 76.7651L71.9698 78.4951V78.5051Z" />
<path d="M82.6797 84.5251C82.5097 84.5251 82.3397 84.4851 82.1797 84.3951L71.9697 78.5051L72.9697 76.7751L81.6797 81.8051V72.3251L71.9697 66.7252L72.9697 64.9951L83.1797 70.8851C83.4897 71.0651 83.6797 71.3951 83.6797 71.7551V83.5452C83.6797 83.9052 83.4897 84.2352 83.1797 84.4152C83.0297 84.5052 82.8497 84.5452 82.6797 84.5452V84.5251Z" />
<path d="M92.9005 66.8452C92.7305 66.8452 92.5505 66.8052 92.4005 66.7152L82.1905 60.8252L71.9805 54.9352C71.6705 54.7552 71.4805 54.4252 71.4805 54.0652C71.4805 53.7052 71.6705 53.3752 71.9805 53.1952L82.1905 47.3052C82.5005 47.1252 82.8805 47.1252 83.1905 47.3052C83.5005 47.4852 83.6905 47.8152 83.6905 48.1752V58.2352L92.4005 53.2052C92.7105 53.0252 93.0905 53.0252 93.4005 53.2052C93.7105 53.3852 93.9005 53.7152 93.9005 54.0752V65.8652C93.9005 66.2252 93.7105 66.5552 93.4005 66.7352C93.2505 66.8252 93.0705 66.8652 92.9005 66.8652V66.8452ZM84.6905 59.9552L91.9005 64.1152V55.7952L84.6905 59.9552V59.9552ZM74.4805 54.0652L81.6905 58.2252V49.8952L74.4805 54.0552V54.0652Z" />
<path d="M41.8496 37.3751C41.6796 37.3751 41.4996 37.335 41.3496 37.245C41.0396 37.065 40.8496 36.7351 40.8496 36.3751V24.5851V12.7951C40.8496 12.4351 41.0396 12.105 41.3496 11.925C41.6596 11.745 42.0396 11.745 42.3496 11.925L52.5596 17.8151C52.8696 17.9951 53.0596 18.325 53.0596 18.685V30.4751C53.0596 30.8351 52.8696 31.1651 52.5596 31.3451L42.3496 37.245C42.1996 37.335 42.0196 37.3751 41.8496 37.3751ZM41.8496 24.5851H42.8496V34.6451L51.0596 29.9051V19.2651L42.8496 14.5251V24.5851H41.8496V24.5851Z" />
<path d="M62.2695 25.5851C62.0995 25.5851 61.9195 25.5451 61.7695 25.4551C61.4595 25.2751 61.2695 24.9451 61.2695 24.5851V12.7951C61.2695 12.4351 61.4595 12.105 61.7695 11.925C62.0795 11.745 62.4595 11.745 62.7695 11.925L72.9795 17.8151C73.2895 17.9951 73.4795 18.325 73.4795 18.685C73.4795 19.045 73.2895 19.375 72.9795 19.555L62.7695 25.4551C62.6195 25.5451 62.4395 25.5851 62.2695 25.5851ZM63.2695 14.5251V22.8551L70.4795 18.6951L63.2695 14.5351V14.5251Z" />
<path d="M72.4805 90.4252C72.1305 90.4252 71.8005 90.2452 71.6105 89.9252C71.5205 89.7652 71.4805 89.5952 71.4805 89.4252C71.4805 89.0752 71.6605 88.7452 71.9805 88.5552L82.1905 82.6653C82.6705 82.3853 83.2805 82.5552 83.5605 83.0352C83.6505 83.1952 83.6905 83.3652 83.6905 83.5352C83.6905 83.8852 83.5105 84.2152 83.1905 84.4052L72.9805 90.2953C72.8205 90.3853 72.6505 90.4252 72.4805 90.4252Z" />
<path d="M62.2598 108.105C62.0898 108.105 61.9198 108.065 61.7598 107.975L41.3398 96.1852L42.3398 94.4552L51.0498 99.4852V54.6352L41.3398 49.0352L42.3398 47.3052L52.5498 53.1952C52.8598 53.3752 53.0498 53.7052 53.0498 54.0652V99.4952L61.7598 94.4652C62.0698 94.2852 62.4498 94.2852 62.7598 94.4652C63.0698 94.6452 63.2598 94.9752 63.2598 95.3352V107.125C63.2598 107.485 63.0698 107.815 62.7598 107.995C62.6098 108.085 62.4298 108.125 62.2598 108.125V108.105ZM54.0498 101.215L61.2598 105.375V97.0452L54.0498 101.215V101.215Z" />
<path d="M82.6895 72.735C82.3395 72.735 82.0095 72.555 81.8195 72.235C81.7295 72.075 81.6895 71.905 81.6895 71.735C81.6895 71.385 81.8695 71.055 82.1895 70.865L92.3995 64.9751C92.8795 64.6951 93.4895 64.8651 93.7695 65.3451C93.8595 65.5051 93.8995 65.6751 93.8995 65.8451C93.8995 66.1951 93.7195 66.5251 93.3995 66.7151L83.1895 72.6051C83.0295 72.6951 82.8595 72.735 82.6895 72.735Z" />
<path d="M62.2695 37.3751C61.7195 37.3751 61.2695 36.9251 61.2695 36.3751V24.5851C61.2695 24.2251 61.4595 23.8951 61.7695 23.7151C62.0795 23.5351 62.4595 23.5351 62.7695 23.7151L72.9795 29.6051C73.2995 29.7951 73.4795 30.1251 73.4795 30.4751C73.4795 30.6451 73.4395 30.8151 73.3495 30.9751C73.0695 31.4551 72.4595 31.6151 71.9795 31.3451L63.2695 26.3151V36.3751C63.2695 36.9251 62.8195 37.3751 62.2695 37.3751Z" />
<path d="M31.64 19.6852C31.29 19.6852 30.96 19.5052 30.77 19.1852C30.49 18.7052 30.66 18.0952 31.14 17.8152L41.3499 11.9153C41.8299 11.6353 42.44 11.8052 42.72 12.2852C42.81 12.4452 42.8499 12.6152 42.8499 12.7852C42.8499 13.1252 42.6699 13.4652 42.3499 13.6452L32.14 19.5453C31.98 19.6353 31.81 19.6752 31.64 19.6752V19.6852Z" />
<path d="M11.2197 31.4752C11.0497 31.4752 10.8697 31.4352 10.7197 31.3452C10.4097 31.1652 10.2197 30.8352 10.2197 30.4752V18.6852C10.2197 18.3252 10.4097 17.9952 10.7197 17.8152C11.0297 17.6352 11.4097 17.6352 11.7197 17.8152L21.9297 23.7052C22.2397 23.8852 22.4297 24.2152 22.4297 24.5752C22.4297 24.9352 22.2397 25.2652 21.9297 25.4452L11.7197 31.3352C11.5697 31.4252 11.3897 31.4652 11.2197 31.4652V31.4752ZM12.2197 20.4152V28.7352L19.4297 24.5752L12.2197 20.4152V20.4152Z" />
<path d="M52.0605 19.6853C51.7105 19.6853 51.3806 19.5053 51.1906 19.1853C51.1006 19.0253 51.0605 18.8553 51.0605 18.6853C51.0605 18.3353 51.2405 18.0053 51.5605 17.8153L61.7706 11.9252C62.2506 11.6452 62.8606 11.8153 63.1406 12.2953C63.2306 12.4553 63.2706 12.6253 63.2706 12.7953C63.2706 13.1453 63.0906 13.4753 62.7706 13.6653L52.5605 19.5553C52.4005 19.6453 52.2305 19.6853 52.0605 19.6853Z" />
<path d="M72.4805 43.2651C72.1305 43.2651 71.8005 43.0851 71.6105 42.7651C71.5205 42.6051 71.4805 42.4351 71.4805 42.2651C71.4805 41.9151 71.6605 41.5851 71.9805 41.3951L82.1905 35.5051C82.6705 35.2251 83.2805 35.3951 83.5605 35.8751C83.6505 36.0351 83.6905 36.2051 83.6905 36.3751C83.6905 36.7251 83.5105 37.0551 83.1905 37.2451L72.9805 43.1351C72.8205 43.2251 72.6505 43.2651 72.4805 43.2651Z" />
<path d="M62.2695 49.1653C61.9195 49.1653 61.5895 48.9853 61.3995 48.6653C61.3095 48.5053 61.2695 48.3353 61.2695 48.1653C61.2695 47.8153 61.4495 47.4853 61.7695 47.2953L71.9795 41.4052C72.4595 41.1252 73.0695 41.2952 73.3495 41.7752C73.4395 41.9352 73.4795 42.1052 73.4795 42.2752C73.4795 42.6252 73.2995 42.9552 72.9795 43.1452L62.7695 49.0352C62.6095 49.1252 62.4395 49.1653 62.2695 49.1653Z" />
<path d="M52.0605 55.0551C51.7105 55.0551 51.3806 54.8751 51.1906 54.5551C51.1006 54.3951 51.0605 54.2251 51.0605 54.0551C51.0605 53.7051 51.2405 53.3751 51.5605 53.1851L61.7706 47.2951C62.2506 47.0151 62.8606 47.1851 63.1406 47.6651C63.2306 47.8251 63.2706 47.9951 63.2706 48.1651C63.2706 48.5151 63.0906 48.8451 62.7706 49.0351L52.5605 54.9251C52.4005 55.0151 52.2305 55.0551 52.0605 55.0551Z" />
<path d="M31.64 78.6352C31.38 78.6352 31.12 78.5352 30.93 78.3452C30.87 78.2852 30.82 78.2152 30.77 78.1352C30.49 77.6552 30.66 77.0452 31.14 76.7652H31.15L41.34 70.8652C41.82 70.5852 42.43 70.7552 42.71 71.2352C42.99 71.7152 42.82 72.3253 42.34 72.6053L32.13 78.5052C31.97 78.5952 31.8 78.6352 31.63 78.6352H31.64Z" />
<path d="M72.4698 78.6352C72.2998 78.6352 72.1298 78.5952 71.9698 78.5052L61.7598 72.6152C61.4398 72.4252 61.2598 72.0952 61.2598 71.7452C61.2598 71.5752 61.2998 71.4052 61.3898 71.2452C61.6698 70.7652 62.2798 70.6052 62.7598 70.8752L72.9698 76.7652C73.2898 76.9552 73.4698 77.2852 73.4698 77.6352C73.4698 77.8052 73.4298 77.9752 73.3398 78.1352C73.1498 78.4552 72.8198 78.6352 72.4698 78.6352Z" />
<path d="M32.1299 31.3452L31.1299 29.6152L39.8399 24.5852L31.1299 19.5552L32.1299 17.8252L42.3399 23.7252C42.6499 23.9052 42.8399 24.2352 42.8399 24.5952C42.8399 24.9552 42.6499 25.2852 42.3399 25.4652L32.1299 31.3552V31.3452Z" />
<path d="M11.21 43.2651C11.04 43.2651 10.86 43.2251 10.71 43.1351L0.5 37.235C0.19 37.055 0 36.7251 0 36.3651C0 36.0051 0.19 35.6751 0.5 35.4951L20.92 23.7151L21.92 25.4451L13.21 30.4751L21.92 35.5051L20.92 37.235L12.21 32.2051V42.2651C12.21 42.6251 12.02 42.9551 11.71 43.1351C11.55 43.2251 11.38 43.2651 11.21 43.2651V43.2651ZM3 36.3651L10.21 40.5351V32.2051L3 36.3651V36.3651Z" />
<path d="M52.0498 19.6851C51.8798 19.6851 51.7098 19.6351 51.5498 19.5551L41.3398 13.6651L42.3398 11.9351L52.0498 17.5351L61.7598 11.9351L62.7598 13.6651L52.5498 19.5551C52.3898 19.6451 52.2198 19.6851 52.0498 19.6851Z" />
<path d="M20.9199 25.455L10.71 19.555C10.4 19.375 10.21 19.045 10.21 18.685C10.21 18.325 10.4 17.995 10.71 17.815L41.34 0.135C41.65 -0.045 42.03 -0.045 42.34 0.135L52.0499 5.73498L61.7599 0.135C62.0699 -0.045 62.4499 -0.045 62.7599 0.135L72.97 6.02501L71.97 7.755L62.2599 2.15502L52.5499 7.755C52.2399 7.935 51.8599 7.935 51.5499 7.755L41.84 2.15502L13.21 18.685L21.9199 23.715L20.9199 25.445V25.455Z" />
<path d="M41.3345 11.9938L31.123 17.887L32.1227 19.6192L42.3342 13.726L41.3345 11.9938Z" />
<path d="M72.9723 6.03002L71.9717 7.76172L82.18 13.6603L83.1806 11.9286L72.9723 6.03002Z" />
<path d="M62.7445 11.8777L61.7451 13.6101L71.9576 19.5015L72.957 17.7691L62.7445 11.8777Z" />
<path d="M71.9698 31.3452L61.7598 25.4552C61.4498 25.2752 61.2598 24.9452 61.2598 24.5852C61.2598 24.2252 61.4498 23.8952 61.7598 23.7152L71.9698 17.8152L72.9698 19.5452L64.2598 24.5752L72.9698 29.6052L71.9698 31.3352V31.3452Z" />
<path d="M83.1797 25.4551L82.1797 23.7251L90.8897 18.6951L82.1797 13.6651L83.1797 11.9351L93.3897 17.8251C93.6997 18.0051 93.8897 18.3351 93.8897 18.6951C93.8897 19.0551 93.6997 19.3851 93.3897 19.5651L83.1797 25.4651V25.4551Z" />
<path d="M32.1354 41.3972L31.1348 43.1289L41.3432 49.0275L42.3438 47.2958L32.1354 41.3972Z" />
<path d="M21.9115 35.4663L20.9121 37.1987L31.1246 43.0902L32.124 41.3578L21.9115 35.4663Z" />
<path d="M41.8399 37.375C41.6699 37.375 41.4899 37.335 41.3399 37.245L31.1299 31.345L32.1299 29.615L41.8399 35.225L51.5499 29.615C51.8599 29.435 52.2399 29.435 52.5499 29.615L62.7599 35.515L61.7599 37.245L52.0499 31.635L42.3399 37.245C42.1899 37.335 42.0099 37.375 41.8399 37.375Z" />
<path d="M52.0498 55.0551C51.8798 55.0551 51.7098 55.015 51.5498 54.925L41.3398 49.0351L42.3398 47.3051L52.0498 52.9051L90.8898 30.485L82.1798 25.4551L83.1798 23.7251L103.6 35.5151C103.91 35.6951 104.1 36.0251 104.1 36.3851C104.1 36.7451 103.91 37.0751 103.6 37.2551L93.3898 43.1451C93.0798 43.3251 92.6998 43.3251 92.3898 43.1451C92.0798 42.9651 91.8898 42.6351 91.8898 42.2751V32.2151L52.5498 54.925C52.3898 55.015 52.2198 55.0551 52.0498 55.0551V55.0551ZM93.8898 32.2051V40.5351L101.1 36.3751L93.8898 32.2051V32.2051Z" />
<path d="M71.9605 29.6961L61.749 35.5894L62.7487 37.3216L72.9602 31.4284L71.9605 29.6961Z" />
<path d="M73.4697 65.8451H71.4697V54.055C71.4697 53.695 71.6597 53.365 71.9697 53.185C72.2797 53.005 72.6597 53.005 72.9697 53.185L83.1797 59.0751L82.1797 60.805L73.4697 55.7751V65.8351V65.8451Z" />
<path d="M82.6797 72.7352C82.5097 72.7352 82.3397 72.6852 82.1797 72.6052L71.9697 66.7152L72.9697 64.9852L82.6797 70.5852L90.8897 65.8452L82.1797 60.8152L83.1797 59.0852L93.3897 64.9852C93.6997 65.1652 93.8897 65.4952 93.8897 65.8552C93.8897 66.2152 93.6997 66.5452 93.3897 66.7252L83.1797 72.6152C83.0197 72.7052 82.8497 72.7452 82.6797 72.7452V72.7352Z" />
<path d="M72.4805 90.4251C72.3105 90.4251 72.1305 90.3752 71.9805 90.2952C71.6705 90.1152 71.4805 89.7851 71.4805 89.4251V77.6351C71.4805 77.2751 71.6705 76.9451 71.9805 76.7651C72.2905 76.5851 72.6705 76.5851 72.9805 76.7651L83.1905 82.6551C83.5005 82.8351 83.6905 83.1651 83.6905 83.5251C83.6905 83.8851 83.5005 84.2151 83.1905 84.3951L72.9805 90.2851C72.8305 90.3751 72.6505 90.4152 72.4805 90.4152V90.4251ZM73.4805 79.3651V87.6851L80.6905 83.5251L73.4805 79.3651V79.3651Z" />
<path d="M62.2695 84.525C62.0995 84.525 61.9195 84.485 61.7695 84.395C61.4595 84.215 61.2695 83.885 61.2695 83.525V71.735C61.2695 71.375 61.4595 71.045 61.7695 70.865C62.0795 70.685 62.4595 70.685 62.7695 70.865L72.9795 76.755C73.2895 76.935 73.4795 77.265 73.4795 77.625C73.4795 77.985 73.2895 78.315 72.9795 78.495L62.7695 84.385C62.6195 84.475 62.4395 84.515 62.2695 84.515V84.525ZM63.2695 73.465V81.785L70.4795 77.625L63.2695 73.465V73.465Z" />
<path d="M21.4297 72.735C21.2597 72.735 21.0797 72.6951 20.9297 72.6051L10.7197 66.7151C10.4097 66.5351 10.2197 66.2051 10.2197 65.8451C10.2197 65.4851 10.4097 65.1551 10.7197 64.9751L31.1397 53.185C31.4497 53.005 31.8297 53.005 32.1397 53.185C32.4497 53.365 32.6397 53.695 32.6397 54.055V65.8451C32.6397 66.2051 32.4497 66.5351 32.1397 66.7151L21.9297 72.6051C21.7797 72.6951 21.5997 72.735 21.4297 72.735V72.735ZM13.2197 65.8451L21.4297 70.5851L30.6397 65.2651V55.7851L13.2197 65.8451V65.8451Z" />
<path d="M31.6397 90.4252C31.4697 90.4252 31.2897 90.3753 31.1397 90.2953L20.9297 84.3953C20.6197 84.2153 20.4297 83.8853 20.4297 83.5253C20.4297 83.1653 20.6197 82.8353 20.9297 82.6553L31.1397 76.7652L41.3497 70.8752C41.6597 70.6952 42.0397 70.6952 42.3497 70.8752C42.6597 71.0552 42.8497 71.3852 42.8497 71.7452V83.5353C42.8497 83.8953 42.6597 84.2253 42.3497 84.4053C42.0397 84.5853 41.6597 84.5853 41.3497 84.4053L32.6397 79.3752V89.4352C32.6397 89.7952 32.4497 90.1252 32.1397 90.3052C31.9897 90.3952 31.8097 90.4352 31.6397 90.4352V90.4252ZM23.4297 83.5253L30.6397 87.6852V79.3652L23.4297 83.5253V83.5253ZM33.6397 77.6352L40.8497 81.7953V73.4753L33.6397 77.6352V77.6352Z" />
<path d="M62.2695 37.3751C62.0995 37.3751 61.9195 37.335 61.7695 37.245C61.4595 37.065 61.2695 36.7351 61.2695 36.3751V24.5851C61.2695 24.2251 61.4595 23.8951 61.7695 23.7151C62.0795 23.5351 62.4595 23.5351 62.7695 23.7151L72.9795 29.6051C73.2895 29.7851 73.4795 30.1151 73.4795 30.4751C73.4795 30.8351 73.2895 31.1651 72.9795 31.3451L62.7695 37.245C62.6195 37.335 62.4395 37.3751 62.2695 37.3751ZM63.2695 26.3151V34.6451L70.4795 30.485L63.2695 26.3251V26.3151Z" />
<path d="M62.2706 37.3751C62.1006 37.3751 61.9206 37.335 61.7706 37.245L51.5605 31.3551C51.2505 31.1751 51.0605 30.845 51.0605 30.485V18.6951C51.0605 18.3351 51.2505 18.0051 51.5605 17.8251L61.7706 11.935C62.0806 11.755 62.4606 11.755 62.7706 11.935C63.0806 12.115 63.2706 12.445 63.2706 12.805V36.3851C63.2706 36.7451 63.0806 37.0751 62.7706 37.2551C62.6206 37.3451 62.4406 37.3851 62.2706 37.3851V37.3751ZM53.0605 29.9051L61.2706 34.6451V14.5351L53.0605 19.2751V29.9151V29.9051Z" />
<path d="M41.8497 108.105C41.6797 108.105 41.4997 108.055 41.3497 107.975L10.7198 90.2953C10.4098 90.1153 10.2198 89.7852 10.2198 89.4252V78.2153L0.509766 72.6053C0.199766 72.4253 0.00976562 72.0952 0.00976562 71.7352V36.3652H2.00977V71.1653L11.7198 76.7753C12.0298 76.9553 12.2198 77.2853 12.2198 77.6453V88.8553L40.8497 105.385V95.3253H42.8497V107.115C42.8497 107.475 42.6597 107.805 42.3497 107.985C42.1997 108.075 42.0197 108.115 41.8497 108.115V108.105Z" />
</svg>
