<svg width="105" height="120" viewBox="0 0 105 120" fill="none" xmlns="http://www.w3.org/2000/svg">
<path d="M30.6299 83.5349V83.5249H32.6299L30.6299 83.5349Z" />
<path d="M42.3392 88.5542L41.3398 90.2866L51.5523 96.178L52.5517 94.4456L42.3392 88.5542Z" />
<path d="M52.0498 119.895C51.8798 119.895 51.6998 119.855 51.5498 119.765C51.2398 119.585 51.0498 119.255 51.0498 118.895V95.3148C51.0498 94.9548 51.2398 94.6248 51.5498 94.4448L102.6 64.9748C102.91 64.7948 103.29 64.7948 103.6 64.9748C103.91 65.1548 104.1 65.4848 104.1 65.8448V89.4248C104.1 89.7848 103.91 90.1148 103.6 90.2948L52.5498 119.765C52.3998 119.855 52.2198 119.895 52.0498 119.895V119.895ZM53.0498 95.8948V117.165L102.1 88.8448V67.5748L53.0498 95.8948Z" />
<path d="M11.7113 35.5071L10.7119 37.2395L20.9244 43.1309L21.9238 41.3985L11.7113 35.5071Z" />
<path d="M21.4199 78.635C21.2499 78.635 21.0699 78.5951 20.9199 78.5051C20.6099 78.3251 20.4199 77.995 20.4199 77.635V42.265C20.4199 41.905 20.6099 41.575 20.9199 41.395L71.9699 11.925C72.2799 11.745 72.6599 11.745 72.9699 11.925C73.2799 12.105 73.4699 12.435 73.4699 12.795V24.585C73.4699 24.945 73.2799 25.275 72.9699 25.455L32.6299 48.745V71.745C32.6299 72.105 32.4399 72.435 32.1299 72.615L21.9199 78.5051C21.7699 78.5951 21.5899 78.635 21.4199 78.635V78.635ZM22.4199 42.8451V75.9051L30.6299 71.165V48.165C30.6299 47.805 30.8199 47.475 31.1299 47.295L71.4699 24.0051V14.525L22.4199 42.8451V42.8451Z" />
<path d="M42.3336 53.1731L41.333 54.9048L51.5414 60.8034L52.542 59.0717L42.3336 53.1731Z" />
<path d="M52.0498 84.535C51.8798 84.535 51.6998 84.495 51.5498 84.405C51.2398 84.225 51.0498 83.895 51.0498 83.535V59.955C51.0498 59.595 51.2398 59.265 51.5498 59.085L102.6 29.605C102.91 29.425 103.29 29.425 103.6 29.605C103.91 29.785 104.1 30.115 104.1 30.475V54.055C104.1 54.415 103.91 54.745 103.6 54.925L52.5498 84.405C52.3998 84.495 52.2198 84.535 52.0498 84.535ZM53.0498 60.535V81.805L102.1 53.485V32.215L53.0498 60.535Z" />
<path d="M41.3399 78.5049L31.1299 72.6149C30.8199 72.4349 30.6299 72.1049 30.6299 71.7449V48.1649C30.6299 47.8049 30.8199 47.4749 31.1299 47.2949C31.4399 47.1149 31.8199 47.1149 32.1299 47.2949L42.3399 53.1849L41.3399 54.9149L32.6299 49.8949V71.1649L42.3399 76.7649L41.3399 78.4949V78.5049Z" />
<path d="M52.0498 84.5349C51.8798 84.5349 51.6998 84.4948 51.5498 84.4048L41.3398 78.5049L42.3398 76.7748L51.0498 81.8048V60.5349L41.3398 54.9248L42.3398 53.1948L52.5498 59.0948C52.8598 59.2748 53.0498 59.6048 53.0498 59.9648V83.5448C53.0498 83.9048 52.8598 84.2348 52.5498 84.4148C52.3998 84.5048 52.2198 84.5448 52.0498 84.5448V84.5349Z" />
<path d="M10.71 96.185L0.5 90.295C0.19 90.115 0 89.785 0 89.425V30.475C0 30.115 0.19 29.785 0.5 29.605C0.81 29.425 1.19 29.425 1.5 29.605L11.71 35.505L10.71 37.235L2 32.205V88.845L11.71 94.445L10.71 96.175V96.185Z" />
<path d="M22.42 77.6349H20.42V42.8449L10.71 37.2449L11.71 35.5149L21.92 41.4049C22.23 41.5849 22.42 41.9149 22.42 42.2749V77.6449V77.6349Z" />
<path d="M11.7037 94.4265L10.7031 96.1582L20.9115 102.057L21.9121 100.325L11.7037 94.4265Z" />
<path d="M21.9174 100.334L20.918 102.066L31.1305 107.957L32.1299 106.225L21.9174 100.334Z" />
<path d="M31.1299 84.3949L20.9199 78.5049L21.9199 76.7749L32.1299 82.6649C32.4399 82.8449 32.6299 83.1749 32.6299 83.5349H31.6299L31.1299 84.4049V84.3949Z" />
<path d="M32.1295 106.215L31.1289 107.946L41.3373 113.845L42.3379 112.113L32.1295 106.215Z" />
<path d="M32.1351 82.6851L31.1357 84.4175L41.3482 90.3089L42.3476 88.5765L32.1351 82.6851Z" />
<path d="M52.0498 119.895C51.8798 119.895 51.6998 119.855 51.5498 119.765L41.3398 113.875L42.3398 112.145L51.0498 117.165V95.8949L41.3398 90.2949L42.3398 88.5649L52.5498 94.4549C52.8598 94.6349 53.0498 94.9649 53.0498 95.3249V118.905C53.0498 119.265 52.8598 119.595 52.5498 119.775C52.3998 119.865 52.2198 119.905 52.0498 119.905V119.895Z" />
<path d="M82.6797 78.6349C82.3297 78.6349 81.9997 78.4549 81.8097 78.1349C81.7197 77.9749 81.6797 77.8049 81.6797 77.6349C81.6797 77.2849 81.8597 76.955 82.1797 76.765L92.3897 70.875C92.8697 70.595 93.4797 70.765 93.7597 71.245C93.8497 71.405 93.8897 71.575 93.8897 71.745C93.8897 72.095 93.7097 72.425 93.3897 72.615L83.1797 78.505C83.0197 78.595 82.8497 78.6349 82.6797 78.6349Z" />
<path d="M72.4697 84.5349C72.1197 84.5349 71.7897 84.3549 71.5997 84.0349C71.5097 83.8749 71.4697 83.7049 71.4697 83.5349C71.4697 83.1849 71.6497 82.8549 71.9697 82.6649L82.1797 76.7749C82.6597 76.4949 83.2697 76.6649 83.5497 77.1449C83.6397 77.3049 83.6797 77.4749 83.6797 77.6449C83.6797 77.9949 83.4997 78.3249 83.1797 78.5149L72.9697 84.4049C72.8097 84.4949 72.6397 84.5349 72.4697 84.5349Z" />
<path d="M62.2601 90.425C61.9101 90.425 61.5801 90.245 61.3901 89.925C61.1101 89.445 61.2801 88.835 61.7601 88.555L71.9701 82.655C72.4501 82.375 73.0601 82.545 73.3401 83.025C73.4401 83.195 73.4801 83.375 73.4701 83.565C73.4601 83.885 73.2901 84.195 73.0001 84.375L72.9701 84.395L62.7601 90.285C62.6001 90.375 62.4301 90.415 62.2601 90.415V90.425Z" />
<path d="M52.0498 96.3249C51.6998 96.3249 51.3698 96.1449 51.1798 95.8249C51.0898 95.6649 51.0498 95.4949 51.0498 95.3249C51.0498 94.9749 51.2298 94.6449 51.5498 94.4549L61.7598 88.5649C62.2398 88.2849 62.8498 88.4549 63.1298 88.9349C63.2198 89.0949 63.2598 89.2649 63.2598 89.4349C63.2598 89.7849 63.0798 90.1149 62.7598 90.3049L52.5498 96.1949C52.3898 96.2849 52.2198 96.3249 52.0498 96.3249Z" />
<path d="M31.6299 72.7449C31.0799 72.7449 30.6299 72.2949 30.6299 71.7449V48.1649C30.6299 47.8049 30.8199 47.4749 31.1299 47.2949C31.4399 47.1149 31.8199 47.1149 32.1299 47.2949L42.3399 53.1849C42.3999 53.2149 42.4499 53.2549 42.4999 53.2949C42.7099 53.4849 42.8299 53.7449 42.8399 54.0149C42.8399 54.1949 42.7999 54.3849 42.7099 54.5549C42.6499 54.6549 42.5799 54.7349 42.4999 54.8049C42.1899 55.0749 41.7199 55.1349 41.3399 54.9149L32.6299 49.8849V71.7349C32.6299 72.2849 32.1799 72.7349 31.6299 72.7349V72.7449Z" />
<path d="M52.0498 25.5849C51.6998 25.5849 51.3698 25.4049 51.1798 25.0849C51.0898 24.9249 51.0498 24.7549 51.0498 24.5849C51.0498 24.2349 51.2298 23.9049 51.5498 23.7149L61.7598 17.8249C62.2398 17.5449 62.8498 17.7149 63.1298 18.1949C63.2198 18.3549 63.2598 18.5249 63.2598 18.6949C63.2598 19.0449 63.0798 19.3749 62.7598 19.5649L52.5498 25.4549C52.3898 25.5449 52.2198 25.5849 52.0498 25.5849Z" />
<path d="M41.8392 31.4751C41.4892 31.4751 41.1592 31.2951 40.9692 30.9751C40.6892 30.4951 40.8592 29.885 41.3392 29.605L51.5492 23.7151C52.0292 23.4351 52.6392 23.6051 52.9192 24.0851C53.0092 24.2351 53.0492 24.4051 53.0492 24.5651C53.0492 24.9151 52.8792 25.255 52.5492 25.445L42.3392 31.3451C42.1792 31.4351 42.0092 31.4751 41.8392 31.4751Z" />
<path d="M31.6302 37.375C31.2802 37.375 30.9502 37.195 30.7602 36.875C30.4802 36.395 30.6502 35.785 31.1302 35.505L41.3402 29.6049C41.8202 29.3249 42.4302 29.495 42.7102 29.975C42.8002 30.135 42.8402 30.305 42.8402 30.465C42.8402 30.795 42.6802 31.125 42.3702 31.315L42.3402 31.335L32.1302 37.2349C31.9702 37.3249 31.8002 37.365 31.6302 37.365V37.375Z" />
<path d="M21.4199 43.2648C21.0699 43.2648 20.7399 43.0848 20.5499 42.7648C20.4599 42.6048 20.4199 42.4348 20.4199 42.2648C20.4199 41.9148 20.5999 41.5848 20.9199 41.3948L31.1299 35.5049C31.6099 35.2249 32.2199 35.3948 32.4999 35.8748C32.5899 36.0348 32.6299 36.2048 32.6299 36.3748C32.6299 36.7248 32.4499 37.0548 32.1299 37.2448L21.9199 43.1348C21.7599 43.2248 21.5899 43.2648 21.4199 43.2648Z" />
<path d="M82.6792 43.2649C82.3292 43.2649 81.9992 43.0849 81.8092 42.7649C81.7092 42.5949 81.6692 42.4149 81.6792 42.2349C81.6892 41.9749 81.7992 41.7249 81.9892 41.5449C82.0492 41.4949 82.1092 41.4449 82.1792 41.4049L92.3892 35.5149C92.8692 35.2349 93.4792 35.4049 93.7592 35.8849C94.0392 36.3649 93.8692 36.9749 93.3892 37.2549L83.1792 43.1449C83.0192 43.2349 82.8492 43.2749 82.6792 43.2749V43.2649Z" />
<path d="M72.4702 49.165C72.4702 49.165 72.3702 49.165 72.3202 49.155C72.0702 49.115 71.8402 48.985 71.6902 48.775C71.6602 48.735 71.6402 48.705 71.6102 48.665C71.5902 48.635 71.5802 48.605 71.5602 48.575C71.3502 48.105 71.5302 47.555 71.9702 47.295L82.1802 41.395C82.6602 41.115 83.2702 41.285 83.5502 41.765C83.8302 42.245 83.6602 42.855 83.1802 43.135L72.9702 49.025C72.8102 49.115 72.6402 49.155 72.4702 49.155V49.165Z" />
<path d="M62.2598 55.0549C61.9098 55.0549 61.5798 54.8749 61.3898 54.5549C61.2998 54.3949 61.2598 54.2249 61.2598 54.0549C61.2598 53.7049 61.4398 53.3749 61.7598 53.1849L71.9698 47.2949C72.4498 47.0149 73.0598 47.1849 73.3398 47.6649C73.4298 47.8249 73.4698 47.9949 73.4698 48.1649C73.4698 48.5149 73.2898 48.8449 72.9698 49.0349L62.7598 54.9249C62.5998 55.0149 62.4298 55.0549 62.2598 55.0549Z" />
<path d="M52.0503 60.955C51.7003 60.955 51.3703 60.775 51.1803 60.455C51.0803 60.285 51.0403 60.105 51.0503 59.925C51.0603 59.665 51.1703 59.415 51.3603 59.235C51.4203 59.185 51.4803 59.1351 51.5503 59.0951L61.7603 53.205C62.2403 52.925 62.8503 53.095 63.1303 53.575C63.4103 54.055 63.2403 54.665 62.7603 54.945L52.5503 60.8351C52.3903 60.9251 52.2203 60.9651 52.0503 60.9651V60.955Z" />
<path d="M42.3307 76.7302L41.3301 78.4619L51.5385 84.3605L52.5391 82.6288L42.3307 76.7302Z" />
<path d="M32.1351 82.6851L31.1357 84.4175L41.3482 90.3089L42.3476 88.5765L32.1351 82.6851Z" />
<path d="M52.0498 96.315C51.8798 96.315 51.6998 96.275 51.5498 96.185L41.3398 90.2949L42.3398 88.565L52.0498 94.1649L101.1 65.8549L92.8899 61.1149L52.5498 84.405L51.5498 82.6749L92.3899 59.095C92.6999 58.915 93.0799 58.915 93.3899 59.095L103.6 64.9849C103.91 65.1649 104.1 65.4949 104.1 65.8549C104.1 66.2149 103.91 66.545 103.6 66.725L52.5498 96.1949C52.3998 96.2849 52.2198 96.3249 52.0498 96.3249V96.315Z" />
<path d="M31.6302 49.165C31.2802 49.165 30.9502 48.985 30.7602 48.665C30.4802 48.185 30.6502 47.575 31.1302 47.295L71.9702 23.7151C72.4502 23.4351 73.0602 23.6051 73.3402 24.0851C73.6202 24.5651 73.4502 25.175 72.9702 25.455L32.1302 49.0351C31.9702 49.1251 31.8002 49.165 31.6302 49.165V49.165Z" />
<path d="M10.71 37.245L0.5 31.345C0.19 31.165 0 30.835 0 30.475C0 30.115 0.19 29.785 0.5 29.605L51.55 0.135C51.86 -0.045 52.24 -0.045 52.55 0.135L62.76 6.02501L61.76 7.75503L52.05 2.15502L3 30.475L11.71 35.505L10.71 37.235V37.245Z" />
<path d="M21.42 43.2649C21.25 43.2649 21.07 43.2249 20.92 43.1349L10.71 37.2449L11.71 35.5149L21.42 41.1149L70.47 12.7949L61.76 7.76489L62.76 6.03491L72.97 11.9349C73.28 12.1149 73.47 12.4449 73.47 12.8049C73.47 13.1649 73.28 13.4949 72.97 13.6749L21.92 43.1449C21.77 43.2349 21.59 43.2749 21.42 43.2749V43.2649Z" />
<path d="M41.3399 54.9249L31.1299 49.0349C30.8199 48.8549 30.6299 48.5249 30.6299 48.1649C30.6299 47.8049 30.8199 47.4749 31.1299 47.2949L82.1799 17.8149C82.4899 17.6349 82.8699 17.6349 83.1799 17.8149L93.3899 23.7149L92.3899 25.4449L82.6799 19.8349L33.6299 48.1549L42.3399 53.1749L41.3399 54.9049V54.9249Z" />
<path d="M52.0498 60.9549C51.8798 60.9549 51.6998 60.9049 51.5498 60.8249L41.3398 54.9249L42.3398 53.1949L52.0498 58.8049L101.1 30.4849L92.3899 25.4649L93.3899 23.7349L103.6 29.6249C103.91 29.8049 104.1 30.1349 104.1 30.4949C104.1 30.8549 103.91 31.1849 103.6 31.3649L52.5498 60.8449C52.3998 60.9349 52.2198 60.9749 52.0498 60.9749V60.9549Z" />
</svg>
