<svg width="105" height="120" viewBox="0 0 105 120" fill="none" xmlns="http://www.w3.org/2000/svg">
<path d="M11.2109 96.3252C11.0409 96.3252 10.8609 96.2852 10.7109 96.1952C10.4009 96.0152 10.2109 95.6852 10.2109 95.3252V48.1652C10.2109 47.8052 10.4009 47.4752 10.7109 47.2952C11.0209 47.1152 11.4009 47.1152 11.7109 47.2952L32.1309 59.0852L31.6309 59.9552L32.1309 59.0852L42.3409 64.9752C42.6509 65.1552 42.8409 65.4852 42.8409 65.8452V77.6352C42.8409 77.9952 42.6509 78.3252 42.3409 78.5052L11.7109 96.1852C11.5609 96.2752 11.3809 96.3152 11.2109 96.3152V96.3252ZM12.2109 49.9052V93.5952L40.8409 77.0652V66.4352L31.1309 60.8352L12.2109 49.9152V49.9052Z" />
<path d="M52.5436 11.9228L51.543 13.6545L61.7514 19.5531L62.752 17.8214L52.5436 11.9228Z" />
<path d="M11.7076 35.5012L10.707 37.2329L20.9154 43.1315L21.916 41.3998L11.7076 35.5012Z" />
<path d="M62.7631 17.823L61.7637 19.5554L71.9762 25.4469L72.9756 23.7145L62.7631 17.823Z" />
<path d="M21.9213 41.4016L20.9219 43.134L31.1344 49.0255L32.1338 47.2931L21.9213 41.4016Z" />
<path d="M72.9674 23.7107L71.9668 25.4424L82.1752 31.3409L83.1758 29.6092L72.9674 23.7107Z" />
<path d="M32.1315 47.2891L31.1309 49.0208L41.3392 54.9193L42.3399 53.1876L32.1315 47.2891Z" />
<path d="M42.3471 53.2051L41.3477 54.9375L51.5601 60.8289L52.5595 59.0965L42.3471 53.2051Z" />
<path d="M52.0508 119.905C51.8808 119.905 51.7008 119.865 51.5508 119.775C51.2408 119.595 51.0508 119.265 51.0508 118.905V59.955C51.0508 59.595 51.2408 59.265 51.5508 59.085L102.601 29.615C102.911 29.435 103.291 29.435 103.601 29.615C103.911 29.795 104.101 30.125 104.101 30.485V42.275C104.101 42.635 103.911 42.965 103.601 43.145L83.1808 54.935L63.2608 66.435V99.495L102.601 76.785C102.911 76.605 103.291 76.605 103.601 76.785C103.911 76.965 104.101 77.295 104.101 77.655V89.445C104.101 89.805 103.911 90.135 103.601 90.315L52.5508 119.785C52.4008 119.875 52.2208 119.915 52.0508 119.915V119.905ZM53.0508 60.535V117.175L102.101 88.855V79.375L62.7608 102.085C62.4508 102.265 62.0708 102.265 61.7608 102.085C61.4508 101.905 61.2608 101.575 61.2608 101.215V65.845C61.2608 65.485 61.4508 65.155 61.7608 64.975L82.1808 53.185L102.101 41.685V32.205L53.0508 60.525V60.535Z" />
<path d="M51.5499 49.0351L41.3398 43.1352C41.0298 42.9552 40.8398 42.6251 40.8398 42.2651V6.90514C40.8398 6.54514 41.0298 6.21515 41.3398 6.03515C41.6498 5.85515 42.0298 5.85515 42.3398 6.03515L52.5499 11.9251L51.5499 13.6551L42.8398 8.63515V41.6851L52.5499 47.2951L51.5499 49.0252V49.0351Z" />
<path d="M52.5436 11.9228L51.543 13.6545L61.7514 19.5531L62.752 17.8214L52.5436 11.9228Z" />
<path d="M61.777 41.4158L51.5635 47.3054L52.5626 49.038L62.7761 43.1483L61.777 41.4158Z" />
<path d="M71.9671 35.513L61.7598 41.4133L62.7607 43.1449L72.968 37.2445L71.9671 35.513Z" />
<path d="M62.7631 17.823L61.7637 19.5554L71.9762 25.4469L72.9756 23.7145L62.7631 17.823Z" />
<path d="M72.9707 37.2451L71.9707 35.5151L80.6807 30.4951L71.9707 25.4651L72.9707 23.7351L83.1807 29.6351C83.4907 29.8151 83.6807 30.1451 83.6807 30.5051C83.6807 30.8651 83.4907 31.1951 83.1807 31.3751L72.9707 37.2651V37.2451Z" />
<path d="M86.8008 88.045C86.4508 88.045 86.1208 87.865 85.9308 87.545C85.8408 87.385 85.8008 87.215 85.8008 87.045C85.8008 86.695 85.9808 86.365 86.3008 86.175L92.3908 82.665C92.8708 82.385 93.4808 82.555 93.7608 83.035C93.8508 83.195 93.8908 83.365 93.8908 83.535C93.8908 83.885 93.7108 84.215 93.3908 84.405L87.3008 87.915C87.1408 88.005 86.9708 88.045 86.8008 88.045Z" />
<path d="M77.2803 93.5451C76.9303 93.5451 76.6003 93.3651 76.4103 93.0451C76.3203 92.8851 76.2803 92.7151 76.2803 92.5451C76.2803 92.1951 76.4603 91.8651 76.7803 91.6751L82.1803 88.5551C82.6603 88.2751 83.2703 88.4451 83.5503 88.9251C83.6403 89.0851 83.6803 89.2551 83.6803 89.4251C83.6803 89.7751 83.5003 90.1051 83.1803 90.2951L77.7803 93.4151C77.6203 93.5051 77.4503 93.5451 77.2803 93.5451Z" />
<path d="M62.2608 102.215C61.9108 102.215 61.5808 102.035 61.3908 101.715C61.3708 101.685 61.3608 101.655 61.3408 101.625C61.1608 101.235 61.2608 100.765 61.5808 100.485C61.6308 100.435 61.6908 100.395 61.7608 100.355L71.9708 94.4651C72.4508 94.1851 73.0608 94.3551 73.3408 94.8351C73.6208 95.3151 73.4508 95.9251 72.9708 96.2051L62.7608 102.095C62.6008 102.185 62.4308 102.225 62.2608 102.225V102.215Z" />
<path d="M52.05 119.905C51.88 119.905 51.7 119.865 51.55 119.775L41.34 113.875C41.03 113.695 40.84 113.365 40.84 113.005V66.425L20.92 54.935C20.92 54.935 20.84 54.885 20.81 54.865L12.21 49.905V95.335C12.21 95.695 12.02 96.025 11.71 96.205C11.4 96.385 11.02 96.385 10.71 96.205L0.5 90.305C0.19 90.125 0 89.795 0 89.435V30.495C0 30.135 0.19 29.805 0.5 29.625C0.81 29.445 1.19 29.445 1.5 29.625L11.71 35.515L10.71 37.245L2 32.225V88.855L10.21 93.595V48.165C10.21 47.805 10.4 47.475 10.71 47.295C11.02 47.115 11.4 47.115 11.71 47.295L21.92 53.185C21.92 53.185 22 53.235 22.03 53.255L42.34 64.975C42.65 65.155 42.84 65.485 42.84 65.845V112.425L51.05 117.165V60.525L20.92 43.135L21.92 41.405L52.55 59.085C52.86 59.265 53.05 59.595 53.05 59.955V118.905C53.05 119.265 52.86 119.595 52.55 119.775C52.4 119.865 52.22 119.905 52.05 119.905V119.905Z" />
<path d="M11.7076 35.5012L10.707 37.2329L20.9154 43.1315L21.916 41.3998L11.7076 35.5012Z" />
<path d="M82.6797 43.2751C82.3297 43.2751 81.9997 43.0951 81.8097 42.7751C81.7197 42.6151 81.6797 42.4451 81.6797 42.2751C81.6797 41.9251 81.8597 41.5951 82.1797 41.4051L92.3897 35.5151C92.8697 35.2351 93.4797 35.4051 93.7597 35.8851C93.8497 36.0451 93.8897 36.2151 93.8897 36.3851C93.8897 36.7351 93.7097 37.0651 93.3897 37.2551L83.1797 43.1451C83.0197 43.2351 82.8497 43.2751 82.6797 43.2751Z" />
<path d="M72.4707 49.165C72.1207 49.165 71.7907 48.985 71.6007 48.665C71.5107 48.505 71.4707 48.335 71.4707 48.165C71.4707 47.815 71.6507 47.485 71.9707 47.295L82.1807 41.405C82.6607 41.125 83.2707 41.295 83.5507 41.775C83.6407 41.935 83.6807 42.105 83.6807 42.275C83.6807 42.625 83.5007 42.955 83.1807 43.145L72.9707 49.035C72.8107 49.125 72.6407 49.165 72.4707 49.165Z" />
<path d="M62.2604 55.0651C62.2604 55.0651 62.1604 55.0651 62.1104 55.0551H62.1004C61.8504 55.0151 61.6304 54.8851 61.4704 54.6751C61.4704 54.6751 61.4204 54.6051 61.4004 54.5651C61.3904 54.5451 61.3804 54.5251 61.3704 54.5051C61.2604 54.2751 61.2404 54.0251 61.3104 53.7951C61.3604 53.6251 61.4504 53.4651 61.5804 53.3451C61.6404 53.2951 61.7004 53.2451 61.7704 53.2051L71.9804 47.3051C72.4604 47.0251 73.0704 47.1951 73.3504 47.6751C73.6304 48.1551 73.4604 48.7651 72.9804 49.0451L62.7704 54.9351C62.6104 55.0251 62.4404 55.0651 62.2704 55.0651H62.2604Z" />
<path d="M52.0508 60.955C51.7008 60.955 51.3708 60.775 51.1808 60.455C51.0908 60.295 51.0508 60.125 51.0508 59.955C51.0508 59.605 51.2308 59.275 51.5508 59.085L61.7608 53.195C62.2408 52.915 62.8508 53.085 63.1308 53.565C63.2208 53.725 63.2608 53.895 63.2608 54.065C63.2608 54.415 63.0808 54.745 62.7608 54.935L52.5508 60.825C52.3908 60.915 52.2208 60.955 52.0508 60.955Z" />
<path d="M51.5499 13.665L41.3398 7.775C41.0298 7.595 40.8398 7.26499 40.8398 6.90499C40.8398 6.54499 41.0298 6.21499 41.3398 6.03499L51.5499 0.135C51.8599 -0.045 52.2399 -0.045 52.5499 0.135L62.7598 6.03499L61.7598 7.76499L52.0499 2.15499L43.8398 6.89499L52.5499 11.915L51.5499 13.645V13.665Z" />
<path d="M52.0498 60.9551C51.8798 60.9551 51.6998 60.9151 51.5498 60.8251L31.1298 49.0351L32.1298 47.3051L52.0498 58.8051L101.1 30.4851L92.3898 25.4551L93.3898 23.7251L103.6 29.6251C103.91 29.8051 104.1 30.1351 104.1 30.4951C104.1 30.8551 103.91 31.1851 103.6 31.3651L52.5498 60.8351C52.3998 60.9251 52.2198 60.9651 52.0498 60.9651V60.9551ZM52.0498 49.1651C51.8798 49.1651 51.6998 49.1251 51.5498 49.0351L11.2098 25.7451L2.99977 30.4851L11.7098 35.5051L11.2098 36.3751L11.7198 35.5051L21.9298 41.4051L20.9298 43.1351L0.509766 31.3451C0.199766 31.1651 0.00976562 30.8351 0.00976562 30.4751C0.00976562 30.1151 0.199766 29.7851 0.509766 29.6051L10.7198 23.7051C11.0298 23.5251 11.4098 23.5251 11.7198 23.7051L52.0598 46.9951L82.1898 29.6051L83.1898 31.3351L52.5598 49.0151C52.4098 49.1051 52.2298 49.1451 52.0598 49.1451L52.0498 49.1651Z" />
<path d="M62.7611 6.03152L61.7617 7.76392L71.9742 13.6554L72.9736 11.923L62.7611 6.03152Z" />
<path d="M52.5436 11.9228L51.543 13.6545L61.7514 19.5531L62.752 17.8214L52.5436 11.9228Z" />
<path d="M72.9694 11.9221L71.9688 13.6538L82.1771 19.5524L83.1777 17.8207L72.9694 11.9221Z" />
<path d="M62.7631 17.823L61.7637 19.5554L71.9762 25.4469L72.9756 23.7145L62.7631 17.823Z" />
<path d="M83.1771 17.8252L82.1777 19.5576L92.3902 25.449L93.3896 23.7166L83.1771 17.8252Z" />
<path d="M72.9674 23.7107L71.9668 25.4424L82.1752 31.3409L83.1758 29.6092L72.9674 23.7107Z" />
<path d="M62.2598 102.215C62.0898 102.215 61.9098 102.175 61.7598 102.085C61.4498 101.905 61.2598 101.575 61.2598 101.215V65.8449C61.2598 65.4849 61.4498 65.155 61.7598 64.975L71.9698 59.085C72.2798 58.905 72.6598 58.905 72.9698 59.085L103.6 76.7649C103.91 76.9449 104.1 77.275 104.1 77.635C104.1 77.995 103.91 78.3249 103.6 78.5049L62.7598 102.085C62.6098 102.175 62.4298 102.215 62.2598 102.215V102.215ZM63.2598 66.4249V99.4849L101.1 77.635L72.4698 61.1049L63.2598 66.4249Z" />
</svg>
