<svg width="105" height="130" viewBox="0 0 105 125" fill="none" xmlns="http://www.w3.org/2000/svg">
<path d="M31.6299 96.3152C31.4599 96.3152 31.2799 96.2652 31.1299 96.1852C30.8199 96.0052 30.6299 95.6752 30.6299 95.3152V71.7352C30.6299 71.3752 30.8199 71.0452 31.1299 70.8652C31.4399 70.6852 31.8199 70.6852 32.1299 70.8652L42.3399 76.7552L52.5499 82.6452C52.8599 82.8252 53.0499 83.1552 53.0499 83.5152C53.0499 83.8752 52.8599 84.2052 52.5499 84.3852L32.1299 96.1752C31.9799 96.2652 31.7999 96.3052 31.6299 96.3052V96.3152ZM32.6299 73.4752V93.5852L50.0499 83.5252L32.6299 73.4652V73.4752Z" />
<path d="M11.7094 47.3159L10.71 49.0483L20.9224 54.9398L21.9218 53.2074L11.7094 47.3159Z" />
<path d="M41.3399 66.7151L31.1299 60.8251C30.8199 60.6451 30.6299 60.3151 30.6299 59.9551C30.6299 59.5951 30.8199 59.2651 31.1299 59.0851L51.5499 47.2952L52.5499 49.0251L33.6299 59.9451L42.3399 64.9651L41.3399 66.6951V66.7151Z" />
<path d="M42.3317 64.9119L41.3311 66.6436L51.5395 72.5421L52.5401 70.8104L42.3317 64.9119Z" />
<path d="M72.4698 96.3152C72.2998 96.3152 72.1198 96.2752 71.9698 96.1852C71.6598 96.0052 71.4698 95.6752 71.4698 95.3152V73.4752L52.5498 84.3852C52.2398 84.5652 51.8598 84.5652 51.5498 84.3852C51.2398 84.2052 51.0498 83.8752 51.0498 83.5152V71.7352C51.0498 71.3752 51.2398 71.0452 51.5498 70.8652L71.4698 59.3652V36.3652C71.4698 36.0052 71.6598 35.6752 71.9698 35.4952L82.1798 29.5952C82.4898 29.4152 82.8698 29.4152 83.1798 29.5952C83.4898 29.7752 83.6798 30.1052 83.6798 30.4652V52.3152L102.6 41.3952C102.91 41.2152 103.29 41.2152 103.6 41.3952C103.91 41.5752 104.1 41.9052 104.1 42.2652V54.0552C104.1 54.4152 103.91 54.7452 103.6 54.9252L83.6798 66.4252V89.4252C83.6798 89.7852 83.4898 90.1152 83.1798 90.2952L72.9698 96.1852C72.8098 96.2752 72.6398 96.3152 72.4698 96.3152ZM72.4698 70.7452C72.6398 70.7452 72.8198 70.7852 72.9698 70.8752C73.2798 71.0552 73.4698 71.3852 73.4698 71.7452V93.5852L81.6798 88.8452V65.8452C81.6798 65.4852 81.8698 65.1552 82.1798 64.9752L102.1 53.4752V43.9952L83.1798 54.9152C82.8698 55.0952 82.4898 55.0952 82.1798 54.9152C81.8698 54.7352 81.6798 54.4052 81.6798 54.0452V32.1952L73.4698 36.9452V59.9452C73.4698 60.3052 73.2798 60.6352 72.9698 60.8152L53.0498 72.3152V81.7852L71.9698 70.8752C72.1298 70.7852 72.2998 70.7452 72.4698 70.7452Z" />
<path d="M31.6299 60.9551C31.4599 60.9551 31.2799 60.9051 31.1299 60.8251C30.8199 60.6451 30.6299 60.3151 30.6299 59.9551V36.3751C30.6299 36.0151 30.8199 35.6851 31.1299 35.5051L51.5499 23.7151C51.8599 23.5351 52.2399 23.5351 52.5499 23.7151C52.8599 23.8951 53.0499 24.2251 53.0499 24.5851V48.1651C53.0499 48.5251 52.8599 48.8551 52.5499 49.0351L32.1299 60.8251C31.9799 60.9151 31.7999 60.9551 31.6299 60.9551ZM32.6299 36.9551V58.2251L51.0499 47.5951V26.3251L32.6299 36.9651V36.9551Z" />
<path d="M32.1299 25.4551L31.1299 23.7251L39.8399 18.6951L31.1299 13.6751L32.1299 11.9451L42.3399 17.8351C42.6499 18.0151 42.8399 18.3451 42.8399 18.7051C42.8399 19.0651 42.6499 19.3951 42.3399 19.5751L32.1299 25.4751V25.4551Z" />
<path d="M82.6798 31.4751C82.5098 31.4751 82.3298 31.4351 82.1798 31.3451L61.7598 19.5552C61.4498 19.3752 61.2598 19.0452 61.2598 18.6852C61.2598 18.3252 61.4498 17.9952 61.7598 17.8152L82.1798 6.02514C82.4898 5.84514 82.8698 5.84514 83.1798 6.02514C83.4898 6.20514 83.6798 6.53513 83.6798 6.89513V30.4751C83.6798 30.8351 83.4898 31.1651 83.1798 31.3451C83.0298 31.4351 82.8498 31.4751 82.6798 31.4751V31.4751ZM64.2598 18.6852L81.6798 28.7452V8.63512L72.9698 13.6652L64.2598 18.6951V18.6852Z" />
<path d="M62.2598 31.4752C62.0898 31.4752 61.9198 31.4352 61.7598 31.3452L51.5498 25.4552C51.3698 25.3552 51.2398 25.2052 51.1498 25.0252C51.0898 24.8852 51.0498 24.7452 51.0498 24.5952C51.0498 24.2352 51.2398 23.9052 51.5498 23.7252L61.7598 17.8352C62.2398 17.5552 62.8498 17.7252 63.1298 18.2052C63.4098 18.6852 63.2398 19.2952 62.7598 19.5752L54.0498 24.6052L62.7598 29.6352C63.0798 29.8252 63.2598 30.1552 63.2598 30.5052C63.2598 30.6752 63.2198 30.8452 63.1298 31.0052C62.9398 31.3252 62.6098 31.5052 62.2598 31.5052V31.4752Z" />
<path d="M62.7526 29.5456L61.752 31.2773L71.9604 37.1759L72.961 35.4442L62.7526 29.5456Z" />
<path d="M61.7598 90.2952L51.5498 84.3951C51.2398 84.2151 51.0498 83.8851 51.0498 83.5251C51.0498 83.1651 51.2398 82.8352 51.5498 82.6552L61.7598 76.7651L62.7598 78.4952L54.0498 83.5151L62.7598 88.5452L61.7598 90.2751V90.2952Z" />
<path d="M72.4698 96.3152C72.2998 96.3152 72.1298 96.2752 71.9698 96.1852L61.7598 90.2952L62.7598 88.5652L71.4698 93.5852V73.4752L62.7598 78.4952L61.7598 76.7652L71.9698 70.8752C72.2798 70.6952 72.6598 70.6952 72.9698 70.8752C73.2798 71.0552 73.4698 71.3852 73.4698 71.7452V95.3152C73.4698 95.6752 73.2798 96.0052 72.9698 96.1852C72.8198 96.2752 72.6398 96.3152 72.4698 96.3152Z" />
<path d="M21.4199 31.4751C21.2499 31.4751 21.0699 31.4351 20.9199 31.3451C20.6099 31.1651 20.4199 30.8351 20.4199 30.4751V6.89513C20.4199 6.53513 20.6099 6.20514 20.9199 6.02514C21.2299 5.84514 21.6099 5.84514 21.9199 6.02514L32.1299 11.9252L31.1299 13.6551L22.4199 8.62517V28.7452L31.1299 23.7251L32.1299 25.4551L21.9199 31.3451C21.7699 31.4351 21.5899 31.4751 21.4199 31.4751Z" />
<path d="M32.1299 25.4551L31.1299 23.7251L39.8399 18.6951L31.1299 13.6751L32.1299 11.9451L42.3399 17.8351C42.6499 18.0151 42.8399 18.3451 42.8399 18.7051C42.8399 19.0651 42.6499 19.3951 42.3399 19.5751L32.1299 25.4751V25.4551Z" />
<path d="M61.7598 54.9251L51.5498 49.0351C51.2398 48.8551 51.0498 48.5251 51.0498 48.1651V24.5851C51.0498 24.2251 51.2398 23.8951 51.5498 23.7151C51.8598 23.5351 52.2398 23.5351 52.5498 23.7151L62.7598 29.6051L61.7598 31.3351L53.0498 26.3151V47.5851L62.7598 53.1851L61.7598 54.9151V54.9251Z" />
<path d="M72.4698 60.9552C72.2998 60.9552 72.1198 60.9052 71.9698 60.8252L61.7598 54.9252L62.7598 53.1952L71.4698 58.2252V36.9552L61.7598 31.3452L62.7598 29.6152L72.9698 35.5152C73.2798 35.6952 73.4698 36.0252 73.4698 36.3852V59.9652C73.4698 60.3252 73.2798 60.6552 72.9698 60.8352C72.8098 60.9252 72.6398 60.9652 72.4698 60.9652V60.9552Z" />
<path d="M82.6799 55.0551C82.4499 55.0551 82.2199 54.9751 82.0399 54.8251C81.9599 54.7451 81.8799 54.6551 81.8299 54.5551C81.6899 54.3051 81.6599 54.0151 81.7399 53.7651C81.8099 53.5251 81.9699 53.3151 82.1899 53.1851L92.3999 47.2951C92.8799 47.0151 93.4899 47.1851 93.7699 47.6651C94.0499 48.1451 93.8799 48.7551 93.3999 49.0351L83.1899 54.9251C83.0299 55.0151 82.8599 55.0551 82.6899 55.0551H82.6799Z" />
<path d="M62.2598 66.8452C61.9098 66.8452 61.5798 66.6652 61.3898 66.3452C61.2998 66.1852 61.2598 66.0152 61.2598 65.8452C61.2598 65.4952 61.4398 65.1652 61.7598 64.9752L71.9698 59.0852C72.4498 58.8052 73.0598 58.9752 73.3398 59.4552C73.4298 59.6152 73.4698 59.7852 73.4698 59.9552C73.4698 60.3052 73.2898 60.6352 72.9698 60.8252L62.7598 66.7152C62.5998 66.8052 62.4298 66.8452 62.2598 66.8452Z" />
<path d="M52.0605 72.7453C51.7105 72.7453 51.3806 72.5653 51.1906 72.2453C51.1006 72.0853 51.0605 71.9153 51.0605 71.7453C51.0605 71.3953 51.2405 71.0653 51.5605 70.8753L61.7705 64.9853C62.2505 64.7053 62.8605 64.8753 63.1405 65.3553C63.2305 65.5153 63.2705 65.6853 63.2705 65.8553C63.2705 66.2053 63.0905 66.5353 62.7705 66.7253L52.5605 72.6153C52.4005 72.7053 52.2305 72.7453 52.0605 72.7453Z" />
<path d="M31.63 96.3152C31.46 96.3152 31.28 96.2752 31.13 96.1852L20.92 90.2952C20.61 90.1152 20.42 89.7852 20.42 89.4252V66.4252L10.71 60.8252C10.71 60.8252 10.63 60.7752 10.6 60.7452L0.5 54.9252C0.19 54.7452 0 54.4152 0 54.0552V42.2652C0 41.9052 0.19 41.5752 0.5 41.3952C0.81 41.2152 1.19 41.2152 1.5 41.3952L20.42 52.3152V30.4652C20.42 30.1052 20.61 29.7752 20.92 29.5952C21.23 29.4152 21.61 29.4152 21.92 29.5952L32.13 35.4952C32.44 35.6752 32.63 36.0052 32.63 36.3652V59.3652L42.34 64.9652L52.55 70.8652C52.86 71.0452 53.05 71.3752 53.05 71.7352V83.5152C53.05 83.8752 52.86 84.2052 52.55 84.3852C52.24 84.5652 51.86 84.5652 51.55 84.3852L32.63 73.4752V95.3152C32.63 95.6752 32.44 96.0052 32.13 96.1852C31.98 96.2752 31.8 96.3152 31.63 96.3152V96.3152ZM22.42 88.8452L30.63 93.5852V71.7452C30.63 71.3852 30.82 71.0552 31.13 70.8752C31.44 70.6952 31.82 70.6952 32.13 70.8752L51.05 81.7852V72.3152L31.13 60.8152C30.82 60.6352 30.63 60.3052 30.63 59.9452V36.9452L22.42 32.1952V54.0452C22.42 54.4052 22.23 54.7352 21.92 54.9152C21.61 55.0952 21.23 55.0952 20.92 54.9152L2 43.9952V53.4752L11.71 59.0752C11.71 59.0752 11.79 59.1252 11.82 59.1552L21.92 64.9752C22.23 65.1552 22.42 65.4852 22.42 65.8452V88.8452V88.8452Z" />
<path d="M62.2601 19.6853C61.9101 19.6853 61.5801 19.5053 61.3901 19.1853C61.1101 18.7053 61.2801 18.0953 61.7601 17.8153L71.9701 11.9253C72.4501 11.6453 73.0601 11.8153 73.3401 12.2953C73.4301 12.4553 73.4701 12.6253 73.4701 12.8053C73.4701 13.1453 73.2901 13.4753 72.9701 13.6653L62.7601 19.5653C62.6001 19.6553 62.4301 19.6952 62.2601 19.6952V19.6853Z" />
<path d="M52.0501 25.5851C51.7001 25.5851 51.3701 25.4051 51.1801 25.0851C50.9001 24.6051 51.0701 23.9951 51.5501 23.7151L61.7601 17.8152C62.2401 17.5352 62.8501 17.7051 63.1301 18.1851C63.2201 18.3451 63.2601 18.5151 63.2601 18.6851C63.2601 19.0251 63.0801 19.3651 62.7601 19.5551L52.5501 25.4551C52.3901 25.5451 52.2201 25.5851 52.0501 25.5851Z" />
<path d="M41.8496 31.4753C41.4996 31.4753 41.1696 31.2953 40.9796 30.9753C40.8896 30.8153 40.8496 30.6453 40.8496 30.4753C40.8496 30.1253 41.0296 29.7953 41.3496 29.6053L51.5596 23.7153C52.0396 23.4353 52.6496 23.6053 52.9296 24.0853C53.0196 24.2453 53.0596 24.4153 53.0596 24.5853C53.0596 24.9353 52.8796 25.2653 52.5596 25.4553L42.3496 31.3453C42.1896 31.4353 42.0196 31.4753 41.8496 31.4753Z" />
<path d="M31.6396 37.3752C31.2896 37.3752 30.9597 37.1952 30.7697 36.8752C30.6797 36.7152 30.6396 36.5452 30.6396 36.3752C30.6396 36.0252 30.8196 35.6952 31.1396 35.5052L41.3497 29.6152C41.8297 29.3352 42.4397 29.5052 42.7197 29.9852C42.8097 30.1452 42.8497 30.3152 42.8497 30.4852C42.8497 30.8352 42.6697 31.1652 42.3497 31.3552L32.1396 37.2452C31.9796 37.3352 31.8096 37.3752 31.6396 37.3752Z" />
<path d="M10.71 49.035L0.5 43.135C0.19 42.955 0 42.625 0 42.265C0 41.905 0.19 41.575 0.5 41.395L20.92 29.605L39.84 18.685L20.92 7.76501C20.61 7.58501 20.42 7.25501 20.42 6.89501C20.42 6.53501 20.61 6.20501 20.92 6.02501L31.13 0.135C31.44 -0.045 31.82 -0.045 32.13 0.135L52.05 11.635L71.97 0.135C72.28 -0.045 72.66 -0.045 72.97 0.135L83.18 6.02501C83.49 6.20501 83.68 6.53501 83.68 6.89501C83.68 7.25501 83.49 7.58501 83.18 7.76501L32.13 37.245C31.82 37.425 31.44 37.425 31.13 37.245L21.42 31.635L3 42.275L11.71 47.305L10.71 49.035V49.035ZM23.42 30.475L31.63 35.215L80.68 6.89501L72.47 2.15502L52.55 13.655C52.24 13.835 51.86 13.835 51.55 13.655L31.63 2.15502L23.42 6.89501L42.34 17.8151C42.65 17.9951 42.84 18.325 42.84 18.685C42.84 19.045 42.65 19.375 42.34 19.555L23.42 30.475V30.475Z" />
<path d="M21.42 55.0552C21.25 55.0552 21.07 55.0052 20.92 54.9252L10.71 49.0352L11.71 47.3052L20.42 52.3251V42.2651H22.42V54.0552C22.42 54.4152 22.23 54.7452 21.92 54.9252C21.77 55.0152 21.59 55.0552 21.42 55.0552Z" />
<path d="M72.4698 37.3752C72.2998 37.3752 72.1198 37.3352 71.9698 37.2452L51.5498 25.4551C51.2398 25.2751 51.0498 24.9451 51.0498 24.5851C51.0498 24.2251 51.2398 23.8951 51.5498 23.7151L61.7598 17.8152C62.0698 17.6352 62.4498 17.6352 62.7598 17.8152L83.1798 29.6052C83.4898 29.7852 83.6798 30.1151 83.6798 30.4751C83.6798 30.8351 83.4898 31.1651 83.1798 31.3451L72.9698 37.2452C72.8198 37.3352 72.6398 37.3752 72.4698 37.3752ZM54.0498 24.5851L72.4698 35.2251L80.6798 30.4852L62.2598 19.8451L54.0498 24.5851Z" />
<path d="M83.6797 42.2652H81.6797V30.4752C81.6797 30.1152 81.8697 29.7852 82.1797 29.6052C82.4897 29.4252 82.8697 29.4252 83.1797 29.6052L93.3896 35.5052L92.3896 37.2352L83.6797 32.2052V42.2652Z" />
<path d="M82.6797 55.0552C82.5097 55.0552 82.3297 55.0052 82.1797 54.9252C81.8697 54.7452 81.6797 54.4152 81.6797 54.0552V42.2651H83.6797V52.3251L101.1 42.2651L92.3896 37.2452L93.3896 35.5151L103.6 41.4052C103.91 41.5852 104.1 41.9151 104.1 42.2751C104.1 42.6351 103.91 42.9651 103.6 43.1451L83.1797 54.9352C83.0197 55.0252 82.8497 55.0652 82.6797 55.0652V55.0552Z" />
</svg>
