<svg width="105" height="120" viewBox="0 0 105 120" fill="none" xmlns="http://www.w3.org/2000/svg">
<path d="M72.4707 37.3749C72.3007 37.3749 72.1307 37.3349 71.9707 37.2449L62.6707 31.8749C62.1907 31.5949 62.0307 30.9849 62.3007 30.5049C62.5807 30.0249 63.1907 29.8649 63.6707 30.1349L65.1407 30.9849L72.9707 35.5049C73.4507 35.7849 73.6107 36.3949 73.3407 36.8749C73.1507 37.1949 72.8207 37.3749 72.4707 37.3749Z" />
<path d="M12.21 83.5251H10.21V36.3751C10.21 36.0151 10.4 35.6851 10.71 35.5051L51.54 11.925L52.54 13.6551L12.21 36.9451V83.5151V83.5251Z" />
<path d="M20.92 90.2948L10.71 84.3948C10.4 84.2148 10.21 83.8848 10.21 83.5248C10.21 83.1648 10.4 82.8348 10.71 82.6548L20.42 77.0548V42.2648C20.42 41.9048 20.61 41.5748 20.92 41.3948L51.04 24.0048V12.7948C51.04 12.4348 51.23 12.1048 51.54 11.9248C51.85 11.7448 52.23 11.7448 52.54 11.9248L62.75 17.8148L61.75 19.5448L53.04 14.5248V24.5848C53.04 24.9448 52.85 25.2748 52.54 25.4548L22.42 42.8448V77.6348C22.42 77.9948 22.23 78.3248 21.92 78.5048L13.21 83.5248L21.92 88.5548L20.92 90.2848V90.2948Z" />
<path d="M41.3299 90.2949L31.1299 84.4049C30.8199 84.2249 30.6299 83.8949 30.6299 83.5349H31.6299V82.5249C31.8599 82.5249 32.0699 82.6049 32.2399 82.7349L42.3299 88.5549L41.3299 90.2849V90.2949Z" />
<path d="M21.9066 88.5799L20.9072 90.3123L31.1197 96.2037L32.1191 94.4713L21.9066 88.5799Z" />
<path d="M32.1539 94.3931L31.1533 96.1248L41.3617 102.023L42.3623 100.292L32.1539 94.3931Z" />
<path d="M51.5398 96.1851L41.3398 90.295L41.8398 89.4351V88.425C42.0198 88.425 42.1898 88.4751 42.3398 88.5551L52.5398 94.4451L51.5398 96.175V96.1851Z" />
<path d="M42.3334 100.364L41.334 102.096L51.5465 107.987L52.5459 106.255L42.3334 100.364Z" />
<path d="M52.05 96.3149H52.04V94.3149L52.05 96.3149Z" />
<path d="M41.8399 78.6349C41.6699 78.6349 41.4999 78.5949 41.3399 78.5049L31.1299 72.6149C30.8199 72.4349 30.6299 72.1049 30.6299 71.7449C30.6299 71.5849 30.6699 71.4349 30.7399 71.2949C30.8299 71.1249 30.9599 70.9749 31.1299 70.8749L41.3399 64.9849L42.3399 66.7149L33.6299 71.7449L42.3399 76.7749C42.8199 77.0549 42.9799 77.6649 42.7099 78.1449C42.5199 78.4649 42.1899 78.6449 41.8399 78.6449V78.6349Z" />
<path d="M31.6299 72.7449C31.4599 72.7449 31.2799 72.7049 31.1299 72.6149C30.8199 72.4349 30.6299 72.1049 30.6299 71.7449V59.9549C30.6299 59.5949 30.8199 59.265 31.1299 59.085C31.4399 58.905 31.8199 58.905 32.1299 59.085L42.3399 64.975C42.6499 65.155 42.8399 65.485 42.8399 65.845C42.8399 66.205 42.6499 66.535 42.3399 66.715L32.1299 72.605C31.9799 72.695 31.7999 72.7349 31.6299 72.7349V72.7449ZM32.6299 61.6849V70.0049L39.8399 65.845L32.6299 61.6849V61.6849Z" />
<path d="M72.4707 49.165C72.1207 49.165 71.7907 48.985 71.6007 48.665C71.5107 48.505 71.4707 48.335 71.4707 48.165C71.4707 47.815 71.6507 47.485 71.9707 47.295L82.1807 41.405C82.6607 41.125 83.2707 41.295 83.5507 41.775C83.6407 41.935 83.6807 42.105 83.6807 42.275C83.6807 42.625 83.5007 42.955 83.1807 43.145L72.9707 49.035C72.8107 49.125 72.6407 49.165 72.4707 49.165Z" />
<path d="M62.7731 17.7724L61.7725 19.5042L71.9809 25.4027L72.9815 23.671L62.7731 17.7724Z" />
<path d="M72.9564 23.7288L71.957 25.4612L82.1695 31.3526L83.1689 29.6202L72.9564 23.7288Z" />
<path d="M62.2598 43.2651C62.0898 43.2651 61.9198 43.2251 61.7598 43.1351L51.5498 37.245C51.2298 37.055 51.0498 36.725 51.0498 36.375C51.0498 36.205 51.0898 36.035 51.1798 35.875C51.4598 35.395 52.0698 35.235 52.5498 35.505L62.7598 41.3951C63.0798 41.5851 63.2598 41.9151 63.2598 42.2651C63.2598 42.4351 63.2198 42.6051 63.1298 42.7651C62.9398 43.0851 62.6098 43.2651 62.2598 43.2651Z" />
<path d="M42.3398 43.135L41.3398 41.405L51.5398 35.515C51.6898 35.425 51.8598 35.385 52.0398 35.385V36.395L52.5398 37.255L42.3398 43.145V43.135Z" />
<path d="M52.0398 49.165C51.8698 49.165 51.6898 49.125 51.5398 49.035L41.3398 43.135C41.0298 42.955 40.8398 42.625 40.8398 42.265C40.8398 41.905 41.0298 41.575 41.3398 41.395L51.5398 35.505C51.9198 35.285 52.4398 35.355 52.7498 35.665C52.9398 35.855 53.0498 36.105 53.0498 36.375V48.165C53.0398 48.525 52.8498 48.855 52.5398 49.035C52.3898 49.125 52.2098 49.165 52.0398 49.165V49.165ZM43.8398 42.265L51.0398 46.435V38.105L43.8398 42.265V42.265Z" />
<path d="M32.1185 47.3186L31.1191 49.051L41.3316 54.9424L42.331 53.21L32.1185 47.3186Z" />
<path d="M83.1881 29.5603L82.1875 31.292L92.3959 37.1905L93.3965 35.4588L83.1881 29.5603Z" />
<path d="M42.3678 53.1401L41.3672 54.8718L51.5755 60.7704L52.5762 59.0387L42.3678 53.1401Z" />
<path d="M52.0498 49.165V48.155L51.5498 47.295L61.7498 41.395L62.7498 43.125L52.5498 49.025C52.3998 49.115 52.2298 49.155 52.0498 49.155V49.165Z" />
<path d="M52.0498 119.895C51.8798 119.895 51.6998 119.845 51.5498 119.765C51.2398 119.585 51.0498 119.255 51.0498 118.895V107.105C51.0498 106.745 51.2398 106.415 51.5498 106.235L91.8798 82.9549V36.3749C91.8798 36.0149 92.0698 35.6849 92.3798 35.5049L102.59 29.605C102.9 29.425 103.28 29.425 103.59 29.605C103.9 29.785 104.09 30.115 104.09 30.475V89.4249C104.09 89.7849 103.9 90.1149 103.59 90.2949L52.5498 119.765C52.3998 119.855 52.2198 119.895 52.0498 119.895V119.895ZM53.0498 107.685V117.165L102.09 88.845V32.2049L93.8798 36.9549V83.535C93.8798 83.895 93.6898 84.225 93.3798 84.405L53.0498 107.685Z" />
<path d="M83.1698 41.395C82.8598 41.215 82.4798 41.215 82.1698 41.395L72.0498 47.245C72.0498 47.245 71.9898 47.275 71.9598 47.295L51.5498 59.085C51.2398 59.265 51.0498 59.595 51.0498 59.955V95.315C51.0498 95.675 51.2398 96.005 51.5498 96.185C51.6998 96.275 51.8798 96.315 52.0498 96.315C52.2198 96.315 52.3998 96.275 52.5498 96.185L83.1698 78.505C83.4798 78.325 83.6698 77.995 83.6698 77.635V42.265C83.6698 41.905 83.4798 41.575 83.1698 41.395ZM81.6698 77.055L53.0498 93.585V60.535L72.8798 49.075C72.8798 49.075 72.9398 49.045 72.9698 49.025L81.6698 43.995V77.055Z" />
<path d="M71.9598 59.085L61.7598 64.975C61.4498 65.155 61.2598 65.485 61.2598 65.845V77.6349C61.2598 77.9949 61.4498 78.3249 61.7598 78.5049C61.9098 78.5949 62.0898 78.6349 62.2598 78.6349C62.4298 78.6349 62.6098 78.5949 62.7598 78.5049L72.9598 72.6149C73.2698 72.4349 73.4598 72.1049 73.4598 71.7449V59.9549C73.4598 59.5949 73.2698 59.265 72.9598 59.085C72.6498 58.905 72.2698 58.905 71.9598 59.085ZM71.4598 71.165L63.2598 75.8949V66.415L71.4598 61.6849V71.165Z" />
<path d="M52.0499 96.315C51.8699 96.315 51.6899 96.265 51.5399 96.185L41.4199 90.335C41.4199 90.335 41.3599 90.305 41.3299 90.295L31.1299 84.405C31.1299 84.405 31.0799 84.375 31.0499 84.355L20.9199 78.505C20.6099 78.325 20.4199 77.995 20.4199 77.635V42.265C20.4199 41.905 20.6099 41.575 20.9199 41.395C21.2299 41.215 21.6099 41.215 21.9199 41.395L42.3399 53.185L52.5499 59.085C52.8599 59.265 53.0499 59.595 53.0499 59.955V95.315C53.0499 95.865 52.5999 96.315 52.0499 96.315V96.315ZM42.2599 88.515C42.2599 88.515 42.3199 88.545 42.3499 88.555L51.0599 93.585V60.525L22.4299 43.985V77.045L32.0899 82.625C32.0899 82.625 32.1899 82.675 32.2299 82.715L42.2699 88.515H42.2599Z" />
<path d="M41.8399 78.6349C41.6699 78.6349 41.4899 78.5949 41.3399 78.5049L31.1299 72.6149C30.8199 72.4349 30.6299 72.1049 30.6299 71.7449V59.9549C30.6299 59.5949 30.8199 59.265 31.1299 59.085C31.4399 58.905 31.8199 58.905 32.1299 59.085L42.3399 64.975C42.6499 65.155 42.8399 65.485 42.8399 65.845V77.6349C42.8399 77.9949 42.6499 78.3249 42.3399 78.5049C42.1899 78.5949 42.0099 78.6349 41.8399 78.6349ZM32.6299 71.165L40.8399 75.905V66.4249L32.6299 61.6849V71.165Z" />
<path d="M72.4698 72.7449C72.2998 72.7449 72.1198 72.7049 71.9698 72.6149L61.7598 66.725C61.4498 66.545 61.2598 66.215 61.2598 65.855C61.2598 65.495 61.4498 65.1649 61.7598 64.9849L71.9698 59.095C72.2798 58.915 72.6598 58.915 72.9698 59.095C73.2798 59.275 73.4698 59.605 73.4698 59.965V71.7549C73.4698 72.1149 73.2798 72.4449 72.9698 72.6249C72.8198 72.7149 72.6398 72.7549 72.4698 72.7549V72.7449ZM64.2598 65.855L71.4698 70.0149V61.6949L64.2598 65.855V65.855Z" />
<path d="M52.05 49.1649C51.78 49.1649 51.53 49.0549 51.34 48.8749C51.15 48.6949 51.04 48.4349 51.04 48.1649V36.3749C51.05 36.0149 51.24 35.6849 51.55 35.5049C51.86 35.3249 52.24 35.3249 52.55 35.5049L62.75 41.3949C63.06 41.5749 63.25 41.9049 63.25 42.2649C63.25 42.6249 63.06 42.9549 62.75 43.1349L52.55 49.0349C52.4 49.1249 52.23 49.1649 52.05 49.1649ZM53.05 38.1049V46.4349L60.25 42.2649L53.05 38.1049V38.1049Z" />
<path d="M41.8399 78.6349C41.6699 78.6349 41.4899 78.5949 41.3399 78.5049L31.1299 72.6149C30.8199 72.4349 30.6299 72.1049 30.6299 71.7449C30.6299 71.3849 30.8199 71.0549 31.1299 70.8749L41.3399 64.9849C41.6499 64.8049 42.0299 64.8049 42.3399 64.9849C42.6499 65.1649 42.8399 65.4949 42.8399 65.8549V77.6449C42.8399 78.0049 42.6499 78.3349 42.3399 78.5149C42.1899 78.6049 42.0099 78.6449 41.8399 78.6449V78.6349ZM33.6299 71.7449L40.8399 75.9049V67.5849L33.6299 71.7449V71.7449Z" />
<path d="M10.71 96.1849L0.5 90.2949C0.19 90.1149 0 89.7849 0 89.4249V30.475C0 30.115 0.19 29.785 0.5 29.605C0.81 29.425 1.19 29.425 1.5 29.605L11.71 35.5049C12.02 35.6849 12.21 36.0149 12.21 36.3749V83.525H10.21V36.9549L2 32.2049V88.845L11.71 94.4449L10.71 96.1749V96.1849Z" />
<path d="M41.3299 90.2949L31.1299 84.4049C30.8199 84.2249 30.6299 83.8949 30.6299 83.5349H31.6299V82.5249C31.8599 82.5249 32.0699 82.6049 32.2399 82.7349L42.3299 88.5549L41.3299 90.2849V90.2949Z" />
<path d="M11.7379 94.3935L10.7373 96.1252L20.9457 102.024L21.9463 100.292L11.7379 94.3935Z" />
<path d="M11.7389 82.605L10.7383 84.3367L20.9466 90.2352L21.9472 88.5035L11.7389 82.605Z" />
<path d="M51.5398 96.1851L41.3398 90.295L41.8398 89.4351V88.425C42.0198 88.425 42.1898 88.4751 42.3398 88.5551L52.5398 94.4451L51.5398 96.175V96.1851Z" />
<path d="M52.05 96.3149H52.04V94.3149L52.05 96.3149Z" />
<path d="M82.6797 90.425C82.3297 90.425 81.9997 90.245 81.8097 89.925C81.7197 89.765 81.6797 89.595 81.6797 89.425C81.6797 89.075 81.8597 88.745 82.1797 88.555L92.3897 82.665C92.8697 82.385 93.4797 82.555 93.7597 83.035C93.8497 83.195 93.8897 83.365 93.8897 83.535C93.8897 83.885 93.7097 84.215 93.3897 84.405L83.1797 90.295C83.0197 90.385 82.8497 90.425 82.6797 90.425Z" />
<path d="M72.4707 96.3149C72.1207 96.3149 71.7907 96.1349 71.6007 95.8149C71.5107 95.6549 71.4707 95.4849 71.4707 95.3149C71.4707 94.9649 71.6507 94.6349 71.9707 94.4449L82.1807 88.5549C82.6607 88.2749 83.2707 88.4449 83.5507 88.9249C83.6407 89.0849 83.6807 89.2549 83.6807 89.4249C83.6807 89.7749 83.5007 90.1049 83.1807 90.2949L72.9707 96.1849C72.8107 96.2749 72.6407 96.3149 72.4707 96.3149Z" />
<path d="M62.2598 102.215C61.9098 102.215 61.5798 102.035 61.3898 101.715C61.2998 101.555 61.2598 101.385 61.2598 101.215C61.2598 100.865 61.4398 100.535 61.7598 100.345L71.9698 94.455C72.4498 94.175 73.0598 94.345 73.3398 94.825C73.4298 94.985 73.4698 95.155 73.4698 95.325C73.4698 95.675 73.2898 96.005 72.9698 96.195L62.7598 102.085C62.5998 102.175 62.4298 102.215 62.2598 102.215Z" />
<path d="M52.0495 108.105C51.9895 108.105 51.9395 108.105 51.8895 108.095C51.6095 108.045 51.3395 107.875 51.1895 107.605C51.0295 107.335 51.0195 107.025 51.1195 106.755V106.735C51.1995 106.535 51.3495 106.355 51.5495 106.235L61.7595 100.345C62.2395 100.065 62.8495 100.235 63.1295 100.715C63.4095 101.195 63.2395 101.805 62.7595 102.085L52.5495 107.975C52.3895 108.065 52.2195 108.105 52.0595 108.105H52.0495Z" />
<path d="M52.0499 119.895C51.8799 119.895 51.6999 119.845 51.5499 119.765L20.9199 102.085L21.9199 100.355L51.0499 117.165V107.685L20.9199 90.2949L21.9199 88.5649L52.5499 106.245C52.8599 106.425 53.0499 106.755 53.0499 107.115V118.905C53.0499 119.265 52.8599 119.595 52.5499 119.775C52.3999 119.865 52.2199 119.905 52.0499 119.905V119.895Z" />
<path d="M21.4199 78.635C20.8699 78.635 20.4199 78.185 20.4199 77.635V42.265C20.4199 41.905 20.6099 41.575 20.9199 41.395C21.2299 41.215 21.6099 41.215 21.9199 41.395L32.1299 47.295C32.1299 47.295 32.2099 47.345 32.2499 47.375C32.5299 47.605 32.6699 47.965 32.6099 48.315C32.5899 48.435 32.5499 48.555 32.4899 48.655C32.3299 48.925 32.0699 49.095 31.7799 49.145C31.5599 49.175 31.3299 49.145 31.1199 49.025L22.4099 43.995V65.845V77.635C22.4099 78.185 21.9599 78.635 21.4099 78.635H21.4199Z" />
<path d="M62.2598 78.635C61.9098 78.635 61.5798 78.455 61.3898 78.135C61.2998 77.975 61.2598 77.805 61.2598 77.635C61.2598 77.285 61.4398 76.955 61.7598 76.765L71.9698 70.875C72.4498 70.595 73.0598 70.765 73.3398 71.245C73.4298 71.405 73.4698 71.575 73.4698 71.745C73.4698 72.095 73.2898 72.425 72.9698 72.615L62.7598 78.505C62.5998 78.595 62.4298 78.635 62.2598 78.635Z" />
<path d="M41.8398 19.685C41.4898 19.685 41.1598 19.505 40.9698 19.185C40.8798 19.025 40.8398 18.855 40.8398 18.685C40.8398 18.335 41.0198 18.005 41.3398 17.815L51.5498 11.925C52.0298 11.645 52.6398 11.815 52.9198 12.295C53.0098 12.455 53.0498 12.625 53.0498 12.795C53.0498 13.145 52.8698 13.4751 52.5498 13.6651L42.3398 19.555C42.1798 19.645 42.0098 19.685 41.8398 19.685Z" />
<path d="M31.6298 25.5849C31.5698 25.5849 31.5198 25.5849 31.4698 25.5749C31.1898 25.5249 30.9198 25.3549 30.7698 25.0849C30.6498 24.8749 30.6098 24.6249 30.6498 24.4049C30.6998 24.1249 30.8698 23.8749 31.1298 23.7249L41.3398 17.8349C41.8198 17.5549 42.4298 17.7249 42.7098 18.2049C42.9898 18.6849 42.8198 19.2949 42.3398 19.5749L32.1298 25.4649C31.9698 25.5549 31.7998 25.5949 31.6398 25.5949L31.6298 25.5849Z" />
<path d="M21.4207 31.4751C21.3507 31.4751 21.2807 31.475 21.2107 31.455C20.9507 31.395 20.7107 31.2251 20.5607 30.9751C20.4007 30.6951 20.3907 30.3751 20.5007 30.1051V30.0851V30.065C20.5807 29.885 20.7207 29.725 20.9107 29.615L31.1207 23.7151C31.6007 23.4351 32.2107 23.6051 32.4907 24.0851C32.7707 24.5651 32.6007 25.175 32.1207 25.455L21.9107 31.3451C21.7507 31.4351 21.5807 31.4751 21.4107 31.4751H21.4207Z" />
<path d="M11.21 37.375C10.86 37.375 10.53 37.195 10.34 36.875C10.25 36.715 10.21 36.545 10.21 36.375C10.21 36.025 10.39 35.695 10.71 35.505L20.92 29.615C21.4 29.335 22.01 29.505 22.29 29.985C22.38 30.145 22.42 30.315 22.42 30.485C22.42 30.835 22.24 31.165 21.92 31.355L11.71 37.245C11.55 37.335 11.38 37.375 11.21 37.375Z" />
<path d="M61.75 31.3448L51.54 25.4548C51.23 25.2748 51.04 24.9448 51.04 24.5848V12.7948C51.04 12.4348 51.23 12.1048 51.54 11.9248C51.85 11.7448 52.23 11.7448 52.54 11.9248L62.75 17.8148L61.75 19.5448L53.04 14.5248V24.0048L62.75 29.6048L61.75 31.3348V31.3448Z" />
<path d="M62.7255 29.6523L61.7246 31.3838L71.9319 37.2841L72.9328 35.5526L62.7255 29.6523Z" />
<path d="M62.7731 17.7724L61.7725 19.5042L71.9809 25.4027L72.9815 23.671L62.7731 17.7724Z" />
<path d="M41.8398 43.2651C41.4898 43.2651 41.1598 43.0851 40.9698 42.7651C40.8798 42.6051 40.8398 42.4351 40.8398 42.2651C40.8398 41.9151 41.0198 41.5851 41.3398 41.3951L51.5498 35.5051C52.0298 35.2251 52.6398 35.3951 52.9198 35.8751C53.0098 36.0351 53.0498 36.2051 53.0498 36.3751C53.0498 36.7251 52.8698 37.0551 52.5498 37.2451L42.3398 43.1351C42.1798 43.2251 42.0098 43.2651 41.8398 43.2651Z" />
<path d="M72.9564 23.7288L71.957 25.4612L82.1695 31.3526L83.1689 29.6202L72.9564 23.7288Z" />
<path d="M82.1707 43.1349L71.9707 37.2449L72.9607 35.5049L74.1507 36.1949L83.1707 41.3949L82.1707 43.1349Z" />
<path d="M92.8799 84.535C92.7099 84.535 92.5299 84.495 92.3799 84.405L82.1699 78.505C81.8599 78.325 81.6699 77.995 81.6699 77.635V42.265H83.6699V77.055L91.8799 81.805V36.955L82.1699 31.345L83.1699 29.615L93.3799 35.515C93.6899 35.695 93.8799 36.025 93.8799 36.385V83.545C93.8799 83.905 93.6899 84.235 93.3799 84.415C93.2299 84.505 93.0499 84.545 92.8799 84.545V84.535Z" />
<path d="M62.2598 55.0549C61.9098 55.0549 61.5798 54.8749 61.3898 54.5549C61.2998 54.3949 61.2598 54.2249 61.2598 54.0549C61.2598 53.7049 61.4398 53.3749 61.7598 53.1849L71.9698 47.2949C72.4498 47.0149 73.0598 47.1849 73.3398 47.6649C73.4298 47.8249 73.4698 47.9949 73.4698 48.1649C73.4698 48.5149 73.2898 48.8449 72.9698 49.0349L62.7598 54.9249C62.5998 55.0149 62.4298 55.0549 62.2598 55.0549Z" />
<path d="M52.0498 60.955C51.6998 60.955 51.3698 60.775 51.1798 60.455C51.0898 60.295 51.0498 60.125 51.0498 59.955C51.0498 59.605 51.2298 59.2751 51.5498 59.0851L61.7598 53.195C62.2398 52.915 62.8498 53.085 63.1298 53.565C63.2198 53.725 63.2598 53.895 63.2598 54.065C63.2598 54.415 63.0798 54.745 62.7598 54.935L52.5498 60.825C52.3898 60.915 52.2198 60.955 52.0498 60.955Z" />
<path d="M21.9066 88.5799L20.9072 90.3123L31.1197 96.2037L32.1191 94.4713L21.9066 88.5799Z" />
<path d="M41.3299 90.2949L31.1299 84.4049C30.8199 84.2249 30.6299 83.8949 30.6299 83.5349H31.6299V82.5249C31.8599 82.5249 32.0699 82.6049 32.2399 82.7349L42.3299 88.5549L41.3299 90.2849V90.2949Z" />
<path d="M32.1539 94.3931L31.1533 96.1248L41.3617 102.023L42.3623 100.292L32.1539 94.3931Z" />
<path d="M51.5398 96.1851L41.3398 90.295L41.8398 89.4351V88.425C42.0198 88.425 42.1898 88.4751 42.3398 88.5551L52.5398 94.4451L51.5398 96.175V96.1851Z" />
<path d="M21.4193 43.265C21.0693 43.265 20.7393 43.085 20.5493 42.765C20.2693 42.285 20.4393 41.675 20.9193 41.395L51.5493 23.715C51.7093 23.625 51.8593 23.585 52.0593 23.585C52.2293 23.585 52.3993 23.635 52.5493 23.715L62.7593 29.605C63.2393 29.885 63.3993 30.495 63.1293 30.975C62.8493 31.455 62.2393 31.615 61.7593 31.345L52.0493 25.7349L21.9193 43.1249C21.7593 43.2149 21.5893 43.2549 21.4193 43.2549V43.265Z" />
<path d="M42.3398 43.135L41.3398 41.405L51.5398 35.515C51.6898 35.425 51.8598 35.385 52.0398 35.385V36.395L52.5398 37.255L42.3398 43.145V43.135Z" />
<path d="M72.4707 37.3749C72.3007 37.3749 72.1307 37.3349 71.9707 37.2449L62.6707 31.8749C62.1907 31.5949 62.0307 30.9849 62.3007 30.5049C62.5807 30.0249 63.1907 29.8649 63.6707 30.1349L65.1407 30.9849L72.9707 35.5049C73.4507 35.7849 73.6107 36.3949 73.3407 36.8749C73.1507 37.1949 72.8207 37.3749 72.4707 37.3749Z" />
<path d="M82.6801 43.2649C82.5101 43.2649 82.3401 43.2249 82.1801 43.1349L73.1401 37.915L72.6501 37.6349C72.1701 37.3549 72.0101 36.7449 72.2901 36.2649C72.5701 35.7849 73.1801 35.6249 73.6601 35.8949L83.1901 41.3949C83.6701 41.6749 83.8301 42.2849 83.5601 42.7649C83.3701 43.0849 83.0401 43.2649 82.6901 43.2649H82.6801Z" />
<path d="M52.0498 49.165V48.155L51.5498 47.295L61.7498 41.395L62.7498 43.125L52.5498 49.025C52.3998 49.115 52.2298 49.155 52.0498 49.155V49.165Z" />
<path d="M11.21 37.375C11.04 37.375 10.86 37.335 10.71 37.245L0.5 31.345C0.19 31.165 0 30.835 0 30.475C0 30.115 0.19 29.785 0.5 29.605L51.54 0.135C51.85 -0.045 52.23 -0.045 52.54 0.135L62.75 6.02501L61.75 7.755L52.04 2.15502L3 30.475L11.21 35.215L51.54 11.925L52.54 13.655L11.71 37.235C11.56 37.325 11.38 37.365 11.21 37.365V37.375Z" />
<path d="M52.5306 11.9451L51.5312 13.6775L61.7437 19.5689L62.7431 17.8365L52.5306 11.9451Z" />
<path d="M62.775 5.98387L61.7744 7.71558L71.9828 13.6141L72.9834 11.8824L62.775 5.98387Z" />
<path d="M62.7731 17.7724L61.7725 19.5042L71.9809 25.4027L72.9815 23.671L62.7731 17.7724Z" />
<path d="M72.9545 11.9473L71.9551 13.6797L82.1676 19.5711L83.167 17.8387L72.9545 11.9473Z" />
<path d="M72.9564 23.7288L71.957 25.4612L82.1695 31.3526L83.1689 29.6202L72.9564 23.7288Z" />
<path d="M83.1891 17.7717L82.1885 19.5034L92.3969 25.402L93.3975 23.6703L83.1891 17.7717Z" />
<path d="M92.8799 37.3749C92.7099 37.3749 92.5299 37.3349 92.3799 37.2449L82.1699 31.3449L83.1699 29.6149L92.8799 35.2249L101.09 30.4849L92.3799 25.4649L93.3799 23.7349L103.59 29.6249C103.9 29.8049 104.09 30.1349 104.09 30.4949C104.09 30.8549 103.9 31.1849 103.59 31.3649L93.3799 37.2649C93.2299 37.3549 93.0499 37.3949 92.8799 37.3949V37.3749Z" />
<path d="M52.5674 35.4855L51.5674 37.2175L61.7692 43.1075L62.7692 41.3755L52.5674 35.4855Z" />
<path d="M62.7255 29.6523L61.7246 31.3838L71.9319 37.2841L72.9328 35.5526L62.7255 29.6523Z" />
<path d="M52.0498 49.165C51.8698 49.165 51.6898 49.115 51.5398 49.035L41.3398 43.135L42.3398 41.405L52.0398 47.015L61.7398 41.405L62.7398 43.135L52.5398 49.035C52.3898 49.125 52.2198 49.165 52.0398 49.165H52.0498Z" />
<path d="M32.1185 47.3186L31.1191 49.051L41.3316 54.9424L42.331 53.21L32.1185 47.3186Z" />
<path d="M52.0498 49.165V48.155L51.5498 47.295L61.7498 41.395L62.7498 43.125L52.5498 49.025C52.3998 49.115 52.2298 49.155 52.0498 49.155V49.165Z" />
<path d="M52.0498 60.9549C51.8798 60.9549 51.6998 60.9149 51.5498 60.8249L41.3398 54.9249L42.3398 53.1949L52.0498 58.8049L71.9598 47.3049C71.9598 47.3049 72.0198 47.2749 72.0498 47.2549L80.6698 42.2649L71.9698 37.2449L72.9498 35.5049L74.1498 36.1949L83.1698 41.3949C83.4798 41.5749 83.6698 41.9049 83.6698 42.2649C83.6698 42.6249 83.4798 42.9549 83.1698 43.1349L72.9698 49.0349C72.9698 49.0349 72.9098 49.0649 72.8798 49.0849L52.5498 60.8349C52.3998 60.9249 52.2198 60.9649 52.0498 60.9649V60.9549Z" />
<path d="M62.2598 78.6351C62.0898 78.6351 61.9098 78.5951 61.7598 78.5051C61.4498 78.3251 61.2598 77.9951 61.2598 77.6351V65.8451C61.2598 65.4851 61.4498 65.1551 61.7598 64.9751C62.0698 64.7951 62.4498 64.7951 62.7598 64.9751L72.9698 70.865C73.2798 71.045 73.4698 71.375 73.4698 71.735C73.4698 72.095 73.2798 72.4251 72.9698 72.6051L62.7598 78.495C62.6098 78.585 62.4298 78.6251 62.2598 78.6251V78.6351ZM63.2598 67.5751V75.8951L70.4698 71.735L63.2598 67.5751V67.5751Z" />
</svg>
