<svg width="105" height="120" viewBox="0 0 105 120" fill="none" xmlns="http://www.w3.org/2000/svg">
<path d="M32.1299 70.8651L21.9199 64.9751C21.6099 64.7951 21.2299 64.7951 20.9199 64.9751C20.6099 65.1551 20.4199 65.4851 20.4199 65.8451V77.6351C20.4199 77.7251 20.4299 77.8151 20.4499 77.8951C20.5199 78.1451 20.6799 78.3651 20.9199 78.5051L31.1299 84.3951C31.2799 84.4851 31.4599 84.5251 31.6299 84.5251C31.7999 84.5251 31.9799 84.4851 32.1299 84.3951C32.4399 84.2151 32.6299 83.8851 32.6299 83.5251V71.7351C32.6299 71.6451 32.6199 71.5551 32.5999 71.4751C32.5299 71.2251 32.3699 71.0051 32.1299 70.8651ZM30.6299 81.7851L23.4199 77.6251L30.6299 73.4551V81.7851V81.7851ZM29.6299 71.7251L22.4199 75.8951V67.5651L29.6299 71.7251Z" />
<path d="M83.1797 64.9751C82.8697 64.7951 82.4897 64.7951 82.1797 64.9751L71.9697 70.8751C71.6597 71.0451 71.4697 71.3751 71.4697 71.7351V83.5251C71.4697 83.8851 71.6597 84.2151 71.9697 84.3951C72.1197 84.4851 72.2997 84.5251 72.4697 84.5251C72.6397 84.5251 72.8097 84.4851 72.9697 84.3951L83.1797 78.4951C83.4897 78.3151 83.6797 77.9851 83.6797 77.6351V65.8451C83.6797 65.4851 83.4897 65.1551 83.1797 64.9751V64.9751ZM73.4697 81.7951V73.465L80.6797 77.6351L73.4697 81.7951V81.7951ZM81.6797 75.8951L77.0997 73.2551L74.4697 71.7351L81.6797 67.5751V75.8951Z" />
<path d="M40.8796 30.2251C40.8596 30.3051 40.8496 30.3951 40.8496 30.4751C40.8496 30.5051 40.8496 30.5251 40.8596 30.5551C40.8596 30.5851 40.8596 30.6151 40.8696 30.6451C40.8896 30.7651 40.9196 30.8751 40.9796 30.9751C40.9796 30.9751 40.9996 31.0051 41.0096 31.0151C41.0496 31.0751 41.0896 31.1351 41.1396 31.1851C41.1896 31.2351 41.2396 31.2651 41.2896 31.3051C41.3096 31.3151 41.3196 31.3351 41.3396 31.3451L51.5396 37.2351C51.6896 37.3251 51.8696 37.3651 52.0396 37.3651C52.2096 37.3651 52.3896 37.3251 52.5396 37.2351L62.7496 31.3451C63.0596 31.1651 63.2496 30.8351 63.2496 30.4751C63.2496 30.1151 63.0596 29.7851 62.7496 29.6051L52.5996 23.7451C52.5996 23.7451 52.5596 23.7151 52.5396 23.7051C52.2296 23.5251 51.8496 23.5251 51.5396 23.7051L41.3296 29.6051C41.2296 29.6751 41.1496 29.7451 41.0696 29.8351C41.0496 29.8551 41.0296 29.8851 41.0096 29.9051C40.9496 29.9951 40.8896 30.0951 40.8596 30.2051L40.8796 30.2251ZM53.0596 26.3251L60.2696 30.4851L53.0596 34.6451V26.3251V26.3251ZM51.0596 26.3251V34.6451L43.8496 30.4851L51.0596 26.3251V26.3251Z" />
<path d="M104.1 30.475C104.1 30.115 103.91 29.785 103.6 29.605L93.39 23.715L83.18 17.815L82.68 18.685L83.18 17.815L72.97 11.925L62.76 6.02498L62.26 6.89498L62.76 6.02498L52.55 0.135C52.24 -0.045 51.86 -0.045 51.55 0.135L0.5 29.605C0.4 29.665 0.32 29.745 0.25 29.825C0.1 30.005 0 30.225 0 30.475V89.425C0 89.785 0.19 90.115 0.5 90.295L10.71 96.185L20.87 102.045C20.87 102.045 20.9 102.075 20.92 102.085L31.13 107.975L41.29 113.835C41.29 113.835 41.32 113.865 41.34 113.875L51.55 119.765C51.7 119.855 51.88 119.895 52.05 119.895C52.22 119.895 52.4 119.855 52.55 119.765L104.1 90.005V30.475V30.475ZM52.05 2.15499L61.76 7.755L71.97 13.655L72.47 12.785L71.97 13.655L82.18 19.545L92.39 25.445L92.89 24.575L92.39 25.445L101.1 30.465L92.39 35.495L82.42 41.255L52.05 58.785L42.34 53.185L32.13 47.285L31.63 48.155L32.13 47.285L21.92 41.395L11.71 35.495L11.21 36.365L11.71 35.495L3 30.475L52.05 2.165V2.15499ZM42.34 112.135L41.84 112.995L42.34 112.125L32.13 106.235L21.92 100.345L21.42 101.205L21.92 100.335L11.71 94.445L2 88.845V32.205L10.71 37.225L20.92 43.125L21.42 42.255L20.92 43.125L31.13 49.015L41.34 54.915L41.84 54.045L41.34 54.915L51.05 60.515V117.155L42.34 112.135ZM53.05 117.155V60.515L62.76 54.905L72.97 49.005L83.18 43.115L93.22 37.315L102.1 32.185V88.825L53.05 117.135V117.155Z" />
</svg>
