<svg width="105" height="120" viewBox="0 0 105 120" fill="none" xmlns="http://www.w3.org/2000/svg">
<path d="M20.9199 90.2949L10.71 84.3949C10.4 84.2149 10.21 83.8848 10.21 83.5248C10.21 83.1648 10.4 82.8349 10.71 82.6549L41.33 64.9749L42.33 66.7048L13.21 83.5149L21.9199 88.5449L20.9199 90.2748V90.2949Z" />
<path d="M31.1399 96.1849L29.8999 95.4649L20.9199 90.2949L21.9199 88.5549L32.1299 94.4449L31.1399 96.1849Z" />
<path d="M41.84 102.215C41.67 102.215 41.49 102.175 41.34 102.085L31.1299 96.185L32.1299 94.455L40.84 99.485V65.845H42.84V101.215C42.84 101.575 42.65 101.905 42.34 102.085C42.18 102.175 42.01 102.215 41.84 102.215V102.215Z" />
<path d="M11.21 84.5248C11.04 84.5248 10.86 84.4848 10.71 84.3948C10.4 84.2148 10.21 83.8848 10.21 83.5248V59.9448C10.21 59.5848 10.4 59.2548 10.71 59.0748L20.9199 53.1848C21.2299 53.0048 21.6099 53.0048 21.9199 53.1848L42.34 64.9748C42.65 65.1548 42.84 65.4848 42.84 65.8448C42.84 66.2048 42.65 66.5348 42.34 66.7148L11.71 84.3948C11.56 84.4848 11.38 84.5248 11.21 84.5248V84.5248ZM12.21 60.5248V81.7948L39.84 65.8448L21.4199 55.2148L12.21 60.5348V60.5248Z" />
<path d="M72.47 37.3749C72.12 37.3749 71.79 37.1949 71.6 36.8749C71.51 36.7149 71.46 36.5349 71.47 36.3649C71.47 36.0249 71.65 35.6949 71.97 35.5049L82.18 29.6049C82.66 29.3249 83.27 29.4949 83.55 29.9749C83.83 30.4549 83.66 31.0649 83.18 31.3449L72.97 37.2349C72.81 37.3249 72.64 37.3649 72.47 37.3649V37.3749Z" />
<path d="M52.0498 119.895C51.8798 119.895 51.6998 119.855 51.5498 119.765C51.2398 119.585 51.0498 119.255 51.0498 118.895V59.945C51.0498 59.585 51.2398 59.255 51.5498 59.075L102.59 29.605C102.9 29.425 103.28 29.425 103.59 29.605C103.9 29.785 104.09 30.115 104.09 30.475V89.425C104.09 89.785 103.9 90.115 103.59 90.295L72.9698 107.975C72.6598 108.155 72.2798 108.155 71.9698 107.975C71.6598 107.795 71.4698 107.465 71.4698 107.105V95.315C71.4698 94.955 71.6598 94.625 71.9698 94.445L91.8798 82.945V49.885L72.9698 60.805C72.9698 60.805 72.9098 60.835 72.8798 60.845L63.2598 66.415V112.995C63.2598 113.355 63.0698 113.685 62.7598 113.865L52.5498 119.755C52.3898 119.845 52.2198 119.885 52.0498 119.885V119.895ZM53.0498 60.525V117.165L61.2598 112.425V65.845C61.2598 65.485 61.4498 65.155 61.7598 64.975L71.9598 59.075C71.9598 59.075 72.0198 59.045 72.0498 59.025L92.3798 47.285C92.6898 47.105 93.0698 47.105 93.3798 47.285C93.6898 47.465 93.8798 47.795 93.8798 48.155V83.525C93.8798 83.885 93.6898 84.215 93.3798 84.395L73.4698 95.895V105.375L102.09 88.845V32.205L53.0498 60.515V60.525Z" />
<path d="M51.04 12.7949V12.7849H53.04L51.04 12.7949Z" />
<path d="M52.5394 11.9197L51.54 13.6521L61.7525 19.5435L62.7519 17.8111L52.5394 11.9197Z" />
<path d="M52.0499 49.1548C51.8799 49.1548 51.6999 49.1148 51.5499 49.0248L20.9199 31.3448C20.6099 31.1648 20.4199 30.8348 20.4199 30.4748C20.4199 30.1148 20.6099 29.7848 20.9199 29.6048L51.5499 11.9248C51.8599 11.7448 52.2399 11.7448 52.5499 11.9248C52.8599 12.1048 53.0499 12.4348 53.0499 12.7948V48.1548C53.0499 48.5148 52.8599 48.8448 52.5499 49.0248C52.3999 49.1148 52.2199 49.1548 52.0499 49.1548ZM23.4199 30.4748L51.0499 46.4248V14.5248L23.4199 30.4748Z" />
<path d="M11.6539 35.4639L10.6533 37.1956L20.8617 43.0941L21.8623 41.3624L11.6539 35.4639Z" />
<path d="M62.764 17.8289L61.7646 19.5613L71.9771 25.4527L72.9765 23.7203L62.764 17.8289Z" />
<path d="M21.9359 41.409L20.9365 43.1414L31.149 49.0328L32.1484 47.3004L21.9359 41.409Z" />
<path d="M72.46 37.3649C72.29 37.3649 72.11 37.3249 71.96 37.2349C71.65 37.0549 71.46 36.7249 71.46 36.3649V24.5749C71.46 24.2149 71.65 23.8849 71.96 23.7049L82.1699 17.8149C82.4799 17.6349 82.8599 17.6349 83.1699 17.8149C83.4799 17.9949 83.6699 18.3249 83.6699 18.6849V30.4749C83.6699 30.8349 83.4799 31.1649 83.1699 31.3449L72.96 37.2349C72.8 37.3249 72.63 37.3649 72.46 37.3649ZM73.46 25.1549V34.6349L81.6699 29.8949V20.4149L73.46 25.1549V25.1549Z" />
<path d="M51.5398 49.0249L41.3398 43.1349L41.8398 42.2749V41.2649C42.0198 41.2649 42.1898 41.3149 42.3398 41.3949L52.5398 47.2849L51.5398 49.0149V49.0249Z" />
<path d="M32.108 47.2717L31.1074 49.0034L41.3158 54.902L42.3164 53.1703L32.108 47.2717Z" />
<path d="M42.3324 53.1824L41.333 54.9148L51.5455 60.8062L52.5449 59.0738L42.3324 53.1824Z" />
<path d="M52.0498 49.1548V48.1448L51.5498 47.2848L61.7498 41.3948L62.7498 43.1248L52.5498 49.0148C52.3998 49.1048 52.2298 49.1448 52.0498 49.1448V49.1548Z" />
<path d="M72.4698 108.105C72.2998 108.105 72.1198 108.065 71.9698 107.975L61.7598 102.085C61.4498 101.905 61.2598 101.575 61.2598 101.215V89.4249C61.2598 89.0649 61.4498 88.7349 61.7598 88.5549C62.0698 88.3749 62.4498 88.3749 62.7598 88.5549L72.9698 94.4449C73.2798 94.6249 73.4698 94.9549 73.4698 95.3149V107.105C73.4698 107.465 73.2798 107.795 72.9698 107.975C72.8198 108.065 72.6398 108.105 72.4698 108.105ZM63.2598 100.635L71.4698 105.375V95.8949L63.2598 91.1549V100.635Z" />
<path d="M71.9598 72.6049L61.7598 66.715C61.4498 66.535 61.2598 66.2049 61.2598 65.8449C61.2598 65.4849 61.4498 65.155 61.7598 64.975L71.9598 59.075L72.9598 60.805L64.2598 65.835L72.9598 70.8549L71.9598 72.585V72.6049Z" />
<path d="M92.8799 84.5249C92.7099 84.5249 92.5399 84.4849 92.3799 84.3949L82.1699 78.5049L83.1699 76.7749L91.8799 81.7949V49.8849L83.1699 54.9149L82.1699 53.1849L92.3799 47.2849C92.6899 47.1049 93.0699 47.1049 93.3799 47.2849C93.6899 47.4649 93.8799 47.7949 93.8799 48.1549V83.5249C93.8799 83.8849 93.6899 84.2149 93.3799 84.3949C93.2299 84.4849 93.0499 84.5249 92.8799 84.5249Z" />
<path d="M72.4697 60.9448V59.9348L71.9697 59.0748L82.1697 53.1848L83.1697 54.9148L72.9697 60.8048C72.8197 60.8948 72.6497 60.9348 72.4697 60.9348V60.9448Z" />
<path d="M72.9322 70.8462L71.9316 72.5779L82.14 78.4764L83.1406 76.7447L72.9322 70.8462Z" />
<path d="M62.259 43.2649V42.2549L61.759 41.3949L71.4591 35.7849V25.1449L61.749 19.5449L62.749 17.8149L72.9591 23.7049C73.2691 23.8849 73.4591 24.2149 73.4591 24.5749V36.3649C73.4591 36.7249 73.2691 37.0549 72.9591 37.2349L62.759 43.1349C62.609 43.2249 62.429 43.2649 62.259 43.2649Z" />
<path d="M52.05 49.1548C51.5 49.1548 51.04 48.7048 51.04 48.1548V12.7948C51.04 12.4348 51.23 12.1048 51.54 11.9248C51.85 11.7448 52.23 11.7448 52.54 11.9248L62.75 17.8148L61.75 19.5448L53.04 14.5248V46.4248L61.75 41.3948L62.75 43.1248L52.55 49.0148C52.4 49.1048 52.23 49.1448 52.05 49.1448V49.1548Z" />
<path d="M11.21 60.9449C11.04 60.9449 10.86 60.9049 10.71 60.8149L0.5 54.9249C0.19 54.7449 0 54.4149 0 54.0549C0 53.6949 0.19 53.3649 0.5 53.1849L10.71 47.2949C11.02 47.1149 11.4 47.1149 11.71 47.2949L21.92 53.1949C22.23 53.3749 22.42 53.7049 22.42 54.0649C22.42 54.4249 22.23 54.7549 21.92 54.9349L11.71 60.8249C11.56 60.9149 11.38 60.9549 11.21 60.9549V60.9449ZM3 54.0549L11.21 58.7949L19.42 54.0549L11.21 49.3149L3 54.0549V54.0549Z" />
<path d="M10.71 96.1848L0.5 90.2948C0.19 90.1148 0 89.7848 0 89.4248V54.0548C0 53.6948 0.19 53.3648 0.5 53.1848C0.81 53.0048 1.19 53.0048 1.5 53.1848L11.71 59.0748C12.02 59.2548 12.21 59.5848 12.21 59.9448V83.5248H10.21V60.5248L2 55.7848V88.8448L11.71 94.4448L10.71 96.1748V96.1848Z" />
<path d="M11.6871 82.6379L10.6865 84.3696L20.8949 90.2682L21.8955 88.5365L11.6871 82.6379Z" />
<path d="M11.6957 94.4417L10.6963 96.1741L20.9088 102.066L21.9082 100.333L11.6957 94.4417Z" />
<path d="M31.1399 96.1849L29.8999 95.4649L20.9199 90.2949L21.9199 88.5549L32.1299 94.4449L31.1399 96.1849Z" />
<path d="M31.1299 107.975L20.9199 102.085C20.6099 101.905 20.4199 101.575 20.4199 101.215H21.4199L21.9199 100.345L32.1299 106.235L31.1299 107.965V107.975Z" />
<path d="M82.6796 90.425C82.4096 90.425 82.1397 90.315 81.9497 90.105C81.8997 90.055 81.8496 89.995 81.8196 89.925C81.7696 89.845 81.7397 89.765 81.7197 89.675C81.6797 89.535 81.6797 89.395 81.6997 89.255V89.235V89.215C81.7197 89.115 81.7496 89.025 81.7996 88.935C81.8796 88.775 82.0096 88.645 82.1696 88.555L92.3796 82.665C92.8596 82.385 93.4696 82.555 93.7496 83.035C94.0296 83.515 93.8596 84.125 93.3796 84.405L83.1696 90.295C83.1696 90.295 83.0896 90.345 83.0396 90.365H82.9996V90.385H82.9897C82.8897 90.425 82.7796 90.435 82.6796 90.435V90.425Z" />
<path d="M72.4698 96.3149C72.1198 96.3149 71.7898 96.1349 71.5998 95.8149C71.4298 95.5249 71.4298 95.1849 71.5598 94.8949C71.6398 94.7049 71.7798 94.5549 71.9698 94.4449L82.1798 88.5449C82.6598 88.2649 83.2698 88.4349 83.5498 88.9149C83.8298 89.3949 83.6598 90.0049 83.1798 90.2849L72.9698 96.1749C72.8098 96.2649 72.6398 96.3049 72.4698 96.3049V96.3149Z" />
<path d="M41.84 66.8448C41.66 66.8448 41.48 66.7948 41.33 66.7148L20.9199 54.9248L21.9199 53.1948L42.33 64.9848L41.83 65.8448V66.8548L41.84 66.8448Z" />
<path d="M41.84 102.215C41.67 102.215 41.49 102.175 41.34 102.085L31.1299 96.185L32.1299 94.455L40.84 99.485V65.845H42.84V101.215C42.84 101.575 42.65 101.905 42.34 102.085C42.18 102.175 42.01 102.215 41.84 102.215V102.215Z" />
<path d="M52.0499 119.895C51.8799 119.895 51.7099 119.855 51.5499 119.765L41.34 113.875C41.34 113.875 41.27 113.825 41.23 113.805L31.1299 107.975L32.1299 106.245L42.34 112.135C42.34 112.135 42.41 112.185 42.45 112.205L51.0499 117.165V60.5248L41.34 54.9248L42.34 53.1948L52.5499 59.0848C52.8599 59.2648 53.0499 59.5948 53.0499 59.9548V118.905C53.0499 119.265 52.8599 119.595 52.5499 119.775C52.3999 119.865 52.2199 119.905 52.0499 119.905V119.895Z" />
<path d="M11.71 60.815L10.71 59.085L19.42 54.065L0.5 43.145C0.19 42.965 0 42.635 0 42.275V30.485C0 30.125 0.19 29.795 0.5 29.615C0.81 29.435 1.19 29.435 1.5 29.615L11.71 35.505L10.71 37.235L2 32.215V41.695L21.92 53.195C22.23 53.375 22.42 53.705 22.42 54.065C22.42 54.425 22.23 54.755 21.92 54.935L11.71 60.825V60.815Z" />
<path d="M11.6539 35.4639L10.6533 37.1956L20.8617 43.0941L21.8623 41.3624L11.6539 35.4639Z" />
<path d="M21.9359 41.409L20.9365 43.1414L31.149 49.0328L32.1484 47.3004L21.9359 41.409Z" />
<path d="M32.108 47.2717L31.1074 49.0034L41.3158 54.902L42.3164 53.1703L32.108 47.2717Z" />
<path d="M41.8398 19.6848C41.4898 19.6848 41.1598 19.5048 40.9698 19.1848C40.8798 19.0248 40.8398 18.8548 40.8398 18.6848C40.8398 18.3348 41.0198 18.0048 41.3398 17.8148L51.5498 11.9248C52.0298 11.6448 52.6398 11.8148 52.9198 12.2948C53.0098 12.4548 53.0498 12.6248 53.0498 12.7948C53.0498 13.1448 52.8698 13.4748 52.5498 13.6648L42.3398 19.5548C42.1798 19.6448 42.0098 19.6848 41.8398 19.6848V19.6848Z" />
<path d="M31.6292 25.5749C31.2792 25.5749 30.9492 25.3949 30.7592 25.0749C30.4792 24.5949 30.6492 23.9849 31.1292 23.7049L41.3393 17.8149C41.8193 17.5349 42.4293 17.7049 42.7093 18.1849C42.7993 18.3449 42.8393 18.5149 42.8393 18.6949C42.8393 19.0349 42.6593 19.3649 42.3393 19.5549L32.1292 25.4549C31.9692 25.5449 31.7992 25.5849 31.6292 25.5849V25.5749Z" />
<path d="M21.4193 31.4748C21.0693 31.4748 20.7393 31.2948 20.5493 30.9748C20.2693 30.4948 20.4393 29.8848 20.9193 29.6048L31.1292 23.7148C31.6092 23.4348 32.2192 23.6048 32.4992 24.0848C32.5892 24.2448 32.6292 24.4148 32.6292 24.5848C32.6292 24.9348 32.4492 25.2648 32.1292 25.4548L21.9193 31.3548C21.7593 31.4448 21.5893 31.4848 21.4193 31.4848V31.4748Z" />
<path d="M82.6796 43.2648C82.4096 43.2648 82.1397 43.1548 81.9497 42.9448C81.8997 42.8948 81.8496 42.8348 81.8196 42.7648C81.7696 42.6848 81.7397 42.6048 81.7197 42.5148C81.6797 42.3748 81.6797 42.2349 81.6997 42.0949V42.0749V42.0549C81.7197 41.9549 81.7496 41.8649 81.7996 41.7749C81.8796 41.6149 82.0096 41.4849 82.1696 41.3949L92.3796 35.5049C92.8596 35.2249 93.4696 35.3948 93.7496 35.8748C94.0296 36.3548 93.8596 36.9649 93.3796 37.2449L83.1696 43.1349C83.1696 43.1349 83.0896 43.1849 83.0396 43.2049H82.9996V43.2249H82.9897C82.8897 43.2649 82.7796 43.2749 82.6796 43.2749V43.2648Z" />
<path d="M72.4698 49.165C72.1198 49.165 71.7898 48.985 71.5998 48.665C71.4298 48.375 71.4298 48.035 71.5598 47.745C71.6398 47.555 71.7798 47.405 71.9698 47.295L82.1798 41.405C82.6598 41.125 83.2698 41.295 83.5498 41.775C83.8298 42.255 83.6598 42.865 83.1798 43.145L72.9698 49.035C72.8098 49.125 72.6398 49.165 72.4698 49.165V49.165Z" />
<path d="M62.2598 55.0549C61.9098 55.0549 61.5798 54.8749 61.3898 54.5549C61.2998 54.3949 61.2598 54.2249 61.2598 54.0549C61.2598 53.7049 61.4398 53.3749 61.7598 53.1849L71.9698 47.2949C72.4498 47.0149 73.0598 47.1849 73.3398 47.6649C73.4298 47.8249 73.4698 47.9949 73.4698 48.1649C73.4698 48.5149 73.2898 48.8449 72.9698 49.0349L62.7598 54.9249C62.5998 55.0149 62.4298 55.0549 62.2598 55.0549Z" />
<path d="M52.0498 60.9448C51.7798 60.9448 51.5098 60.8348 51.3198 60.6248C51.2698 60.5748 51.2198 60.5148 51.1898 60.4448C51.1398 60.3648 51.1098 60.2848 51.0898 60.1948C51.0498 60.0548 51.0498 59.9148 51.0698 59.7748V59.7548V59.7348C51.0898 59.6348 51.1197 59.5448 51.1697 59.4548C51.2497 59.2948 51.3797 59.1648 51.5397 59.0748L61.7497 53.1848C62.2297 52.9048 62.8398 53.0748 63.1198 53.5548C63.3998 54.0348 63.2297 54.6448 62.7497 54.9248L52.5397 60.8148C52.5397 60.8148 52.4597 60.8648 52.4097 60.8848H52.3698V60.9048H52.3598C52.2598 60.9448 52.1498 60.9548 52.0498 60.9548V60.9448Z" />
<path d="M52.0499 60.9448C51.8799 60.9448 51.7099 60.9048 51.5499 60.8148L41.34 54.9248L42.34 53.1948L52.0499 58.7948L101.09 30.4848L92.8799 25.7448L62.7599 43.1348C62.7599 43.1348 62.6999 43.1648 62.6699 43.1848L52.5499 49.0248C52.2499 49.1948 51.8399 49.1948 51.5399 49.0248L41.4199 43.1748C41.4199 43.1748 41.36 43.1448 41.33 43.1348L20.9199 31.3448L21.9199 29.6148L42.2599 41.3648C42.2599 41.3648 42.32 41.3948 42.34 41.4048L52.0499 47.0048L61.7599 41.4048C61.7599 41.4048 61.82 41.3748 61.85 41.3648L92.3899 23.7248C92.6999 23.5448 93.0799 23.5448 93.3899 23.7248L103.6 29.6148C103.91 29.7948 104.1 30.1248 104.1 30.4848C104.1 30.8448 103.91 31.1748 103.6 31.3548L52.5599 60.8248C52.3999 60.9148 52.2299 60.9548 52.0599 60.9548L52.0499 60.9448Z" />
<path d="M51.5209 11.8982L20.9014 29.5835L21.9017 31.3154L52.5212 13.63L51.5209 11.8982Z" />
<path d="M10.71 37.235L0.5 31.345C0.19 31.165 0 30.835 0 30.475C0 30.115 0.19 29.785 0.5 29.605L51.54 0.135C51.85 -0.045 52.23 -0.045 52.54 0.135L62.7499 6.025L61.7499 7.755L52.04 2.155L3 30.465L11.71 35.485L10.71 37.215V37.235Z" />
<path d="M62.7223 6.00682L61.7217 7.73853L71.9301 13.6371L72.9307 11.9054L62.7223 6.00682Z" />
<path d="M52.5394 11.9197L51.54 13.6521L61.7525 19.5435L62.7519 17.8111L52.5394 11.9197Z" />
<path d="M72.4591 25.5748C72.2891 25.5748 72.1191 25.5348 71.9591 25.4448L61.749 19.5548L62.749 17.8248L72.4591 23.4248L80.6691 18.6848L71.9591 13.6648L72.9591 11.9348L83.1691 17.8248C83.4791 18.0048 83.6691 18.3348 83.6691 18.6948C83.6691 19.0548 83.4791 19.3848 83.1691 19.5648L72.9591 25.4548C72.7991 25.5448 72.6291 25.5848 72.4591 25.5848V25.5748Z" />
<path d="M41.84 102.215C41.67 102.215 41.49 102.175 41.34 102.085L10.71 84.3948C10.4 84.2148 10.21 83.8848 10.21 83.5248C10.21 83.1648 10.4 82.8348 10.71 82.6548L41.34 64.9748C41.65 64.7948 42.03 64.7948 42.34 64.9748C42.65 65.1548 42.84 65.4848 42.84 65.8448V101.215C42.84 101.575 42.65 101.905 42.34 102.085C42.19 102.175 42.01 102.215 41.84 102.215V102.215ZM13.21 83.5248L40.84 99.4748V67.5748L13.21 83.5248Z" />
<path d="M72.4698 96.3148C72.2998 96.3148 72.1198 96.2748 71.9698 96.1848L61.7598 90.2848C61.4498 90.1048 61.2598 89.7748 61.2598 89.4148V65.8348C61.2598 65.4748 61.4498 65.1448 61.7598 64.9648C62.0698 64.7848 62.4498 64.7848 62.7598 64.9648L93.3898 82.6448C93.6998 82.8248 93.8898 83.1548 93.8898 83.5148C93.8898 83.8748 93.6998 84.2048 93.3898 84.3848L72.9698 96.1748C72.8198 96.2648 72.6398 96.3048 72.4698 96.3048V96.3148ZM63.2598 88.8448L72.4698 94.1648L90.8898 83.5348L63.2598 67.5848V88.8548V88.8448Z" />
</svg>
