<svg width="105" height="120" viewBox="0 0 105 120" fill="none" xmlns="http://www.w3.org/2000/svg">
<path d="M62.7408 6.0205L61.7402 7.7522L71.9486 13.6508L72.9492 11.9191L62.7408 6.0205Z" />
<path d="M62.2598 66.8449C62.0898 66.8449 61.9198 66.8049 61.7598 66.7149L51.5498 60.8249C51.2298 60.6349 51.0498 60.3049 51.0498 59.9549C51.0498 59.7849 51.0898 59.6149 51.1798 59.4549C51.4598 58.9749 52.0698 58.8149 52.5498 59.0849L62.7598 64.9749C63.0798 65.1649 63.2598 65.4949 63.2598 65.8449C63.2598 66.0149 63.2198 66.1849 63.1298 66.3449C62.9398 66.6649 62.6098 66.8449 62.2598 66.8449V66.8449Z" />
<path d="M41.3399 78.505L31.1299 72.6049C30.8199 72.4249 30.6299 72.095 30.6299 71.735C30.6299 71.375 30.8199 71.045 31.1299 70.865L51.5499 59.075L52.5499 60.805L33.6299 71.725L42.3399 76.755L41.3399 78.485V78.505Z" />
<path d="M41.8499 66.8448C41.4999 66.8448 41.1699 66.6648 40.9799 66.3448C40.6999 65.8648 40.8699 65.2548 41.3499 64.9748L51.56 59.0848C51.56 59.0848 51.65 59.0348 51.7 59.0148H51.74V58.9948H51.75C52.12 58.8748 52.5299 58.9748 52.7899 59.2648C52.8399 59.3148 52.89 59.3748 52.92 59.4448C52.97 59.5248 53 59.6048 53.02 59.6948C53.06 59.8348 53.0599 59.9748 53.0399 60.1148V60.1348V60.1548C53.0199 60.2548 52.99 60.3448 52.94 60.4348C52.86 60.5948 52.73 60.7248 52.57 60.8148L42.36 66.7048C42.2 66.7948 42.03 66.8348 41.86 66.8348L41.8499 66.8448Z" />
<path d="M42.3344 76.7554L41.335 78.4878L51.5475 84.3792L52.5469 82.6468L42.3344 76.7554Z" />
<path d="M31.6299 72.7349C31.4599 72.7349 31.2799 72.6949 31.1299 72.6049C30.8199 72.4249 30.6299 72.0949 30.6299 71.7349V48.1549C30.6299 47.7949 30.8199 47.4649 31.1299 47.2849L51.5499 35.4949C51.8599 35.3149 52.2399 35.3149 52.5499 35.4949C52.8599 35.6749 53.0499 36.0049 53.0499 36.3649V59.9449C53.0499 60.3049 52.8599 60.6349 52.5499 60.8149L32.1299 72.6049C31.9699 72.6949 31.7999 72.7349 31.6299 72.7349V72.7349ZM32.6299 48.7349V70.0049L51.0499 59.3649V38.0949L32.6299 48.7249V48.7349Z" />
<path d="M11.6764 35.4661L10.6758 37.1978L20.8842 43.0963L21.8848 41.3646L11.6764 35.4661Z" />
<path d="M21.933 41.3989L20.9336 43.1313L31.1461 49.0228L32.1455 47.2904L21.933 41.3989Z" />
<path d="M62.2598 43.265C62.0898 43.265 61.9198 43.225 61.7598 43.135L51.5498 37.245C51.2398 37.065 51.0498 36.735 51.0498 36.375C51.0498 36.015 51.2398 35.685 51.5498 35.505C51.8598 35.325 52.2398 35.315 52.5498 35.505L62.7598 41.405C63.2398 41.685 63.3998 42.295 63.1298 42.775C62.9398 43.095 62.6098 43.275 62.2598 43.275V43.265Z" />
<path d="M62.7806 41.4033L61.7812 43.1357L71.9937 49.0272L72.9931 47.2948L62.7806 41.4033Z" />
<path d="M52.0498 119.895C51.8798 119.895 51.6998 119.855 51.5498 119.765C51.2398 119.585 51.0498 119.255 51.0498 118.895V83.525C51.0498 83.165 51.2398 82.835 51.5498 82.655L71.4698 71.155V48.155C71.4698 47.795 71.6598 47.465 71.9698 47.285L102.6 29.605C102.91 29.425 103.29 29.425 103.6 29.605C103.91 29.785 104.1 30.115 104.1 30.475V89.425C104.1 89.785 103.91 90.115 103.6 90.295L62.8698 113.805C62.8698 113.805 62.7998 113.855 62.7598 113.875L52.5498 119.765C52.3898 119.855 52.2198 119.895 52.0498 119.895V119.895ZM53.0498 84.105V117.165L61.6498 112.205C61.6498 112.205 61.7198 112.155 61.7598 112.135L102.1 88.855V32.205L73.4698 48.725V71.725C73.4698 72.085 73.2798 72.415 72.9698 72.595L53.0498 84.095V84.105Z" />
<path d="M61.7598 66.7149L51.5498 60.8149C51.2398 60.6349 51.0498 60.3049 51.0498 59.9449V36.3749C51.0498 36.0149 51.2398 35.6849 51.5498 35.5049C51.8598 35.3249 52.2398 35.3249 52.5498 35.5049L62.7598 41.3949L61.7598 43.1249L53.0498 38.1049V59.3649L62.7598 64.9749L61.7598 66.7049V66.7149Z" />
<path d="M72.4698 72.7348C72.2998 72.7348 72.1298 72.6948 71.9698 72.6048L61.7598 66.7148L62.7598 64.9848L71.4698 70.0148V48.7448L61.7598 43.1448L62.7598 41.4148L72.9698 47.3048C73.2798 47.4848 73.4698 47.8148 73.4698 48.1748V71.7548C73.4698 72.1148 73.2798 72.4448 72.9698 72.6248C72.8198 72.7148 72.6398 72.7548 72.4698 72.7548V72.7348Z" />
<path d="M10.71 96.185L0.5 90.295C0.19 90.115 0 89.785 0 89.425V30.475C0 30.115 0.19 29.785 0.5 29.605C0.81 29.425 1.19 29.425 1.5 29.605L11.71 35.495L10.71 37.225L2 32.205V88.845L11.71 94.445L10.71 96.175V96.185Z" />
<path d="M11.7025 94.4417L10.7031 96.1741L20.9156 102.066L21.915 100.333L11.7025 94.4417Z" />
<path d="M11.6764 35.4661L10.6758 37.1978L20.8842 43.0963L21.8848 41.3646L11.6764 35.4661Z" />
<path d="M31.1299 107.975L20.9199 102.085C20.6099 101.905 20.4199 101.575 20.4199 101.215H21.4199L21.9199 100.345L32.1299 106.235L31.1299 107.965V107.975Z" />
<path d="M32.6299 71.7348H30.6299V48.7348L20.9199 43.1348L21.9199 41.4048L32.1299 47.2948C32.4399 47.4748 32.6299 47.8048 32.6299 48.1648V71.7448V71.7348Z" />
<path d="M32.1285 70.8611L31.1279 72.5928L41.3363 78.4913L42.3369 76.7596L32.1285 70.8611Z" />
<path d="M32.1293 106.235L31.1299 107.968L41.3424 113.859L42.3418 112.127L32.1293 106.235Z" />
<path d="M52.0498 119.895C51.8798 119.895 51.7098 119.855 51.5498 119.765L41.3398 113.875C41.0298 113.695 40.8398 113.365 40.8398 113.005H41.8398L42.3398 112.135L51.0498 117.155V84.0949L41.3398 78.4949L42.3398 76.7649L52.5498 82.6549C52.8598 82.8349 53.0498 83.1649 53.0498 83.5249V118.895C53.0498 119.255 52.8598 119.585 52.5498 119.765C52.3998 119.855 52.2198 119.895 52.0498 119.895V119.895Z" />
<path d="M52.0599 84.5249C51.7099 84.5249 51.3799 84.3449 51.1899 84.0249C50.9099 83.5449 51.0799 82.9349 51.5599 82.6549L61.7699 76.7649C62.2499 76.4849 62.8599 76.6549 63.1399 77.1349C63.4199 77.6149 63.2499 78.2249 62.7699 78.5049H62.7599L52.5699 84.3949C52.4099 84.4849 52.2399 84.5249 52.0699 84.5249H52.0599Z" />
<path d="M41.8496 43.2648C41.4996 43.2648 41.1696 43.0848 40.9796 42.7648C40.8896 42.6048 40.8496 42.4348 40.8496 42.2648C40.8496 41.9148 41.0296 41.5849 41.3496 41.3949L51.5596 35.5049C52.0396 35.2249 52.6496 35.3948 52.9296 35.8748C53.0196 36.0348 53.0596 36.2049 53.0596 36.3749C53.0596 36.7249 52.8796 37.0549 52.5596 37.2449L42.3496 43.1349C42.1896 43.2249 42.0196 43.2648 41.8496 43.2648Z" />
<path d="M31.6396 49.155C31.2896 49.155 30.9597 48.975 30.7697 48.655C30.6797 48.495 30.6396 48.325 30.6396 48.155C30.6396 47.805 30.8196 47.475 31.1396 47.285L41.3496 41.395C41.8296 41.115 42.4397 41.285 42.7197 41.765C42.8097 41.925 42.8496 42.095 42.8496 42.265C42.8496 42.615 42.6696 42.945 42.3496 43.135L32.1396 49.025C31.9796 49.115 31.8096 49.155 31.6396 49.155Z" />
<path d="M82.6899 43.2648C82.3399 43.2648 82.0099 43.0848 81.8199 42.7648C81.7199 42.5848 81.6699 42.3849 81.6899 42.1849C81.7099 41.9449 81.8099 41.7249 81.9799 41.5549C82.0399 41.4949 82.1099 41.4449 82.1899 41.3949L92.3999 35.5049C92.8799 35.2249 93.4899 35.3948 93.7699 35.8748C94.0499 36.3548 93.8799 36.9649 93.3999 37.2449L83.1899 43.1349H83.1699C83.0899 43.1849 83.0099 43.2149 82.9299 43.2349C82.8499 43.2549 82.7699 43.2648 82.6899 43.2648Z" />
<path d="M72.4799 49.1648C72.4799 49.1648 72.3799 49.1648 72.3399 49.1548H72.3299C72.0799 49.1148 71.8599 48.9848 71.6999 48.7748C71.6999 48.7748 71.6499 48.7048 71.6299 48.6648C71.6199 48.6448 71.6099 48.6248 71.5999 48.6048C71.4899 48.3748 71.4699 48.1248 71.5399 47.8948C71.5899 47.7248 71.6799 47.5648 71.8099 47.4448C71.8699 47.3948 71.9299 47.3448 71.9999 47.3048L82.2099 41.4148C82.6899 41.1348 83.2999 41.3048 83.5799 41.7848C83.8599 42.2648 83.6899 42.8748 83.2099 43.1548L72.9999 49.0448C72.8399 49.1348 72.6699 49.1748 72.4999 49.1748L72.4799 49.1648Z" />
<path d="M10.71 37.235L0.5 31.345C0.19 31.165 0 30.835 0 30.475C0 30.115 0.19 29.785 0.5 29.605L51.55 0.135C51.86 -0.045 52.24 -0.045 52.55 0.135L62.76 6.025L61.76 7.755L52.05 2.155L3 30.465L11.71 35.485L10.71 37.215V37.235Z" />
<path d="M11.6764 35.4661L10.6758 37.1978L20.8842 43.0963L21.8848 41.3646L11.6764 35.4661Z" />
<path d="M31.6299 49.1549C31.4599 49.1549 31.2899 49.1149 31.1299 49.0249L20.9199 43.1349L21.9199 41.4049L31.6299 47.0049L51.5499 35.5049L52.5499 37.2349L32.1299 49.0249C31.9699 49.1149 31.7999 49.1549 31.6299 49.1549Z" />
<path d="M72.9662 11.9234L71.9668 13.6558L82.1793 19.5472L83.1787 17.8148L72.9662 11.9234Z" />
<path d="M83.1647 17.8083L82.1641 19.54L92.3724 25.4386L93.373 23.7069L83.1647 17.8083Z" />
<path d="M52.5299 35.4846L51.5293 37.2163L61.7377 43.1149L62.7383 41.3832L52.5299 35.4846Z" />
<path d="M72.4698 49.1549C72.2998 49.1549 72.1298 49.1149 71.9698 49.0249L61.7598 43.1349L62.7598 41.4049L72.4698 47.0049L101.1 30.4749L92.3898 25.4549L93.3898 23.7249L103.6 29.6149C103.91 29.7949 104.1 30.1249 104.1 30.4849C104.1 30.8449 103.91 31.1749 103.6 31.3549L72.9698 49.0349C72.8098 49.1249 72.6398 49.1649 72.4698 49.1649V49.1549Z" />
<path d="M52.0596 84.5249C51.8896 84.5249 51.7096 84.4849 51.5596 84.3949L31.1396 72.6049C30.8296 72.4249 30.6396 72.0949 30.6396 71.7349C30.6396 71.3749 30.8296 71.0449 31.1396 70.8649L51.5596 59.0749C51.8696 58.8949 52.2496 58.8949 52.5596 59.0749L62.7697 64.9649L62.2697 65.8349L62.7697 64.9649L72.9796 70.8549C73.2896 71.0349 73.4796 71.3649 73.4796 71.7249C73.4796 72.0849 73.2896 72.4149 72.9796 72.5949L52.5596 84.3849C52.4096 84.4749 52.2296 84.5149 52.0596 84.5149V84.5249ZM33.6396 71.7349L52.0596 82.3749L70.4796 71.7449L61.7697 66.7149L52.0596 61.1049L33.6396 71.7349V71.7349Z" />
</svg>
