<svg width="105" height="120" viewBox="0 0 105 120" fill="none" xmlns="http://www.w3.org/2000/svg">
<path d="M52.0499 49.1548C51.8799 49.1548 51.6999 49.1148 51.5499 49.0248L31.1299 37.2348C30.8199 37.0548 30.6299 36.7248 30.6299 36.3648C30.6299 36.0048 30.8199 35.6748 31.1299 35.4948L51.5499 23.7048C51.8599 23.5248 52.2399 23.5248 52.5499 23.7048L72.9699 35.4948C73.2799 35.6748 73.4699 36.0048 73.4699 36.3648C73.4699 36.7248 73.2799 37.0548 72.9699 37.2348L52.5499 49.0248C52.3999 49.1148 52.2199 49.1548 52.0499 49.1548ZM33.6299 36.3648L52.0499 46.9948L70.4699 36.3648L52.0499 25.7348L33.6299 36.3648Z" />
<path d="M62.2598 90.4248C62.0898 90.4248 61.9098 90.3848 61.7598 90.2948C61.4498 90.1148 61.2598 89.7848 61.2598 89.4248V65.8448C61.2598 65.4848 61.4498 65.1548 61.7598 64.9748L82.1798 53.1848C82.4898 53.0048 82.8698 53.0048 83.1798 53.1848C83.4898 53.3648 83.6798 53.6948 83.6798 54.0548V77.6348C83.6798 77.9948 83.4898 78.3248 83.1798 78.5048L62.7598 90.2948C62.6098 90.3848 62.4298 90.4248 62.2598 90.4248V90.4248ZM63.2598 66.4248V87.6948L81.6798 77.0648V55.7948L63.2598 66.4248Z" />
<path d="M72.4696 96.3151C72.2996 96.3151 72.1296 96.2751 71.9696 96.1851L61.7596 90.2951C61.2796 90.0151 61.1196 89.4051 61.3896 88.9251C61.6696 88.4451 62.2796 88.2851 62.7596 88.5551L72.9696 94.4451C73.2496 94.6051 73.4196 94.8851 73.4596 95.1751C73.4796 95.3551 73.4596 95.5451 73.3796 95.7151C73.3696 95.7451 73.3496 95.7751 73.3296 95.8051C73.2096 96.0051 73.0396 96.1551 72.8296 96.2351C72.7096 96.2851 72.5896 96.3051 72.4596 96.3051L72.4696 96.3151Z" />
<path d="M11.2202 60.9448C11.2202 60.9448 11.1702 60.9448 11.1402 60.9448C10.9602 60.9348 10.7902 60.8648 10.6402 60.7648C10.5302 60.6848 10.4302 60.5748 10.3502 60.4448C10.2502 60.2748 10.2102 60.0948 10.2202 59.9148C10.2302 59.5848 10.4102 59.2648 10.7202 59.0848L20.9303 53.1948C21.4103 52.9148 22.0203 53.0848 22.3003 53.5648C22.5803 54.0448 22.4103 54.6548 21.9303 54.9348L11.7202 60.8248C11.5602 60.9148 11.3902 60.9548 11.2202 60.9548V60.9448Z" />
<path d="M41.8399 90.4248C41.6699 90.4248 41.4899 90.3748 41.3399 90.2948L20.9199 78.5048C20.6099 78.3248 20.4199 77.9948 20.4199 77.6348V54.0548C20.4199 53.6948 20.6099 53.3648 20.9199 53.1848C21.2299 53.0048 21.6099 53.0048 21.9199 53.1848L32.1299 59.0748L42.3399 64.9748C42.6499 65.1548 42.8399 65.4848 42.8399 65.8448V89.4248C42.8399 89.7848 42.6499 90.1148 42.3399 90.2948C42.1899 90.3848 42.0099 90.4248 41.8399 90.4248V90.4248ZM22.4199 77.0548L40.8399 87.6848V66.4148L22.4199 55.7748V77.0448V77.0548Z" />
<path d="M20.92 90.2949L10.71 84.3949C10.4 84.2149 10.21 83.8849 10.21 83.5249C10.21 83.1649 10.4 82.8349 10.71 82.6549L20.92 76.7649L21.92 78.4949L13.21 83.5149L21.92 88.5449L20.92 90.2749V90.2949Z" />
<path d="M21.9193 88.5554L20.9199 90.2878L31.1324 96.1793L32.1318 94.4469L21.9193 88.5554Z" />
<path d="M32.1197 94.4302L31.1191 96.1619L41.3275 102.06L42.3281 100.329L32.1197 94.4302Z" />
<path d="M11.21 84.5248C11.04 84.5248 10.86 84.4848 10.71 84.3948C10.4 84.2148 10.21 83.8848 10.21 83.5248V59.9448C10.21 59.5848 10.4 59.2548 10.71 59.0748L20.92 53.1848C21.23 53.0048 21.61 53.0048 21.92 53.1848C22.23 53.3648 22.42 53.6948 22.42 54.0548V77.6348C22.42 77.9948 22.23 78.3248 21.92 78.5048L11.71 84.3948C11.56 84.4848 11.38 84.5248 11.21 84.5248ZM12.21 60.5248V81.7948L20.42 77.0548V55.7848L12.21 60.5248V60.5248Z" />
<path d="M51.0498 12.7952V12.7852H53.0498L51.0498 12.7952Z" />
<path d="M52.5482 11.9219L51.5488 13.6543L61.7613 19.5457L62.7607 17.8133L52.5482 11.9219Z" />
<path d="M31.6299 37.365C31.4599 37.365 31.2799 37.325 31.1299 37.235L20.9199 31.345C20.6099 31.165 20.4199 30.835 20.4199 30.475C20.4199 30.115 20.6099 29.785 20.9199 29.605L51.5499 11.925C51.8599 11.745 52.2399 11.745 52.5499 11.925C52.8599 12.105 53.0499 12.435 53.0499 12.795V24.585C53.0499 24.945 52.8599 25.275 52.5499 25.455L32.1299 37.245C31.9799 37.335 31.7999 37.375 31.6299 37.375V37.365ZM23.4199 30.475L31.6299 35.215L51.0499 24.005V14.525L23.4199 30.475Z" />
<path d="M11.6813 35.4783L10.6807 37.21L20.889 43.1085L21.8897 41.3768L11.6813 35.4783Z" />
<path d="M62.7719 17.8213L61.7725 19.5537L71.985 25.4451L72.9844 23.7127L62.7719 17.8213Z" />
<path d="M21.9291 41.3994L20.9297 43.1318L31.1422 49.0233L32.1416 47.2909L21.9291 41.3994Z" />
<path d="M72.4697 37.3652C72.2997 37.3652 72.1197 37.3252 71.9697 37.2352C71.6597 37.0552 71.4697 36.7252 71.4697 36.3652V24.5752C71.4697 24.2152 71.6597 23.8852 71.9697 23.7052L82.1797 17.8152C82.4897 17.6352 82.8697 17.6352 83.1797 17.8152C83.4897 17.9952 83.6797 18.3252 83.6797 18.6852V30.4752C83.6797 30.8352 83.4897 31.1652 83.1797 31.3452L72.9697 37.2352C72.8197 37.3252 72.6397 37.3652 72.4697 37.3652ZM73.4697 25.1552V34.6352L81.6797 29.8952V20.4152L73.4697 25.1552V25.1552Z" />
<path d="M32.1158 47.2761L31.1152 49.0078L41.3236 54.9064L42.3242 53.1747L32.1158 47.2761Z" />
<path d="M42.3353 53.1831L41.3359 54.9155L51.5484 60.807L52.5478 59.0746L42.3353 53.1831Z" />
<path d="M52.0498 119.895C51.8798 119.895 51.6998 119.855 51.5498 119.765C51.2398 119.585 51.0498 119.255 51.0498 118.895V59.9452C51.0498 59.5852 51.2398 59.2552 51.5498 59.0752L102.6 29.6052C102.91 29.4252 103.29 29.4252 103.6 29.6052C103.91 29.7852 104.1 30.1152 104.1 30.4752V89.4252C104.1 89.7852 103.91 90.1152 103.6 90.2952L72.9698 107.975C72.6598 108.155 72.2798 108.155 71.9698 107.975C71.6598 107.795 71.4698 107.465 71.4698 107.105V95.3152C71.4698 94.9552 71.6598 94.6252 71.9698 94.4452L91.8898 82.9452V49.8952L63.2598 66.4252V113.005C63.2598 113.365 63.0698 113.695 62.7598 113.875L52.5498 119.765C52.3998 119.855 52.2198 119.895 52.0498 119.895V119.895ZM53.0498 60.5252V117.165L61.2598 112.425V65.8452C61.2598 65.4852 61.4498 65.1552 61.7598 64.9752L92.3898 47.2952C92.6998 47.1152 93.0798 47.1152 93.3898 47.2952C93.6998 47.4752 93.8898 47.8052 93.8898 48.1652V83.5352C93.8898 83.8952 93.6998 84.2252 93.3898 84.4052L73.4698 95.9052V105.385L102.1 88.8552V32.2052L53.0498 60.5252V60.5252Z" />
<path d="M72.4698 108.105C72.2998 108.105 72.1198 108.065 71.9698 107.975L61.7598 102.085C61.4498 101.905 61.2598 101.575 61.2598 101.215V89.4249C61.2598 89.0649 61.4498 88.7349 61.7598 88.5549C62.0698 88.3749 62.4498 88.3749 62.7598 88.5549L72.9698 94.4449C73.2798 94.6249 73.4698 94.9549 73.4698 95.3149V107.105C73.4698 107.465 73.2798 107.795 72.9698 107.975C72.8198 108.065 72.6398 108.105 72.4698 108.105ZM63.2598 100.635L71.4698 105.375V95.8949L63.2598 91.1549V100.635Z" />
<path d="M92.8896 84.5252C92.7196 84.5252 92.5396 84.4852 92.3896 84.3952L82.1797 78.5052C81.8697 78.3252 81.6797 77.9952 81.6797 77.6352V54.0552C81.6797 53.6952 81.8697 53.3652 82.1797 53.1852L92.3896 47.2952C92.6996 47.1152 93.0796 47.1152 93.3896 47.2952C93.6996 47.4752 93.8896 47.8052 93.8896 48.1652V83.5352C93.8896 83.8952 93.6996 84.2252 93.3896 84.4052C93.2396 84.4952 93.0596 84.5352 92.8896 84.5352V84.5252ZM83.6797 77.0552L91.8896 81.7952V49.8952L83.6797 54.6352V77.0552Z" />
<path d="M61.7598 31.345L51.5498 25.445C51.2398 25.265 51.0498 24.935 51.0498 24.575V12.795C51.0498 12.435 51.2398 12.105 51.5498 11.925C51.8598 11.745 52.2398 11.745 52.5498 11.925L62.7598 17.815L61.7598 19.545L53.0498 14.525V23.995L62.7598 29.605L61.7598 31.335V31.345Z" />
<path d="M72.4698 37.3652C72.2998 37.3652 72.1298 37.3252 71.9698 37.2352L61.7598 31.3452L62.7598 29.6152L71.4698 34.6352V25.1552L61.7598 19.5552L62.7598 17.8252L72.9698 23.7152C73.2798 23.8952 73.4698 24.2252 73.4698 24.5852V36.3752C73.4698 36.7352 73.2798 37.0652 72.9698 37.2452C72.8198 37.3352 72.6398 37.3752 72.4698 37.3752V37.3652Z" />
<path d="M20.92 90.2949L10.71 84.3949C10.4 84.2149 10.21 83.8849 10.21 83.5249C10.21 83.1649 10.4 82.8349 10.71 82.6549L20.92 76.7649C21.23 76.5849 21.61 76.5849 21.92 76.7649L32.1299 82.6549L31.1299 84.3849L21.42 78.7849L13.21 83.5249L21.92 88.5549L20.92 90.2849V90.2949Z" />
<path d="M21.9193 88.5554L20.9199 90.2878L31.1324 96.1793L32.1318 94.4469L21.9193 88.5554Z" />
<path d="M32.1207 82.6416L31.1201 84.3733L41.3285 90.2719L42.3291 88.5402L32.1207 82.6416Z" />
<path d="M41.8399 102.215C41.6699 102.215 41.4899 102.175 41.3399 102.085L31.1299 96.1851L32.1299 94.455L40.8399 99.4851V89.425H42.8399V101.215C42.8399 101.575 42.6499 101.905 42.3399 102.085C42.1899 102.175 42.0099 102.215 41.8399 102.215V102.215Z" />
<path d="M72.4698 96.3151C72.2998 96.3151 72.1198 96.2751 71.9698 96.1851L61.7598 90.2851C61.4498 90.1051 61.2598 89.7751 61.2598 89.4151C61.2598 89.0551 61.4498 88.7251 61.7598 88.5451L82.1798 76.7551C82.4898 76.5751 82.8698 76.5751 83.1798 76.7551L93.3898 82.6451C93.6998 82.8251 93.8898 83.1551 93.8898 83.5151C93.8898 83.8751 93.6998 84.2051 93.3898 84.3851L72.9698 96.1751C72.8198 96.2651 72.6398 96.3051 72.4698 96.3051V96.3151ZM64.2598 89.4151L72.4698 94.1551L90.8898 83.5251L82.6798 78.7851L64.2598 89.4151Z" />
<path d="M11.21 60.9449C11.04 60.9449 10.86 60.9049 10.71 60.8149L0.5 54.9249C0.19 54.7449 0 54.4149 0 54.0549C0 53.6949 0.19 53.3649 0.5 53.1849L10.71 47.2849C11.02 47.1049 11.4 47.1049 11.71 47.2849L21.92 53.1849C22.23 53.3649 22.42 53.6949 22.42 54.0549C22.42 54.4149 22.23 54.7449 21.92 54.9249L11.71 60.8149C11.56 60.9049 11.38 60.9449 11.21 60.9449ZM3 54.0549L11.21 58.7949L19.42 54.0549L11.21 49.3149L3 54.0549Z" />
<path d="M11.6949 82.6423L10.6943 84.374L20.9027 90.2726L21.9033 88.5409L11.6949 82.6423Z" />
<path d="M11.7094 94.4424L10.71 96.1748L20.9225 102.066L21.9219 100.334L11.7094 94.4424Z" />
<path d="M21.9193 88.5554L20.9199 90.2878L31.1324 96.1793L32.1318 94.4469L21.9193 88.5554Z" />
<path d="M31.1299 107.975L20.9199 102.085C20.6099 101.905 20.4199 101.575 20.4199 101.215H21.4199L21.9199 100.345L32.1299 106.235L31.1299 107.965V107.975Z" />
<path d="M82.6799 90.425C82.3299 90.425 81.9999 90.245 81.8099 89.925C81.7999 89.905 81.7899 89.885 81.7799 89.865C81.6499 89.595 81.6498 89.285 81.7598 89.025V89.005C81.8398 88.815 81.9799 88.665 82.1699 88.555L92.3798 82.665C92.8598 82.385 93.4699 82.555 93.7499 83.035C94.0299 83.515 93.8598 84.125 93.3798 84.405L83.1699 90.295C83.0099 90.385 82.8399 90.425 82.6699 90.425H82.6799Z" />
<path d="M72.4798 96.3149C72.2598 96.3149 72.0498 96.2449 71.8698 96.1049C71.7698 96.0249 71.6798 95.9249 71.6098 95.8149C71.5698 95.7449 71.5398 95.6749 71.5198 95.6049C71.4098 95.2449 71.5198 94.8449 71.7898 94.5849C71.8398 94.5249 71.9098 94.4849 71.9698 94.4449L82.1798 88.5449C82.6598 88.2649 83.2698 88.4349 83.5498 88.9149C83.8298 89.3949 83.6598 90.0049 83.1798 90.2849L72.9698 96.1749H72.9498V96.1949L72.8998 96.2149H72.8798L72.8598 96.2349H72.8298V96.2549H72.8198C72.6998 96.2949 72.5798 96.3249 72.4598 96.3249L72.4798 96.3149Z" />
<path d="M10.71 96.1848L0.5 90.2948C0.19 90.1148 0 89.7848 0 89.4248V54.0548C0 53.6948 0.19 53.3648 0.5 53.1848C0.81 53.0048 1.19 53.0048 1.5 53.1848L11.71 59.0748C12.02 59.2548 12.21 59.5848 12.21 59.9448V83.5248H10.21V60.5248L2 55.7848V88.8448L11.71 94.4448L10.71 96.1748V96.1848Z" />
<path d="M52.0499 119.895C51.8799 119.895 51.6999 119.855 51.5499 119.765L41.3398 113.875C41.0298 113.695 40.8398 113.365 40.8398 113.005H41.8398L42.3398 112.135L51.0499 117.155V60.5248L41.3398 54.9248L42.3398 53.1948L52.5499 59.0848C52.8599 59.2648 53.0499 59.5948 53.0499 59.9548V118.905C53.0499 119.265 52.8599 119.595 52.5499 119.775C52.3999 119.865 52.2199 119.905 52.0499 119.905V119.895Z" />
<path d="M32.1254 106.236L31.126 107.969L41.3385 113.86L42.3379 112.128L32.1254 106.236Z" />
<path d="M41.84 102.215C41.67 102.215 41.49 102.175 41.34 102.085L31.13 96.1852L32.13 94.4552L40.84 99.4852V66.4252L0.5 43.1352C0.19 42.9552 0 42.6252 0 42.2652V30.4752C0 30.1152 0.19 29.7852 0.5 29.6052C0.81 29.4252 1.19 29.4252 1.5 29.6052L11.71 35.4952L10.71 37.2252L2 32.2052V41.6852L42.34 64.9752C42.65 65.1552 42.84 65.4852 42.84 65.8452V101.215C42.84 101.575 42.65 101.905 42.34 102.085C42.19 102.175 42.01 102.215 41.84 102.215V102.215Z" />
<path d="M11.6813 35.4783L10.6807 37.21L20.889 43.1085L21.8897 41.3768L11.6813 35.4783Z" />
<path d="M21.9291 41.3994L20.9297 43.1318L31.1422 49.0233L32.1416 47.2909L21.9291 41.3994Z" />
<path d="M32.1158 47.2761L31.1152 49.0078L41.3236 54.9064L42.3242 53.1747L32.1158 47.2761Z" />
<path d="M41.8398 19.6848C41.4898 19.6848 41.1598 19.5048 40.9698 19.1848C40.8798 19.0248 40.8398 18.8548 40.8398 18.6848C40.8398 18.3348 41.0198 18.0048 41.3398 17.8148L51.5499 11.9248C52.0299 11.6448 52.6399 11.8148 52.9199 12.2948C53.0099 12.4548 53.0499 12.6248 53.0499 12.7948C53.0499 13.1448 52.8699 13.4748 52.5499 13.6648L42.3398 19.5548C42.1798 19.6448 42.0098 19.6848 41.8398 19.6848V19.6848Z" />
<path d="M31.64 25.5749C31.29 25.5749 30.96 25.3949 30.77 25.0749C30.49 24.5949 30.66 23.9849 31.14 23.7049L41.35 17.8149C41.83 17.5349 42.44 17.7049 42.72 18.1849C42.81 18.3449 42.86 18.5249 42.85 18.7049C42.85 19.0349 42.68 19.3449 42.38 19.5349L42.35 19.5549L32.14 25.4449C31.98 25.5349 31.81 25.5749 31.64 25.5749V25.5749Z" />
<path d="M21.43 31.4748C21.08 31.4748 20.75 31.2948 20.56 30.9748C20.28 30.4948 20.45 29.8848 20.93 29.6048L31.14 23.7148C31.62 23.4348 32.23 23.6048 32.51 24.0848C32.61 24.2548 32.65 24.4348 32.64 24.6248C32.63 24.9448 32.46 25.2548 32.17 25.4348L32.14 25.4548L21.93 31.3548C21.77 31.4448 21.6 31.4848 21.43 31.4848V31.4748Z" />
<path d="M82.6799 43.2648C82.3299 43.2648 81.9999 43.0848 81.8099 42.7648C81.7999 42.7448 81.7899 42.7249 81.7799 42.7049C81.6499 42.4349 81.6498 42.1249 81.7598 41.8649V41.8449C81.8398 41.6549 81.9799 41.5049 82.1699 41.3949L92.3798 35.5049C92.8598 35.2249 93.4699 35.3948 93.7499 35.8748C94.0299 36.3548 93.8598 36.9649 93.3798 37.2449L83.1699 43.1349C83.0099 43.2249 82.8399 43.2648 82.6699 43.2648H82.6799Z" />
<path d="M72.4798 49.1652C72.2598 49.1652 72.0498 49.0952 71.8698 48.9552C71.7698 48.8752 71.6798 48.7752 71.6098 48.6652C71.5698 48.5952 71.5398 48.5252 71.5198 48.4552C71.4098 48.0952 71.5198 47.6952 71.7898 47.4352C71.8398 47.3752 71.9098 47.3352 71.9698 47.2952L82.1798 41.4052C82.6598 41.1252 83.2698 41.2952 83.5498 41.7752C83.8298 42.2552 83.6598 42.8652 83.1798 43.1452L72.9698 49.0352H72.9498V49.0552L72.8998 49.0752H72.8798L72.8598 49.0952H72.8298V49.1152H72.8198C72.6998 49.1552 72.5798 49.1852 72.4598 49.1852L72.4798 49.1652Z" />
<path d="M62.2598 55.0549C61.9098 55.0549 61.5798 54.8749 61.3898 54.5549C61.2998 54.3949 61.2598 54.2249 61.2598 54.0549C61.2598 53.7049 61.4398 53.3749 61.7598 53.1849L71.9698 47.2949C72.4498 47.0149 73.0598 47.1849 73.3398 47.6649C73.4298 47.8249 73.4698 47.9949 73.4698 48.1649C73.4698 48.5149 73.2898 48.8449 72.9698 49.0349L62.7598 54.9249C62.5998 55.0149 62.4298 55.0549 62.2598 55.0549Z" />
<path d="M52.0597 60.9448C51.7097 60.9448 51.3797 60.7648 51.1897 60.4448C51.1697 60.4148 51.1597 60.3848 51.1397 60.3548C50.9597 59.9648 51.0597 59.4948 51.3797 59.2148C51.4297 59.1648 51.4897 59.1248 51.5597 59.0848L61.7697 53.1948C62.2497 52.9148 62.8597 53.0848 63.1397 53.5648C63.4197 54.0448 63.2497 54.6548 62.7697 54.9348L52.5597 60.8248C52.3997 60.9148 52.2297 60.9548 52.0597 60.9548V60.9448Z" />
<path d="M52.05 60.9448C51.88 60.9448 51.7 60.9048 51.55 60.8148L10.71 37.2348L11.71 35.5048L52.05 58.7948L101.1 30.4848L92.89 25.7448L52.55 49.0248C52.24 49.2048 51.86 49.2048 51.55 49.0248L20.92 31.3448L21.92 29.6148L52.05 47.0048L92.39 23.7248C92.7 23.5448 93.08 23.5448 93.39 23.7248L103.6 29.6148C103.91 29.7948 104.1 30.1248 104.1 30.4848C104.1 30.8448 103.91 31.1748 103.6 31.3548L52.55 60.8248C52.4 60.9148 52.22 60.9548 52.05 60.9548V60.9448Z" />
<path d="M51.5605 11.9469L20.9385 29.6479L21.9394 31.3795L52.5614 13.6784L51.5605 11.9469Z" />
<path d="M10.71 37.235L0.5 31.345C0.19 31.165 0 30.835 0 30.475C0 30.115 0.19 29.785 0.5 29.605L51.55 0.135C51.86 -0.045 52.24 -0.045 52.55 0.135L62.76 6.025L61.76 7.755L52.05 2.155L3 30.465L11.71 35.485L10.71 37.215V37.235Z" />
<path d="M62.7447 6.0222L61.7441 7.75391L71.9525 13.6525L72.9531 11.9208L62.7447 6.0222Z" />
<path d="M52.5482 11.9219L51.5488 13.6543L61.7613 19.5457L62.7607 17.8133L52.5482 11.9219Z" />
<path d="M72.4698 25.5751C72.2998 25.5751 72.1298 25.5351 71.9698 25.4451L61.7598 19.5551L62.7598 17.8251L72.4698 23.4251L80.6798 18.6851L71.9698 13.6651L72.9698 11.9351L83.1798 17.8251C83.4898 18.0051 83.6798 18.3351 83.6798 18.6951C83.6798 19.0551 83.4898 19.3851 83.1798 19.5651L72.9698 25.4551C72.8098 25.5451 72.6398 25.5851 72.4698 25.5851V25.5751Z" />
</svg>
