<svg width="105" height="120" viewBox="0 0 105 120" fill="none" xmlns="http://www.w3.org/2000/svg">
<path d="M11.21 37.365C10.86 37.365 10.53 37.185 10.34 36.865C10.25 36.705 10.21 36.535 10.21 36.365C10.21 36.015 10.39 35.685 10.71 35.495L20.92 29.6049C21.4 29.3249 22.01 29.4949 22.29 29.9749C22.38 30.1349 22.42 30.3049 22.42 30.4749C22.42 30.8249 22.24 31.155 21.92 31.345L11.71 37.235C11.55 37.325 11.38 37.365 11.21 37.365Z" />
<path d="M31.6302 25.5749C31.2802 25.5749 30.9502 25.3949 30.7602 25.0749C30.4802 24.5949 30.6502 23.9849 31.1302 23.7049L41.3402 17.8149C41.8202 17.5349 42.4302 17.7049 42.7102 18.1849C42.8002 18.3449 42.8502 18.5249 42.8402 18.6949C42.8402 19.0349 42.6602 19.3649 42.3402 19.5549L32.1302 25.4549C31.9702 25.5449 31.8002 25.5849 31.6302 25.5849V25.5749Z" />
<path d="M11.21 96.3049C11.04 96.3049 10.86 96.2649 10.71 96.1749C10.4 95.9949 10.21 95.6649 10.21 95.3049V36.3549C10.21 35.9949 10.4 35.6649 10.71 35.4849L20.92 29.595C21.23 29.415 21.61 29.415 21.92 29.595C22.23 29.775 22.42 30.105 22.42 30.465V89.4149C22.42 89.7749 22.23 90.1049 21.92 90.2849L11.71 96.1749C11.56 96.2649 11.38 96.3049 11.21 96.3049ZM12.21 36.9349V93.5749L20.42 88.8349V77.6249V32.2049L12.21 36.9449V36.9349Z" />
<path d="M31.6299 108.095C31.4599 108.095 31.2799 108.045 31.1299 107.965C30.8199 107.785 30.6299 107.455 30.6299 107.095V48.145C30.6299 47.785 30.8199 47.455 31.1299 47.275L41.3399 41.385C41.6499 41.205 42.0299 41.205 42.3399 41.385C42.6499 41.565 42.8399 41.895 42.8399 42.255V101.205C42.8399 101.565 42.6499 101.895 42.3399 102.075L32.1299 107.965C31.9799 108.055 31.7999 108.095 31.6299 108.095ZM32.6299 48.725V105.365L40.8399 100.625V89.415V43.995L32.6299 48.735V48.725Z" />
<path d="M72.4697 108.095C72.2997 108.095 72.1197 108.055 71.9697 107.965C71.6597 107.785 71.4697 107.455 71.4697 107.095V48.145C71.4697 47.785 71.6597 47.455 71.9697 47.275L82.1797 41.385C82.4897 41.205 82.8697 41.205 83.1797 41.385C83.4897 41.565 83.6797 41.895 83.6797 42.255V101.205C83.6797 101.565 83.4897 101.895 83.1797 102.075L72.9697 107.965C72.8197 108.055 72.6397 108.095 72.4697 108.095ZM73.4697 48.725V105.365L81.6797 100.625V43.985L73.4697 48.725Z" />
<path d="M52.0498 119.885C51.8798 119.885 51.6998 119.845 51.5498 119.755C51.2398 119.575 51.0498 119.245 51.0498 118.885V59.935C51.0498 59.575 51.2398 59.2451 51.5498 59.0651L61.7598 53.175C62.0698 52.995 62.4498 52.995 62.7598 53.175C63.0698 53.355 63.2598 53.685 63.2598 54.045V112.995C63.2598 113.355 63.0698 113.685 62.7598 113.865L52.5498 119.755C52.3998 119.845 52.2198 119.885 52.0498 119.885ZM53.0498 60.5151V117.155L61.2598 112.415V55.7751L53.0498 60.5151Z" />
<path d="M41.8399 43.2549C41.6699 43.2549 41.4899 43.2149 41.3399 43.1249L31.1299 37.2349C30.8199 37.0549 30.6299 36.7249 30.6299 36.3649V24.5749C30.6299 24.2149 30.8199 23.8849 31.1299 23.7049L41.3399 17.8149C41.6499 17.6349 42.0299 17.6349 42.3399 17.8149C42.6499 17.9949 42.8399 18.3249 42.8399 18.6849V42.2649C42.8399 42.6249 42.6499 42.9549 42.3399 43.1349C42.1899 43.2249 42.0099 43.2649 41.8399 43.2649V43.2549ZM32.6299 35.7849L40.8399 40.525V20.4149L32.6299 25.155V35.7949V35.7849Z" />
<path d="M52.0501 37.365C51.7001 37.365 51.3701 37.185 51.1801 36.865C50.9001 36.385 51.0701 35.775 51.5501 35.495L61.7601 29.6049C62.2401 29.3249 62.8501 29.4949 63.1301 29.9749C63.2201 30.1349 63.2701 30.305 63.2601 30.485C63.2601 30.825 63.0801 31.155 62.7601 31.345L52.5501 37.245C52.3901 37.335 52.2201 37.375 52.0501 37.375V37.365Z" />
<path d="M31.6299 49.155C31.2799 49.155 30.9499 48.975 30.7599 48.655C30.6699 48.495 30.6299 48.325 30.6299 48.155C30.6299 47.805 30.8099 47.4749 31.1299 47.2849L41.3399 41.395C41.8199 41.115 42.4299 41.285 42.7099 41.765C42.7999 41.925 42.8399 42.095 42.8399 42.265C42.8399 42.615 42.6599 42.945 42.3399 43.135L32.1299 49.025C31.9699 49.115 31.7999 49.155 31.6299 49.155Z" />
<path d="M62.2598 31.4649C62.0898 31.4649 61.9098 31.4249 61.7598 31.3349L51.5498 25.4449C51.2398 25.2649 51.0498 24.9349 51.0498 24.5749V12.7848C51.0498 12.4248 51.2398 12.0948 51.5498 11.9148L61.7598 6.02489C62.0698 5.84489 62.4498 5.84489 62.7598 6.02489C63.0698 6.20489 63.2598 6.53489 63.2598 6.89489V30.4748C63.2598 30.8348 63.0698 31.1649 62.7598 31.3449C62.6098 31.4349 62.4298 31.4748 62.2598 31.4748V31.4649ZM53.0498 23.9949L61.2598 28.7349V8.62487L53.0498 13.3649V23.9949Z" />
<path d="M82.6797 43.2549C82.5097 43.2549 82.3297 43.2149 82.1797 43.1249L71.9697 37.2349C71.6597 37.0549 71.4697 36.7249 71.4697 36.3649V24.5749C71.4697 24.2149 71.6597 23.8849 71.9697 23.7049L82.1797 17.8149C82.4897 17.6349 82.8697 17.6349 83.1797 17.8149C83.4897 17.9949 83.6797 18.3249 83.6797 18.6849V42.2649C83.6797 42.6249 83.4897 42.9549 83.1797 43.1349C83.0297 43.2249 82.8497 43.2649 82.6797 43.2649V43.2549ZM73.4697 35.7849L81.6797 40.525V20.4149L73.4697 25.155V35.7849Z" />
<path d="M62.2598 55.045C62.0898 55.045 61.9098 55.005 61.7598 54.915L51.5498 49.025C51.2398 48.845 51.0498 48.515 51.0498 48.155V36.365C51.0498 36.005 51.2398 35.675 51.5498 35.495L61.7598 29.605C62.0698 29.425 62.4498 29.425 62.7598 29.605C63.0698 29.785 63.2598 30.115 63.2598 30.475V54.055C63.2598 54.415 63.0698 54.745 62.7598 54.925C62.6098 55.015 62.4298 55.055 62.2598 55.055V55.045ZM53.0498 47.575L61.2598 52.315V32.205L53.0498 36.945V47.585V47.575Z" />
<path d="M92.8896 96.3049C92.7196 96.3049 92.5396 96.2649 92.3896 96.1749C92.0796 95.9949 91.8896 95.6649 91.8896 95.3049V36.3549C91.8896 35.9949 92.0796 35.6649 92.3896 35.4849L102.6 29.595C102.91 29.415 103.29 29.415 103.6 29.595C103.91 29.775 104.1 30.105 104.1 30.465V89.4149C104.1 89.7749 103.91 90.1049 103.6 90.2849L93.3896 96.1749C93.2396 96.2649 93.0596 96.3049 92.8896 96.3049ZM93.8896 36.9349V93.5749L102.1 88.8349V32.1949L93.8896 36.9349Z" />
<path d="M92.8897 96.3049C92.7197 96.3049 92.5397 96.2649 92.3897 96.1749L82.1797 90.2849C81.8697 90.1049 81.6797 89.7749 81.6797 89.4149V30.465C81.6797 30.105 81.8697 29.775 82.1797 29.595C82.4897 29.415 82.8697 29.415 83.1797 29.595L93.3897 35.4849C93.6997 35.6649 93.8897 35.9949 93.8897 36.3549V95.3049C93.8897 95.6649 93.6997 95.9949 93.3897 96.1749C93.2397 96.2649 93.0597 96.3049 92.8897 96.3049ZM83.6797 88.8349L91.8897 93.5749V36.9349L83.6797 32.1949V88.8349Z" />
<path d="M41.8398 31.4649C41.6698 31.4649 41.4898 31.4249 41.3398 31.3349C41.0298 31.1549 40.8398 30.8249 40.8398 30.4649V18.6749V6.88488C40.8398 6.52488 41.0298 6.19488 41.3398 6.01488C41.6498 5.83488 42.0298 5.83488 42.3398 6.01488L52.5499 11.9049C52.8599 12.0849 53.0499 12.4149 53.0499 12.7749V24.5649C53.0499 24.9249 52.8599 25.2549 52.5499 25.4349L42.3398 31.3349C42.1898 31.4249 42.0098 31.4649 41.8398 31.4649ZM42.8398 18.6749V28.7349L51.0499 23.9949V13.3548L42.8398 8.61486V18.6749V18.6749Z" />
<path d="M21.4199 43.2549C21.2499 43.2549 21.0699 43.2149 20.9199 43.1249C20.6099 42.9449 20.4199 42.6149 20.4199 42.2549V18.6749C20.4199 18.3149 20.6099 17.9849 20.9199 17.8049C21.2299 17.6249 21.6099 17.6249 21.9199 17.8049L32.1299 23.6949C32.4399 23.8749 32.6299 24.2049 32.6299 24.5649V36.3549C32.6299 36.7149 32.4399 37.0449 32.1299 37.2249L21.9199 43.1149C21.7699 43.2049 21.5899 43.2449 21.4199 43.2449V43.2549ZM21.4199 30.465H22.4199V40.525L30.6299 35.7849V25.1449L22.4199 20.405V30.465H21.4199V30.465Z" />
<path d="M62.2598 43.2549C62.0898 43.2549 61.9098 43.2149 61.7598 43.1249C61.4498 42.9449 61.2598 42.6149 61.2598 42.2549V30.465V18.6749C61.2598 18.3149 61.4498 17.9849 61.7598 17.8049C62.0698 17.6249 62.4498 17.6249 62.7598 17.8049L72.9698 23.6949C73.2798 23.8749 73.4698 24.2049 73.4698 24.5649V36.3549C73.4698 36.7149 73.2798 37.0449 72.9698 37.2249L62.7598 43.1249C62.6098 43.2149 62.4298 43.2549 62.2598 43.2549ZM62.2598 30.465H63.2598V40.525L71.4698 35.7849V25.1449L63.2598 20.405V30.465H62.2598V30.465Z" />
<path d="M11.21 96.3049C11.04 96.3049 10.86 96.2649 10.71 96.1749L0.5 90.2849C0.19 90.1049 0 89.7749 0 89.4149V30.465C0 30.105 0.19 29.775 0.5 29.595C0.81 29.415 1.19 29.415 1.5 29.595L11.71 35.4849C12.02 35.6649 12.21 35.9949 12.21 36.3549V95.3049C12.21 95.6649 12.02 95.9949 11.71 96.1749C11.56 96.2649 11.38 96.3049 11.21 96.3049ZM2 88.8349L10.21 93.5749V36.9349L2 32.1949V88.8349Z" />
<path d="M31.6299 108.095C31.4599 108.095 31.2799 108.045 31.1299 107.965L20.9199 102.075C20.6099 101.895 20.4199 101.565 20.4199 101.205V42.255C20.4199 41.895 20.6099 41.565 20.9199 41.385C21.2299 41.205 21.6099 41.205 21.9199 41.385L32.1299 47.285C32.4399 47.465 32.6299 47.795 32.6299 48.155V107.105C32.6299 107.465 32.4399 107.795 32.1299 107.975C31.9799 108.065 31.7999 108.105 31.6299 108.105V108.095ZM22.4199 100.625L30.6299 105.365V48.725L22.4199 43.985V100.625Z" />
<path d="M52.0499 119.885C51.8799 119.885 51.6999 119.845 51.5499 119.755L41.3398 113.865C41.0298 113.685 40.8398 113.355 40.8398 112.995V54.045C40.8398 53.685 41.0298 53.355 41.3398 53.175C41.6498 52.995 42.0298 52.995 42.3398 53.175L52.5499 59.0751C52.8599 59.2551 53.0499 59.5851 53.0499 59.9451V118.895C53.0499 119.255 52.8599 119.585 52.5499 119.765C52.3999 119.855 52.2199 119.895 52.0499 119.895V119.885ZM42.8398 112.415L51.0499 117.155V60.5151L42.8398 55.7751V112.415Z" />
<path d="M41.8398 43.2549C41.2898 43.2549 40.8498 42.8149 40.8398 42.2649V30.465C40.8398 30.105 41.0298 29.775 41.3398 29.595C41.6498 29.415 42.0298 29.415 42.3398 29.595L52.5499 35.4849C53.0299 35.7649 53.1898 36.3749 52.9198 36.8549C52.6398 37.3349 52.0299 37.4949 51.5499 37.2249L42.8398 32.1949V42.2549C42.8398 42.8049 42.3898 43.2549 41.8398 43.2549Z" />
<path d="M62.2598 55.045C61.7098 55.045 61.2598 54.595 61.2598 54.045V42.255C61.2598 41.895 61.4498 41.565 61.7598 41.385C62.0698 41.205 62.4498 41.205 62.7598 41.385L72.9698 47.275C73.4498 47.555 73.6098 48.165 73.3398 48.645C73.0598 49.125 72.4498 49.285 71.9698 49.015L63.2598 43.985V54.045C63.2598 54.595 62.8098 55.045 62.2598 55.045Z" />
<path d="M52.0499 60.9449C51.8799 60.9449 51.6999 60.9049 51.5499 60.8149L41.3398 54.9249C41.0298 54.7449 40.8398 54.4149 40.8398 54.0549C40.8398 53.6949 41.0298 53.3649 41.3398 53.1849L51.5499 47.2849C51.8599 47.1049 52.2399 47.1049 52.5499 47.2849L62.7598 53.1749C63.0698 53.3549 63.2598 53.6849 63.2598 54.0449C63.2598 54.4049 63.0698 54.7349 62.7598 54.9149L52.5499 60.8149C52.3999 60.9049 52.2199 60.9449 52.0499 60.9449ZM43.8398 54.0449L52.0499 58.7849L60.2598 54.0449L52.0499 49.3049L43.8398 54.0449Z" />
<path d="M52.0499 13.785C51.8799 13.785 51.6999 13.745 51.5499 13.655L41.3398 7.76501C41.0298 7.58501 40.8398 7.25501 40.8398 6.89501C40.8398 6.53501 41.0298 6.20501 41.3398 6.02501L51.5499 0.135C51.8599 -0.045 52.2399 -0.045 52.5499 0.135L62.7598 6.02501C63.0698 6.20501 63.2598 6.53501 63.2598 6.89501C63.2598 7.25501 63.0698 7.58501 62.7598 7.76501L52.5499 13.655C52.3999 13.745 52.2199 13.785 52.0499 13.785ZM43.8398 6.89501L52.0499 11.635L60.2598 6.89501L52.0499 2.15502L43.8398 6.89501Z" />
<path d="M31.6299 25.5751C31.4599 25.5751 31.2799 25.5251 31.1299 25.4451L20.9199 19.555C20.6099 19.375 20.4199 19.045 20.4199 18.685C20.4199 18.325 20.6099 17.9951 20.9199 17.8151L31.1299 11.925C31.4399 11.745 31.8199 11.745 32.1299 11.925L42.3399 17.8151C42.6499 17.9951 42.8399 18.325 42.8399 18.685C42.8399 19.045 42.6499 19.375 42.3399 19.555L32.1299 25.4451C31.9799 25.5351 31.7999 25.5751 31.6299 25.5751ZM23.4199 18.685L31.6299 23.425L39.8399 18.685L31.6299 13.9451L23.4199 18.685Z" />
<path d="M11.21 37.3648C11.04 37.3648 10.86 37.3248 10.71 37.2348L0.5 31.3448C0.19 31.1648 0 30.8348 0 30.4748C0 30.1148 0.19 29.7848 0.5 29.6048L10.71 23.7048C11.02 23.5248 11.4 23.5248 11.71 23.7048L21.92 29.5948C22.23 29.7748 22.42 30.1048 22.42 30.4648C22.42 30.8248 22.23 31.1548 21.92 31.3348L11.71 37.2348C11.56 37.3248 11.38 37.3648 11.21 37.3648ZM3 30.4748L11.21 35.2148L19.42 30.4748L11.21 25.7348L3 30.4748Z" />
<path d="M52.0499 37.365C51.8799 37.365 51.6999 37.325 51.5499 37.235L41.3398 31.3451C41.0298 31.1651 40.8398 30.835 40.8398 30.475C40.8398 30.115 41.0298 29.785 41.3398 29.605L51.5499 23.7151C51.8599 23.5351 52.2399 23.5351 52.5499 23.7151L62.7598 29.605C63.0698 29.785 63.2598 30.115 63.2598 30.475C63.2598 30.835 63.0698 31.1651 62.7598 31.3451L52.5499 37.245C52.3999 37.335 52.2199 37.3751 52.0499 37.3751V37.365ZM43.8398 30.475L52.0499 35.2151L60.2598 30.475L52.0499 25.735L43.8398 30.475Z" />
<path d="M72.4698 25.5751C72.2998 25.5751 72.1198 25.5351 71.9698 25.4451L61.7598 19.555C61.4498 19.375 61.2598 19.045 61.2598 18.685C61.2598 18.325 61.4498 17.9951 61.7598 17.8151L71.9698 11.925C72.2798 11.745 72.6598 11.745 72.9698 11.925L83.1798 17.8151C83.4898 17.9951 83.6798 18.325 83.6798 18.685C83.6798 19.045 83.4898 19.375 83.1798 19.555L72.9698 25.4451C72.8198 25.5351 72.6398 25.5751 72.4698 25.5751ZM64.2598 18.685L72.4698 23.425L80.6798 18.685L72.4698 13.9451L64.2598 18.685Z" />
<path d="M72.4698 49.1549C72.2998 49.1549 72.1198 49.1149 71.9698 49.0249L61.7598 43.1349C61.4498 42.9549 61.2598 42.6249 61.2598 42.2649C61.2598 41.9049 61.4498 41.5749 61.7598 41.3949L71.9698 35.5049C72.2798 35.3249 72.6598 35.3249 72.9698 35.5049L83.1798 41.3949C83.4898 41.5749 83.6798 41.9049 83.6798 42.2649C83.6798 42.6249 83.4898 42.9549 83.1798 43.1349L72.9698 49.0249C72.8198 49.1149 72.6398 49.1549 72.4698 49.1549ZM64.2598 42.2649L72.4698 47.0049L80.6798 42.2649L72.4698 37.5249L64.2598 42.2649Z" />
<path d="M92.8897 37.365C92.7197 37.365 92.5397 37.325 92.3897 37.235L82.1797 31.3451C81.8697 31.1651 81.6797 30.835 81.6797 30.475C81.6797 30.115 81.8697 29.785 82.1797 29.605L92.3897 23.7151C92.6997 23.5351 93.0797 23.5351 93.3897 23.7151L103.6 29.605C103.91 29.785 104.1 30.115 104.1 30.475C104.1 30.835 103.91 31.1651 103.6 31.3451L93.3897 37.235C93.2397 37.325 93.0597 37.365 92.8897 37.365ZM84.6797 30.475L92.8897 35.2151L101.1 30.475L92.8897 25.735L84.6797 30.475Z" />
<path d="M31.6299 49.1549C31.4599 49.1549 31.2799 49.1149 31.1299 49.0249L20.9199 43.1349C20.6099 42.9549 20.4199 42.6249 20.4199 42.2649C20.4199 41.9049 20.6099 41.5749 20.9199 41.3949L31.1299 35.4949C31.4399 35.3149 31.8199 35.3149 32.1299 35.4949L42.3399 41.3849C42.6499 41.5649 42.8399 41.8949 42.8399 42.2549C42.8399 42.6149 42.6499 42.9449 42.3399 43.1249L32.1299 49.0149C31.9799 49.1049 31.7999 49.1449 31.6299 49.1449V49.1549ZM23.4199 42.2549L31.6299 46.9949L39.8399 42.2549L31.6299 37.5149L23.4199 42.2549Z" />
<path d="M72.4698 108.095C72.2998 108.095 72.1198 108.055 71.9698 107.965L61.7598 102.075C61.4498 101.895 61.2598 101.565 61.2598 101.205V42.255C61.2598 41.895 61.4498 41.565 61.7598 41.385C62.0698 41.205 62.4498 41.205 62.7598 41.385L72.9698 47.275C73.2798 47.455 73.4698 47.785 73.4698 48.145V107.095C73.4698 107.455 73.2798 107.785 72.9698 107.965C72.8198 108.055 72.6398 108.095 72.4698 108.095ZM63.2598 100.625L71.4698 105.365V48.725L63.2598 43.985V100.625Z" />
<path d="M41.8398 55.0449C41.6698 55.0449 41.4898 55.0049 41.3398 54.9149C41.0298 54.7349 40.8398 54.4049 40.8398 54.0449V30.465C40.8398 30.105 41.0298 29.775 41.3398 29.595C41.6498 29.415 42.0298 29.415 42.3398 29.595L52.5499 35.4849C52.8599 35.6649 53.0499 35.9949 53.0499 36.3549V48.1449C53.0499 48.5049 52.8599 48.8349 52.5499 49.0149L42.3398 54.905C42.1898 54.995 42.0098 55.0349 41.8398 55.0349V55.0449ZM42.8398 32.1949V52.3049L51.0499 47.5649V36.9349L42.8398 32.1949Z" />
</svg>
