<svg width="105" height="120" viewBox="0 0 105 120" fill="none" xmlns="http://www.w3.org/2000/svg">
<path d="M20.92 90.2949L10.71 84.3949C10.4 84.2149 10.21 83.8849 10.21 83.5249V48.1649C10.21 47.8049 10.4 47.4749 10.71 47.2949C11.02 47.1149 11.4 47.1149 11.71 47.2949L21.92 53.1849C22.23 53.3649 22.42 53.6949 22.42 54.0549V77.6349C22.42 77.9949 22.23 78.3249 21.92 78.5049L13.21 83.5249L21.92 88.5549L20.92 90.2849V90.2949ZM12.21 49.9049V81.8049L20.42 77.0649V54.6449L12.21 49.9049V49.9049Z" />
<path d="M21.9193 88.5513L20.9199 90.2837L31.1324 96.1751L32.1318 94.4427L21.9193 88.5513Z" />
<path d="M32.1168 94.4241L31.1162 96.1558L41.3246 102.054L42.3252 100.323L32.1168 94.4241Z" />
<path d="M42.8398 65.845H40.8398V89.425H42.8398V65.845Z" />
<path d="M62.2598 90.425C62.0898 90.425 61.9098 90.385 61.7598 90.295C61.4498 90.115 61.2598 89.785 61.2598 89.425V65.8451C61.2598 65.4851 61.4498 65.1551 61.7598 64.9751L82.1798 53.185C82.4898 53.005 82.8698 53.005 83.1798 53.185C83.4898 53.365 83.6798 53.695 83.6798 54.055V77.635C83.6798 77.995 83.4898 78.3251 83.1798 78.5051L62.7598 90.295C62.6098 90.385 62.4298 90.425 62.2598 90.425ZM63.2598 66.425V87.695L81.6798 77.0651V55.795L63.2598 66.425Z" />
<path d="M41.8398 78.6349C41.2898 78.6349 40.8398 78.1849 40.8398 77.6349V65.845C40.8398 65.295 41.2898 64.845 41.8398 64.845C42.3898 64.845 42.8398 65.295 42.8398 65.845V77.6349C42.8398 78.1849 42.3898 78.6349 41.8398 78.6349Z" />
<path d="M51.5654 11.936L20.9248 29.605L21.9239 31.3376L52.5645 13.6686L51.5654 11.936Z" />
<path d="M11.7054 35.5064L10.7061 37.2388L20.9186 43.1302L21.918 41.3978L11.7054 35.5064Z" />
<path d="M31.6299 37.3751C31.4599 37.3751 31.2799 37.335 31.1299 37.245L20.9199 31.3451L21.9199 29.615L31.6299 35.2251L51.0499 24.015V12.805C51.0499 12.445 51.2399 12.115 51.5499 11.935C51.8599 11.755 52.2399 11.755 52.5499 11.935L62.7599 17.825L61.7599 19.555L53.0499 14.5351V24.5951C53.0499 24.9551 52.8599 25.285 52.5499 25.465L32.1299 37.2551C31.9799 37.3451 31.7999 37.385 31.6299 37.385V37.3751Z" />
<path d="M62.7506 17.8049L61.75 19.5366L71.9584 25.4352L72.959 23.7035L62.7506 17.8049Z" />
<path d="M21.9147 41.3833L20.9141 43.115L31.1224 49.0135L32.123 47.2818L21.9147 41.3833Z" />
<path d="M71.9733 35.5538L51.5586 47.3545L52.5595 49.086L72.9742 37.2853L71.9733 35.5538Z" />
<path d="M72.9642 23.7114L71.9648 25.4438L82.1773 31.3353L83.1767 29.6029L72.9642 23.7114Z" />
<path d="M32.1322 47.2901L31.1328 49.0225L41.3453 54.9139L42.3447 53.1815L32.1322 47.2901Z" />
<path d="M42.3297 53.1714L41.3291 54.9031L51.5375 60.8016L52.5381 59.0699L42.3297 53.1714Z" />
<path d="M52.0508 119.895C51.8808 119.895 51.7008 119.855 51.5508 119.765C51.2408 119.585 51.0508 119.255 51.0508 118.895V59.955C51.0508 59.595 51.2408 59.265 51.5508 59.085L102.601 29.605C102.911 29.425 103.291 29.425 103.601 29.605C103.911 29.785 104.101 30.115 104.101 30.475V89.425C104.101 89.785 103.911 90.115 103.601 90.295L52.5508 119.765C52.4008 119.855 52.2208 119.895 52.0508 119.895V119.895ZM53.0508 60.535V117.165L102.101 88.845V32.205L93.3907 37.235L53.0508 60.525V60.535ZM62.2607 102.215C62.0907 102.215 61.9107 102.175 61.7607 102.085C61.4507 101.905 61.2607 101.575 61.2607 101.215V65.845C61.2607 65.485 61.4507 65.155 61.7607 64.975L92.3907 47.295C92.7007 47.115 93.0807 47.115 93.3907 47.295C93.7007 47.475 93.8907 47.805 93.8907 48.165V83.535C93.8907 83.895 93.7007 84.225 93.3907 84.405L73.0807 96.125C73.0807 96.125 73.0108 96.175 72.9708 96.195L62.7607 102.085C62.6007 102.175 62.4307 102.215 62.2607 102.215ZM63.2607 66.425V99.485L71.8608 94.525C71.8608 94.525 71.9308 94.475 71.9708 94.455L91.8907 82.965V49.905L63.2607 66.435V66.425ZM72.4708 84.535C72.3008 84.535 72.1308 84.495 71.9708 84.405C71.6608 84.225 71.4708 83.895 71.4708 83.535C71.4708 83.165 71.6608 82.835 71.9708 82.655L82.1808 76.765C82.6608 76.485 83.2708 76.655 83.5508 77.135C83.6408 77.295 83.6808 77.465 83.6808 77.635C83.6808 77.985 83.5008 78.315 83.1808 78.505L72.9808 84.405C72.8308 84.495 72.6508 84.535 72.4808 84.535H72.4708Z" />
<path d="M31.1299 84.395L20.9199 78.5051C20.6099 78.3251 20.4199 77.995 20.4199 77.635V54.055C20.4199 53.695 20.6099 53.365 20.9199 53.185C21.2299 53.005 21.6099 53.005 21.9199 53.185L32.1299 59.085L31.1299 60.8151L22.4199 55.7851V77.055L32.1299 82.6551L31.1299 84.385V84.395Z" />
<path d="M41.8399 90.425C41.6699 90.425 41.4899 90.385 41.3399 90.295L31.1299 84.395L32.1299 82.6649L40.8399 87.6949V66.425L31.1299 60.825L32.1299 59.095L42.3399 64.985C42.6499 65.165 42.8399 65.4949 42.8399 65.8549V89.435C42.8399 89.795 42.6499 90.125 42.3399 90.305C42.1899 90.395 42.0099 90.435 41.8399 90.435V90.425Z" />
<path d="M10.71 96.185L0.5 90.295C0.19 90.115 0 89.785 0 89.425V30.475C0 30.115 0.19 29.785 0.5 29.605C0.81 29.425 1.19 29.425 1.5 29.605L11.71 35.505L10.71 37.235L2 32.205V88.845L11.71 94.445L10.71 96.175V96.185Z" />
<path d="M12.21 48.165H10.21V83.5251H12.21V48.165Z" />
<path d="M11.6998 94.4248L10.6992 96.1565L20.9076 102.055L21.9082 100.323L11.6998 94.4248Z" />
<path d="M11.7018 82.6362L10.7012 84.3679L20.9096 90.2665L21.9102 88.5348L11.7018 82.6362Z" />
<path d="M21.9213 100.333L20.9219 102.065L31.1344 107.957L32.1338 106.224L21.9213 100.333Z" />
<path d="M21.9193 88.5513L20.9199 90.2837L31.1324 96.1751L32.1318 94.4427L21.9193 88.5513Z" />
<path d="M82.6797 90.425C82.3297 90.425 81.9997 90.245 81.8097 89.925C81.7197 89.765 81.6797 89.595 81.6797 89.425C81.6797 89.075 81.8597 88.745 82.1797 88.555L92.3896 82.665C92.8696 82.385 93.4796 82.555 93.7596 83.035C93.8496 83.195 93.8896 83.365 93.8896 83.535C93.8896 83.885 93.7096 84.215 93.3896 84.405L83.1797 90.295C83.0197 90.385 82.8497 90.425 82.6797 90.425Z" />
<path d="M72.4808 96.3249C72.2608 96.3249 72.0508 96.2549 71.8708 96.1149C71.7708 96.0349 71.6808 95.9349 71.6108 95.8249C71.5708 95.7549 71.5408 95.6849 71.5208 95.6149C71.4108 95.2549 71.5208 94.8549 71.7908 94.5949C71.8408 94.5349 71.9108 94.4949 71.9708 94.4549L82.1808 88.5549C82.6608 88.2749 83.2708 88.4449 83.5508 88.9249C83.8308 89.4049 83.6608 90.0149 83.1808 90.2949L72.9708 96.1849H72.9507V96.2049L72.9008 96.2249H72.8807L72.8608 96.2449H72.8307V96.2649H72.8207C72.7007 96.3049 72.5808 96.3349 72.4608 96.3349L72.4808 96.3249Z" />
<path d="M62.2598 102.215C61.9098 102.215 61.5798 102.035 61.3898 101.715C61.2998 101.555 61.2598 101.385 61.2598 101.215C61.2598 100.865 61.4398 100.535 61.7598 100.345L71.9698 94.455C72.4498 94.175 73.0598 94.345 73.3398 94.825C73.4298 94.985 73.4698 95.155 73.4698 95.325C73.4698 95.675 73.2898 96.005 72.9698 96.195L62.7598 102.085C62.5998 102.175 62.4298 102.215 62.2598 102.215Z" />
<path d="M52.0499 119.895C51.8799 119.895 51.6999 119.855 51.5499 119.765L41.3398 113.875L42.3398 112.145L51.0499 117.165V60.5349L41.3398 54.9248L42.3398 53.1948L52.5499 59.0948C52.8599 59.2748 53.0499 59.6048 53.0499 59.9648V118.905C53.0499 119.265 52.8599 119.595 52.5499 119.775C52.3999 119.865 52.2199 119.905 52.0499 119.905V119.895Z" />
<path d="M11.7054 35.5064L10.7061 37.2388L20.9186 43.1302L21.918 41.3978L11.7054 35.5064Z" />
<path d="M42.84 101.215H40.84V66.4249L10.71 49.0349L11.71 47.3049L42.34 64.9849C42.65 65.1649 42.84 65.4949 42.84 65.8549V101.225V101.215Z" />
<path d="M32.1168 94.4241L31.1162 96.1558L41.3246 102.054L42.3252 100.323L32.1168 94.4241Z" />
<path d="M32.1256 106.213L31.125 107.944L41.3334 113.843L42.334 112.111L32.1256 106.213Z" />
<path d="M21.916 41.3927L20.916 43.1248L41.3369 54.9147L42.3369 53.1827L21.916 41.3927Z" />
<path d="M92.8896 84.5349C92.7196 84.5349 92.5396 84.4949 92.3896 84.4049L82.1797 78.5149C81.8697 78.3349 81.6797 78.0049 81.6797 77.6449V54.0649C81.6797 53.7049 81.8697 53.3749 82.1797 53.1949L92.3896 47.3049C92.6996 47.1249 93.0796 47.1249 93.3896 47.3049C93.6996 47.4849 93.8896 47.8149 93.8896 48.1749V83.5449C93.8896 83.9049 93.6996 84.2349 93.3896 84.4149C93.2396 84.5049 93.0596 84.5449 92.8896 84.5449V84.5349ZM83.6797 77.0649L91.8896 81.8049V49.9049L83.6797 54.6449V77.0649V77.0649Z" />
<path d="M62.2599 43.2648C61.9099 43.2648 61.5799 43.0848 61.3899 42.7648C61.3799 42.7448 61.3699 42.7248 61.3599 42.7048C61.2299 42.4348 61.2299 42.1248 61.3399 41.8648V41.8448C61.4199 41.6548 61.5599 41.5048 61.7499 41.3948L71.9599 35.5049C72.4399 35.2249 73.0499 35.3948 73.3299 35.8748C73.6099 36.3548 73.4399 36.9648 72.9599 37.2448L62.7499 43.1348C62.5899 43.2248 62.4199 43.2648 62.2499 43.2648H62.2599Z" />
<path d="M52.0503 49.165C52.0503 49.165 51.9503 49.165 51.9003 49.155C51.6503 49.115 51.4203 48.985 51.2703 48.775C51.2403 48.735 51.2203 48.705 51.1903 48.665C51.1703 48.635 51.1603 48.605 51.1403 48.575C50.9303 48.105 51.1103 47.555 51.5503 47.295L61.7603 41.395C62.2403 41.115 62.8503 41.285 63.1303 41.765C63.4103 42.245 63.2403 42.855 62.7603 43.135L52.5503 49.025C52.3903 49.115 52.2203 49.155 52.0503 49.155V49.165Z" />
<path d="M41.8402 19.685C41.4902 19.685 41.1602 19.505 40.9702 19.185C40.6902 18.705 40.8602 18.095 41.3402 17.815L51.5502 11.915C52.0302 11.635 52.6402 11.805 52.9202 12.285C53.0102 12.445 53.0502 12.615 53.0502 12.775C53.0502 13.115 52.8902 13.435 52.5802 13.625L52.5502 13.645L42.3402 19.545C42.1802 19.635 42.0102 19.675 41.8402 19.675V19.685Z" />
<path d="M31.64 25.5849C31.29 25.5849 30.96 25.4049 30.77 25.0849C30.49 24.6049 30.66 23.9949 31.14 23.7149L41.35 17.8249C41.83 17.5449 42.44 17.7149 42.72 18.1949C42.81 18.3549 42.86 18.5349 42.85 18.7149C42.85 19.0449 42.68 19.3549 42.38 19.5449L42.35 19.5649L32.14 25.4549C31.98 25.5449 31.81 25.5849 31.64 25.5849V25.5849Z" />
<path d="M21.43 31.4751C21.08 31.4751 20.75 31.2951 20.56 30.9751C20.28 30.4951 20.45 29.885 20.93 29.605L31.14 23.705C31.62 23.425 32.23 23.595 32.51 24.075C32.61 24.245 32.65 24.4351 32.64 24.6151C32.63 24.9351 32.46 25.245 32.17 25.425L32.14 25.445L21.93 31.3351C21.77 31.4251 21.6 31.4651 21.43 31.4651V31.4751Z" />
<path d="M61.7607 31.3451L51.5508 25.455C51.2408 25.275 51.0508 24.945 51.0508 24.585V12.795C51.0508 12.435 51.2408 12.105 51.5508 11.925C51.8608 11.745 52.2408 11.745 52.5508 11.925L62.7607 17.8151L61.7607 19.545L53.0508 14.525V24.0051L62.7607 29.605L61.7607 31.335V31.3451Z" />
<path d="M62.7506 17.8049L61.75 19.5366L71.9584 25.4352L72.959 23.7035L62.7506 17.8049Z" />
<path d="M62.7487 29.5935L61.748 31.3252L71.9564 37.2238L72.957 35.4921L62.7487 29.5935Z" />
<path d="M72.9707 37.2449L71.9707 35.5149L80.6807 30.4849L71.9707 25.4649L72.9707 23.7349L83.1807 29.6249C83.4907 29.8049 83.6807 30.1349 83.6807 30.4949C83.6807 30.8549 83.4907 31.1849 83.1807 31.3649L72.9707 37.2649V37.2449Z" />
<path d="M82.6799 43.2648C82.3299 43.2648 81.9999 43.0848 81.8099 42.7648C81.7999 42.7448 81.7899 42.7248 81.7799 42.7048C81.6499 42.4348 81.6498 42.1248 81.7598 41.8648V41.8448C81.8398 41.6548 81.9799 41.5048 82.1699 41.3948L92.3798 35.5049C92.8598 35.2249 93.4699 35.3948 93.7499 35.8748C94.0299 36.3548 93.8598 36.9648 93.3798 37.2448L83.1699 43.1348C83.0099 43.2248 82.8399 43.2648 82.6699 43.2648H82.6799Z" />
<path d="M72.4808 49.165C72.2608 49.165 72.0508 49.095 71.8708 48.955C71.7708 48.875 71.6808 48.775 71.6108 48.665C71.5708 48.595 71.5408 48.525 71.5208 48.455C71.4108 48.095 71.5208 47.695 71.7908 47.435C71.8408 47.375 71.9108 47.335 71.9708 47.295L82.1808 41.395C82.6608 41.115 83.2708 41.285 83.5508 41.765C83.8308 42.245 83.6608 42.855 83.1808 43.135L72.9708 49.025H72.9507V49.045L72.9008 49.065H72.8807L72.8608 49.085H72.8307V49.105H72.8207C72.7007 49.145 72.5808 49.175 72.4608 49.175L72.4808 49.165Z" />
<path d="M62.2598 55.0549C61.9098 55.0549 61.5798 54.8749 61.3898 54.5549C61.2998 54.3949 61.2598 54.2249 61.2598 54.0549C61.2598 53.7049 61.4398 53.3749 61.7598 53.1849L71.9698 47.2949C72.4498 47.0149 73.0598 47.1849 73.3398 47.6649C73.4298 47.8249 73.4698 47.9949 73.4698 48.1649C73.4698 48.5149 73.2898 48.8449 72.9698 49.0349L62.7598 54.9249C62.5998 55.0149 62.4298 55.0549 62.2598 55.0549Z" />
<path d="M52.0597 60.955C51.7097 60.955 51.3797 60.775 51.1897 60.455C51.1697 60.425 51.1597 60.3951 51.1397 60.3651C50.9597 59.9751 51.0597 59.5051 51.3797 59.2251C51.4297 59.1751 51.4897 59.1351 51.5597 59.0951L61.7697 53.205C62.2497 52.925 62.8597 53.095 63.1397 53.575C63.4197 54.055 63.2497 54.665 62.7697 54.945L52.5597 60.8351C52.3997 60.9251 52.2297 60.9651 52.0597 60.9651V60.955Z" />
<path d="M20.92 90.2949L10.71 84.3949C10.4 84.2149 10.21 83.8849 10.21 83.5249C10.21 83.1649 10.4 82.8349 10.71 82.6549L20.92 76.7649C21.23 76.5849 21.61 76.5849 21.92 76.7649L32.1299 82.6549L31.1299 84.3849L21.42 78.7849L13.21 83.5249L21.92 88.5549L20.92 90.2849V90.2949Z" />
<path d="M21.9193 88.5513L20.9199 90.2837L31.1324 96.1751L32.1318 94.4427L21.9193 88.5513Z" />
<path d="M32.1178 82.6355L31.1172 84.3672L41.3256 90.2658L42.3262 88.5341L32.1178 82.6355Z" />
<path d="M41.8399 102.215C41.6699 102.215 41.4899 102.175 41.3399 102.085L31.1299 96.1851L32.1299 94.455L40.8399 99.485V89.425H42.8399V101.215C42.8399 101.575 42.6499 101.905 42.3399 102.085C42.1899 102.175 42.0099 102.215 41.8399 102.215Z" />
<path d="M62.2598 102.215C62.0898 102.215 61.9098 102.175 61.7598 102.085C61.4498 101.905 61.2598 101.575 61.2598 101.215V89.4249C61.2598 89.0649 61.4498 88.7349 61.7598 88.5549L82.1798 76.7649C82.4898 76.5849 82.8698 76.5849 83.1798 76.7649L93.3898 82.6549C93.6998 82.8349 93.8898 83.1649 93.8898 83.5249C93.8898 83.8849 93.6998 84.2149 93.3898 84.3949L62.7598 102.075C62.6098 102.165 62.4298 102.205 62.2598 102.205V102.215ZM63.2598 90.0049V99.4849L90.8898 83.5349L82.6798 78.7949L72.9698 84.4049L63.2598 90.0149V90.0049Z" />
<path d="M51.5654 11.936L20.9248 29.605L21.9239 31.3376L52.5645 13.6686L51.5654 11.936Z" />
<path d="M10.71 37.245L0.5 31.345C0.19 31.165 0 30.835 0 30.475C0 30.115 0.19 29.785 0.5 29.605L51.55 0.135C51.86 -0.045 52.24 -0.045 52.55 0.135L62.76 6.02501L61.76 7.75503L52.05 2.15502L3 30.475L11.71 35.505L10.71 37.235V37.245Z" />
<path d="M62.7526 6.00634L61.752 7.73804L71.9603 13.6366L72.9609 11.9049L62.7526 6.00634Z" />
<path d="M52.5482 11.918L51.5488 13.6504L61.7613 19.5418L62.7607 17.8094L52.5482 11.918Z" />
<path d="M72.9623 11.9202L71.9629 13.6526L82.1754 19.544L83.1748 17.8116L72.9623 11.9202Z" />
<path d="M62.7506 17.8049L61.75 19.5366L71.9584 25.4352L72.959 23.7035L62.7506 17.8049Z" />
<path d="M83.1666 17.8042L82.166 19.5359L92.3744 25.4345L93.375 23.7028L83.1666 17.8042Z" />
<path d="M72.9642 23.7114L71.9648 25.4438L82.1773 31.3353L83.1767 29.6029L72.9642 23.7114Z" />
<path d="M11.7109 35.4999L10.7109 37.2319L31.1318 49.0219L32.1318 47.2899L11.7109 35.4999Z" />
<path d="M21.916 29.6078L20.916 31.3398L41.3369 43.1298L42.3369 41.3978L21.916 29.6078Z" />
<path d="M82.1806 29.6549L51.5586 47.356L52.5595 49.0875L83.1816 31.3865L82.1806 29.6549Z" />
<path d="M52.0499 60.9549C51.8799 60.9549 51.6999 60.9049 51.5499 60.8249L41.3398 54.9249L42.3398 53.1949L52.0499 58.8049L101.1 30.4849L92.3898 25.4649L93.3898 23.7349L103.6 29.6249C103.91 29.8049 104.1 30.1349 104.1 30.4949C104.1 30.8549 103.91 31.1849 103.6 31.3649L52.5499 60.8449C52.3999 60.9349 52.2199 60.9749 52.0499 60.9749V60.9549Z" />
<path d="M41.3399 43.1351L31.1299 37.2451C30.8199 37.0651 30.6299 36.7351 30.6299 36.3751C30.6299 36.0151 30.8199 35.6851 31.1299 35.5051L51.5499 23.7151C51.8599 23.5351 52.2399 23.5351 52.5499 23.7151L62.7599 29.6051L61.7599 31.3351L52.0499 25.7351L33.6299 36.3751L42.3399 41.3951L41.3399 43.1251V43.1351Z" />
<path d="M52.0499 49.165C51.8799 49.165 51.6999 49.125 51.5499 49.035L41.3398 43.135L42.3398 41.405L52.0499 47.015L70.4698 36.375L61.7598 31.345L62.7598 29.615L72.9698 35.515C73.2798 35.695 73.4698 36.025 73.4698 36.385C73.4698 36.745 73.2798 37.075 72.9698 37.255L52.5499 49.045C52.3999 49.135 52.2199 49.175 52.0499 49.175V49.165Z" />
</svg>
