<svg width="105" height="120" viewBox="0 0 105 120" fill="none" xmlns="http://www.w3.org/2000/svg">
<path d="M52.0498 84.5351C51.8798 84.5351 51.7098 84.4951 51.5498 84.4051L41.3398 78.5151C41.0198 78.3251 40.8398 77.9951 40.8398 77.6451C40.8398 77.4751 40.8798 77.3051 40.9698 77.1451C41.2498 76.6651 41.8598 76.5051 42.3398 76.7751L52.5498 82.6651C52.8698 82.8551 53.0498 83.1851 53.0498 83.5351C53.0498 83.7051 53.0098 83.8751 52.9198 84.0351C52.7298 84.3551 52.3998 84.5351 52.0498 84.5351Z" />
<path d="M21.4204 66.8451C21.2504 66.8451 21.0804 66.8051 20.9204 66.7151L10.7105 60.8251C10.4205 60.6551 10.2405 60.3651 10.2105 60.0551V60.0351C10.2005 59.8351 10.2405 59.6351 10.3405 59.4551C10.3605 59.4151 10.3904 59.3751 10.4204 59.3351C10.6004 59.1151 10.8504 58.9751 11.1204 58.9551C11.3104 58.9451 11.5205 58.9851 11.7005 59.0851L21.9105 64.9751C22.2305 65.1651 22.4105 65.4951 22.4105 65.8451C22.4105 66.0151 22.3705 66.1851 22.2805 66.3451C22.0905 66.6651 21.7605 66.8451 21.4105 66.8451H21.4204Z" />
<path d="M82.6802 66.8551C82.5102 66.8551 82.3402 66.8151 82.1802 66.7251L71.9702 60.8351C71.8802 60.7851 71.8001 60.7151 71.7301 60.6351H71.7202V60.6151C71.6202 60.4951 71.5502 60.3551 71.5102 60.2151V60.1951C71.4602 59.9451 71.4902 59.6951 71.6202 59.4651C71.6902 59.3551 71.7702 59.2551 71.8702 59.1751C72.1802 58.9251 72.6201 58.8851 72.9801 59.0951L83.1902 64.9851C83.5102 65.1751 83.6902 65.5051 83.6902 65.8551C83.6902 66.0251 83.6502 66.1951 83.5602 66.3551C83.3702 66.6751 83.0402 66.8551 82.6902 66.8551H82.6802Z" />
<path d="M11.7074 70.8694L10.708 72.6018L20.9205 78.4932L21.9199 76.7608L11.7074 70.8694Z" />
<path d="M31.6406 84.5351C31.2906 84.5351 30.9606 84.3551 30.7706 84.0351C30.6806 83.8751 30.6406 83.7051 30.6406 83.5451C30.6406 83.2151 30.8006 82.8851 31.1006 82.6951L31.1206 82.6751L41.3306 76.7751C41.8106 76.4951 42.4206 76.6651 42.7006 77.1451C42.9806 77.6251 42.8106 78.2351 42.3306 78.5151L32.1206 84.4051C31.9606 84.4951 31.7906 84.5351 31.6206 84.5351H31.6406Z" />
<path d="M21.4297 102.215C21.2597 102.215 21.0797 102.175 20.9297 102.085C20.6197 101.905 20.4297 101.575 20.4297 101.215V77.635C20.4297 77.275 20.6197 76.945 20.9297 76.765L31.1397 70.875C31.4497 70.695 31.8297 70.695 32.1397 70.875L42.3497 76.765C42.6597 76.945 42.8497 77.275 42.8497 77.635C42.8497 77.995 42.6597 78.325 42.3497 78.505L32.6397 84.105V95.315C32.6397 95.675 32.4497 96.005 32.1397 96.185L21.9297 102.075C21.7797 102.165 21.5997 102.205 21.4297 102.205V102.215ZM22.4297 78.215V99.485L30.6397 94.745V83.535C30.6397 83.175 30.8297 82.845 31.1397 82.665L39.8497 77.635L31.6397 72.895L22.4297 78.215V78.215Z" />
<path d="M42.3229 88.5356L41.3223 90.2673L51.5306 96.1659L52.5312 94.4342L42.3229 88.5356Z" />
<path d="M52.0498 84.5352C51.8798 84.5352 51.7098 84.4952 51.5498 84.4052C51.2398 84.2252 51.0498 83.8952 51.0498 83.5352V59.9552C51.0498 59.5952 51.2398 59.2652 51.5498 59.0852L71.9698 47.2952C72.2798 47.1152 72.6598 47.1152 72.9698 47.2952C73.2798 47.4752 73.4698 47.8052 73.4698 48.1652V71.1652L83.1798 76.7652L82.1798 78.4952L72.4698 72.8952L52.5498 84.3952C52.3998 84.4852 52.2198 84.5252 52.0498 84.5252V84.5352ZM53.0498 60.5352V81.8052L71.4698 71.1752V49.9052L53.0498 60.5352Z" />
<path d="M82.6904 102.215C82.5204 102.215 82.3404 102.175 82.1904 102.085C81.8804 101.905 81.6904 101.575 81.6904 101.215V77.6351C81.6904 77.2751 81.8804 76.9451 82.1904 76.7651L102.61 64.9751C102.92 64.7951 103.3 64.7951 103.61 64.9751C103.92 65.1551 104.11 65.4851 104.11 65.8451V89.4251C104.11 89.7851 103.92 90.1151 103.61 90.2951L83.1904 102.085C83.0404 102.175 82.8604 102.215 82.6904 102.215ZM83.6904 78.2151V99.4851L102.11 88.8551V67.5851L93.4005 72.6151L83.6904 78.2251V78.2151Z" />
<path d="M52.0605 119.905C51.8905 119.905 51.7105 119.865 51.5605 119.775C51.2505 119.595 51.0605 119.265 51.0605 118.905V95.325C51.0605 94.965 51.2505 94.635 51.5605 94.455L71.9805 82.665C72.2905 82.485 72.6705 82.485 72.9805 82.665C73.2905 82.845 73.4805 83.175 73.4805 83.535V107.115C73.4805 107.475 73.2905 107.805 72.9805 107.985L52.5605 119.775C52.4105 119.865 52.2305 119.905 52.0605 119.905V119.905ZM53.0605 95.905V117.175L71.4805 106.545V85.275L53.0605 95.905V95.905Z" />
<path d="M31.64 37.375C31.29 37.375 30.96 37.195 30.77 36.875C30.49 36.395 30.66 35.785 31.14 35.505L41.3499 29.615C41.8299 29.335 42.44 29.505 42.72 29.985C42.81 30.145 42.8499 30.315 42.8499 30.475C42.8499 30.805 42.69 31.135 42.39 31.325L42.37 31.345L32.16 37.245C32 37.335 31.83 37.375 31.66 37.375H31.64Z" />
<path d="M11.6949 35.4956L10.6943 37.2273L20.9027 43.1259L21.9033 41.3942L11.6949 35.4956Z" />
<path d="M62.2695 31.4851C61.9195 31.4851 61.5895 31.3051 61.3995 30.9851C61.3095 30.8251 61.2695 30.6551 61.2695 30.4951C61.2695 30.1551 61.4395 29.8351 61.7395 29.6451H61.7595V29.6251L71.9695 23.7251C72.4495 23.4451 73.0595 23.6151 73.3395 24.0951C73.6195 24.5751 73.4495 25.1851 72.9695 25.4651L62.7595 31.3551C62.5995 31.4451 62.4295 31.4851 62.2595 31.4851H62.2695Z" />
<path d="M31.6406 49.165C31.2906 49.165 30.9606 48.985 30.7706 48.665C30.6806 48.505 30.6406 48.335 30.6406 48.175C30.6406 47.835 30.8106 47.515 31.1106 47.325L31.1306 47.305L41.3406 41.415C41.8206 41.135 42.4306 41.305 42.7106 41.785C42.9906 42.265 42.8206 42.875 42.3406 43.155L32.1306 49.045C31.9706 49.135 31.8006 49.175 31.6306 49.175L31.6406 49.165Z" />
<path d="M21.4297 66.845C21.2597 66.845 21.0797 66.805 20.9297 66.715C20.6197 66.535 20.4297 66.205 20.4297 65.845V42.265C20.4297 41.905 20.6197 41.575 20.9297 41.395L41.3497 29.605C41.6597 29.425 42.0397 29.425 42.3497 29.605C42.6597 29.785 42.8497 30.115 42.8497 30.475V42.265C42.8497 42.625 42.6597 42.955 42.3497 43.135L32.6397 48.735V59.945C32.6397 60.305 32.4497 60.635 32.1397 60.815L21.9297 66.705C21.7797 66.795 21.5997 66.835 21.4297 66.835V66.845ZM22.4297 42.845V64.115L30.6397 59.375V48.165C30.6397 47.805 30.8297 47.475 31.1397 47.295L40.8497 41.685V32.205L22.4297 42.835V42.845Z" />
<path d="M42.3588 53.2132L41.3594 54.9456L51.5719 60.837L52.5713 59.1046L42.3588 53.2132Z" />
<path d="M42.3412 17.8189L41.3418 19.5513L51.5543 25.4427L52.5537 23.7103L42.3412 17.8189Z" />
<path d="M62.2706 43.2751C62.1006 43.2751 61.9206 43.2351 61.7706 43.1451L51.5605 37.2551C51.2505 37.0751 51.0605 36.7451 51.0605 36.3851V24.5951C51.0605 24.2351 51.2505 23.9051 51.5605 23.7251L71.9805 11.935C72.2905 11.755 72.6705 11.755 72.9805 11.935C73.2905 12.115 73.4805 12.4451 73.4805 12.8051V24.5951C73.4805 24.9551 73.2905 25.285 72.9805 25.465L63.2706 31.0651V42.2751C63.2706 42.6351 63.0806 42.9651 62.7706 43.1451C62.6206 43.2351 62.4406 43.2751 62.2706 43.2751V43.2751ZM53.0605 35.8051L61.2706 40.545V30.4851C61.2706 30.1251 61.4606 29.7951 61.7706 29.6151L71.4805 24.0051V14.5251L53.0605 25.1551V35.7851V35.8051Z" />
<path d="M72.9537 35.4936L71.9531 37.2253L82.1615 43.1239L83.1621 41.3922L72.9537 35.4936Z" />
<path d="M82.6904 66.855C82.5204 66.855 82.3404 66.815 82.1904 66.725C81.8804 66.545 81.6904 66.215 81.6904 65.855V42.275C81.6904 41.915 81.8804 41.585 82.1904 41.405L102.61 29.615C102.92 29.435 103.3 29.435 103.61 29.615C103.92 29.795 104.11 30.125 104.11 30.485V54.065C104.11 54.425 103.92 54.755 103.61 54.935L83.1904 66.725C83.0404 66.815 82.8604 66.855 82.6904 66.855V66.855ZM83.6904 42.855V64.125L102.11 53.495V32.225L83.6904 42.855Z" />
<path d="M82.6797 102.215C82.5097 102.215 82.3397 102.175 82.1797 102.085L71.9697 96.195C71.6597 96.015 71.4697 95.685 71.4697 95.325V83.535H73.4697V94.745L81.6797 99.485V78.215L71.9697 72.615L72.9697 70.885L83.1797 76.775C83.4897 76.955 83.6797 77.285 83.6797 77.645V101.225C83.6797 101.585 83.4897 101.915 83.1797 102.095C83.0297 102.185 82.8497 102.225 82.6797 102.225V102.215Z" />
<path d="M71.9698 84.405L61.7598 78.505C61.4498 78.325 61.2598 77.995 61.2598 77.635C61.2598 77.275 61.4498 76.945 61.7598 76.765L71.9698 70.875L72.9698 72.605L64.2598 77.625L72.9698 82.655L71.9698 84.385V84.405Z" />
<path d="M41.8398 43.275C41.6698 43.275 41.4998 43.235 41.3398 43.145C41.0298 42.965 40.8398 42.635 40.8398 42.275V30.485H42.8398V40.545L51.0498 35.805V25.165L41.3398 19.565L42.3398 17.835L52.5498 23.725C52.8598 23.905 53.0498 24.235 53.0498 24.595V36.385C53.0498 36.745 52.8598 37.075 52.5498 37.255L42.3398 43.155C42.1898 43.245 42.0098 43.285 41.8398 43.285V43.275Z" />
<path d="M41.3399 31.355L31.1299 25.455C30.8199 25.275 30.6299 24.945 30.6299 24.585V12.795C30.6299 12.435 30.8199 12.105 31.1299 11.925C31.4399 11.745 31.8199 11.745 32.1299 11.925L42.3399 17.825L41.3399 19.555L32.6299 14.525V24.005L42.3399 29.615L41.3399 31.345V31.355Z" />
<path d="M82.69 78.635C82.52 78.635 82.34 78.5949 82.19 78.5049L71.98 72.6049C71.65 72.4149 71.46 72.0549 71.48 71.6749V59.945C71.48 59.585 71.67 59.2549 71.98 59.0749C72.29 58.8949 72.67 58.8949 72.98 59.0749L82.69 64.6849L92.4 59.0749C92.71 58.8949 93.09 58.8949 93.4 59.0749L103.61 64.9649C103.92 65.1449 104.11 65.475 104.11 65.835C104.11 66.195 103.92 66.5249 103.61 66.7049L83.19 78.495C83.04 78.585 82.86 78.6249 82.69 78.6249V78.635ZM73.48 71.165L82.69 76.4849L101.11 65.8549L92.9 61.1149L83.19 66.725C82.88 66.905 82.5 66.905 82.19 66.725L73.48 61.695V71.1749V71.165Z" />
<path d="M10.71 96.1951L0.5 90.2951C0.19 90.1151 0 89.7851 0 89.4251V65.8451C0 65.4851 0.19 65.1551 0.5 64.9751C0.81 64.7951 1.19 64.7951 1.5 64.9751L11.72 70.8751L10.7 72.5951L8.07001 71.0751L2 67.5751V88.8451L11.71 94.4551L10.71 96.1851V96.1951Z" />
<path d="M21.4199 102.215C21.2499 102.215 21.0799 102.175 20.9199 102.085L10.71 96.195L11.71 94.465L20.4199 99.485V78.215L10.71 72.615L11.71 70.885L21.9199 76.775C22.2299 76.955 22.4199 77.285 22.4199 77.645V101.225C22.4199 101.585 22.2299 101.915 21.9199 102.095C21.7699 102.185 21.5899 102.225 21.4199 102.225V102.215Z" />
<path d="M41.3399 113.875L31.1299 107.985C30.8199 107.805 30.6299 107.475 30.6299 107.115V83.535C30.6299 83.175 30.8199 82.845 31.1299 82.665C31.4399 82.485 31.8199 82.485 32.1299 82.665L42.3399 88.555L41.3399 90.285L32.6299 85.265V106.535L42.3399 112.135L41.3399 113.865V113.875Z" />
<path d="M52.0498 119.905C51.8798 119.905 51.6998 119.865 51.5498 119.775L41.3398 113.875L42.3398 112.145L51.0498 117.175V95.9049L41.3398 90.2949L42.3398 88.5649L52.5498 94.4649C52.8598 94.6449 53.0498 94.9749 53.0498 95.3349V118.915C53.0498 119.275 52.8598 119.605 52.5498 119.785C52.3898 119.875 52.2198 119.915 52.0498 119.915V119.905Z" />
<path d="M52.0499 84.5352C51.8799 84.5352 51.6999 84.4952 51.5499 84.4052L31.1299 72.6152C30.8199 72.4352 30.6299 72.1052 30.6299 71.7452V48.1652C30.6299 47.8052 30.8199 47.4752 31.1299 47.2952C31.4399 47.1152 31.8199 47.1152 32.1299 47.2952L52.5499 59.0852C52.8599 59.2652 53.0499 59.5952 53.0499 59.9552V83.5352C53.0499 83.8952 52.8599 84.2252 52.5499 84.4052C52.3899 84.4952 52.2199 84.5352 52.0499 84.5352ZM32.6299 71.1652L51.0499 81.7952V60.5252L32.6299 49.8952V71.1652Z" />
<path d="M21.43 78.635C21.08 78.635 20.75 78.455 20.56 78.135C20.28 77.655 20.45 77.045 20.93 76.765L22.7801 75.695C23.2601 75.415 23.8701 75.585 24.1501 76.065C24.4301 76.545 24.2601 77.155 23.7801 77.435L21.93 78.505C21.77 78.595 21.6 78.635 21.43 78.635Z" />
<path d="M82.6898 78.6351C82.3398 78.6351 82.0098 78.4551 81.8198 78.1351C81.5398 77.6551 81.7098 77.0451 82.1898 76.7651L92.3998 70.8751C92.5598 70.7851 92.7298 70.7451 92.8998 70.7451C93.2498 70.7451 93.5798 70.9251 93.7698 71.2451C94.0398 71.7151 93.8898 72.3151 93.4298 72.5951L93.3998 72.6151L83.1898 78.5051C83.0298 78.5951 82.8598 78.6351 82.6898 78.6351Z" />
<path d="M52.0599 96.3251C51.7099 96.3251 51.3799 96.1451 51.1899 95.8251C50.9099 95.3451 51.0799 94.7352 51.5599 94.4552L61.7699 88.5652C62.2499 88.2852 62.8599 88.4551 63.1399 88.9351C63.4199 89.4151 63.2499 90.0252 62.7699 90.3052L52.5599 96.1952C52.3999 96.2852 52.2299 96.3251 52.0599 96.3251Z" />
<path d="M21.42 66.845C21.25 66.845 21.08 66.805 20.92 66.715L0.5 54.925C0.19 54.745 0 54.415 0 54.055V30.485C0 30.125 0.19 29.795 0.5 29.615C0.81 29.435 1.19 29.435 1.5 29.615L21.92 41.405C22.23 41.585 22.42 41.915 22.42 42.275V65.845C22.42 66.205 22.23 66.535 21.92 66.715C21.77 66.805 21.59 66.845 21.42 66.845ZM2 53.475L20.42 64.115V42.855L2 32.215V53.475V53.475Z" />
<path d="M62.2695 43.275C61.7195 43.275 61.2695 42.825 61.2695 42.275V30.485C61.2695 30.125 61.4595 29.795 61.7695 29.615C62.0795 29.435 62.4595 29.435 62.7695 29.615L72.9795 35.515C73.4595 35.795 73.6195 36.405 73.3495 36.885C73.0695 37.365 72.4595 37.525 71.9795 37.255L63.2695 32.225V42.285C63.2695 42.835 62.8195 43.285 62.2695 43.285V43.275Z" />
<path d="M52.0599 25.5852C51.7099 25.5852 51.3799 25.4052 51.1899 25.0852C50.9099 24.6052 51.0799 23.9951 51.5599 23.7151L61.7699 17.8152C62.2499 17.5352 62.8599 17.7051 63.1399 18.1851C63.2299 18.3451 63.2699 18.5152 63.2699 18.6752C63.2699 19.0152 63.0999 19.3352 62.7999 19.5252L62.7699 19.5452L52.5599 25.4452C52.3999 25.5352 52.2299 25.5751 52.0599 25.5751V25.5852Z" />
<path d="M21.43 43.2751C21.08 43.2751 20.75 43.0951 20.56 42.7751C20.28 42.2951 20.45 41.6851 20.93 41.4051L31.14 35.5051C31.62 35.2251 32.23 35.3951 32.51 35.8751C32.6 36.0351 32.64 36.2051 32.64 36.3651C32.64 36.7051 32.47 37.0251 32.17 37.2151L32.14 37.2351L21.93 43.1351C21.77 43.2251 21.6 43.2651 21.43 43.2651V43.2751Z" />
<path d="M82.6904 43.2751C82.3404 43.2751 82.0104 43.0951 81.8204 42.7751C81.7304 42.6151 81.6904 42.4451 81.6904 42.2751C81.6904 41.9251 81.8704 41.5951 82.1904 41.4051L92.4005 35.5151C92.8805 35.2351 93.4904 35.4051 93.7704 35.8851C93.8604 36.0451 93.9005 36.2151 93.9005 36.3851C93.9005 36.7351 93.7205 37.0651 93.4005 37.2551L83.1904 43.1451C83.0304 43.2351 82.8604 43.2751 82.6904 43.2751Z" />
<path d="M52.0605 60.955C51.7105 60.955 51.3806 60.775 51.1906 60.455C51.1006 60.295 51.0605 60.125 51.0605 59.955C51.0605 59.605 51.2405 59.275 51.5605 59.085L61.7706 53.195C62.2506 52.915 62.8606 53.085 63.1406 53.565C63.2306 53.725 63.2706 53.895 63.2706 54.065C63.2706 54.415 63.0906 54.745 62.7706 54.935L52.5605 60.825C52.4005 60.915 52.2305 60.955 52.0605 60.955Z" />
<path d="M31.64 84.5351C31.29 84.5351 30.96 84.3551 30.77 84.0351C30.49 83.5551 30.66 82.9451 31.14 82.6651L41.3499 76.7751C41.6499 76.5951 42.01 76.6051 42.31 76.7551C42.48 76.8351 42.62 76.9751 42.72 77.1451C43 77.6251 42.8299 78.2351 42.3499 78.5151L32.14 84.4051C31.98 84.4951 31.81 84.5351 31.64 84.5351V84.5351Z" />
<path d="M72.4698 84.5351C72.2998 84.5351 72.1298 84.4951 71.9698 84.4051L61.7598 78.5151C61.4398 78.3251 61.2598 77.9951 61.2598 77.6451C61.2598 77.4751 61.2998 77.3051 61.3898 77.1451C61.6698 76.6651 62.2798 76.5051 62.7598 76.7751L72.9698 82.6651C73.2898 82.8551 73.4698 83.1851 73.4698 83.5351C73.4698 83.7051 73.4298 83.8751 73.3398 84.0351C73.1498 84.3551 72.8198 84.5351 72.4698 84.5351Z" />
<path d="M71.9698 37.245L61.7598 31.3549C61.4498 31.1749 61.2598 30.8449 61.2598 30.4849C61.2598 30.1249 61.4498 29.795 61.7598 29.615L82.1797 17.8249C82.4897 17.6449 82.8697 17.6449 83.1797 17.8249L93.3898 23.7149L92.3898 25.445L82.6797 19.8449L64.2598 30.4849L72.9698 35.5049L71.9698 37.2349V37.245Z" />
<path d="M52.0499 60.9551C51.8799 60.9551 51.7099 60.9151 51.5499 60.8251L31.1299 49.0351C30.8199 48.8551 30.6299 48.5251 30.6299 48.1651C30.6299 47.8051 30.8199 47.4751 31.1299 47.2951L51.5499 35.5051C51.8599 35.3251 52.2399 35.3251 52.5499 35.5051L72.9699 47.2951C73.2799 47.4751 73.4699 47.8051 73.4699 48.1651C73.4699 48.5251 73.2799 48.8551 72.9699 49.0351L52.5499 60.8251C52.3899 60.9151 52.2199 60.9551 52.0499 60.9551ZM33.6299 48.1651L52.0499 58.7951L70.4699 48.1651L52.0499 37.5251L33.6299 48.1651Z" />
<path d="M41.3399 19.565L31.1299 13.665C30.8199 13.485 30.6299 13.155 30.6299 12.795C30.6299 12.435 30.8199 12.105 31.1299 11.925L51.5499 0.135C51.8599 -0.045 52.2399 -0.045 52.5499 0.135L62.7599 6.03499L61.7599 7.76499L52.0499 2.15499L33.6299 12.795L42.3399 17.825L41.3399 19.555V19.565Z" />
<path d="M21.42 43.275C21.25 43.275 21.07 43.2349 20.92 43.1449L0.5 31.3549C0.19 31.1749 0 30.8449 0 30.4849C0 30.1249 0.19 29.795 0.5 29.615L20.92 17.8249C21.23 17.6449 21.61 17.6449 21.92 17.8249L42.34 29.615C42.65 29.795 42.84 30.1249 42.84 30.4849C42.84 30.8449 42.65 31.1749 42.34 31.3549L21.92 43.1449C21.77 43.2349 21.59 43.275 21.42 43.275ZM3 30.4849L21.42 41.1249L39.84 30.4849L21.42 19.8449L3 30.4849Z" />
<path d="M52.0498 25.5852C51.8798 25.5852 51.7098 25.5452 51.5498 25.4552L41.3398 19.5652L42.3398 17.8352L52.0498 23.4352L70.4698 12.7952L61.7598 7.77518L62.7598 6.04517L72.9698 11.9352C73.2798 12.1152 73.4698 12.4452 73.4698 12.8052C73.4698 13.1652 73.2798 13.4952 72.9698 13.6752L52.5498 25.4652C52.3898 25.5552 52.2198 25.5952 52.0498 25.5952V25.5852Z" />
<path d="M82.6797 43.2751C82.5097 43.2751 82.3297 43.2351 82.1797 43.1451L71.9697 37.2451L72.9697 35.5151L82.6797 41.1251L101.1 30.4851L92.3897 25.4551L93.3897 23.7251L103.6 29.6251C103.91 29.8051 104.1 30.1351 104.1 30.4951C104.1 30.8551 103.91 31.1851 103.6 31.3651L83.1797 43.1551C83.0297 43.2451 82.8497 43.2851 82.6797 43.2851V43.2751Z" />
<path d="M21.4297 78.635C21.2597 78.635 21.0797 78.595 20.9297 78.505L10.7198 72.615L0.509766 66.725C0.199766 66.545 0.00976562 66.215 0.00976562 65.855C0.00976562 65.495 0.199766 65.165 0.509766 64.985L10.7198 59.095C11.0298 58.915 11.4098 58.915 11.7198 59.095L21.4297 64.705L31.1398 59.095C31.4498 58.915 31.8298 58.915 32.1398 59.095C32.4498 59.275 32.6398 59.605 32.6398 59.965V71.755C32.6398 72.115 32.4498 72.445 32.1398 72.625L21.9297 78.515C21.7797 78.605 21.5997 78.645 21.4297 78.645V78.635ZM3.00977 65.845L11.7198 70.875L21.4297 76.485L30.6398 71.165V61.685L21.9297 66.715C21.6197 66.895 21.2397 66.895 20.9297 66.715L11.2198 61.105L3.00977 65.845V65.845Z" />
<path d="M71.9698 49.035L61.7598 43.145C61.4498 42.965 61.2598 42.635 61.2598 42.275V30.485C61.2598 30.125 61.4498 29.795 61.7598 29.615C62.0698 29.435 62.4498 29.435 62.7598 29.615L72.9698 35.505L71.9698 37.235L63.2598 32.215V41.695L72.9698 47.295L71.9698 49.025V49.035Z" />
<path d="M82.6797 66.8451C82.5097 66.8451 82.3397 66.8051 82.1797 66.7151L71.9697 60.8251C71.6597 60.6451 71.4697 60.3151 71.4697 59.9551V48.1651H73.4697V59.3751L81.6797 64.1151V42.8551L71.9697 37.2451L72.9697 35.5151L83.1797 41.4151C83.4897 41.5951 83.6797 41.9251 83.6797 42.2851V65.8551C83.6797 66.2151 83.4897 66.5451 83.1797 66.7251C83.0297 66.8151 82.8497 66.8551 82.6797 66.8551V66.8451Z" />
<path d="M52.0606 96.3251C51.8906 96.3251 51.7106 96.2851 51.5606 96.1951L31.1406 84.4051C30.8306 84.2251 30.6406 83.8951 30.6406 83.5351C30.6406 83.1751 30.8306 82.8451 31.1406 82.6651L41.3506 76.7751C41.6606 76.5951 42.0406 76.5951 42.3506 76.7751L52.0606 82.3851L61.7706 76.7751C62.0806 76.5951 62.4606 76.5951 62.7706 76.7751L72.9806 82.6651C73.2906 82.8451 73.4806 83.1751 73.4806 83.5351C73.4806 83.8951 73.2906 84.2251 72.9806 84.4051L52.5606 96.1951C52.4106 96.2851 52.2306 96.3251 52.0606 96.3251V96.3251ZM33.6406 83.5351L52.0606 94.1651L70.4806 83.5351L62.2706 78.7951L52.5606 84.4051C52.2506 84.5851 51.8706 84.5851 51.5606 84.4051L41.8506 78.7951L33.6406 83.5351V83.5351Z" />
</svg>
