<svg width="105" height="120" viewBox="0 0 105 120" fill="none" xmlns="http://www.w3.org/2000/svg">
<path d="M31.6309 25.5852C31.2809 25.5852 30.9508 25.4052 30.7608 25.0852C30.6708 24.9252 30.6309 24.7552 30.6309 24.5852C30.6309 24.2352 30.8109 23.9052 31.1309 23.7152L41.3409 17.8251C41.8209 17.5451 42.4309 17.7152 42.7109 18.1952C42.8009 18.3552 42.8409 18.5252 42.8409 18.6952C42.8409 19.0452 42.6609 19.3752 42.3409 19.5652L32.1309 25.4552C31.9709 25.5452 31.8009 25.5852 31.6309 25.5852Z" />
<path d="M11.2109 96.3249C11.0409 96.3249 10.8609 96.285 10.7109 96.195C10.4009 96.015 10.2109 95.6849 10.2109 95.3249V71.745C10.2109 71.385 10.4009 71.055 10.7109 70.875C11.0209 70.695 11.4009 70.695 11.7109 70.875L21.9209 76.7649L32.1309 82.655C32.4409 82.835 32.6309 83.165 32.6309 83.525C32.6309 83.885 32.4409 84.2149 32.1309 84.3949L11.7109 96.185C11.5609 96.275 11.3809 96.315 11.2109 96.315V96.3249ZM12.2109 73.475V93.585L29.6309 83.525L12.2109 73.465V73.475Z" />
<path d="M32.1342 94.4331L31.1348 96.1655L41.3472 102.057L42.3466 100.325L32.1342 94.4331Z" />
<path d="M42.3385 100.343L41.3379 102.075L51.5463 107.974L52.5469 106.242L42.3385 100.343Z" />
<path d="M52.0508 119.905C51.8808 119.905 51.7008 119.865 51.5508 119.775C51.2408 119.595 51.0508 119.265 51.0508 118.905V107.115C51.0508 106.755 51.2408 106.425 51.5508 106.245L71.4708 94.745V48.165C71.4708 47.805 71.6608 47.475 71.9708 47.295L82.1808 41.405C82.4908 41.225 82.8708 41.225 83.1808 41.405C83.4908 41.585 83.6808 41.915 83.6808 42.275V87.6951L102.601 76.775C102.911 76.595 103.291 76.595 103.601 76.775C103.911 76.955 104.101 77.285 104.101 77.645V89.435C104.101 89.795 103.911 90.125 103.601 90.305L52.5508 119.785C52.4008 119.875 52.2208 119.915 52.0508 119.915V119.905ZM53.0508 107.695V117.175L102.101 88.855V79.375L83.1808 90.295C82.8708 90.475 82.4908 90.475 82.1808 90.295C81.8708 90.115 81.6808 89.785 81.6808 89.425V44.0051L73.4708 48.745V95.325C73.4708 95.685 73.2808 96.0151 72.9708 96.1951L53.0508 107.695V107.695Z" />
<path d="M20.9209 66.715L10.7109 60.825C10.4009 60.645 10.2109 60.315 10.2109 59.955C10.2109 59.595 10.4009 59.265 10.7109 59.085L20.9209 53.1851L21.9209 54.915L13.2109 59.9451L21.9209 64.975L20.9209 66.705V66.715Z" />
<path d="M21.9176 64.9783L20.917 66.71L31.1254 72.6085L32.126 70.8768L21.9176 64.9783Z" />
<path d="M32.1381 70.8504L31.1387 72.5828L41.3511 78.4742L42.3505 76.7418L32.1381 70.8504Z" />
<path d="M42.3424 76.7761L41.3418 78.5078L51.5502 84.4064L52.5508 82.6747L42.3424 76.7761Z" />
<path d="M52.0508 96.3249C51.8808 96.3249 51.7008 96.2849 51.5508 96.1949C51.2408 96.0149 51.0508 95.6849 51.0508 95.3249V83.5349C51.0508 83.1749 51.2408 82.8449 51.5508 82.6649L61.7608 76.7649C62.0708 76.5849 62.4508 76.5849 62.7608 76.7649C63.0708 76.9449 63.2608 77.2749 63.2608 77.6349V89.4249C63.2608 89.7849 63.0708 90.1149 62.7608 90.2949L52.5508 96.1949C52.4008 96.2849 52.2208 96.3249 52.0508 96.3249ZM53.0508 84.1149V93.5949L61.2608 88.8549V79.3749L53.0508 84.1149Z" />
<path d="M21.4199 43.2752C21.0699 43.2752 20.7399 43.0952 20.5499 42.7752C20.4599 42.6152 20.4199 42.4452 20.4199 42.2752C20.4199 41.9252 20.5999 41.5952 20.9199 41.4052L41.3399 29.6152C41.8199 29.3352 42.4299 29.5052 42.7099 29.9852C42.7999 30.1452 42.8399 30.3152 42.8399 30.4852C42.8399 30.8352 42.6599 31.1652 42.3399 31.3552L21.9199 43.1452C21.7599 43.2352 21.5899 43.2752 21.4199 43.2752Z" />
<path d="M11.2109 60.9549C11.0409 60.9549 10.8609 60.9149 10.7109 60.8249C10.4009 60.6449 10.2109 60.3149 10.2109 59.9549V36.375C10.2109 36.015 10.4009 35.685 10.7109 35.505L41.3409 17.8249C41.6509 17.6449 42.0309 17.6449 42.3409 17.8249C42.6509 18.0049 42.8409 18.335 42.8409 18.695V30.485C42.8409 30.845 42.6509 31.175 42.3409 31.355L22.4209 42.845V54.055C22.4209 54.415 22.2309 54.745 21.9209 54.925L11.7109 60.8249C11.5609 60.9149 11.3809 60.9549 11.2109 60.9549V60.9549ZM12.2109 36.9549V58.225L20.4209 53.485V42.275C20.4209 41.915 20.6109 41.585 20.9209 41.405L40.8409 29.915V20.435L12.2109 36.965V36.9549Z" />
<path d="M52.5485 11.9363L51.5479 13.668L61.7562 19.5665L62.7568 17.8348L52.5485 11.9363Z" />
<path d="M72.9733 23.7239L71.9727 25.4556L82.1811 31.3541L83.1817 29.6224L72.9733 23.7239Z" />
<path d="M31.6309 60.9551C31.4609 60.9551 31.2809 60.9151 31.1309 60.8251C30.8209 60.6451 30.6309 60.3151 30.6309 59.9551V48.1651C30.6309 47.8051 30.8209 47.4751 31.1309 47.2951L71.9709 23.7151C72.2809 23.5351 72.6609 23.5351 72.9709 23.7151C73.2809 23.8951 73.4709 24.2251 73.4709 24.5851V36.3751C73.4709 36.7351 73.2809 37.0651 72.9709 37.2451L42.4509 54.8651C42.4509 54.8651 42.3809 54.9151 42.3409 54.9351L32.1309 60.8251C31.9809 60.9151 31.8009 60.9551 31.6309 60.9551V60.9551ZM32.6309 48.7451V58.2251L41.2309 53.2651C41.2309 53.2651 41.3009 53.2151 41.3409 53.1951L71.4709 35.8051V26.3251L32.6309 48.7451V48.7451Z" />
<path d="M83.1888 29.5833L82.1895 31.3157L92.4019 37.2071L93.4013 35.4747L83.1888 29.5833Z" />
<path d="M92.8906 72.745C92.7206 72.745 92.5406 72.705 92.3906 72.615C92.0806 72.435 91.8906 72.105 91.8906 71.745V36.375C91.8906 36.015 92.0806 35.685 92.3906 35.505L102.601 29.615C102.911 29.435 103.291 29.435 103.601 29.615C103.911 29.795 104.101 30.125 104.101 30.485V65.855C104.101 66.215 103.911 66.545 103.601 66.725L93.3906 72.615C93.2406 72.705 93.0606 72.745 92.8906 72.745ZM93.8906 36.9549V70.0149L102.101 65.275V32.215L93.8906 36.9549V36.9549Z" />
<path d="M41.8398 31.4849C41.6698 31.4849 41.4898 31.4349 41.3398 31.3549C41.0298 31.1749 40.8398 30.8449 40.8398 30.4849V6.9049C40.8398 6.5449 41.0298 6.2149 41.3398 6.0349C41.6498 5.8549 42.0298 5.8549 42.3398 6.0349L52.5499 11.9249L51.5499 13.6549L42.8398 8.62493V28.7449L51.5499 23.7149L52.5499 25.4449L42.3398 31.3449C42.1898 31.4349 42.0098 31.4749 41.8398 31.4749V31.4849Z" />
<path d="M52.5508 25.455L51.5508 23.725L60.2608 18.6951L51.5508 13.665L52.5508 11.9351L62.7608 17.835C63.0708 18.015 63.2608 18.345 63.2608 18.705C63.2608 19.065 63.0708 19.395 62.7608 19.575L52.5508 25.465V25.455Z" />
<path d="M82.1807 43.1451L71.9707 37.2451C71.6607 37.0651 71.4707 36.7351 71.4707 36.3751V24.5851C71.4707 24.2251 71.6607 23.8951 71.9707 23.7151C72.2807 23.5351 72.6607 23.5351 72.9707 23.7151L83.1807 29.6151L82.1807 31.3451L73.4707 26.3151V35.7951L83.1807 41.4051L82.1807 43.1351V43.1451Z" />
<path d="M92.8897 72.745C92.7197 72.745 92.5397 72.705 92.3897 72.615L82.1797 66.725C81.8697 66.545 81.6797 66.215 81.6797 65.855V42.275H83.6797V65.275L91.8897 70.015V36.955L82.1797 31.355L83.1797 29.625L93.3897 35.515C93.6997 35.695 93.8897 36.0249 93.8897 36.3849V71.755C93.8897 72.115 93.6997 72.445 93.3897 72.625C93.2397 72.715 93.0597 72.755 92.8897 72.755V72.745Z" />
<path d="M31.1299 107.985L20.9199 102.085C20.6099 101.905 20.4199 101.575 20.4199 101.215V89.4249C20.4199 89.0649 20.6099 88.7349 20.9199 88.5549C21.2299 88.3749 21.6099 88.3749 21.9199 88.5549L32.1299 94.4549L31.1299 96.1849L22.4199 91.1549V100.635L32.1299 106.245L31.1299 107.975V107.985Z" />
<path d="M82.6797 90.425C82.3297 90.425 81.9997 90.245 81.8097 89.925C81.7197 89.765 81.6797 89.595 81.6797 89.425C81.6797 89.075 81.8597 88.745 82.1797 88.555L92.3897 82.665C92.8697 82.385 93.4797 82.555 93.7597 83.035C93.8497 83.195 93.8897 83.365 93.8897 83.535C93.8897 83.885 93.7097 84.215 93.3897 84.405L83.1797 90.295C83.0197 90.385 82.8497 90.425 82.6797 90.425Z" />
<path d="M62.2603 102.215C62.1703 102.215 62.0903 102.205 62.0103 102.185H62.0003C61.8703 102.145 61.7403 102.085 61.6403 101.995C61.5503 101.915 61.4703 101.825 61.4103 101.715C61.2203 101.385 61.2403 100.995 61.4203 100.695C61.5003 100.555 61.6203 100.435 61.7703 100.355L71.9803 94.4651C72.4603 94.1851 73.0703 94.3551 73.3503 94.8351C73.6303 95.3151 73.4603 95.925 72.9803 96.205L62.7703 102.095C62.6103 102.185 62.4403 102.225 62.2703 102.225L62.2603 102.215Z" />
<path d="M52.0501 108.115C51.7001 108.115 51.3701 107.935 51.1801 107.615C50.9001 107.135 51.0701 106.525 51.5501 106.245L61.7601 100.345C62.2401 100.065 62.8501 100.235 63.1301 100.715C63.4101 101.195 63.2401 101.805 62.7601 102.085L52.5501 107.975H52.5301V107.995H52.5001C52.3601 108.075 52.2001 108.115 52.0501 108.115Z" />
<path d="M52.0509 119.905C51.8809 119.905 51.7009 119.865 51.5509 119.775L31.1309 107.985L32.1309 106.255L51.0509 117.175V107.695L31.1309 96.1951L32.1309 94.4651L52.5509 106.255C52.8609 106.435 53.0509 106.765 53.0509 107.125V118.915C53.0509 119.275 52.8609 119.605 52.5509 119.785C52.4009 119.875 52.2209 119.915 52.0509 119.915V119.905Z" />
<path d="M11.21 96.3249C11.04 96.3249 10.86 96.285 10.71 96.195L0.5 90.295C0.19 90.115 0 89.785 0 89.425V30.485C0 30.125 0.19 29.795 0.5 29.615C0.81 29.435 1.19 29.435 1.5 29.615L11.71 35.505C12.02 35.685 12.21 36.015 12.21 36.375V59.9549H10.21V36.9549L2 32.215V88.845L10.21 93.585V71.735C10.21 71.375 10.4 71.045 10.71 70.865C11.02 70.685 11.4 70.685 11.71 70.865L42.34 88.545L41.34 90.275L12.21 73.4549V95.305C12.21 95.665 12.02 95.995 11.71 96.175C11.56 96.265 11.38 96.305 11.21 96.305V96.3249Z" />
<path d="M11.7197 59.0675L10.7197 60.7996L31.1406 72.5895L32.1406 70.8575L11.7197 59.0675Z" />
<path d="M53.0509 95.325H51.0509V84.1151L31.1309 72.6151L32.1309 70.885L52.5509 82.675C52.8609 82.855 53.0509 83.185 53.0509 83.545V95.335V95.325Z" />
<path d="M42.3404 88.5647L41.3398 90.2964L51.5482 96.1949L52.5488 94.4632L42.3404 88.5647Z" />
<path d="M31.6299 60.955C31.4599 60.955 31.2799 60.915 31.1299 60.825L20.9199 54.935C20.6099 54.755 20.4199 54.4251 20.4199 54.0651V42.275C20.4199 41.915 20.6099 41.585 20.9199 41.405C21.2299 41.225 21.6099 41.225 21.9199 41.405L32.1299 47.295C32.4399 47.475 32.6299 47.805 32.6299 48.165V59.955C32.6299 60.315 32.4399 60.645 32.1299 60.825C31.9799 60.915 31.7999 60.955 31.6299 60.955ZM22.4199 53.485L30.6299 58.225V48.745L22.4199 44.0051V53.485Z" />
<path d="M41.8398 66.8449C41.4898 66.8449 41.1598 66.6649 40.9698 66.3449C40.8798 66.1849 40.8398 66.0149 40.8398 65.8449C40.8398 65.4949 41.0198 65.1649 41.3398 64.9749L51.5499 59.0849C52.0299 58.8049 52.6398 58.9749 52.9198 59.4549C53.0098 59.6149 53.0499 59.7849 53.0499 59.9549C53.0499 60.3049 52.8699 60.6349 52.5499 60.8249L42.3398 66.7149C42.1798 66.8049 42.0098 66.8449 41.8398 66.8449Z" />
<path d="M62.2598 43.2751C61.9098 43.2751 61.5798 43.0951 61.3898 42.7751C61.2998 42.6151 61.2598 42.4451 61.2598 42.2751C61.2598 41.9251 61.4398 41.5951 61.7598 41.4051L71.9698 35.5151C72.4498 35.2351 73.0598 35.4051 73.3398 35.8851C73.4298 36.0451 73.4698 36.2151 73.4698 36.3851C73.4698 36.7351 73.2898 37.0652 72.9698 37.2552L62.7598 43.1451C62.5998 43.2351 62.4298 43.2751 62.2598 43.2751Z" />
<path d="M52.5508 60.8251L51.5508 59.0952L61.2608 53.4852V42.2852H63.2608V54.0652C63.2608 54.4252 63.0708 54.7552 62.7608 54.9352L52.5508 60.8351V60.8251Z" />
<path d="M63.2598 77.635H61.2598V42.275C61.2598 41.915 61.4498 41.585 61.7598 41.405C62.0698 41.225 62.4498 41.225 62.7598 41.405L72.9698 47.295L71.9698 49.025L63.2598 43.995V77.625V77.635Z" />
<path d="M21.4199 31.4851C21.0699 31.4851 20.7399 31.3051 20.5499 30.9851C20.4599 30.8251 20.4199 30.6551 20.4199 30.4851C20.4199 30.1351 20.5999 29.8051 20.9199 29.6151L31.1299 23.7251C31.6099 23.4451 32.2199 23.6151 32.4999 24.0951C32.5899 24.2551 32.6299 24.4251 32.6299 24.5951C32.6299 24.9451 32.4499 25.2751 32.1299 25.4651L21.9199 31.3551C21.7599 31.4451 21.5899 31.4851 21.4199 31.4851Z" />
<path d="M11.2109 37.3752C10.8609 37.3752 10.5309 37.1952 10.3409 36.8752C10.2509 36.7152 10.2109 36.5452 10.2109 36.3752C10.2109 36.0252 10.3909 35.6952 10.7109 35.5052L20.9209 29.6152C21.4009 29.3352 22.0109 29.5052 22.2909 29.9852C22.3809 30.1452 22.4209 30.3152 22.4209 30.4852C22.4209 30.8352 22.2409 31.1652 21.9209 31.3552L11.7109 37.2452C11.5509 37.3352 11.3809 37.3752 11.2109 37.3752Z" />
<path d="M62.2601 31.4851C61.9101 31.4851 61.5801 31.3051 61.3901 30.9851C61.1101 30.5051 61.2801 29.8951 61.7601 29.6151L71.9701 23.7151C72.4501 23.4351 73.0601 23.6051 73.3401 24.0851C73.4301 24.2451 73.4701 24.4151 73.4701 24.5851C73.4701 24.9251 73.2901 25.265 72.9701 25.455L62.7601 31.3551C62.6001 31.4451 62.4301 31.4851 62.2601 31.4851Z" />
<path d="M52.0508 37.3752C51.7008 37.3752 51.3708 37.1952 51.1808 36.8752C51.0908 36.7152 51.0508 36.5452 51.0508 36.3752C51.0508 36.0252 51.2308 35.6952 51.5508 35.5052L61.7608 29.6152C62.2408 29.3352 62.8508 29.5052 63.1308 29.9852C63.2208 30.1452 63.2608 30.3152 63.2608 30.4852C63.2608 30.8352 63.0808 31.1652 62.7608 31.3552L52.5508 37.2452C52.3908 37.3352 52.2208 37.3752 52.0508 37.3752Z" />
<path d="M41.8398 43.2751C41.4898 43.2751 41.1598 43.0951 40.9698 42.7751C40.8798 42.6151 40.8398 42.4451 40.8398 42.2751C40.8398 41.9251 41.0198 41.5951 41.3398 41.4051L51.5499 35.5151C52.0299 35.2351 52.6398 35.4051 52.9198 35.8851C53.0098 36.0451 53.0499 36.2151 53.0499 36.3851C53.0499 36.7351 52.8699 37.0652 52.5499 37.2552L42.3398 43.1451C42.1798 43.2351 42.0098 43.2751 41.8398 43.2751Z" />
<path d="M31.6309 49.165C31.2809 49.165 30.9508 48.985 30.7608 48.665C30.6708 48.505 30.6309 48.335 30.6309 48.165C30.6309 47.815 30.8109 47.485 31.1309 47.295L41.3409 41.405C41.8209 41.125 42.4309 41.295 42.7109 41.775C42.8009 41.935 42.8409 42.105 42.8409 42.275C42.8409 42.625 42.6609 42.955 42.3409 43.145L32.1309 49.035C31.9709 49.125 31.8009 49.165 31.6309 49.165Z" />
<path d="M52.5619 70.8426L51.5625 72.575L61.775 78.4664L62.7744 76.734L52.5619 70.8426Z" />
<path d="M51.5499 13.665L41.3398 7.77501C41.0298 7.59501 40.8398 7.26502 40.8398 6.90502C40.8398 6.54502 41.0298 6.21502 41.3398 6.03502L51.5499 0.135C51.8599 -0.045 52.2399 -0.045 52.5499 0.135L62.7598 6.03502L61.7598 7.76501L52.0499 2.15502L43.8398 6.89501L52.5499 11.925L51.5499 13.655V13.665Z" />
<path d="M11.21 37.3751C11.04 37.3751 10.86 37.335 10.71 37.245L0.5 31.355C0.19 31.175 0 30.845 0 30.485C0 30.125 0.19 29.795 0.5 29.615L31.13 11.935C31.44 11.755 31.82 11.755 32.13 11.935L42.34 17.825C42.65 18.005 42.84 18.3351 42.84 18.6951C42.84 19.0551 42.65 19.3851 42.34 19.5651L11.71 37.245C11.56 37.335 11.38 37.3751 11.21 37.3751ZM3 30.485L11.21 35.225L20.92 29.615L39.84 18.6951L31.63 13.955L3 30.485Z" />
<path d="M62.7699 6.00832L61.7705 7.74072L71.983 13.6322L72.9824 11.8998L62.7699 6.00832Z" />
<path d="M52.5485 11.9363L51.5479 13.668L61.7562 19.5665L62.7568 17.8348L52.5485 11.9363Z" />
<path d="M31.6299 49.165C31.4599 49.165 31.2799 49.125 31.1299 49.035L20.9199 43.145C20.6099 42.965 20.4199 42.635 20.4199 42.275C20.4199 41.915 20.6099 41.585 20.9199 41.405L61.7599 17.825L62.7599 19.555L23.4199 42.265L31.6299 47.005L71.9699 23.715L72.9699 25.445L32.1299 49.025C31.9799 49.115 31.7999 49.155 31.6299 49.155V49.165Z" />
<path d="M72.9752 11.9355L71.9746 13.6672L82.183 19.5658L83.1836 17.8341L72.9752 11.9355Z" />
<path d="M83.1869 17.7918L82.1875 19.5242L92.4 25.4156L93.3994 23.6832L83.1869 17.7918Z" />
<path d="M72.9733 23.7239L71.9727 25.4556L82.1811 31.3541L83.1817 29.6224L72.9733 23.7239Z" />
<path d="M92.8897 37.3751C92.7197 37.3751 92.5397 37.3351 92.3897 37.2451L82.1797 31.3551L83.1797 29.6251L92.8897 35.2251L101.1 30.4851L92.3897 25.4551L93.3897 23.7251L103.6 29.6251C103.91 29.8051 104.1 30.1351 104.1 30.4951C104.1 30.8551 103.91 31.1851 103.6 31.3651L93.3897 37.2551C93.2397 37.3451 93.0597 37.3851 92.8897 37.3851V37.3751Z" />
<path d="M72.4698 49.1651C72.2998 49.1651 72.1198 49.1251 71.9698 49.0351L61.7598 43.1451C61.4498 42.9651 61.2598 42.6351 61.2598 42.2751C61.2598 41.9151 61.4498 41.5851 61.7598 41.4051L71.9698 35.5051C72.2798 35.3251 72.6598 35.3251 72.9698 35.5051L83.1798 41.3951C83.4898 41.5751 83.6798 41.9051 83.6798 42.2651C83.6798 42.6251 83.4898 42.9551 83.1798 43.1351L72.9698 49.0351C72.8198 49.1251 72.6398 49.1651 72.4698 49.1651ZM64.2598 42.2651L72.4698 47.0051L80.6798 42.2651L72.4698 37.5251L64.2598 42.2651Z" />
<path d="M31.1299 96.1951L20.9199 90.295C20.6099 90.115 20.4199 89.785 20.4199 89.425C20.4199 89.065 20.6099 88.735 20.9199 88.555L31.1299 82.665C31.4399 82.485 31.8199 82.485 32.1299 82.665L42.3399 88.555L41.3399 90.285L31.6299 84.685L23.4199 89.425L32.1299 94.455L31.1299 96.185V96.1951Z" />
<path d="M32.1342 94.4331L31.1348 96.1655L41.3472 102.057L42.3466 100.325L32.1342 94.4331Z" />
<path d="M42.3404 88.5647L41.3398 90.2964L51.5482 96.1949L52.5488 94.4632L42.3404 88.5647Z" />
<path d="M52.0499 108.115C51.8799 108.115 51.6999 108.065 51.5499 107.985L41.3398 102.085L42.3398 100.355L52.0499 105.965L70.4698 95.3251L62.2598 90.5851L52.5499 96.1952L51.5499 94.4651L61.7598 88.5652C62.0698 88.3852 62.4498 88.3852 62.7598 88.5652L72.9698 94.4651C73.2798 94.6451 73.4698 94.9751 73.4698 95.3351C73.4698 95.6951 73.2798 96.0251 72.9698 96.2051L52.5499 107.995C52.3999 108.085 52.2199 108.125 52.0499 108.125V108.115Z" />
<path d="M20.9209 66.715L10.7109 60.825C10.4009 60.645 10.2109 60.315 10.2109 59.955C10.2109 59.595 10.4009 59.265 10.7109 59.085L20.9209 53.185C21.2309 53.005 21.6109 53.005 21.9209 53.185C21.9609 53.205 21.9909 53.2351 22.0309 53.2551L32.1309 59.085L31.1309 60.8151L21.4109 55.205L13.2109 59.9451L21.9209 64.975L20.9209 66.705V66.715Z" />
<path d="M42.3444 64.9775L41.3438 66.7092L51.5522 72.6078L52.5528 70.8761L42.3444 64.9775Z" />
<path d="M32.1381 70.8504L31.1387 72.5828L41.3511 78.4742L42.3505 76.7418L32.1381 70.8504Z" />
<path d="M52.0499 84.535C51.8799 84.535 51.6999 84.495 51.5499 84.405L41.3398 78.5051L42.3398 76.775L52.0499 82.385L60.2598 77.645L51.5499 72.6151L52.5499 70.885L62.7598 76.775C63.0698 76.955 63.2598 77.285 63.2598 77.645C63.2598 78.005 63.0698 78.335 62.7598 78.515L52.5499 84.415C52.3999 84.505 52.2199 84.545 52.0499 84.545V84.535Z" />
<path d="M83.6797 77.6351H81.6797V65.8551C81.6797 65.4951 81.8697 65.1651 82.1797 64.9851C82.4897 64.8051 82.8697 64.8051 83.1797 64.9851L93.3897 70.8751L92.3897 72.6051L83.6797 67.5851V77.6351Z" />
<path d="M82.6797 90.425C82.5097 90.425 82.3297 90.385 82.1797 90.295C81.8697 90.115 81.6797 89.785 81.6797 89.425V77.6349H83.6797V87.695L101.1 77.6349L92.3897 72.605L93.3897 70.875L103.6 76.765C103.91 76.945 104.1 77.2749 104.1 77.6349C104.1 77.9949 103.91 78.325 103.6 78.505L83.1797 90.295C83.0297 90.385 82.8497 90.425 82.6797 90.425V90.425Z" />
<path d="M62.2598 78.6349C62.0898 78.6349 61.9098 78.5849 61.7598 78.5049L41.3398 66.7149C41.0298 66.5349 40.8398 66.2049 40.8398 65.8449C40.8398 65.4849 41.0298 65.1549 41.3398 64.9749L51.5499 59.0849L52.5499 60.8149L43.8398 65.8449L61.2598 75.9049V54.0649H63.2598V77.6349C63.2598 77.9949 63.0698 78.3249 62.7598 78.5049C62.6098 78.5949 62.4298 78.6349 62.2598 78.6349V78.6349Z" />
<path d="M72.4698 96.325C72.2998 96.325 72.1198 96.2851 71.9698 96.1951L61.7598 90.295C61.4498 90.115 61.2598 89.785 61.2598 89.425V42.275C61.2598 41.915 61.4498 41.585 61.7598 41.405C62.0698 41.225 62.4498 41.225 62.7598 41.405L72.9698 47.295C73.2798 47.475 73.4698 47.805 73.4698 48.165V95.325C73.4698 95.685 73.2798 96.0151 72.9698 96.1951C72.8198 96.2851 72.6398 96.325 72.4698 96.325ZM63.2598 88.845L71.4698 93.585V48.735L63.2598 43.995V88.835V88.845Z" />
<path d="M21.9176 64.9783L20.917 66.71L31.1254 72.6085L32.126 70.8768L21.9176 64.9783Z" />
<path d="M42.3409 66.715L41.3409 64.985L61.2608 53.485V44.015L42.4509 54.865C42.4509 54.865 42.3809 54.915 42.3409 54.935L32.1309 60.825L31.1309 59.095L41.2309 53.265C41.2309 53.265 41.3009 53.2151 41.3409 53.1951L61.7608 41.415C62.0708 41.235 62.4508 41.235 62.7608 41.415C63.0708 41.595 63.2608 41.925 63.2608 42.285V54.0651C63.2608 54.4251 63.0708 54.755 62.7608 54.935L42.3409 66.725V66.715Z" />
</svg>
