<svg width="105" height="120" viewBox="0 0 105 120" fill="none" xmlns="http://www.w3.org/2000/svg">
<path d="M21.4196 78.6349C21.2496 78.6349 21.0796 78.5949 20.9196 78.5049L10.7096 72.6149C10.3296 72.3949 10.1496 71.9749 10.2296 71.5649V71.5449C10.2496 71.4349 10.2896 71.3349 10.3396 71.2349C10.4896 70.9649 10.7496 70.7949 11.0396 70.7449C11.1896 70.7149 11.3496 70.7249 11.4996 70.7749H11.5196C11.5896 70.8049 11.6496 70.8249 11.7096 70.8649L21.9196 76.7549C22.3996 77.0349 22.5596 77.6449 22.2896 78.1249C22.0996 78.4449 21.7696 78.6249 21.4196 78.6249V78.6349Z" />
<path d="M21.4203 55.055C21.2503 55.055 21.0803 55.015 20.9203 54.925L10.7102 49.035C10.4902 48.905 10.3303 48.705 10.2603 48.475V48.455V48.435V48.415V48.375C10.2403 48.265 10.2302 48.145 10.2402 48.035V48.015V47.995V47.975V47.955C10.2602 47.845 10.3003 47.745 10.3603 47.645C10.5103 47.385 10.7702 47.215 11.0502 47.165C11.1302 47.155 11.2003 47.145 11.2803 47.145H11.3002C11.3702 47.145 11.4502 47.165 11.5202 47.185C11.5902 47.205 11.6603 47.235 11.7303 47.275L21.9403 53.165C22.4203 53.445 22.5803 54.055 22.3103 54.535C22.1203 54.855 21.7903 55.035 21.4403 55.035L21.4203 55.055Z" />
<path d="M11.6988 82.644L10.6982 84.3757L20.9066 90.2743L21.9072 88.5426L11.6988 82.644Z" />
<path d="M21.9154 88.5559L20.916 90.2883L31.1285 96.1798L32.1279 94.4474L21.9154 88.5559Z" />
<path d="M41.2497 101.865C41.0797 101.865 40.9197 101.825 40.7597 101.735L40.1197 101.375L31.1297 96.175C30.6497 95.895 30.4897 95.285 30.7597 94.805C31.0397 94.325 31.6497 94.165 32.1297 94.435L41.7497 99.985C42.2297 100.255 42.3897 100.865 42.1197 101.345C41.9397 101.665 41.5997 101.845 41.2497 101.845V101.865Z" />
<path d="M42.3412 100.34L41.3418 102.072L51.5543 107.963L52.5537 106.231L42.3412 100.34Z" />
<path d="M52.0498 119.895C51.8798 119.895 51.6998 119.855 51.5498 119.765C51.2398 119.585 51.0498 119.255 51.0498 118.895V107.105C51.0498 106.745 51.2398 106.415 51.5498 106.235L82.1798 88.5549L102.6 76.7649C102.91 76.5849 103.29 76.5849 103.6 76.7649C103.91 76.9449 104.1 77.2749 104.1 77.6349V89.4249C104.1 89.7849 103.91 90.1149 103.6 90.2949L52.5498 119.765C52.3998 119.855 52.2198 119.895 52.0498 119.895V119.895ZM53.0498 107.685V117.165L102.1 88.8449V79.3649L53.0498 107.685Z" />
<path d="M11.7018 59.0671L10.7012 60.7988L20.9096 66.6974L21.9102 64.9657L11.7018 59.0671Z" />
<path d="M21.9096 64.9632L20.9102 66.6956L31.1227 72.587L32.122 70.8546L21.9096 64.9632Z" />
<path d="M32.1158 70.855L31.1152 72.5867L41.3236 78.4852L42.3242 76.7535L32.1158 70.855Z" />
<path d="M42.3363 76.7669L41.3369 78.4993L51.5494 84.3907L52.5488 82.6583L42.3363 76.7669Z" />
<path d="M52.0498 96.315C51.8798 96.315 51.6998 96.275 51.5498 96.185C51.2398 96.005 51.0498 95.675 51.0498 95.315V83.525C51.0498 83.165 51.2398 82.8351 51.5498 82.6551L82.1798 64.975L102.6 53.185C102.91 53.005 103.29 53.005 103.6 53.185C103.91 53.365 104.1 53.695 104.1 54.055V65.845C104.1 66.205 103.91 66.535 103.6 66.715L52.5498 96.185C52.3998 96.275 52.2198 96.315 52.0498 96.315ZM53.0498 84.105V93.585L102.1 65.2651V55.785L83.1798 66.705L53.0498 84.105Z" />
<path d="M18.7807 41.735C18.6107 41.735 18.4407 41.695 18.2807 41.605L10.7107 37.235C10.2307 36.955 10.0707 36.345 10.3507 35.865C10.6307 35.385 11.2407 35.225 11.7207 35.495L19.2907 39.865C19.7707 40.145 19.9307 40.755 19.6607 41.235C19.4707 41.555 19.1407 41.735 18.7907 41.735H18.7807Z" />
<path d="M21.9349 41.4104L20.9355 43.1428L31.148 49.0343L32.1474 47.3019L21.9349 41.4104Z" />
<path d="M39.2006 53.5251C39.0306 53.5251 38.8606 53.4851 38.7006 53.3951L31.1306 49.0251C30.6506 48.7451 30.4906 48.1351 30.7706 47.6551C31.0506 47.1751 31.6606 47.0151 32.1406 47.2851L39.7106 51.6551C40.1906 51.9351 40.3506 52.5451 40.0806 53.0251C39.8906 53.3451 39.5606 53.5251 39.2106 53.5251H39.2006Z" />
<path d="M42.3412 53.1839L41.3418 54.9163L51.5543 60.8077L52.5537 59.0753L42.3412 53.1839Z" />
<path d="M52.0498 72.735C51.8798 72.735 51.6998 72.695 51.5498 72.605C51.2398 72.425 51.0498 72.095 51.0498 71.735V59.945C51.0498 59.585 51.2398 59.255 51.5498 59.075L102.6 29.605C102.91 29.425 103.29 29.425 103.6 29.605C103.91 29.785 104.1 30.115 104.1 30.475V42.265C104.1 42.625 103.91 42.955 103.6 43.135L52.5498 72.605C52.3998 72.695 52.2198 72.735 52.0498 72.735V72.735ZM53.0498 60.525V70.005L102.1 41.685V32.205L53.0498 60.515V60.525Z" />
<path d="M52.05 108.105C51.88 108.105 51.7 108.065 51.55 107.975L0.5 78.495C0.19 78.315 0 77.985 0 77.625C0 77.265 0.19 76.935 0.5 76.755L10.71 70.865C11.02 70.685 11.4 70.685 11.71 70.865L52.05 94.155L82.18 76.755L92.39 70.855C92.7 70.675 93.08 70.675 93.39 70.855L103.6 76.745C103.91 76.925 104.1 77.255 104.1 77.615C104.1 77.975 103.91 78.305 103.6 78.485L52.55 107.955C52.4 108.045 52.22 108.085 52.05 108.085V108.105ZM3 77.625L52.05 105.945L101.1 77.625L92.89 72.885L52.55 96.175C52.24 96.355 51.86 96.355 51.55 96.175L11.21 72.885L3 77.625V77.625Z" />
<path d="M52.05 84.5249C51.88 84.5249 51.7 84.4849 51.55 84.3949L0.5 54.9249C0.19 54.7449 0 54.4149 0 54.0549C0 53.6949 0.19 53.3649 0.5 53.1849L10.71 47.2849C11.02 47.1049 11.4 47.1049 11.71 47.2849L52.05 70.5749L92.39 47.2849C92.7 47.1049 93.08 47.1049 93.39 47.2849L103.6 53.1849C103.91 53.3649 104.1 53.6949 104.1 54.0549C104.1 54.4149 103.91 54.7449 103.6 54.9249L52.55 84.3949C52.4 84.4849 52.22 84.5249 52.05 84.5249ZM3 54.0549L52.05 82.3749L101.1 54.0549L92.89 49.3149L52.55 72.6049C52.24 72.7849 51.86 72.7849 51.55 72.6049L11.21 49.3149L3 54.0549Z" />
<path d="M10.71 96.1849L0.5 90.2949C0.19 90.1149 0 89.7849 0 89.4249V77.6349C0 77.2749 0.19 76.9449 0.5 76.7649C0.81 76.5849 1.19 76.5849 1.5 76.7649L11.71 82.6549L10.71 84.3849L2 79.3649V88.8449L11.71 94.4449L10.71 96.1749V96.1849Z" />
<path d="M11.7045 94.4431L10.7051 96.1755L20.9176 102.067L21.917 100.335L11.7045 94.4431Z" />
<path d="M11.6988 82.644L10.6982 84.3757L20.9066 90.2743L21.9072 88.5426L11.6988 82.644Z" />
<path d="M31.1299 107.975L20.9199 102.085C20.6099 101.905 20.4199 101.575 20.4199 101.215H21.4199L21.9199 100.345L32.1299 106.235L31.1299 107.965V107.975Z" />
<path d="M21.9154 88.5559L20.916 90.2883L31.1285 96.1798L32.1279 94.4474L21.9154 88.5559Z" />
<path d="M32.1312 106.237L31.1318 107.969L41.3443 113.861L42.3437 112.128L32.1312 106.237Z" />
<path d="M41.3299 102.075L40.7399 101.725L31.1299 96.1851L32.1299 94.4451L42.3499 100.355L41.3299 102.075Z" />
<path d="M82.6792 90.425C82.3292 90.425 81.9992 90.245 81.8092 89.925C81.7092 89.755 81.6692 89.575 81.6792 89.395C81.6892 89.135 81.7992 88.885 81.9892 88.705C82.0492 88.655 82.1092 88.605 82.1792 88.565L92.3892 82.675C92.8692 82.395 93.4792 82.565 93.7592 83.045C94.0392 83.525 93.8692 84.135 93.3892 84.415L83.1792 90.305C83.0192 90.395 82.8492 90.435 82.6792 90.435V90.425Z" />
<path d="M72.4701 96.3149C72.1201 96.3149 71.7901 96.1349 71.6001 95.8149C71.3201 95.3349 71.4901 94.7249 71.9701 94.4449L82.1801 88.5449C82.6601 88.2649 83.27 88.4349 83.55 88.9149C83.64 89.0749 83.6801 89.2449 83.6801 89.4049C83.6801 89.7449 83.5201 90.0649 83.2101 90.2549L83.1801 90.2749L72.9701 96.1749C72.8101 96.2649 72.6401 96.3049 72.4701 96.3049V96.3149Z" />
<path d="M62.2598 102.215C61.9098 102.215 61.5798 102.035 61.3898 101.715C61.2998 101.555 61.2598 101.385 61.2598 101.215C61.2598 100.865 61.4398 100.535 61.7598 100.345L71.9698 94.455C72.4498 94.175 73.0598 94.345 73.3398 94.825C73.4298 94.985 73.4698 95.155 73.4698 95.325C73.4698 95.675 73.2898 96.0051 72.9698 96.1951L62.7598 102.085C62.5998 102.175 62.4298 102.215 62.2598 102.215Z" />
<path d="M52.0501 108.105C51.7001 108.105 51.3701 107.925 51.1801 107.605C50.9001 107.125 51.0701 106.515 51.5501 106.235L61.7602 100.345C62.2402 100.065 62.8502 100.235 63.1302 100.715C63.2202 100.875 63.2702 101.055 63.2602 101.235C63.2602 101.565 63.0902 101.875 62.7902 102.065L62.7602 102.085L52.5501 107.975C52.3901 108.065 52.2201 108.105 52.0501 108.105V108.105Z" />
<path d="M52.0498 119.895C51.8798 119.895 51.6998 119.855 51.5498 119.765L41.3398 113.875C41.0298 113.695 40.8398 113.365 40.8398 113.005H41.8398L42.3398 112.135L51.0498 117.155V107.675L41.3398 102.075L42.3398 100.345L52.5498 106.235C52.8598 106.415 53.0498 106.745 53.0498 107.105V118.895C53.0498 119.255 52.8598 119.585 52.5498 119.765C52.3998 119.855 52.2198 119.895 52.0498 119.895V119.895Z" />
<path d="M52.05 96.315C51.88 96.315 51.7 96.275 51.55 96.185L0.5 66.715C0.19 66.535 0 66.205 0 65.845V54.055C0 53.695 0.19 53.365 0.5 53.185C0.81 53.005 1.19 53.005 1.5 53.185L11.71 59.075L10.71 60.805L2 55.775V65.255L51.05 93.575V84.095L31.13 72.595L32.13 70.865L52.55 82.6551C52.86 82.8351 53.05 83.165 53.05 83.525V95.315C53.05 95.675 52.86 96.005 52.55 96.185C52.4 96.275 52.22 96.315 52.05 96.315V96.315Z" />
<path d="M11.7018 59.0671L10.7012 60.7988L20.9096 66.6974L21.9102 64.9657L11.7018 59.0671Z" />
<path d="M21.9096 64.9632L20.9102 66.6956L31.1227 72.587L32.122 70.8546L21.9096 64.9632Z" />
<path d="M82.6802 66.8449C82.3302 66.8449 82.0002 66.6649 81.8102 66.3449C81.6702 66.1049 81.6402 65.8249 81.7102 65.5749C81.7802 65.3249 81.9402 65.1149 82.1702 64.9749L92.3802 59.0749C92.8602 58.7949 93.4702 58.9649 93.7502 59.4449C94.0302 59.9249 93.8602 60.5349 93.3802 60.8149L83.1702 66.7049C83.0102 66.7949 82.8402 66.8349 82.6702 66.8349L82.6802 66.8449Z" />
<path d="M72.4697 72.7351C72.1197 72.7351 71.7897 72.5551 71.5997 72.2351C71.5097 72.0751 71.4697 71.9051 71.4697 71.7351C71.4697 71.3851 71.6497 71.0551 71.9697 70.8651L82.1797 64.9751C82.6597 64.6951 83.2697 64.8651 83.5497 65.3451C83.6397 65.5051 83.6797 65.6751 83.6797 65.8451C83.6797 66.1951 83.4997 66.5251 83.1797 66.7151L72.9697 72.6051C72.8097 72.6951 72.6397 72.7351 72.4697 72.7351Z" />
<path d="M62.2601 78.635C61.9101 78.635 61.5801 78.455 61.3901 78.135C61.1101 77.655 61.2801 77.045 61.7601 76.765L71.9701 70.865C72.4501 70.585 73.0601 70.755 73.3401 71.235C73.4401 71.405 73.4801 71.585 73.4701 71.775C73.4601 72.095 73.2901 72.405 73.0001 72.585L72.9701 72.605L62.7601 78.505C62.6001 78.595 62.4301 78.635 62.2601 78.635Z" />
<path d="M52.0501 84.5251C51.7001 84.5251 51.3701 84.3451 51.1801 84.0251C50.9001 83.5451 51.0701 82.9351 51.5501 82.6551L57.4402 79.2551L61.7602 76.7651C62.2402 76.4851 62.8502 76.6551 63.1302 77.1351C63.4102 77.6151 63.2402 78.2251 62.7602 78.5051L52.5501 84.3951C52.3901 84.4851 52.2201 84.5251 52.0501 84.5251Z" />
<path d="M41.34 66.715L0.5 43.135C0.19 42.955 0 42.625 0 42.265V30.475C0 30.115 0.19 29.785 0.5 29.605C0.81 29.425 1.19 29.425 1.5 29.605L21.92 41.395L20.92 43.125L2 32.205V41.685L42.34 64.975L41.34 66.705V66.715Z" />
<path d="M52.0498 72.7351C51.8798 72.7351 51.6998 72.6951 51.5498 72.6051L41.3398 66.7151L42.3398 64.9851L51.0498 70.0051V60.5251L41.3398 54.9251L42.3398 53.1951L52.5498 59.0851C52.8598 59.2651 53.0498 59.5951 53.0498 59.9551V71.7451C53.0498 72.1051 52.8598 72.4351 52.5498 72.6151C52.3998 72.7051 52.2198 72.7451 52.0498 72.7451V72.7351Z" />
<path d="M21.9349 41.4104L20.9355 43.1428L31.148 49.0343L32.1474 47.3019L21.9349 41.4104Z" />
<path d="M32.1295 47.2778L31.1289 49.0095L41.3373 54.9081L42.3379 53.1764L32.1295 47.2778Z" />
<path d="M87.8605 40.2751C87.8005 40.2751 87.7505 40.2751 87.6905 40.2651C87.4105 40.2151 87.1405 40.0451 86.9905 39.7751C86.8705 39.5551 86.8305 39.3151 86.8705 39.0951C86.9205 38.8151 87.0905 38.5651 87.3505 38.4151L92.3805 35.5051C92.8605 35.2251 93.4705 35.3951 93.7505 35.8751C94.0305 36.3551 93.8605 36.9651 93.3805 37.2451L88.3505 40.1551C88.1905 40.2451 88.0205 40.2851 87.8605 40.2851V40.2751Z" />
<path d="M72.4701 49.165C72.1201 49.165 71.7901 48.985 71.6001 48.665C71.3201 48.185 71.4901 47.575 71.9701 47.295H71.9901L82.1801 41.405C82.6601 41.125 83.27 41.295 83.55 41.775C83.83 42.255 83.6601 42.865 83.1801 43.145L72.9701 49.035C72.8101 49.125 72.6401 49.165 72.4701 49.165Z" />
<path d="M62.2598 55.0549C61.9098 55.0549 61.5798 54.8749 61.3898 54.5549C61.2998 54.3949 61.2598 54.2249 61.2598 54.0549C61.2598 53.7049 61.4398 53.3749 61.7598 53.1849L71.9698 47.2949C72.4498 47.0149 73.0598 47.1849 73.3398 47.6649C73.4298 47.8249 73.4698 47.9949 73.4698 48.1649C73.4698 48.5149 73.2898 48.8449 72.9698 49.0349L62.7598 54.9249C62.5998 55.0149 62.4298 55.0549 62.2598 55.0549Z" />
<path d="M52.0503 60.945C51.7003 60.945 51.3703 60.765 51.1803 60.445C51.0803 60.275 51.0403 60.095 51.0503 59.915C51.0603 59.655 51.1703 59.405 51.3603 59.225C51.4203 59.175 51.4803 59.125 51.5503 59.085L61.7603 53.195C62.2403 52.915 62.8503 53.085 63.1303 53.565C63.4103 54.045 63.2403 54.655 62.7603 54.935L52.5503 60.825C52.3903 60.915 52.2203 60.955 52.0503 60.955V60.945Z" />
<path d="M52.05 60.945C51.88 60.945 51.7 60.905 51.55 60.815L0.5 31.345C0.19 31.165 0 30.835 0 30.475C0 30.115 0.19 29.785 0.5 29.605L51.55 0.135C51.86 -0.045 52.24 -0.045 52.55 0.135L103.6 29.605C103.91 29.785 104.1 30.115 104.1 30.475C104.1 30.835 103.91 31.165 103.6 31.345L52.55 60.815C52.4 60.905 52.22 60.945 52.05 60.945V60.945ZM3 30.475L52.05 58.795L101.1 30.475L52.05 2.155L3 30.465V30.475Z" />
</svg>
