<svg width="1440" height="550" viewBox="0 0 1440 550" fill="none" xmlns="http://www.w3.org/2000/svg">
<mask id="mask0_1519_616" style="mask-type:alpha" maskUnits="userSpaceOnUse" x="0" y="0" width="1440" height="550">
<rect x="0.5" y="0.5" width="1439" height="549" fill="#C4C4C4"/>
<rect x="0.5" y="0.5" width="1439" height="549" stroke="white"/>
<rect x="0.5" y="0.5" width="1439" height="549" stroke="black" stroke-opacity="0.2"/>
</mask>
<g mask="url(#mask0_1519_616)">
<rect opacity="0.7" width="1253" height="550" fill="url(#paint0_linear_1519_616)"/>
<mask id="mask1_1519_616" style="mask-type:luminance" maskUnits="userSpaceOnUse" x="0" y="0" width="1440" height="550">
<path d="M0 0H1440V550H0V0Z" fill="white"/>
</mask>
<g mask="url(#mask1_1519_616)">
<path d="M0 -0.999634H1440V549.879H0V-0.999634Z" fill="#76C9DF"/>
<path fill-rule="evenodd" clip-rule="evenodd" d="M483.365 506.956L699.312 -63.3923L929.623 513.364L483.365 506.956Z" fill="#3EAD5D"/>
<mask id="mask2_1519_616" style="mask-type:luminance" maskUnits="userSpaceOnUse" x="483" y="-64" width="447" height="578">
<path d="M483.364 506.956L699.311 -63.3922L929.622 513.364L483.364 506.956Z" fill="white"/>
</mask>
<g mask="url(#mask2_1519_616)">
<path fill-rule="evenodd" clip-rule="evenodd" d="M624.385 -99.8716L699.312 -63.3923L688.852 602.928L483.364 532.149L624.385 -99.8716Z" fill="#006036"/>
<path fill-rule="evenodd" clip-rule="evenodd" d="M582.757 205.088L601.009 196.256C601.009 196.256 622.807 160.655 639.708 133.072C641.579 130.015 645.353 128.697 648.737 129.917C652.12 131.153 654.154 134.585 653.633 138.13C652.364 146.652 650.949 156.102 649.485 165.909C648.899 169.812 651.437 173.52 655.292 174.398C659.148 175.276 663.019 173.032 664.191 169.259C664.467 168.364 664.744 167.47 665.004 166.592C666.045 163.225 669.25 161.029 672.763 161.273C676.277 161.517 679.14 164.168 679.693 167.632C682.605 186.075 686.2 208.991 688.982 226.637C689.519 230.02 692.252 232.606 695.651 232.98C699.051 233.337 702.272 231.37 703.508 228.182C706.193 221.237 708.99 213.967 711.398 207.755C712.472 204.957 715.107 203.071 718.1 202.924C721.093 202.778 723.891 204.421 725.225 207.104C731.358 219.383 740.24 237.192 748.341 253.439C749.984 256.741 753.774 258.367 757.304 257.294C760.834 256.22 763.079 252.756 762.607 249.097C757.955 212.796 751.48 162.33 747.332 130.031C746.893 126.551 748.878 123.233 752.164 121.997C755.433 120.761 759.142 121.932 761.094 124.843C786.13 161.924 828.685 224.978 828.685 224.978L700.483 -89.0562L582.789 205.071L582.757 205.088Z" fill="#C1E4CF"/>
<mask id="mask3_1519_616" style="mask-type:luminance" maskUnits="userSpaceOnUse" x="582" y="-90" width="247" height="348">
<path d="M582.756 205.087L601.008 196.256C601.008 196.256 622.806 160.655 639.707 133.072C641.578 130.015 645.352 128.697 648.736 129.917C652.119 131.153 654.153 134.585 653.632 138.13C652.363 146.652 650.948 156.101 649.484 165.908C648.898 169.812 651.436 173.52 655.291 174.398C659.147 175.276 663.018 173.032 664.19 169.259C664.466 168.364 664.743 167.47 665.003 166.591C666.044 163.225 669.249 161.029 672.762 161.273C676.276 161.517 679.139 164.168 679.692 167.632C682.604 186.075 686.199 208.991 688.981 226.637C689.518 230.02 692.251 232.605 695.65 232.98C699.05 233.337 702.271 231.369 703.507 228.182C706.192 221.237 708.989 213.967 711.397 207.755C712.471 204.957 715.106 203.071 718.099 202.924C721.092 202.778 723.89 204.421 725.224 207.104C731.357 219.383 740.239 237.192 748.34 253.439C749.983 256.741 753.773 258.367 757.303 257.294C760.833 256.22 763.078 252.756 762.606 249.097C757.954 212.796 751.479 162.33 747.331 130.031C746.892 126.55 748.877 123.233 752.163 121.997C755.432 120.761 759.141 121.932 761.093 124.843C786.129 161.924 828.684 224.978 828.684 224.978L700.482 -89.0563L582.789 205.071L582.756 205.087Z" fill="white"/>
</mask>
<g mask="url(#mask3_1519_616)">
<path fill-rule="evenodd" clip-rule="evenodd" d="M624.384 -99.8716L699.311 -63.3923L688.851 602.928L483.363 532.149L624.384 -99.8716Z" fill="#A7D9AF"/>
</g>
</g>
<path fill-rule="evenodd" clip-rule="evenodd" d="M1139.31 715.212L1356.59 141.35L1588.31 721.668L1139.31 715.212Z" fill="#3EAD5D"/>
<mask id="mask4_1519_616" style="mask-type:luminance" maskUnits="userSpaceOnUse" x="1139" y="141" width="450" height="581">
<path d="M1139.31 715.212L1356.59 141.35L1588.32 721.669L1139.31 715.212Z" fill="white"/>
</mask>
<g mask="url(#mask4_1519_616)">
<path fill-rule="evenodd" clip-rule="evenodd" d="M1281.19 104.643L1356.59 141.35L1346.06 811.785L1139.31 740.567L1281.19 104.643Z" fill="#006036"/>
<path fill-rule="evenodd" clip-rule="evenodd" d="M1239.32 411.489L1257.68 402.593C1257.68 402.593 1276.24 368.748 1292.06 339.897C1294.04 336.27 1298.34 334.578 1302.27 335.863C1306.21 337.148 1308.66 341.051 1308.13 345.15C1305.83 362.747 1303.15 383.272 1300.61 402.625C1300.04 406.935 1302.79 410.985 1306.99 412.074C1311.2 413.164 1315.55 410.936 1317.14 406.903C1319.16 401.763 1321.14 396.738 1322.98 392.054C1324.4 388.46 1328.04 386.248 1331.89 386.654C1335.75 387.061 1338.84 389.988 1339.47 393.81C1339.85 396.12 1340.26 398.511 1340.65 400.918C1341.35 405.146 1345.05 408.22 1349.33 408.122C1353.61 408.025 1357.17 404.772 1357.68 400.527C1358.74 391.485 1359.78 382.588 1360.69 374.766C1361.13 371.058 1363.91 368.049 1367.58 367.317C1371.26 366.601 1374.97 368.325 1376.78 371.611C1379.75 377.01 1383.01 382.897 1386.26 388.834C1388.28 392.493 1392.62 394.168 1396.57 392.818C1400.53 391.468 1402.93 387.484 1402.3 383.353C1399.08 362.698 1395.37 338.921 1392.34 319.453C1391.73 315.469 1393.95 311.582 1397.73 310.118C1401.49 308.654 1405.76 310.004 1408.01 313.371C1437.53 357.673 1486.73 431.542 1486.73 431.542L1357.74 115.573L1239.32 411.521V411.489Z" fill="#C1E4CF"/>
<mask id="mask5_1519_616" style="mask-type:luminance" maskUnits="userSpaceOnUse" x="1239" y="115" width="248" height="317">
<path d="M1239.32 411.489L1257.68 402.593C1257.68 402.593 1276.24 368.748 1292.05 339.897C1294.04 336.27 1298.33 334.578 1302.27 335.863C1306.21 337.148 1308.66 341.051 1308.13 345.15C1305.83 362.747 1303.15 383.272 1300.61 402.625C1300.04 406.935 1302.79 410.985 1306.99 412.074C1311.2 413.164 1315.54 410.936 1317.14 406.903C1319.16 401.763 1321.14 396.738 1322.98 392.054C1324.39 388.46 1328.04 386.248 1331.89 386.654C1335.75 387.061 1338.84 389.988 1339.47 393.81C1339.85 396.12 1340.25 398.511 1340.65 400.918C1341.34 405.146 1345.05 408.22 1349.33 408.122C1353.61 408.025 1357.17 404.772 1357.68 400.527C1358.73 391.485 1359.78 382.588 1360.69 374.766C1361.13 371.058 1363.91 368.049 1367.58 367.317C1371.26 366.601 1374.97 368.325 1376.77 371.611C1379.75 377.01 1383 382.897 1386.26 388.834C1388.28 392.493 1392.62 394.168 1396.57 392.818C1400.52 391.468 1402.93 387.484 1402.3 383.353C1399.08 362.698 1395.37 338.921 1392.34 319.453C1391.72 315.469 1393.95 311.582 1397.73 310.118C1401.48 308.654 1405.76 310.004 1408.01 313.371C1437.53 357.673 1486.72 431.542 1486.72 431.542L1357.74 115.573L1239.32 411.521V411.489Z" fill="white"/>
</mask>
<g mask="url(#mask5_1519_616)">
<path fill-rule="evenodd" clip-rule="evenodd" d="M1281.19 104.643L1356.59 141.35L1346.06 811.785L1139.3 740.567L1281.19 104.643Z" fill="#A7D9AF"/>
</g>
</g>
<path fill-rule="evenodd" clip-rule="evenodd" d="M761.047 674.325L1052.73 4.78467L1363.81 681.855L761.047 674.325Z" fill="#3EAD5D"/>
<mask id="mask6_1519_616" style="mask-type:luminance" maskUnits="userSpaceOnUse" x="761" y="4" width="603" height="678">
<path d="M761.046 674.325L1052.73 4.78467L1363.81 681.855L761.046 674.325Z" fill="white"/>
</mask>
<g mask="url(#mask6_1519_616)">
<path fill-rule="evenodd" clip-rule="evenodd" d="M951.52 -38.0375L1052.73 4.78462L1038.6 786.999L761.047 703.908L951.52 -38.0375Z" fill="#006036"/>
<path fill-rule="evenodd" clip-rule="evenodd" d="M895.299 319.957L919.944 309.581C919.944 309.581 945.5 285.055 963.394 267.897C965.997 265.393 969.901 264.791 973.138 266.385C976.375 267.979 978.278 271.426 977.888 275.021C975.643 295.838 972.308 326.641 969.657 351.2C969.217 355.217 971.641 359.006 975.48 360.275C979.319 361.559 983.533 359.998 985.598 356.518C994.887 340.937 1005.53 323.063 1013.27 310.069C1015.06 307.06 1018.49 305.434 1021.96 305.97C1025.42 306.491 1028.22 309.077 1029.03 312.476C1030.53 318.721 1032.22 325.828 1033.94 333.001C1034.9 337.034 1038.61 339.799 1042.75 339.587C1046.88 339.376 1050.28 336.253 1050.83 332.139C1053.68 310.963 1056.93 286.731 1059.27 269.361C1059.76 265.783 1062.43 262.872 1065.96 262.107C1069.49 261.327 1073.13 262.856 1075.07 265.897C1085.72 282.697 1100.88 306.605 1111.54 323.405C1113.47 326.463 1117.12 327.975 1120.65 327.194C1124.18 326.43 1126.85 323.519 1127.33 319.941C1129.32 305.239 1131.84 286.617 1133.63 273.411C1134.07 270.207 1136.25 267.523 1139.29 266.45C1142.33 265.376 1145.72 266.092 1148.06 268.304C1172.98 291.854 1227.43 343.295 1227.43 343.295L1054.26 -25.3519L895.299 319.925V319.957Z" fill="#C1E4CF"/>
<mask id="mask7_1519_616" style="mask-type:luminance" maskUnits="userSpaceOnUse" x="895" y="-26" width="333" height="387">
<path d="M895.3 319.957L919.945 309.581C919.945 309.581 945.501 285.055 963.395 267.897C965.997 265.393 969.902 264.791 973.139 266.385C976.376 267.979 978.279 271.426 977.889 275.021C975.644 295.838 972.309 326.641 969.658 351.2C969.218 355.217 971.642 359.006 975.481 360.275C979.32 361.559 983.534 359.998 985.599 356.518C994.888 340.937 1005.53 323.063 1013.27 310.069C1015.06 307.06 1018.49 305.434 1021.96 305.97C1025.42 306.491 1028.22 309.077 1029.03 312.476C1030.53 318.721 1032.22 325.828 1033.95 333.001C1034.91 337.034 1038.61 339.799 1042.75 339.587C1046.88 339.376 1050.28 336.253 1050.83 332.139C1053.68 310.963 1056.93 286.731 1059.27 269.361C1059.76 265.783 1062.43 262.872 1065.96 262.107C1069.49 261.327 1073.13 262.856 1075.07 265.897C1085.72 282.697 1100.89 306.605 1111.54 323.405C1113.48 326.463 1117.12 327.975 1120.65 327.194C1124.18 326.43 1126.85 323.519 1127.34 319.941C1129.32 305.239 1131.84 286.617 1133.63 273.411C1134.07 270.207 1136.25 267.523 1139.29 266.45C1142.33 265.376 1145.72 266.092 1148.06 268.304C1172.98 291.854 1227.43 343.295 1227.43 343.295L1054.26 -25.3519L895.3 319.925V319.957Z" fill="white"/>
</mask>
<g mask="url(#mask7_1519_616)">
<path fill-rule="evenodd" clip-rule="evenodd" d="M951.52 -38.0375L1052.73 4.78462L1038.6 786.999L761.047 703.908L951.52 -38.0375Z" fill="#A7D9AF"/>
</g>
</g>
<path d="M807 437.903H827V467.897H807V437.903Z" fill="#633315"/>
<path fill-rule="evenodd" clip-rule="evenodd" d="M816.5 336.926L770 455.899H863L816.5 336.926Z" fill="#297239"/>
<mask id="mask8_1519_616" style="mask-type:luminance" maskUnits="userSpaceOnUse" x="770" y="337" width="94" height="120">
<path d="M816.684 337.412L770.251 456.333H863.116L816.684 337.412Z" fill="white"/>
</mask>
<g mask="url(#mask8_1519_616)">
<path fill-rule="evenodd" clip-rule="evenodd" d="M770.251 401.82C770.949 401.162 816.854 406.353 816.854 406.353V456.333L765.005 458.27C765.005 458.27 769.552 402.466 770.251 401.82Z" fill="#246336"/>
</g>
<path fill-rule="evenodd" clip-rule="evenodd" d="M816.507 299.934L777 405.91H856L816.507 299.934Z" fill="#308548"/>
<mask id="mask9_1519_616" style="mask-type:luminance" maskUnits="userSpaceOnUse" x="776" y="299" width="81" height="108">
<path d="M816.684 299.489L776.881 406.353H856.474L816.684 299.489Z" fill="white"/>
</mask>
<g mask="url(#mask9_1519_616)">
<path fill-rule="evenodd" clip-rule="evenodd" d="M785.684 344.251L816.683 355.807V406.353L770.25 410.557L785.684 344.251Z" fill="#2C763C"/>
</g>
<path fill-rule="evenodd" clip-rule="evenodd" d="M817 282.938L786 355.921H848L817 282.938Z" fill="#34963E"/>
<mask id="mask10_1519_616" style="mask-type:luminance" maskUnits="userSpaceOnUse" x="785" y="282" width="63" height="74">
<path d="M816.683 282.53L785.684 355.794H847.682L816.683 282.53Z" fill="white"/>
</mask>
<g mask="url(#mask10_1519_616)">
<path fill-rule="evenodd" clip-rule="evenodd" d="M789.44 289.949L816.854 282.53V355.794L776.879 360.656L789.44 289.949Z" fill="#347F2D"/>
</g>
<path d="M715 389.914H737V422.907H715V389.914Z" fill="#632D16"/>
<path fill-rule="evenodd" clip-rule="evenodd" d="M726.5 277.939L676 409.91H777L726.5 277.939Z" fill="#297239"/>
<mask id="mask11_1519_616" style="mask-type:luminance" maskUnits="userSpaceOnUse" x="675" y="278" width="102" height="133">
<path d="M726.414 278.076L675.949 410.03H776.88L726.414 278.076Z" fill="white"/>
</mask>
<g mask="url(#mask11_1519_616)">
<path fill-rule="evenodd" clip-rule="evenodd" d="M675.949 349.534C676.713 348.81 726.599 354.568 726.599 354.568V410.03L670.255 412.177C670.255 412.177 675.197 350.259 675.949 349.534Z" fill="#256333"/>
</g>
<path fill-rule="evenodd" clip-rule="evenodd" d="M726.5 235.948L683 354.922H770L726.5 235.948Z" fill="#308548"/>
<mask id="mask12_1519_616" style="mask-type:luminance" maskUnits="userSpaceOnUse" x="683" y="235" width="87" height="120">
<path d="M726.416 235.99L683.16 354.568H769.672L726.416 235.99Z" fill="white"/>
</mask>
<g mask="url(#mask12_1519_616)">
<path fill-rule="evenodd" clip-rule="evenodd" d="M692.728 285.653L726.416 298.487V354.568L675.951 359.233L692.728 285.653Z" fill="#2C763C"/>
</g>
<path fill-rule="evenodd" clip-rule="evenodd" d="M726.493 216.952L693 298.934H760L726.493 216.952Z" fill="#34963E"/>
<mask id="mask13_1519_616" style="mask-type:luminance" maskUnits="userSpaceOnUse" x="692" y="217" width="69" height="82">
<path d="M726.416 217.16L692.729 298.461H760.117L726.416 217.16Z" fill="white"/>
</mask>
<g mask="url(#mask13_1519_616)">
<path fill-rule="evenodd" clip-rule="evenodd" d="M696.802 225.395L726.602 217.16V298.461L683.161 303.85L696.802 225.395Z" fill="#2C7F5B"/>
</g>
<path d="M895 463.898H918V490.892H895V463.898Z" fill="#632D16"/>
<path fill-rule="evenodd" clip-rule="evenodd" d="M906.507 373.917L853 480.894H960L906.507 373.917Z" fill="#2B7353"/>
<mask id="mask14_1519_616" style="mask-type:luminance" maskUnits="userSpaceOnUse" x="852" y="373" width="109" height="108">
<path d="M906.583 373.582L852.731 480.526H960.423L906.583 373.582Z" fill="white"/>
</mask>
<g mask="url(#mask14_1519_616)">
<path fill-rule="evenodd" clip-rule="evenodd" d="M852.73 431.508C853.548 430.928 906.768 435.593 906.768 435.593V480.539L846.655 482.278C846.655 482.278 851.926 432.101 852.73 431.508Z" fill="#256333"/>
</g>
<path fill-rule="evenodd" clip-rule="evenodd" d="M906.507 339.925L860 435.904H953L906.507 339.925Z" fill="#308548"/>
<mask id="mask15_1519_616" style="mask-type:luminance" maskUnits="userSpaceOnUse" x="857" y="345" width="93" height="97">
<path d="M903.155 345.045L857 441.144H949.298L903.155 345.045Z" fill="white"/>
</mask>
<g mask="url(#mask15_1519_616)">
<path fill-rule="evenodd" clip-rule="evenodd" d="M870.629 379.736L906.583 390.133V435.58L852.73 439.361L870.629 379.736Z" fill="#2C763C"/>
</g>
<path fill-rule="evenodd" clip-rule="evenodd" d="M907.007 323.929L871 389.914H943L907.007 323.929Z" fill="#34963E"/>
<mask id="mask16_1519_616" style="mask-type:luminance" maskUnits="userSpaceOnUse" x="870" y="324" width="73" height="67">
<path d="M906.582 324.222L870.628 390.119H942.523L906.582 324.222Z" fill="white"/>
</mask>
<g mask="url(#mask16_1519_616)">
<path fill-rule="evenodd" clip-rule="evenodd" d="M874.99 330.902L906.767 324.222V390.119L860.426 394.481L874.99 330.902Z" fill="#347F2D"/>
</g>
<path fill-rule="evenodd" clip-rule="evenodd" d="M1201.01 476.895L1157 609.865H1245L1201.01 476.895Z" fill="#297239"/>
<mask id="mask17_1519_616" style="mask-type:luminance" maskUnits="userSpaceOnUse" x="1156" y="477" width="89" height="134">
<path d="M1200.99 477.13L1156.97 610.361H1245L1200.99 477.13Z" fill="white"/>
</mask>
<g mask="url(#mask17_1519_616)">
<path fill-rule="evenodd" clip-rule="evenodd" d="M1156.97 549.286C1157.63 548.562 1201.15 554.373 1201.15 554.373V610.374L1152 612.548C1152 612.548 1156.31 550.037 1156.97 549.299V549.286Z" fill="#246336"/>
</g>
<path fill-rule="evenodd" clip-rule="evenodd" d="M1201 434.904L1163 553.878H1239L1201 434.904Z" fill="#308580"/>
<mask id="mask18_1519_616" style="mask-type:luminance" maskUnits="userSpaceOnUse" x="1163" y="434" width="76" height="121">
<path d="M1200.99 434.648L1163.27 554.373H1238.71L1200.99 434.648Z" fill="white"/>
</mask>
<g mask="url(#mask18_1519_616)">
<path fill-rule="evenodd" clip-rule="evenodd" d="M1171.6 484.786L1200.99 497.738V554.373L1156.97 559.077L1171.6 484.786Z" fill="#2C7672"/>
</g>
<path fill-rule="evenodd" clip-rule="evenodd" d="M1201.01 415.908L1172 497.89H1230L1201.01 415.908Z" fill="#006036"/>
<mask id="mask19_1519_616" style="mask-type:luminance" maskUnits="userSpaceOnUse" x="1171" y="415" width="60" height="83">
<path d="M1200.99 415.633L1171.6 497.725H1230.37L1200.99 415.633Z" fill="white"/>
</mask>
<g mask="url(#mask19_1519_616)">
<path fill-rule="evenodd" clip-rule="evenodd" d="M1175.17 423.948L1201.15 415.633V497.725L1163.27 503.167L1175.17 423.948Z" fill="#2D7F7A"/>
</g>
<path d="M635 339.925H655V369.918H635V339.925Z" fill="#633715"/>
<path fill-rule="evenodd" clip-rule="evenodd" d="M644.993 238.947L598 357.921H692L644.993 238.947Z" fill="#297239"/>
<mask id="mask20_1519_616" style="mask-type:luminance" maskUnits="userSpaceOnUse" x="598" y="238" width="95" height="121">
<path d="M645.267 238.454L598.413 358.192H692.135L645.267 238.454Z" fill="white"/>
</mask>
<g mask="url(#mask20_1519_616)">
<path fill-rule="evenodd" clip-rule="evenodd" d="M598.414 303.297C599.126 302.638 645.439 307.869 645.439 307.869V358.192L593.116 360.142C593.116 360.142 597.702 303.956 598.414 303.31V303.297Z" fill="#246336"/>
</g>
<path fill-rule="evenodd" clip-rule="evenodd" d="M645 199.956L605 307.932H685L645 199.956Z" fill="#308548"/>
<mask id="mask21_1519_616" style="mask-type:luminance" maskUnits="userSpaceOnUse" x="605" y="200" width="81" height="108">
<path d="M645.266 200.267L605.107 307.869H685.425L645.266 200.267Z" fill="white"/>
</mask>
<g mask="url(#mask21_1519_616)">
<path fill-rule="evenodd" clip-rule="evenodd" d="M613.978 245.332L645.267 256.98V307.869L598.412 312.099L613.978 245.332Z" fill="#2C763C"/>
</g>
<path fill-rule="evenodd" clip-rule="evenodd" d="M645.5 193.079L616 262.064H675L645.5 193.079Z" fill="#34963E"/>
<mask id="mask22_1519_616" style="mask-type:luminance" maskUnits="userSpaceOnUse" x="613" y="193" width="64" height="74">
<path d="M645.269 193.188L613.98 266.952H676.558L645.269 193.188Z" fill="white"/>
</mask>
<g mask="url(#mask22_1519_616)">
<path fill-rule="evenodd" clip-rule="evenodd" d="M617.775 190.661L645.439 183.19L645.439 261.842H605.109L617.775 190.661Z" fill="#347F2D"/>
</g>
<path d="M539 287.936H557V309.932H539V287.936Z" fill="#582A14"/>
<path fill-rule="evenodd" clip-rule="evenodd" d="M547.493 214.953L506 301.933H589L547.493 214.953Z" fill="#286732"/>
<mask id="mask23_1519_616" style="mask-type:luminance" maskUnits="userSpaceOnUse" x="505" y="215" width="85" height="87">
<path d="M547.631 215.311L505.943 301.686H589.332L547.631 215.311Z" fill="white"/>
</mask>
<g mask="url(#mask23_1519_616)">
<path fill-rule="evenodd" clip-rule="evenodd" d="M505.945 262.089C506.578 261.615 547.791 265.384 547.791 265.384V301.686L501.227 303.096C501.227 303.096 505.313 262.564 505.932 262.089H505.945Z" fill="#205826"/>
</g>
<path fill-rule="evenodd" clip-rule="evenodd" d="M547.493 187.958L512 264.941H583L547.493 187.958Z" fill="#308548"/>
<mask id="mask24_1519_616" style="mask-type:luminance" maskUnits="userSpaceOnUse" x="511" y="187" width="73" height="79">
<path d="M547.632 187.759L511.902 265.384H583.376L547.632 187.759Z" fill="white"/>
</mask>
<g mask="url(#mask24_1519_616)">
<path fill-rule="evenodd" clip-rule="evenodd" d="M519.795 220.266L547.631 228.673V265.384L505.943 268.441L519.795 220.266Z" fill="#2B6B3D"/>
</g>
<path fill-rule="evenodd" clip-rule="evenodd" d="M547.493 174.961L520 228.949H575L547.493 174.961Z" fill="#34963E"/>
<mask id="mask25_1519_616" style="mask-type:luminance" maskUnits="userSpaceOnUse" x="519" y="175" width="57" height="54">
<path d="M547.632 175.438L519.796 228.66H575.48L547.632 175.438Z" fill="white"/>
</mask>
<g mask="url(#mask25_1519_616)">
<path fill-rule="evenodd" clip-rule="evenodd" d="M523.171 180.828L547.791 175.438V228.66L511.902 232.191L523.171 180.828Z" fill="#297447"/>
</g>
<path fill-rule="evenodd" clip-rule="evenodd" d="M1443.75 529.107L1392.28 635.715H1495.22L1443.75 529.107Z" fill="#286732"/>
<path fill-rule="evenodd" clip-rule="evenodd" d="M1443.75 495.116L1399.63 590.909H1487.85L1443.75 495.116Z" fill="#2D7A60"/>
<mask id="mask26_1519_616" style="mask-type:luminance" maskUnits="userSpaceOnUse" x="1399" y="495" width="89" height="96">
<path d="M1443.75 495.116L1399.63 590.909H1487.85L1443.75 495.116Z" fill="white"/>
</mask>
<g mask="url(#mask26_1519_616)">
<path fill-rule="evenodd" clip-rule="evenodd" d="M1409.37 535.239L1443.75 545.599V590.909L1392.28 594.682L1409.37 535.239Z" fill="#2B6B3D"/>
</g>
<path fill-rule="evenodd" clip-rule="evenodd" d="M1443.75 479.91L1409.38 545.582H1478.1L1443.75 479.91Z" fill="#328B6D"/>
<mask id="mask27_1519_616" style="mask-type:luminance" maskUnits="userSpaceOnUse" x="1409" y="479" width="70" height="67">
<path d="M1443.75 479.91L1409.38 545.582H1478.1L1443.75 479.91Z" fill="white"/>
</mask>
<g mask="url(#mask27_1519_616)">
<path fill-rule="evenodd" clip-rule="evenodd" d="M1413.54 486.562L1443.93 479.91V545.582L1399.63 549.941L1413.54 486.562Z" fill="#297447"/>
</g>
<path fill-rule="evenodd" clip-rule="evenodd" d="M-1.99997 89.7873L-0.477777 11.9973C-0.477777 11.9973 175.801 92.7557 234.725 126.684C303.638 166.378 395.478 251.494 458.493 267.022C509.35 279.562 634.467 349.95 684.582 383.364C734.697 416.779 808.234 470.307 903.727 488.594C987.214 504.597 1070.87 561.303 1091.74 569.657C1112.64 578.01 1227.5 613.518 1227.5 613.518L1229 1205.73H-1.99997V89.7873Z" fill="#177DA9"/>
<path fill-rule="evenodd" clip-rule="evenodd" d="M210.475 326.593L251.922 467.568L578.615 485.453L642.547 553.079L855.232 576.806L963.268 700.852L964 988H-2.00002V193L210.475 326.593Z" fill="#1E658D"/>
<path fill-rule="evenodd" clip-rule="evenodd" d="M-0.162757 12.0354C-0.162757 12.0354 176.134 92.7349 235.065 126.639C303.986 166.304 395.835 251.358 458.857 266.874C509.72 279.405 634.85 349.741 684.97 383.131C735.091 416.522 808.635 470.011 904.138 488.284C987.634 504.276 1071.3 560.94 1092.18 569.288C1113.07 577.636 1227.94 613.118 1227.94 613.118L1228 635.859C1151.73 610.474 1051.84 579.594 1033.04 582.846C1002.57 588.132 957.627 612.927 944.897 608.44C932.148 603.952 669.843 432.418 655.762 431.981C641.681 431.544 400.497 309.068 400.497 309.068L257.899 278.492C257.899 278.492 155.793 149.666 136.422 127C121.409 109.43 38.7311 71.6663 -1.00001 53.9253L-0.181804 11.9973L-0.162757 12.0354Z" fill="#0493C0"/>
<path opacity="0.32" fill-rule="evenodd" clip-rule="evenodd" d="M1187.73 83.5939C1181.2 84.1139 1176 89.6313 1176 96.2753C1176 103.28 1181.72 109 1188.73 109H1354.27C1361.28 109 1367 103.28 1367 96.2753C1367 89.9924 1362.36 84.7494 1356.35 83.7528C1356.4 83.1461 1356.4 82.5973 1356.4 81.9907C1356.4 69.4248 1346.63 59.0255 1334.02 57.5378C1331.78 38.6457 1314.97 24 1294.6 24C1281 24 1269.04 30.5285 1261.87 40.4511C1258.82 39.5268 1255.63 39.0501 1252.31 39.0501C1237.91 39.0501 1225.73 48.0484 1221.89 60.3398C1219.13 59.3866 1216.13 58.8666 1212.96 58.8666C1199 58.8666 1187.67 69.3959 1187.67 82.3951C1187.67 82.7995 1187.67 83.1895 1187.71 83.5939H1187.73Z" fill="#F3F3F3"/>
<path opacity="0.32" fill-rule="evenodd" clip-rule="evenodd" d="M541.472 15.0127C534.826 15.0127 529.307 19.4159 528.513 25.0881C525.76 25.4434 523.455 26.9788 522.238 29.1107C521.354 28.7681 520.394 28.5904 519.382 28.5904C515.899 28.5904 513.005 30.7349 512.25 33.6281C510.879 32.8921 509.317 32.4734 507.627 32.4734C502.658 32.4734 498.624 36.1153 498.624 40.62C498.624 41.0007 498.65 41.356 498.701 41.7113C496.588 42.1681 495 44.0462 495 46.2668C495 48.8301 497.113 50.9239 499.7 50.9239H545.98C546.48 50.9873 546.966 51 547.491 51C548.016 51 548.49 50.9746 548.977 50.9239H602.3C604.887 50.9239 607 48.8301 607 46.2668C607 43.7036 604.887 41.6098 602.3 41.6098H601.993C601.993 37.8918 598.33 34.859 593.836 34.859C592.926 34.859 592.068 34.9732 591.262 35.2016C591.326 34.8463 591.338 34.4656 591.338 34.0849C591.338 28.933 586.319 24.7201 580.121 24.7201C577.047 24.7201 574.255 25.7607 572.219 27.4484C570.593 22.8675 566.034 19.5809 560.617 19.5809C557.902 19.5809 555.418 20.4184 553.382 21.8269C551.333 17.8044 546.748 15 541.447 15L541.472 15.0127Z" fill="#F3F3F3"/>
<path opacity="0.32" fill-rule="evenodd" clip-rule="evenodd" d="M810.815 77.9322C811.177 77.9064 811.527 77.8934 811.902 77.8934C812.29 77.8934 812.652 77.8934 813.053 77.9322C812.626 76.7165 812.367 75.3843 812.367 74.0263C812.367 67.3915 817.852 62.0242 824.591 62.0242C825.135 62.0242 825.6 62.0242 826.092 62.1018C826.053 61.5327 826.014 60.9507 826.014 60.3816C826.014 50.0996 834.513 41.7188 844.978 41.7188C847.733 41.7188 850.359 42.3266 852.713 43.3613C856.012 37.8387 862.208 34.1139 869.335 34.1139C870.693 34.1139 872.026 34.2562 873.319 34.5019C876.01 28.3327 882.491 24 890.058 24C899.229 24 906.809 30.3762 907.999 38.6406C911.557 34.6442 916.718 32.1092 922.487 32.1092C933.198 32.1092 941.89 40.8005 941.89 51.5093C941.89 52.4017 941.813 53.2812 941.683 54.1477C951.889 54.7168 960 63.1494 960 73.4961C960 83.8428 951.282 92.8444 940.83 92.9479C927.144 93.0901 913.432 92.8961 899.734 92.8961H811.514C801.967 92.8961 801.282 78.5142 810.815 77.9193V77.9322Z" fill="#F3F3F3"/>
<path fill-rule="evenodd" clip-rule="evenodd" d="M1024.99 181.016C1024.99 181.016 1005.97 182.967 1003.09 184.559C1000.2 186.135 999.73 187.446 999.73 187.446L1001.78 189.147L1025.25 188.382L1024.97 181.032L1024.99 181.016Z" fill="#1D2040"/>
<path d="M1024.99 181.016C1024.99 181.016 1005.97 182.967 1003.09 184.559C1000.2 186.135 999.73 187.446 999.73 187.446L1001.78 189.147L1025.25 188.382L1024.97 181.032L1024.99 181.016Z" stroke="black" stroke-width="0.17" stroke-linecap="round" stroke-linejoin="round"/>
<path fill-rule="evenodd" clip-rule="evenodd" d="M1079.36 174.29C1097.98 194.016 1112.62 219.158 1125.97 243.847L1122.31 245.751C1121.27 242.38 1082.46 178.113 1075.48 174.883C1068.41 171.621 1077.83 172.854 1079.37 174.274L1079.36 174.29Z" fill="#1D2040"/>
<path fill-rule="evenodd" clip-rule="evenodd" d="M956.21 168.063L954.649 167.111L952.432 168C952.432 168 955.055 176.459 956.881 176.553C958.707 176.646 956.225 168.063 956.225 168.063H956.21Z" fill="#3B2E4F"/>
<path d="M956.21 168.063L954.649 167.111L952.432 168C952.432 168 955.055 176.459 956.881 176.553C958.707 176.646 956.225 168.063 956.225 168.063H956.21Z" stroke="black" stroke-width="0.07" stroke-linecap="round" stroke-linejoin="round"/>
<path fill-rule="evenodd" clip-rule="evenodd" d="M926.817 241.193C926.817 241.193 929.892 244.205 927.847 247.389C926.255 249.855 922.868 250.682 920.526 249.075C918.887 247.951 917.139 245.75 918.122 242.629C919.246 239.024 925.318 239.305 926.817 241.193Z" fill="#30356F"/>
<path fill-rule="evenodd" clip-rule="evenodd" d="M918.887 245.47C920.37 250.776 919.465 253.07 920.12 254.24C921.447 256.628 920.292 259.765 921.182 261.123C922.352 262.902 923.164 269.144 923.71 272.016C924.46 273.998 930.173 273.03 929.783 270.814L925.724 244.159L918.887 245.454V245.47Z" fill="#2F356E"/>
<path fill-rule="evenodd" clip-rule="evenodd" d="M924.787 243.8L963.858 508.153L960.299 508.434C960.299 508.434 921.494 250.526 920.105 245.516C921.431 242.848 922.805 242.629 924.772 243.8H924.787Z" fill="#252953"/>
<path fill-rule="evenodd" clip-rule="evenodd" d="M937.806 244.143C933.435 241.006 924.584 235.919 924.584 235.919C920.323 236.293 919.48 237.885 916.733 240.819C916.733 240.819 913.205 247.592 916.217 246.921C918.543 246.406 919.215 242.645 919.215 242.645C921.447 242.645 922.149 242.489 923.57 240.881L927.956 245.907C927.956 245.907 931.312 253.273 935.355 254.162C939.398 255.068 941.677 246.905 937.79 244.112L937.806 244.143Z" fill="#E48F7E"/>
<path fill-rule="evenodd" clip-rule="evenodd" d="M936.854 245.048C936.854 245.048 929.018 244.315 928.238 244.206C927.098 244.05 925.163 244.596 923.68 245.594C921.12 247.327 918.841 250.589 917.67 251.228C917.264 251.494 917.858 253.21 920.511 252.368C923.118 251.556 926.084 248.575 926.084 248.575C926.849 250.214 936.683 251.899 936.589 249.621C936.558 248.685 936.527 244.049 936.839 245.033L936.854 245.048Z" fill="#E48F7E"/>
<path fill-rule="evenodd" clip-rule="evenodd" d="M1028.87 158.855C1057.3 143.748 1073.3 163.896 1075.86 165.597C1093.25 177.099 1144.1 286.186 1133.96 293.271C1124.39 299.951 1097.35 315.994 1088.42 307.301C1075.42 294.629 1025.02 189.568 1024.3 180.954C1023.96 176.709 1022.83 172.464 1022.88 168.656C1022.93 164.754 1024.22 161.337 1028.86 158.871L1028.87 158.855Z" fill="#2B3167"/>
<path fill-rule="evenodd" clip-rule="evenodd" d="M1044.33 318.46C1056.21 313.403 1088.21 304.43 1093.87 322.408C1099.54 340.402 1093.87 430.31 1093.87 430.31C1093.87 430.31 1113.71 452.299 1123.77 475.193C1133.82 498.087 1143.18 541.457 1143.18 541.457L1124.75 541.675C1124.75 541.675 1110.59 506.624 1087.32 479.844C1064.31 453.344 1060.3 445.697 1060.3 443.122C1060.3 443.122 1033.62 323.017 1044.33 318.46Z" fill="#282C5A"/>
<mask id="mask28_1519_616" style="mask-type:luminance" maskUnits="userSpaceOnUse" x="1041" y="311" width="103" height="231">
<path d="M1044.33 318.46C1056.21 313.403 1088.21 304.43 1093.87 322.408C1099.54 340.402 1093.87 430.31 1093.87 430.31C1093.87 430.31 1113.71 452.299 1123.77 475.193C1133.82 498.087 1143.18 541.457 1143.18 541.457L1124.75 541.675C1124.75 541.675 1110.59 506.624 1087.32 479.844C1064.31 453.344 1060.3 445.697 1060.3 443.122C1060.3 443.122 1033.62 323.017 1044.33 318.46Z" fill="white"/>
</mask>
<g mask="url(#mask28_1519_616)">
<path fill-rule="evenodd" clip-rule="evenodd" d="M1066.61 355.01C1066.61 355.01 1079.69 441.093 1080.19 444.433C1081.58 445.76 1102.12 465.814 1115.82 494.42C1130 524.025 1133.76 541.504 1133.76 541.504C1133.79 541.66 1133.7 541.816 1133.52 541.863C1133.37 541.894 1133.21 541.8 1133.17 541.629C1133.17 541.629 1129.42 524.212 1115.28 494.685C1101.13 465.174 1079.69 444.808 1079.69 444.808C1079.64 444.761 1079.61 444.698 1079.59 444.636L1066 355.103C1065.97 354.947 1066.09 354.791 1066.25 354.76C1066.4 354.729 1066.56 354.854 1066.59 355.01H1066.61Z" fill="#47519F"/>
</g>
<path fill-rule="evenodd" clip-rule="evenodd" d="M1085.16 309.502C1099.05 316.79 1098.41 337.89 1093.86 350.172C1089.58 361.72 1001.62 393.12 1001.62 393.12C1014.98 421.274 1020.27 476.363 1019.05 477.799C1017.87 479.204 1017.7 482.606 1017.74 484.338L1003.43 489.551C997.794 482.778 958.754 380.713 964.421 372.754C972.303 361.705 1044.31 318.444 1044.31 318.444C1044.31 318.444 1084.47 309.143 1085.16 309.486V309.502Z" fill="#2B3167"/>
<mask id="mask29_1519_616" style="mask-type:luminance" maskUnits="userSpaceOnUse" x="963" y="309" width="134" height="181">
<path d="M1085.16 309.502C1099.05 316.79 1098.41 337.89 1093.86 350.172C1089.58 361.72 1001.62 393.12 1001.62 393.12C1014.98 421.274 1020.27 476.363 1019.06 477.799C1017.87 479.204 1017.7 482.606 1017.74 484.338L1003.43 489.551C997.795 482.778 958.755 380.713 964.422 372.754C972.304 361.705 1044.31 318.444 1044.31 318.444C1044.31 318.444 1084.48 309.143 1085.16 309.486V309.502Z" fill="white"/>
</mask>
<g mask="url(#mask29_1519_616)">
<path fill-rule="evenodd" clip-rule="evenodd" d="M1079.81 320.91C1079.81 320.91 1047.54 348.112 1024.88 363.577C1003.69 378.029 987.74 386.191 985.727 387.205L1011.97 489.504C1012.01 489.66 1011.9 489.832 1011.75 489.863C1011.59 489.894 1011.42 489.8 1011.39 489.644L985.087 387.112C985.055 386.971 985.118 386.831 985.243 386.768C985.243 386.768 1001.9 378.512 1024.53 363.078C1047.18 347.628 1079.42 320.457 1079.42 320.457C1079.54 320.348 1079.73 320.364 1079.84 320.489C1079.95 320.613 1079.93 320.801 1079.81 320.91Z" fill="#47509E"/>
</g>
<path fill-rule="evenodd" clip-rule="evenodd" d="M953.184 156.764C952.263 163.521 956.337 179.221 964.079 188.023C971.822 196.825 981.265 187.851 981.265 187.851C987.54 202.287 986.869 208.14 985.995 213.742C991.412 213.649 1006.93 198.589 1010.83 192.034C1010.83 192.034 1001.95 178.581 999.076 170.295C994.643 157.529 991.49 145.153 983.232 142.235C969.605 137.412 954.12 150.006 953.199 156.764H953.184Z" fill="#FAA998"/>
<path fill-rule="evenodd" clip-rule="evenodd" d="M989.551 133.838C984.462 131.279 980.997 134.822 980.903 134.728C976.502 129.578 967.698 132.215 963.608 137.927C962.921 138.879 961.173 136.132 956.037 137.927C953.103 138.957 951.432 142.094 950.589 142.422C949.809 142.734 946.874 142.235 946.094 141.922C941.832 140.221 939.023 158.371 957.364 158.871C962.422 159.011 968.79 152.769 968.884 153.377C969.165 155.219 972.974 162.195 975.627 164.036C978.203 165.831 979.608 162.523 980.42 162.975C988.068 167.251 1002.24 178.925 1001.24 175.413C995.53 155.375 1000.87 139.55 989.551 133.838Z" fill="#3B2E4F"/>
<mask id="mask30_1519_616" style="mask-type:luminance" maskUnits="userSpaceOnUse" x="942" y="131" width="60" height="46">
<path d="M989.553 133.838C984.464 131.279 980.999 134.822 980.905 134.728C976.503 129.578 967.7 132.215 963.61 137.927C962.923 138.879 961.175 136.132 956.039 137.927C953.105 138.957 951.434 142.094 950.591 142.422C949.811 142.734 946.876 142.235 946.096 141.922C941.834 140.221 939.025 158.371 957.366 158.871C962.424 159.011 968.792 152.769 968.886 153.377C969.167 155.219 972.976 162.195 975.629 164.036C978.205 165.831 979.61 162.523 980.422 162.975C988.07 167.251 1002.24 178.925 1001.24 175.413C995.532 155.375 1000.87 139.55 989.553 133.838Z" fill="white"/>
</mask>
<g mask="url(#mask30_1519_616)">
<path fill-rule="evenodd" clip-rule="evenodd" d="M977.549 166.502C976.55 165.894 975.707 163.958 975.176 162.991C973.287 159.464 971.945 155.796 971.992 151.77C971.992 150.475 972.054 149.195 972.413 147.946C972.523 147.541 973.006 146.714 972.788 146.308C972.444 145.637 970.805 147.697 970.524 146.87C970.384 146.433 970.696 145.793 970.852 145.403C971.321 144.31 971.929 143.218 972.569 142.219C972.679 142.063 973.553 140.955 973.272 140.799C972.491 140.346 970.571 141.283 969.853 141.517C966.435 142.578 963.344 143.826 960.69 146.308C959.926 147.01 959.161 147.712 958.427 148.461C958.177 148.711 957.818 149.242 957.428 149.273C957.1 149.304 957.069 148.696 957.053 148.493C957.022 148.071 957.397 146.214 956.772 146.121C956.351 146.058 955.883 146.495 955.602 146.729C954.618 147.509 953.807 148.461 952.854 149.257C951.2 150.646 948.39 148.789 947.188 147.587C945.783 146.183 944.269 144.107 943.738 142.188C943.567 141.548 943.489 140.861 943.551 140.19C943.551 140.065 943.707 139.035 943.567 139.082C943.192 139.223 942.942 139.878 942.755 140.19C942.037 141.423 941.428 142.718 940.866 144.029C939.93 146.183 939.04 148.477 939.009 150.849C938.962 154.688 941.397 159.027 944.363 161.368C946.985 163.443 950.685 164.255 953.978 163.693C955.555 163.428 957.007 162.757 958.505 162.226C959.926 161.711 961.393 161.305 962.829 160.79C964.281 160.26 965.67 159.573 967.137 159.074C967.574 158.918 968.277 158.512 968.745 158.574C969.198 158.637 969.541 159.12 969.806 159.448C970.556 160.416 971.008 161.586 971.711 162.585C973.022 164.411 975.52 165.862 977.564 166.533L977.549 166.502Z" fill="#47375F"/>
</g>
<path fill-rule="evenodd" clip-rule="evenodd" d="M982.496 154.922C979.156 154.922 976.44 158.325 976.44 162.523C976.44 166.721 979.156 170.123 982.496 170.123C985.837 170.123 988.553 166.721 988.553 162.523C988.553 158.325 985.837 154.922 982.496 154.922Z" fill="#FAA998"/>
<path fill-rule="evenodd" clip-rule="evenodd" d="M1003.44 193.922C998.168 201.304 1007.36 258.86 1005.49 258.548C974.754 253.413 938.134 244.596 938.134 244.596L937.072 253.928C947.874 259.843 999.277 293.989 1021.27 286.826C1029.26 284.22 1044.48 234.67 1037.58 208.561C1032.38 188.944 1008.49 186.884 1003.46 193.922H1003.44Z" fill="#E48F7E"/>
<path fill-rule="evenodd" clip-rule="evenodd" d="M985.696 212.166C985.696 212.166 982.356 232.751 996.951 261.263C1009.5 285.765 1010.11 268.489 1028.44 328.619C1053.15 315.791 1076.17 339.388 1098.66 330.773C1097.1 321.909 1096.06 316.525 1087.77 305.6C1062.39 272.141 1046.11 204.285 1026.92 192.128C1024.47 190.583 1012.89 185.791 1010.13 185.869C996.42 186.26 985.696 212.15 985.696 212.15V212.166Z" fill="#CF3045"/>
<mask id="mask31_1519_616" style="mask-type:luminance" maskUnits="userSpaceOnUse" x="985" y="185" width="114" height="148">
<path d="M985.697 212.166C985.697 212.166 982.357 232.751 996.952 261.263C1009.5 285.765 1010.11 268.489 1028.44 328.62C1053.15 315.791 1076.17 339.388 1098.66 330.773C1097.1 321.909 1096.06 316.525 1087.77 305.6C1062.39 272.141 1046.11 204.285 1026.92 192.128C1024.47 190.583 1012.89 185.792 1010.13 185.87C996.421 186.26 985.697 212.15 985.697 212.15V212.166Z" fill="white"/>
</mask>
<g mask="url(#mask31_1519_616)">
<path fill-rule="evenodd" clip-rule="evenodd" d="M1006.19 211.823C1006.19 211.823 1003.62 223.465 1002.59 235.45L993.829 222.435C993.126 230.425 1001.88 251.587 1003.76 256.519C1009.94 272.749 1029.03 270.845 1036.08 279.85C1046.81 293.505 1056.25 300.013 1072.86 308.253C1080.54 312.061 1100.77 311.796 1099.41 308.378C1098.05 304.96 1042.45 201.928 1034.94 197.2C1027.44 192.471 1009.09 189.755 1006.75 193.329C1004.41 196.903 1006.19 211.807 1006.19 211.807V211.823Z" fill="#941237"/>
</g>
<path fill-rule="evenodd" clip-rule="evenodd" d="M1036.57 239.211L1042.81 244.736C1042.81 244.736 1038.66 247.249 1032.28 249.184C1025.88 251.135 1011.19 253.694 1008.89 253.382C1006.58 253.07 1005.13 252.29 1005.13 252.29L1036.58 239.196L1036.57 239.211Z" fill="#D5930C"/>
<path fill-rule="evenodd" clip-rule="evenodd" d="M1069.21 162.351C1072.25 167.236 1108.26 225.666 1120.16 263.776C1126.42 283.845 1131.1 296.049 1119.21 302.152C1107.31 308.254 1094.15 317.742 1085.91 304.321C1077.67 290.899 1024.66 190.427 1023.44 174.555C1022.22 158.699 1032.89 156.858 1041.41 154.111C1049.93 151.364 1066.17 157.451 1069.22 162.336L1069.21 162.351Z" fill="#373E83"/>
<mask id="mask32_1519_616" style="mask-type:luminance" maskUnits="userSpaceOnUse" x="1023" y="153" width="104" height="159">
<path d="M1069.21 162.351C1072.25 167.236 1108.26 225.665 1120.16 263.776C1126.42 283.845 1131.1 296.049 1119.2 302.151C1107.31 308.253 1094.15 317.742 1085.91 304.321C1077.67 290.899 1024.66 190.427 1023.44 174.555C1022.22 158.699 1032.88 156.858 1041.41 154.111C1049.93 151.364 1066.16 157.451 1069.22 162.335L1069.21 162.351Z" fill="white"/>
</mask>
<g mask="url(#mask32_1519_616)">
<path fill-rule="evenodd" clip-rule="evenodd" d="M1029.75 166.268C1029.75 166.268 1038.44 198.932 1049.29 223.824C1060.12 248.716 1087.18 293.412 1096.54 301.464C1105.91 309.517 1118.8 305.101 1111.31 309.221C1103.82 313.341 1101.07 318.179 1091.89 313.497C1082.71 308.815 1024.02 194.531 1021.51 185.417C1018.99 176.303 1029.73 166.268 1029.73 166.268H1029.75Z" fill="#2B3167"/>
</g>
<path fill-rule="evenodd" clip-rule="evenodd" d="M1032.17 279.522L1082.1 287.95C1084.54 290.213 1084.04 292.975 1083.69 296.549L1032.4 284.235L1032.17 279.507V279.522Z" fill="#1D2040"/>
<path fill-rule="evenodd" clip-rule="evenodd" d="M954.618 167.251C955.539 172.433 952.199 178.816 953.088 179.159C955.898 180.267 960.612 178.566 960.612 178.566C960.612 178.566 954.353 165.816 954.603 167.251H954.618Z" fill="#FAA998"/>
<path fill-rule="evenodd" clip-rule="evenodd" d="M1029.72 195.514C1030.51 198.792 1014.78 186.057 1001.28 195.686C985.947 206.61 983.855 229.068 983.855 229.068L978.329 226.992C978.329 226.992 979.297 210.387 989.256 197.465C1003.73 178.706 1026.92 187.477 1026.92 187.477C1026.92 187.477 1029.45 194.437 1029.72 195.53V195.514Z" fill="#1D2040"/>
<mask id="mask33_1519_616" style="mask-type:luminance" maskUnits="userSpaceOnUse" x="978" y="185" width="52" height="45">
<path d="M1029.72 195.514C1030.51 198.791 1014.78 186.057 1001.28 195.686C985.949 206.61 983.857 229.067 983.857 229.067L978.331 226.992C978.331 226.992 979.299 210.387 989.258 197.465C1003.73 178.706 1026.92 187.477 1026.92 187.477C1026.92 187.477 1029.45 194.437 1029.72 195.53V195.514Z" fill="white"/>
</mask>
<g mask="url(#mask33_1519_616)">
<path fill-rule="evenodd" clip-rule="evenodd" d="M1031.45 192.908C1031.45 192.908 1021.02 187.805 1008.42 190.021C998.059 191.847 992.97 199.447 989.021 205.408C986.071 209.872 982.215 225.774 981.81 229.067C981.404 232.36 981.653 233 981.653 233C981.653 233 986.867 237.37 986.82 232.298C986.773 227.241 988.849 213.165 995.171 205.642C1001.49 198.12 1008.53 194.453 1015.32 193.969C1022.11 193.485 1030.96 200.29 1032.18 199.65C1033.4 199.01 1031.46 192.892 1031.46 192.892L1031.45 192.908Z" fill="#292D5D"/>
</g>
<path fill-rule="evenodd" clip-rule="evenodd" d="M1020.71 179.846C1020.13 174.696 1017.92 158.481 1039.43 153.44C1053.72 150.085 1065.07 148.836 1074.45 157.903C1081.51 164.739 1089.78 180.548 1088.19 180.907C1084.47 181.765 1063.17 163.365 1045.83 172.807C1024.39 184.465 1030.92 195.389 1031.46 197.168C1031.71 197.98 1021.27 184.996 1020.69 179.846H1020.71Z" fill="#1D2040"/>
<path fill-rule="evenodd" clip-rule="evenodd" d="M989.724 237.229C989.724 237.229 990.254 223.324 988.647 220.141C987.039 216.957 984.869 222.263 984.869 222.263C984.869 222.263 979.78 216.13 978.188 216.598C976.58 217.066 976.471 219.657 976.471 219.657C976.471 219.657 975.285 219.891 974.317 221.904C973.349 223.917 973.88 225.088 973.88 225.088C973.88 225.088 973.131 225.213 972.803 228.037C972.475 230.862 972.912 230.862 974.208 233.578C975.503 236.293 979.702 242.301 979.702 242.301L989.724 237.229Z" fill="#FAA998"/>
<path fill-rule="evenodd" clip-rule="evenodd" d="M992.44 210.496C993.611 195.577 1017.35 185.37 1025.66 199.993C1029.43 206.673 1058.97 286.53 1034.37 297.797C1008.16 309.798 991.909 265.321 979.015 241.287C978.204 239.789 989.786 235.341 989.786 235.341C999.495 243.862 1004.24 254.334 1014.92 267.24C1000.37 246.359 992.096 215.038 992.455 210.496H992.44Z" fill="#FAA998"/>
<path fill-rule="evenodd" clip-rule="evenodd" d="M1094.42 215.927C1095.28 217.613 1113.32 256.035 1114.45 259.125C1116.01 263.448 1084.93 275.917 1082.74 273.576C1077.7 268.177 1063.76 234.935 1061.25 229.895C1058.25 223.871 1090.94 209.092 1094.43 215.927H1094.42Z" fill="#2B3167"/>
<path fill-rule="evenodd" clip-rule="evenodd" d="M1092.37 211.948C1092.37 211.948 1100.82 219.002 1098.13 227.039C1095.45 235.092 1069.29 243.144 1066.35 241.256C1061.18 237.916 1059.34 226.571 1059.34 226.571C1057.75 222.451 1090.17 207.625 1092.37 211.932V211.948Z" fill="#444D9C"/>
<path fill-rule="evenodd" clip-rule="evenodd" d="M996.421 478.829C996.421 478.829 1002.26 488.521 999.809 491.158C992.113 499.429 971.43 501.474 972.898 506.046C974.365 510.619 991.239 511.618 999.387 512.632C1020.62 515.27 1025.58 510.479 1024.3 508.84L1019.06 477.784L996.421 478.829Z" fill="#1E2346"/>
<path fill-rule="evenodd" clip-rule="evenodd" d="M1117.91 533.716C1117.91 533.716 1125.48 542.128 1123.56 545.187C1117.57 554.769 1097.65 560.7 1099.96 564.913C1102.27 569.127 1119.02 566.911 1127.21 566.349C1148.57 564.913 1152.53 559.264 1150.96 557.906L1139.92 528.395L1117.9 533.701L1117.91 533.716Z" fill="#1E2346"/>
<path fill-rule="evenodd" clip-rule="evenodd" d="M995.11 478.689C994.829 476.91 997.654 476.036 1000.28 477.159C1002.9 478.283 1005.71 490.144 1004.04 493.047C1002.37 495.949 992.05 498.946 989.802 499.133C987.554 499.32 985.494 499.414 987.086 498.009C988.678 496.605 997.591 495.387 997.779 490.503C997.966 485.634 995.39 480.468 995.11 478.689Z" fill="#373B7E"/>
<path fill-rule="evenodd" clip-rule="evenodd" d="M1117.39 534.231C1116.79 532.53 1117.54 531.734 1120.33 532.343C1123.12 532.952 1129.18 543.049 1128.09 546.217C1126.99 549.385 1117.43 554.285 1115.27 554.894C1113.1 555.503 1111.09 555.986 1112.4 554.301C1113.7 552.615 1122.2 549.728 1121.47 544.906C1120.74 540.084 1118.02 535.901 1117.39 534.216V534.231Z" fill="#373B7E"/>
<path fill-rule="evenodd" clip-rule="evenodd" d="M954.182 167.298C954.182 167.298 957.148 177.707 963.126 174.945C970.229 171.668 965.733 165.191 965.733 165.191L975.833 160.541L976.316 158.652L954.182 167.298Z" fill="#3B2E4F"/>
<mask id="mask34_1519_616" style="mask-type:luminance" maskUnits="userSpaceOnUse" x="954" y="158" width="23" height="18">
<path d="M954.181 167.298C954.181 167.298 957.147 177.707 963.125 174.945C970.228 171.668 965.732 165.191 965.732 165.191L975.832 160.541L976.315 158.652L954.181 167.298Z" fill="white"/>
</mask>
<g mask="url(#mask34_1519_616)">
<path fill-rule="evenodd" clip-rule="evenodd" d="M952.072 165.222L969.056 168.952V171.262L952.072 167.548V165.222Z" fill="#313672"/>
<path fill-rule="evenodd" clip-rule="evenodd" d="M951.37 168.344L968.354 172.074V173.01L951.37 169.296V168.344Z" fill="#313672"/>
</g>
<path fill-rule="evenodd" clip-rule="evenodd" d="M1005.11 252.305C1016.68 247.046 1030.25 243.675 1042.81 244.736C1042.81 244.736 1036.24 204.769 1026.2 197.215C1018.12 191.129 1005.05 190.161 996.513 199.837C989.224 208.109 989.489 211.074 993.782 222.404C998.074 233.718 1005.1 252.321 1005.1 252.321L1005.11 252.305Z" fill="#CF3045"/>
<path fill-rule="evenodd" clip-rule="evenodd" d="M1078.14 166.018C1094.15 187.914 1105.53 214.694 1115.68 240.85L1111.81 242.286C1114.26 241.116 1080.73 170.201 1074.2 166.128C1067.6 162.008 1076.78 164.395 1078.14 166.018Z" fill="#1D2040"/>
<path fill-rule="evenodd" clip-rule="evenodd" d="M1082.29 232.298C1081.4 232.298 1080.68 233.001 1080.68 233.875C1080.68 234.749 1081.4 235.451 1082.29 235.451C1083.18 235.451 1083.9 234.749 1083.9 233.875C1083.9 233.001 1083.18 232.298 1082.29 232.298Z" fill="#1D2040"/>
<path fill-rule="evenodd" clip-rule="evenodd" d="M981.703 237.027L989.788 233.749L991.146 236.59L982.748 239.773L981.703 237.027Z" fill="#1E2245"/>
<path fill-rule="evenodd" clip-rule="evenodd" d="M979.595 234.108C977.175 235.138 976.114 238.041 977.191 240.585C978.284 243.113 981.125 244.33 983.544 243.3C985.964 242.27 987.025 239.368 985.948 236.824C984.855 234.296 982.014 233.078 979.595 234.108Z" fill="#1E2245"/>
<path fill-rule="evenodd" clip-rule="evenodd" d="M979.189 234.358C976.91 235.341 975.88 238.088 976.91 240.491C977.94 242.895 980.641 244.05 982.92 243.066C985.199 242.083 986.229 239.337 985.199 236.933C984.168 234.53 981.468 233.375 979.189 234.358Z" fill="#313774"/>
<mask id="mask35_1519_616" style="mask-type:luminance" maskUnits="userSpaceOnUse" x="976" y="234" width="10" height="10">
<path d="M979.187 234.358C976.908 235.341 975.878 238.088 976.908 240.491C977.938 242.895 980.639 244.05 982.918 243.066C985.197 242.083 986.227 239.337 985.197 236.933C984.166 234.53 981.466 233.375 979.187 234.358Z" fill="white"/>
</mask>
<g mask="url(#mask35_1519_616)">
<path fill-rule="evenodd" clip-rule="evenodd" d="M972.568 234.514L989.551 238.228V240.554L972.568 236.824V234.514Z" fill="#4A54A1"/>
<path fill-rule="evenodd" clip-rule="evenodd" d="M971.865 237.62L988.849 241.35V242.302L971.865 238.572V237.62Z" fill="#4A54A1"/>
</g>
</g>
</g>
<defs>
<linearGradient id="paint0_linear_1519_616" x1="6.65507e-07" y1="362.341" x2="1221.55" y2="331.883" gradientUnits="userSpaceOnUse">
<stop/>
<stop offset="1" stop-opacity="0"/>
</linearGradient>
</defs>
</svg>
