<svg width="565" height="283" viewBox="0 0 565 283" fill="none" xmlns="http://www.w3.org/2000/svg">
<mask id="mask0_1457_1090" style="mask-type:alpha" maskUnits="userSpaceOnUse" x="0" y="0" width="565" height="283">
<path d="M0 0H565V283H0V0Z" fill="#C3D0D2"/>
</mask>
<g mask="url(#mask0_1457_1090)">
<mask id="mask1_1457_1090" style="mask-type:luminance" maskUnits="userSpaceOnUse" x="-5" y="-147" width="576" height="461">
<path d="M570.423 -146.717H-4.47314V313.2H570.423V-146.717Z" fill="white"/>
</mask>
<g mask="url(#mask1_1457_1090)">
<path d="M570.423 -146.717H-4.47314V313.2H570.423V-146.717Z" fill="#0684B6"/>
<path d="M-5.44814 174.227V-102.248H-9.18231C-7.56385 -103.691 -5.93563 -105.124 -4.29767 -106.557C-1.01199 -109.424 2.32244 -112.28 5.70562 -115.118C19.2578 -126.486 33.6193 -137.649 48.7607 -148.579V-147.701H571.398V314.166H-5.44814V174.207V174.227Z" fill="#0684B6"/>
<path d="M-5.44816 172.618V-96.7782H-8.36334C-2.06498 -102.501 4.43813 -108.176 11.1362 -113.801C24.5519 -125.053 38.7671 -136.109 53.7526 -146.921C55.6245 -148.277 57.5062 -149.622 59.4074 -150.968V-147.692H571.398V314.175H-5.44816V172.608V172.618Z" fill="#0A85B7"/>
<path d="M-5.44814 171.009V-87.1162H-11.922C-8.90931 -89.9632 -5.84788 -92.8101 -2.7377 -95.6375C3.49242 -101.302 9.92728 -106.918 16.5669 -112.485C29.8461 -123.619 43.915 -134.568 58.7542 -145.274C62.4591 -147.955 66.2128 -150.617 70.0152 -153.259V-147.692H571.398V314.175H4.76964V317.715C1.55221 315.989 -1.62622 314.244 -4.74615 312.459C-6.30612 311.572 -7.85633 310.665 -9.38705 309.768H-5.43839V171L-5.44814 171.009Z" fill="#0E86B7"/>
<path d="M-5.44816 169.401V-86.0634H-6.20865C-3.22521 -88.881 -0.193025 -91.6987 2.88791 -94.4969C9.04978 -100.103 15.4261 -105.66 21.9877 -111.169C35.1207 -122.186 49.0629 -133.018 63.7363 -143.616C67.4023 -146.268 71.1267 -148.901 74.8804 -151.523V-147.692H571.388V314.175H20.028V319.616C13.4567 316.33 7.07057 312.927 0.89895 309.398C-2.19173 307.633 -5.22392 305.839 -8.2171 304.016H-5.44816V169.391V169.401Z" fill="#1186B8"/>
<path d="M-5.44815 167.792V-76.6059H-9.17257C2.20543 -87.8572 14.4219 -98.9524 27.4184 -109.853C40.4149 -120.763 54.2108 -131.478 68.7283 -141.959C72.3552 -144.581 76.0406 -147.185 79.765 -149.778V-147.682H571.398V314.185H25.4782V316.457C18.9751 313.21 12.6572 309.837 6.54409 306.346C0.43097 302.856 -5.4774 299.249 -11.181 295.524H-5.44815V167.802V167.792Z" fill="#1387B8"/>
<path d="M-5.44812 166.183V-67.2658H-11.649C-8.93855 -70.0639 -6.17935 -72.8621 -3.36167 -75.6408C7.89934 -86.7653 19.9891 -97.7533 32.8491 -108.546C45.709 -119.339 59.3587 -129.937 73.7299 -140.321C77.3276 -142.914 80.9643 -145.498 84.6497 -148.062V-147.702H571.408V314.165H40.7269V317.997C37.412 316.447 34.1458 314.867 30.9283 313.259C24.4935 310.041 18.2439 306.707 12.199 303.255C6.15413 299.804 0.304255 296.226 -5.34087 292.54C-6.75459 291.614 -8.14881 290.688 -9.53328 289.752H-5.43837V166.164L-5.44812 166.183Z" fill="#1688B9"/>
<path d="M-5.44816 164.575V-66.3882H-5.75041C-3.06921 -69.1571 -0.329524 -71.9163 2.44917 -74.6755C13.5932 -85.683 25.5464 -96.554 38.2699 -107.23C50.9934 -117.906 64.4968 -128.397 78.712 -138.663C85.8196 -143.792 93.1125 -148.871 100.581 -153.883V-147.692H571.398V314.175H56.0438V319.284C42.5598 313.395 29.8071 307.029 17.8441 300.194C11.8577 296.782 6.07609 293.243 0.489459 289.596C-2.29898 287.773 -5.03867 285.92 -7.72961 284.039H-5.43841V164.565L-5.44816 164.575Z" fill="#1888BA"/>
<path d="M-5.44814 162.966V-57.2721H-7.65159C-2.55245 -62.7905 2.76118 -68.2699 8.26982 -73.7103C19.2871 -84.6008 31.1233 -95.3451 43.7103 -105.914C56.2973 -116.483 69.6545 -126.856 83.7234 -137.006C90.753 -142.086 97.9679 -147.107 105.358 -152.069V-147.692H571.418V314.175H61.2794V316.018C34.6137 304.367 10.8145 290.815 -9.6308 275.488H-5.43839V162.966H-5.44814Z" fill="#1B89BA"/>
<path d="M-5.44813 161.357V-48.2828H-9.0848C-6.66685 -51.0225 -4.19041 -53.7622 -1.67496 -56.4824C3.36568 -61.9325 8.62082 -67.3631 14.0709 -72.745C24.9712 -83.5185 36.671 -94.1458 49.1214 -104.598C61.5719 -115.049 74.7829 -125.306 88.6958 -135.358C95.6572 -140.379 102.784 -145.352 110.097 -150.256V-147.692H571.398V314.175H76.5378V316.974C73.1547 315.589 69.8105 314.185 66.5151 312.742C40.1321 301.218 16.5961 287.822 -3.62492 272.651C-6.15012 270.76 -8.62656 268.829 -11.0543 266.879H-5.44813V161.357Z" fill="#1D8ABB"/>
<path d="M-5.44814 159.748V-39.43H-10.0305C8.27956 -61.2305 29.9338 -82.6215 54.5618 -103.281C66.8758 -113.616 79.9405 -123.766 93.6975 -133.701C100.581 -138.663 107.63 -143.577 114.855 -148.433V-147.692H571.398V314.175H91.8353V317.666C84.9714 315.053 78.2733 312.323 71.7507 309.466C45.6603 298.069 22.3875 284.819 2.38094 269.814C-2.6207 266.06 -7.4176 262.199 -12 258.241H-5.44814V159.748Z" fill="#1F8ABB"/>
<path d="M-5.44812 158.14V-30.7235H-10.518C-8.3633 -33.434 -6.1501 -36.1347 -3.88815 -38.8256C14.2172 -60.3824 35.6277 -81.5394 59.9925 -101.975C72.17 -112.193 85.0884 -122.235 98.6991 -132.053C105.504 -136.967 112.485 -141.822 119.622 -146.619C123.191 -149.018 126.808 -151.406 130.464 -153.776V-147.692H571.408V314.175H96.8467V314.302C90.0608 311.718 83.431 309.018 76.9864 306.2C51.1884 294.929 28.1692 281.825 8.38684 266.986C3.44369 263.281 -1.30445 259.459 -5.83811 255.54H-5.44812V158.14Z" fill="#218BBC"/>
<path d="M-5.44816 156.531V-22.1631H-10.5473C-6.49139 -27.5352 -2.21123 -32.8976 2.26392 -38.221C20.1645 -59.5438 41.3411 -80.4473 65.4231 -100.659C77.4641 -110.759 90.2363 -120.685 103.691 -130.405C110.418 -135.261 117.321 -140.067 124.38 -144.806C127.909 -147.175 131.488 -149.534 135.095 -151.874V-147.692H571.408V314.175H122.489V318.261C108.42 313.61 94.9747 308.491 82.222 302.924C56.7165 291.78 33.9507 278.823 14.3927 264.149C9.50802 260.483 4.81837 256.71 0.333464 252.83C-1.90899 250.89 -4.09294 248.92 -6.23789 246.931H-5.44816V156.521V156.531Z" fill="#228CBC"/>
<path d="M-5.44815 154.922V-13.7491H-10.1281C-8.22684 -16.4205 -6.26714 -19.0822 -4.25868 -21.7342C-0.241766 -27.0478 3.97989 -32.3419 8.4063 -37.6166C26.1022 -58.6956 47.035 -79.3652 70.844 -99.3425C82.7484 -109.326 95.3744 -119.144 108.683 -128.748C115.332 -133.545 122.157 -138.293 129.138 -142.992C132.628 -145.342 136.168 -147.672 139.736 -149.983V-147.692H571.408V314.175H127.266V314.819C113.353 310.227 100.064 305.167 87.4576 299.658C62.2349 288.641 39.7324 275.829 20.3985 261.331C10.7267 254.078 1.85444 246.405 -6.16964 238.322H-5.44815V154.922Z" fill="#248CBD"/>
<path d="M-5.44814 153.314V-5.50062H-9.2603C-2.15271 -16.0791 5.79337 -26.5992 14.5389 -37.0119C32.0301 -57.8472 52.7191 -78.2828 76.2648 -98.0261C88.0328 -107.903 100.513 -117.604 113.665 -127.09C120.236 -131.838 126.983 -136.528 133.886 -141.169C137.338 -143.489 140.828 -145.79 144.357 -148.082V-147.682H571.398V314.185H153.132V317.851C145.956 315.813 138.927 313.649 132.043 311.377C118.286 306.834 105.153 301.832 92.6932 296.392C67.763 285.501 45.5238 272.836 26.4044 258.504C16.8496 251.338 8.07482 243.753 0.138493 235.768C-3.82967 231.77 -7.59309 227.675 -11.1323 223.483H-5.44814V153.323V153.314Z" fill="#268DBD"/>
<path d="M-5.44813 151.705V2.59165H-7.94408C-6.29636 -0.0310473 -4.59015 -2.64399 -2.83519 -5.25694C4.18466 -15.7087 12.043 -26.102 20.6911 -36.3978C37.9774 -56.9893 58.4325 -77.1909 81.6955 -96.71C104.958 -116.229 131.039 -135.066 159.587 -152.927V-147.682H571.398V314.185H179.379V320.035C120.353 305.742 70.1907 284.01 32.4103 255.667C22.9628 248.579 14.2952 241.091 6.44661 233.194C2.5272 229.245 -1.18747 225.199 -4.68765 221.055C-6.44261 218.978 -8.13907 216.882 -9.77704 214.767H-5.44813V151.715V151.705Z" fill="#288EBE"/>
<path d="M-5.44813 150.096V10.5183H-6.19887C-3.14718 5.32162 0.118998 0.144478 3.58992 -5.02291C10.5318 -15.3577 18.2926 -25.6242 26.8334 -35.803C43.9248 -56.1508 64.1264 -76.1184 87.1261 -95.4035C110.116 -114.689 135.895 -133.311 164.101 -150.958V-147.692H571.398V314.175H183.659V316.437C125.326 302.31 75.7579 280.831 38.4259 252.83C19.7551 238.829 4.14566 223.2 -7.97333 206.041H-5.43838V150.096H-5.44813Z" fill="#298EBE"/>
<path d="M-5.44815 148.488V25.9912H-8.08059C12.6767 -15.1919 47.113 -55.9655 92.547 -94.0872C115.264 -113.148 140.73 -131.536 168.605 -148.979V-147.682H571.398V310.724H573.728C571.291 311.212 568.853 311.699 566.426 312.167C561.561 313.113 556.705 314.02 551.86 314.897V314.185H209.954V317.744C202.486 316.233 195.144 314.595 187.939 312.85C130.298 298.898 81.325 277.672 44.4318 250.002C25.9852 236.167 10.561 220.724 -1.42148 203.769C-4.41467 199.528 -7.19336 195.199 -9.7478 190.772H-5.4384V148.488H-5.44815Z" fill="#2B8FBF"/>
<path d="M-5.44815 146.879V41.1325H-8.49008C-6.35488 36.0431 -4.00518 30.944 -1.44098 25.8643C19.0628 -14.8215 53.0896 -55.1077 97.9776 -92.7613C120.422 -111.588 145.576 -129.762 173.119 -146.999C176.561 -149.154 180.042 -151.289 183.561 -153.415V-147.682H571.398V307.156H573.358C570.95 307.643 568.541 308.111 566.143 308.579C561.336 309.515 556.539 310.412 551.752 311.28C532.604 314.741 513.631 317.666 494.872 320.064V314.175H236.473V318.241C221.215 315.706 206.444 312.703 192.209 309.261C135.261 295.475 86.8824 274.503 50.4279 247.165C32.2055 233.496 16.9666 218.237 5.13038 201.487C-0.787747 193.112 -5.84789 184.367 -10.011 175.26H-5.44815V146.879Z" fill="#2C90C0"/>
<path d="M-5.44816 145.27V55.9033H-7.44687C-4.09294 45.8415 0.138467 35.77 5.19861 25.718C25.4489 -14.4707 59.0662 -54.2693 103.399 -91.4647C125.57 -110.067 150.422 -128.017 177.624 -145.04C181.026 -147.165 184.458 -149.281 187.939 -151.377V-147.692H571.398V303.587H572.987C570.608 304.065 568.229 304.533 565.86 304.991C561.112 305.917 556.374 306.804 551.645 307.653C532.73 311.075 513.982 313.961 495.457 316.33V314.165H286.792V320.669C254.852 317.51 224.618 312.469 196.489 305.664C140.233 292.043 92.4397 271.325 56.4435 244.328C38.4454 230.824 23.3917 215.751 11.7017 199.206C5.86159 190.938 0.850203 182.29 -3.25446 173.301C-5.31166 168.806 -7.14463 164.214 -8.74359 159.544H-5.43841V145.26L-5.44816 145.27Z" fill="#2D90C0"/>
<path d="M-5.44816 143.661V85.1528H-7.95386C-4.87292 65.3803 1.83493 45.442 11.8285 25.5914C31.835 -14.1 65.0233 -53.4111 108.819 -90.1484C130.717 -108.517 155.258 -126.242 182.128 -143.06C185.482 -145.166 188.885 -147.253 192.317 -149.32V-147.692H571.388V300.028H572.607C570.257 300.496 567.908 300.964 565.568 301.423C560.878 302.329 556.198 303.207 551.528 304.055C532.847 307.438 514.333 310.285 496.032 312.625C459.432 317.305 423.679 319.938 389.194 320.62V314.185H289.941V316.915C258.401 313.795 228.527 308.823 200.75 302.095C89.6513 275.176 11.9552 220.246 -5.99415 143.661H-5.43841H-5.44816Z" fill="#2F91C1"/>
<path d="M0.859959 142.053C-8.0026 104.233 -1.27525 64.6588 18.4778 25.4549C38.2309 -13.7392 71.0097 -52.5531 114.26 -88.8321C135.885 -106.976 160.123 -124.477 186.652 -141.081C193.282 -145.235 200.058 -149.33 206.98 -153.356V-147.682H571.398V296.47H572.246C569.926 296.938 567.606 297.396 565.295 297.845C560.664 298.742 556.042 299.609 551.431 300.448C532.984 303.782 514.703 306.6 496.627 308.911C460.485 313.532 425.171 316.135 391.125 316.808C323.013 318.153 259.902 311.787 205.04 298.508C95.3159 271.939 18.5851 217.692 0.859959 142.062V142.053Z" fill="#3092C1"/>
<path d="M7.72381 140.444C-9.77707 65.7704 34.292 -15.8744 119.69 -87.5158C141.042 -105.426 164.968 -122.713 191.166 -139.102C197.718 -143.197 204.406 -147.243 211.231 -151.231V-147.692H571.398V292.901H571.876C569.585 293.36 567.294 293.818 565.012 294.257C560.439 295.144 555.877 296.002 551.323 296.821C533.111 300.116 515.064 302.895 497.212 305.176C461.518 309.739 426.663 312.304 393.045 312.976C325.801 314.302 263.48 308.023 209.32 294.91C100.981 268.683 25.2247 215.118 7.72381 140.444Z" fill="#3293C2"/>
<path d="M14.5877 138.835C-2.68898 65.1169 40.8146 -15.4846 125.111 -86.1998C146.19 -103.876 169.814 -120.948 195.67 -137.123C202.135 -141.169 208.745 -145.157 215.482 -149.096V-147.682H571.398V289.343H571.505C569.243 289.801 566.982 290.24 564.729 290.678C560.215 291.556 555.711 292.404 551.216 293.213C533.237 296.47 515.415 299.209 497.797 301.462C462.561 305.966 428.154 308.501 394.966 309.154C328.58 310.461 267.068 304.26 213.591 291.312C106.645 265.417 31.8545 212.543 14.5779 138.825L14.5877 138.835Z" fill="#3393C2"/>
<path d="M21.4515 137.227C4.39915 64.4639 47.3372 -15.0847 130.542 -84.8932C151.348 -102.345 174.66 -119.183 200.185 -135.163C206.571 -139.161 213.084 -143.099 219.743 -146.98C223.067 -148.92 226.431 -150.851 229.824 -152.761V-147.701H571.408V284.39H577.853C568.912 286.242 560.001 287.978 551.128 289.577C533.384 292.784 515.795 295.495 498.411 297.718C463.634 302.164 429.675 304.669 396.916 305.313C331.397 306.61 270.676 300.487 217.9 287.705C112.339 262.151 38.5234 209.96 21.471 137.207L21.4515 137.227Z" fill="#3494C3"/>
<path d="M28.3154 135.618C11.4873 63.8203 53.8599 -14.6948 135.973 -83.577C156.496 -100.795 179.515 -117.419 204.699 -133.184C210.997 -137.123 217.432 -141.013 223.994 -144.845C227.279 -146.756 230.594 -148.657 233.938 -150.548V-147.701H571.398V280.851H577.385C568.561 282.684 559.767 284.39 551.011 285.969C533.501 289.138 516.146 291.809 498.986 294.003C464.667 298.39 431.157 300.857 398.827 301.501C334.166 302.778 274.254 296.733 222.161 284.127C117.994 258.904 45.1435 207.405 28.3154 135.608V135.618Z" fill="#3595C4"/>
<path d="M35.1793 134.009C18.5754 63.167 60.3825 -14.2951 141.393 -82.2608C161.644 -99.2547 184.351 -115.654 209.203 -131.205C221.634 -138.985 234.592 -146.551 248.066 -153.873V-147.692H571.398V277.311H576.926C568.22 279.115 559.542 280.802 550.904 282.362C533.628 285.491 516.497 288.124 499.572 290.298C465.71 294.627 432.639 297.064 400.748 297.698C336.945 298.956 277.832 292.999 226.441 280.558C123.659 255.677 51.7831 204.861 35.1793 134.019V134.009Z" fill="#3795C4"/>
<path d="M42.0431 132.4C25.6634 62.5138 66.905 -13.8953 146.824 -80.9446C166.801 -97.7045 189.206 -113.879 213.717 -129.226C225.973 -136.899 238.765 -144.357 252.054 -151.582V-147.682H571.408V273.782H576.478C567.888 275.566 559.328 277.224 550.807 278.764C533.764 281.845 516.868 284.448 500.166 286.584C466.763 290.854 434.141 293.262 402.668 293.876C339.733 295.115 281.41 289.235 230.721 276.96C129.333 252.41 58.4227 202.287 42.0431 132.4Z" fill="#3896C5"/>
<path d="M48.8972 130.792C32.7418 61.8606 73.4179 -13.5052 152.245 -79.6381C171.949 -96.1737 194.042 -112.124 218.222 -127.256C230.312 -134.822 242.928 -142.183 256.031 -149.31V-147.692H571.398V270.223H576.01C567.537 271.978 559.094 273.616 550.69 275.137C533.881 278.179 517.219 280.743 500.741 282.859C467.797 287.071 435.623 289.44 404.579 290.054C342.502 291.283 284.988 285.482 234.982 273.373C134.978 249.164 65.0428 199.723 48.8874 130.792H48.8972Z" fill="#3997C5"/>
<path d="M55.7611 129.183C39.8299 61.2073 79.9405 -13.1056 157.676 -78.322C177.107 -94.6236 198.898 -110.36 222.736 -125.277C234.66 -132.736 247.101 -139.999 260.019 -147.019C263.246 -148.774 266.513 -150.519 269.798 -152.245V-147.682H571.398V266.684H575.552C567.196 268.42 558.87 270.038 550.582 271.53C534.008 274.533 517.57 277.058 501.326 279.144C468.84 283.298 437.114 285.638 406.5 286.242C345.291 287.451 288.567 281.728 239.262 269.794C140.643 245.917 71.6825 197.168 55.7513 129.193L55.7611 129.183Z" fill="#3A97C6"/>
<path d="M62.6249 127.574C46.918 60.5639 86.4631 -12.7155 163.106 -77.0056C182.265 -93.083 203.743 -108.595 227.26 -123.307C239.018 -130.668 251.283 -137.825 264.017 -144.747C267.205 -146.483 270.412 -148.199 273.659 -149.895V-147.692H571.408V263.135H575.103C566.864 264.842 558.655 266.441 550.485 267.913C534.144 270.867 517.94 273.363 501.921 275.42C469.893 279.515 438.606 281.816 408.43 282.42C348.079 283.61 292.154 277.975 243.542 266.207C146.317 242.671 78.3318 194.604 62.6151 127.584L62.6249 127.574Z" fill="#3C98C7"/>
<path d="M69.4887 125.965C54.0061 59.9106 92.9857 -12.3159 168.527 -75.6895C187.412 -91.5329 208.579 -106.821 231.764 -121.328C243.357 -128.582 255.437 -135.631 267.994 -142.466C274.273 -145.878 280.669 -149.242 287.172 -152.537V-147.701H571.398V259.577H574.635C566.513 261.263 558.431 262.833 550.368 264.286C534.261 267.201 518.291 269.658 502.506 271.686C470.936 275.722 440.098 277.994 410.351 278.579C350.868 279.749 295.742 274.191 247.822 262.589C151.982 239.385 84.9714 192.01 69.4887 125.946V125.965Z" fill="#3D99C7"/>
<path d="M76.3526 124.357C61.0942 59.2574 99.5083 -11.9259 173.958 -74.383C192.57 -89.9924 213.435 -105.066 236.278 -119.359C247.695 -126.505 259.61 -133.457 271.982 -140.184C278.173 -143.548 284.472 -146.853 290.887 -150.11V-147.701H571.408V256.028H574.187C566.182 257.685 558.216 259.235 550.27 260.669C534.398 263.545 518.652 265.963 503.101 267.961C471.989 271.939 441.599 274.182 412.282 274.757C353.656 275.917 299.33 270.438 252.112 259.001C157.666 236.138 91.6208 189.437 76.3623 124.337L76.3526 124.357Z" fill="#3E9AC8"/>
<path d="M83.2165 122.748C68.1823 58.6042 106.031 -11.526 179.388 -73.0667C197.728 -88.4518 218.28 -103.301 240.793 -117.379C252.044 -124.419 263.783 -131.273 275.98 -137.903C282.073 -141.218 288.284 -144.474 294.602 -147.682C297.761 -149.281 300.949 -150.87 304.156 -152.44V-147.701H571.408V252.489H573.728C565.841 254.127 557.992 255.647 550.163 257.061C534.525 259.889 519.013 262.277 503.686 264.247C473.033 268.166 443.091 270.37 414.202 270.945C356.435 272.086 302.908 266.684 256.382 255.423C163.321 232.891 98.2507 186.882 83.2165 122.748Z" fill="#3F9AC8"/>
<path d="M90.0803 121.139C75.2704 57.9509 112.554 -11.1361 184.819 -71.7505C202.885 -86.9017 223.136 -101.526 245.307 -115.4C256.392 -122.332 267.955 -129.079 279.967 -135.612C285.973 -138.878 292.086 -142.086 298.316 -145.244C301.426 -146.824 304.566 -148.384 307.735 -149.934V-147.692H571.427V248.949H573.29C565.519 250.558 557.787 252.059 550.085 253.454C534.68 256.242 519.403 258.592 504.3 260.532C474.105 264.393 444.602 266.567 416.152 267.133C359.253 268.254 306.526 262.94 260.692 251.845C169.024 229.654 104.919 184.328 90.1095 121.149L90.0803 121.139Z" fill="#409BC9"/>
<path d="M96.9441 119.53C82.3585 57.3073 119.076 -10.7365 190.24 -70.4344C225.817 -100.288 270.013 -128.046 320.712 -151.962V-147.692H571.408V245.41H572.812C565.168 246.999 557.544 248.481 549.958 249.846C534.778 252.596 519.734 254.906 504.866 256.817C475.129 260.62 446.074 262.765 418.053 263.311C362.012 264.412 310.084 259.177 264.943 248.247C174.66 226.388 111.53 181.754 96.9441 119.53Z" fill="#419CC9"/>
<path d="M103.798 117.922C89.4368 56.6541 125.599 -10.3367 195.661 -69.1279C230.692 -98.5235 274.205 -125.862 324.124 -149.398V-147.692H571.398V241.861H572.344C564.817 243.421 557.31 244.884 549.841 246.229C534.895 248.93 520.085 251.211 505.441 253.093C476.152 256.837 447.556 258.943 419.964 259.489C364.79 260.581 313.662 255.423 269.213 244.659C180.324 223.142 118.16 179.189 103.798 117.922Z" fill="#429DCA"/>
<path d="M110.662 116.313C96.5249 56.001 132.121 -9.9466 201.091 -67.8116C235.576 -96.7392 278.407 -123.658 327.546 -146.834C330.617 -148.286 333.708 -149.72 336.828 -151.133V-147.692H571.398V238.312H571.886C564.476 239.853 557.085 241.286 549.734 242.612C535.022 245.274 520.446 247.516 506.036 249.369C477.205 253.054 449.058 255.131 421.895 255.667C367.579 256.739 317.25 251.66 273.503 241.071C185.999 219.885 124.809 176.625 110.672 116.313H110.662Z" fill="#449DCB"/>
<path d="M117.526 114.704C103.613 55.3477 138.644 -9.54686 206.522 -66.4954C240.461 -94.9648 282.609 -121.455 330.968 -144.26C337.013 -147.107 343.156 -149.905 349.386 -152.635V-147.692H571.398V234.773H571.427C564.135 236.284 556.861 237.698 549.627 239.005C535.148 241.627 520.807 243.831 506.621 245.654C478.249 249.281 450.55 251.318 423.816 251.855C370.367 252.908 320.829 247.916 277.774 237.493C191.663 216.648 131.439 174.071 117.526 114.714V114.704Z" fill="#459ECB"/>
<path d="M124.39 113.096C110.701 54.6945 145.167 -9.15685 211.953 -65.1791C245.346 -93.1903 286.821 -119.251 334.391 -141.686C340.338 -144.494 346.383 -147.243 352.515 -149.924V-147.682H571.408V230.103H576.361C574.567 230.493 572.763 230.863 570.969 231.244C563.793 232.735 556.637 234.12 549.52 235.407C535.275 237.981 521.158 240.155 507.206 241.949C479.292 245.517 452.032 247.526 425.736 248.043C373.146 249.076 324.417 244.172 282.054 233.915C197.328 213.402 138.079 171.517 124.39 113.115V113.096Z" fill="#469FCC"/>
<path d="M131.254 111.487C117.789 54.051 151.689 -8.75716 217.374 -63.863C250.221 -91.4159 291.014 -117.048 337.803 -139.122C343.653 -141.881 349.59 -144.581 355.626 -147.233C358.638 -148.559 361.68 -149.866 364.742 -151.153V-147.692H571.398V226.564H575.805C574.04 226.944 572.266 227.314 570.501 227.685C563.442 229.147 556.403 230.512 549.403 231.78C535.392 234.315 521.508 236.45 507.781 238.215C480.325 241.725 453.513 243.704 427.647 244.211C375.915 245.235 327.985 240.399 286.314 230.308C202.983 210.135 144.699 168.933 131.234 111.487H131.254Z" fill="#47A0CC"/>
<path d="M138.118 109.878C124.877 53.3978 158.212 -8.36709 222.804 -62.5564C255.105 -89.6511 295.216 -114.854 341.225 -136.557C352.73 -141.988 364.605 -147.194 376.812 -152.157V-147.692H571.398V223.034H575.259C573.524 223.405 571.788 223.775 570.043 224.136C563.101 225.579 556.179 226.925 549.295 228.163C535.519 230.659 521.869 232.765 508.366 234.49C481.369 237.942 455.005 239.882 429.568 240.389C378.703 241.393 331.563 236.645 290.594 226.72C208.647 206.879 151.338 166.369 138.098 109.878H138.118Z" fill="#48A0CD"/>
<path d="M144.981 108.27C131.965 52.7445 164.734 -7.9674 228.235 -61.2402C259.98 -87.8767 299.418 -112.651 344.647 -133.993C355.957 -139.326 367.628 -144.445 379.63 -149.33V-147.701H571.398V219.505H574.713C573.007 219.875 571.301 220.226 569.595 220.587C562.77 222.001 555.974 223.327 549.198 224.546C535.655 226.993 522.23 229.069 508.961 230.766C482.422 234.159 456.507 236.07 431.498 236.567C381.492 237.552 335.161 232.882 294.884 223.132C214.322 203.632 157.988 163.804 144.981 108.279V108.27Z" fill="#49A1CE"/>
<path d="M151.835 106.661C139.044 52.0914 171.247 -7.57734 233.656 -59.924C264.855 -86.1021 303.61 -110.447 348.069 -131.419C359.184 -136.665 370.65 -141.695 382.447 -146.492C388.346 -148.891 394.322 -151.231 400.387 -153.502V-147.692H571.408V215.985H574.177C572.5 216.346 570.823 216.697 569.146 217.048C562.438 218.442 555.759 219.739 549.1 220.938C535.792 223.346 522.6 225.384 509.555 227.051C483.475 230.386 457.998 232.267 433.429 232.745C384.29 233.71 338.749 229.128 299.165 219.544C219.996 200.376 164.637 161.24 151.845 106.671L151.835 106.661Z" fill="#4AA2CE"/>
<path d="M158.699 105.052C146.132 51.4381 177.77 -7.17766 239.077 -58.6078C269.73 -84.3278 307.803 -108.244 351.482 -128.845C362.402 -133.993 373.672 -138.936 385.255 -143.645C391.047 -146.005 396.926 -148.296 402.883 -150.539V-147.682H571.398V212.466H573.621C571.973 212.817 570.326 213.168 568.678 213.509C562.087 214.874 555.526 216.151 548.983 217.331C535.909 219.7 522.951 221.699 510.14 223.337C484.518 226.613 459.49 228.455 435.35 228.933C387.069 229.889 342.337 225.374 303.445 215.956C225.661 197.119 171.277 158.666 158.709 105.062L158.699 105.052Z" fill="#4BA3CF"/>
<path d="M165.563 103.443C153.22 50.7848 184.293 -6.77794 244.507 -57.3014C274.615 -82.5631 312.005 -106.05 354.904 -126.291C376.354 -136.411 399.178 -145.712 423.153 -154.01V-147.701H571.408V207.864H577.95C574.703 208.585 571.457 209.277 568.229 209.95C561.756 211.296 555.311 212.544 548.886 213.704C536.045 216.024 523.312 217.994 510.735 219.602C485.571 222.82 460.992 224.633 437.28 225.101C389.867 226.037 345.925 221.611 307.725 212.358C231.335 193.863 177.916 156.092 165.573 103.443H165.563Z" fill="#4CA3CF"/>
<path d="M172.427 101.835C160.308 50.1414 190.815 -6.38784 249.938 -55.985C279.499 -80.7885 316.207 -103.847 358.326 -123.717C379.386 -133.652 401.791 -142.778 425.327 -150.928V-147.692H571.398V204.364H577.307C574.118 205.066 570.94 205.748 567.762 206.411C561.405 207.727 555.077 208.956 548.769 210.097C536.162 212.378 523.663 214.308 511.31 215.888C486.604 219.047 462.474 220.821 439.191 221.289C392.636 222.206 349.493 217.857 311.995 208.78C236.99 190.616 184.546 153.538 172.427 101.845V101.835Z" fill="#4DA4D0"/>
<path d="M179.291 100.226C167.396 49.4881 197.338 -5.98823 255.368 -54.6689C284.384 -79.0044 320.419 -101.643 361.748 -121.143C382.418 -130.893 404.413 -139.853 427.511 -147.857V-147.692H571.408V200.854H576.683C573.553 201.546 570.433 202.219 567.313 202.862C561.073 204.159 554.862 205.358 548.671 206.479C536.299 208.722 524.034 210.613 511.905 212.163C487.657 215.264 463.965 217.009 441.121 217.457C395.424 218.354 353.091 214.094 316.275 205.182C242.665 187.36 191.186 150.964 179.291 100.226Z" fill="#4EA5D1"/>
<path d="M186.155 98.6174C174.484 48.835 203.86 -5.59812 260.799 -53.3526C289.268 -77.2298 324.621 -99.4496 365.171 -118.579C385.45 -128.143 407.026 -136.938 429.695 -144.786C435.359 -146.746 441.092 -148.647 446.893 -150.49V-147.692H571.408V197.353H576.039C572.968 198.036 569.906 198.689 566.845 199.323C560.722 200.59 554.629 201.78 548.564 202.872C536.426 205.066 524.385 206.928 512.49 208.449C488.7 211.491 465.457 213.207 443.042 213.645C398.213 214.533 356.669 210.34 320.556 201.595C248.329 184.104 197.825 148.4 186.155 98.6174Z" fill="#4FA6D1"/>
<path d="M193.019 97.0085C181.572 48.1816 210.383 -5.19854 266.22 -52.0463C294.134 -75.4653 328.814 -97.256 368.583 -116.015C388.473 -125.394 409.63 -134.023 431.869 -141.715C442.984 -145.566 454.371 -149.174 465.993 -152.537V-147.692H571.408V193.843H575.405C572.393 194.506 569.39 195.15 566.387 195.774C560.381 197.022 554.404 198.182 548.457 199.255C536.552 201.409 524.745 203.232 513.075 204.724C489.744 207.708 466.949 209.385 444.963 209.823C400.991 210.691 360.247 206.586 324.836 198.007C254.004 180.857 204.465 145.835 193.019 97.0085Z" fill="#50A7D2"/>
<path d="M199.882 95.3998C188.66 47.5283 216.906 -4.80856 271.651 -50.7301C299.018 -73.6908 333.016 -95.0526 372.015 -113.441C391.515 -122.635 412.262 -131.098 434.053 -138.634C444.953 -142.407 456.107 -145.947 467.504 -149.242V-147.682H571.408V190.343H574.772C571.817 190.996 568.873 191.63 565.929 192.235C560.049 193.453 554.18 194.594 548.35 195.647C536.679 197.763 525.106 199.547 513.66 201.009C490.777 203.934 468.44 205.582 446.884 206.011C403.78 206.859 363.835 202.833 329.106 194.428C259.658 177.61 211.095 143.281 199.873 95.4095L199.882 95.3998Z" fill="#51A7D2"/>
<path d="M206.737 93.7912C195.739 46.885 223.428 -4.40864 277.072 -49.4137C303.893 -71.9162 337.208 -92.849 375.427 -110.876C394.537 -119.885 414.865 -128.172 436.227 -135.573C446.903 -139.268 457.842 -142.739 469.016 -145.976C474.602 -147.594 480.238 -149.144 485.941 -150.636V-147.701H571.408V186.824H574.138C571.242 187.467 568.356 188.081 565.47 188.676C559.708 189.875 553.956 190.987 548.242 192.02C536.806 194.087 525.457 195.842 514.255 197.276C491.83 200.142 469.932 201.76 448.814 202.17C406.568 203.008 367.423 199.06 333.396 190.821C265.343 174.344 217.744 140.697 206.746 93.7912H206.737Z" fill="#52A8D3"/>
<path d="M213.6 92.1824C192.063 0.280926 322.077 -108.79 503.998 -151.436V-147.692H571.398V183.323H573.494C570.657 183.947 567.83 184.552 565.012 185.137C559.367 186.307 553.732 187.399 548.135 188.413C536.933 190.441 525.818 192.157 514.84 193.561C492.873 196.369 471.424 197.948 450.735 198.358C409.347 199.177 371.001 195.306 337.666 187.233C270.997 171.087 224.374 138.133 213.6 92.1824Z" fill="#53A9D4"/>
<path d="M220.464 90.5738C199.375 0.583193 326.678 -106.216 504.807 -147.974V-147.701H571.398V179.804H572.861C570.082 180.418 567.313 181.013 564.554 181.588C559.026 182.739 553.517 183.801 548.028 184.796C537.059 186.785 526.179 188.462 515.425 189.836C493.917 192.586 472.916 194.136 452.655 194.536C412.135 195.335 374.589 191.552 341.947 183.645C276.662 167.841 231.014 135.569 220.474 90.5738H220.464Z" fill="#54AAD4"/>
<path d="M227.328 88.9651C206.688 0.885461 331.28 -103.642 505.626 -144.503C516.526 -147.058 527.358 -149.3 538.093 -151.25V-147.701H571.398V176.294H572.217C569.497 176.898 566.787 177.474 564.086 178.039C558.675 179.16 553.283 180.213 547.911 181.179C537.167 183.119 526.52 184.766 516 186.112C494.95 188.803 474.398 190.314 454.566 190.714C414.904 191.494 378.157 187.789 346.217 180.057C282.327 164.584 237.643 133.005 227.328 88.9651Z" fill="#55AAD5"/>
<path d="M234.192 87.3563C214 1.19744 335.882 -101.058 506.435 -141.042C527.758 -146.044 548.827 -149.827 569.419 -152.459V-147.701H571.408V172.794H571.593C568.941 173.379 566.279 173.944 563.637 174.5C558.343 175.602 553.069 176.625 547.813 177.571C537.303 179.472 526.89 181.081 516.595 182.397C496.003 185.03 475.899 186.512 456.497 186.892C417.702 187.662 381.755 184.035 350.497 176.469C287.991 161.338 244.283 130.441 234.192 87.3563Z" fill="#56ABD6"/>
<path d="M241.056 85.7476C221.312 1.49965 340.494 -98.4844 507.254 -137.571C528.099 -142.456 548.701 -146.161 568.834 -148.735V-147.692H571.408V168.416H574.859C573.563 168.709 572.256 169.001 570.959 169.294C568.366 169.869 565.773 170.425 563.179 170.961C558.002 172.033 552.844 173.037 547.706 173.964C537.43 175.826 527.251 177.396 517.18 178.683C497.046 181.257 477.381 182.709 458.418 183.08C420.481 183.831 385.333 180.282 354.777 172.881C293.666 158.081 250.932 127.876 241.056 85.7476Z" fill="#57ACD6"/>
<path d="M247.92 84.1388C228.625 1.81158 345.096 -95.9008 508.064 -134.1C528.431 -138.878 548.574 -142.495 568.249 -145.01C570.706 -145.322 573.163 -145.625 575.6 -145.907H571.408V164.048H577.95C414.973 202.248 267.214 166.476 247.92 84.1388Z" fill="#58ADD7"/>
<path d="M254.783 82.5301C235.937 2.11383 349.698 -93.3269 508.883 -130.639C528.782 -135.3 548.447 -138.839 567.664 -141.296C570.062 -141.608 572.461 -141.891 574.85 -142.164H571.408V160.577H577.141C417.956 197.89 273.63 162.946 254.783 82.5301Z" fill="#59AED7"/>
<path d="M261.638 80.9213C243.24 2.41604 354.29 -90.7432 509.682 -127.168C529.104 -131.722 548.301 -135.173 567.06 -137.571C569.409 -137.874 571.739 -138.156 574.07 -138.42H571.388V157.116H576.312C420.92 193.541 280.026 159.427 261.628 80.9311L261.638 80.9213Z" fill="#5AAED8"/>
<path d="M268.501 79.3126C250.552 2.72799 358.892 -88.1693 510.501 -123.707C529.455 -128.153 548.184 -131.517 566.484 -133.857C568.776 -134.149 571.057 -134.422 573.329 -134.686H571.408V153.645H575.513C423.913 189.183 286.461 155.897 268.501 79.3126Z" fill="#5BAFD9"/>
<path d="M275.365 77.7041C257.864 3.03046 363.503 -85.5951 511.31 -120.236C529.786 -124.565 548.047 -127.851 565.89 -130.132C568.122 -130.415 570.345 -130.688 572.558 -130.941H571.398V150.174H574.694C426.877 184.825 292.866 152.378 275.365 77.7041Z" fill="#5CB0D9"/>
<path d="M282.229 76.0953C265.177 3.33267 368.105 -83.0115 512.129 -116.775C530.127 -120.997 547.921 -124.195 565.314 -126.418C567.488 -126.7 569.653 -126.954 571.817 -127.207H571.408V146.703H573.894C429.87 180.467 299.291 148.848 282.239 76.0856L282.229 76.0953Z" fill="#5DB1DA"/>
<path d="M289.093 74.4865C272.489 3.64451 372.707 -80.4377 512.938 -113.304C530.469 -117.409 547.794 -120.529 564.72 -122.693C568.951 -123.239 573.163 -123.717 577.336 -124.136H571.398V143.252H573.065C432.834 176.118 305.687 145.338 289.083 74.4962L289.093 74.4865Z" fill="#5EB2DB"/>
<path d="M295.957 72.8778C279.801 3.94675 377.309 -77.854 513.757 -109.833C530.81 -113.831 547.667 -116.863 564.144 -118.969C568.259 -119.495 572.354 -119.963 576.419 -120.373H571.408V139.781H572.266C435.827 171.76 312.112 141.809 295.957 72.8875V72.8778Z" fill="#5FB2DB"/>
<path d="M302.821 71.2691C287.114 4.25876 381.911 -75.28 514.567 -106.372C531.151 -110.262 547.54 -113.207 563.55 -115.254C567.557 -115.771 571.535 -116.219 575.483 -116.619H571.398V136.31H571.447C438.791 167.402 318.528 138.289 302.811 71.2691H302.821Z" fill="#60B3DC"/>
<path d="M309.675 69.6603C294.416 4.561 386.513 -72.6963 515.376 -102.901C531.483 -106.674 547.404 -109.541 562.965 -111.53C566.855 -112.027 570.716 -112.466 574.557 -112.856H571.398V131.396H576.644C574.645 131.893 572.646 132.371 570.628 132.849C441.765 163.054 324.933 134.769 309.675 69.6701V69.6603Z" fill="#60B4DC"/>
<path d="M316.539 68.0516C301.729 4.86324 391.115 -70.1224 516.185 -99.44C531.824 -103.106 547.267 -105.885 562.37 -107.815C566.143 -108.303 569.897 -108.732 573.621 -109.102H571.398V127.964H575.649C573.709 128.442 571.769 128.91 569.809 129.368C444.739 158.686 331.339 131.23 316.529 68.0419L316.539 68.0516Z" fill="#61B5DD"/>
<path d="M323.403 66.4429C309.041 5.17525 395.717 -67.5387 517.004 -95.9691C532.165 -99.518 547.15 -102.219 561.795 -104.091C565.451 -104.559 569.097 -104.978 572.705 -105.339H571.408V124.552H574.674C572.792 125.02 570.911 125.468 569.019 125.917C447.732 154.347 337.774 127.72 323.412 66.4527L323.403 66.4429Z" fill="#62B6DE"/>
<path d="M330.266 64.844C316.353 5.48725 400.319 -64.955 517.813 -92.4981C532.496 -95.9398 547.014 -98.5528 561.2 -100.366C564.749 -100.824 568.269 -101.224 571.778 -101.575H571.408V121.13H573.68C571.856 121.578 570.033 122.017 568.2 122.455C450.706 149.999 344.179 124.201 330.266 64.844Z" fill="#63B6DE"/>
<path d="M337.13 63.2352C323.666 5.7992 404.93 -62.3713 518.632 -89.0273C532.847 -92.3617 546.897 -94.8869 560.615 -96.6418C564.047 -97.0806 567.459 -97.4706 570.852 -97.8118C572.549 -97.9873 574.235 -98.1433 575.922 -98.2896H571.408V116.372H577.95C574.46 117.288 570.94 118.156 567.391 118.994C453.689 145.65 350.595 120.691 337.14 63.245L337.13 63.2352Z" fill="#64B7DF"/>
<path d="M343.994 61.6265C330.978 6.10148 409.532 -59.7974 519.442 -85.5563C533.179 -88.7737 546.76 -91.2209 560.03 -92.9174C563.345 -93.3464 566.65 -93.7169 569.926 -94.0484C571.564 -94.2141 573.192 -94.3701 574.82 -94.5164H571.408V112.988H576.79C573.416 113.866 570.014 114.714 566.582 115.523C456.672 141.282 357.02 117.161 344.004 61.6363L343.994 61.6265Z" fill="#65B8E0"/>
<path d="M350.858 60.0178C338.29 6.40374 414.134 -57.2234 520.26 -82.0951C533.53 -85.2053 546.634 -87.5647 559.445 -89.2027C562.653 -89.6122 565.831 -89.9729 569 -90.2947C570.579 -90.4507 572.159 -90.6067 573.728 -90.7432H571.408V109.605H575.62C572.363 110.453 569.078 111.272 565.763 112.052C459.636 136.924 363.425 113.632 350.858 60.0178Z" fill="#66B9E0"/>
<path d="M357.722 58.4091C345.603 6.71568 418.736 -54.6398 521.07 -78.6242C533.861 -81.6272 546.507 -83.8989 558.86 -85.4783C565.041 -86.2681 571.145 -86.8823 577.16 -87.3308H571.418V106.232H574.469C571.33 107.051 568.161 107.84 564.963 108.591C462.63 132.576 369.851 110.112 357.732 58.4188L357.722 58.4091Z" fill="#67BAE1"/>
<path d="M364.576 56.8004C352.905 7.01796 423.328 -52.0658 521.879 -75.163C534.193 -78.049 546.37 -80.2427 558.265 -81.7636C564.213 -82.5241 570.092 -83.1189 575.883 -83.5479H571.398V102.839H573.28C570.257 103.629 567.206 104.389 564.125 105.111C465.584 128.208 376.237 106.573 364.566 56.7906L364.576 56.8004Z" fill="#68BBE2"/>
<path d="M371.44 55.1917C360.218 7.32025 427.94 -49.482 522.688 -71.6921C534.534 -74.4707 546.234 -76.5767 557.68 -78.0392C563.403 -78.7704 569.048 -79.3456 574.625 -79.7551H571.408V99.4655H572.129C569.224 100.226 566.289 100.957 563.325 101.649C468.577 123.859 382.662 103.063 371.45 55.1917H371.44Z" fill="#69BCE2"/>
<path d="M378.304 53.583C367.53 7.63228 432.542 -46.908 523.497 -68.2308C534.866 -70.8925 546.107 -72.9205 557.085 -74.3245C562.575 -75.0264 568.005 -75.5724 573.348 -75.9722H571.398V94.9612H575.123C573.738 95.3414 572.354 95.7119 570.959 96.0824C568.171 96.8136 565.353 97.5156 562.506 98.1786C471.541 119.501 389.077 99.5338 378.304 53.583Z" fill="#6ABCE3"/>
<path d="M385.167 51.9744C374.842 7.93457 437.144 -44.3243 524.316 -64.7599C535.217 -67.3143 545.98 -69.2545 556.51 -70.6C561.775 -71.2727 566.972 -71.7992 572.1 -72.1794H571.408V90.5153H577.745C572.5 92.0265 567.147 93.4305 561.707 94.7077C474.534 115.143 395.502 96.0044 385.177 51.9646L385.167 51.9744Z" fill="#6BBDE4"/>
<path d="M392.031 50.3655C382.155 8.24637 441.745 -41.7505 525.126 -61.2989C535.548 -63.7461 545.854 -65.5985 555.915 -66.8855C560.946 -67.529 565.919 -68.036 570.823 -68.3967C573.27 -68.582 575.708 -68.7282 578.116 -68.8452H571.398V87.2197H576.224C571.213 88.6724 566.094 90.0081 560.878 91.2366C477.498 110.785 401.898 92.4748 392.022 50.3557L392.031 50.3655Z" fill="#6CBEE5"/>
<path d="M398.895 48.7568C389.467 8.54871 446.347 -39.1668 525.945 -57.8279C535.889 -60.1581 545.727 -61.9228 555.331 -63.161C560.137 -63.7752 564.885 -64.253 569.565 -64.604C571.905 -64.7795 574.226 -64.916 576.527 -65.033H571.398V83.9438H574.713C569.926 85.3283 565.041 86.6055 560.069 87.7755C480.481 106.427 408.313 88.965 398.885 48.7471L398.895 48.7568Z" fill="#6DBFE5"/>
<path d="M405.759 47.1482C396.779 8.85103 450.959 -36.5927 526.754 -54.3569C536.231 -56.5798 545.59 -58.2568 554.745 -59.4365C559.318 -60.0215 563.842 -60.4797 568.298 -60.8112C570.53 -60.977 572.734 -61.1135 574.928 -61.2207H571.398V80.6582H573.202C568.639 81.9744 563.988 83.1932 559.25 84.3046C483.445 102.069 414.719 85.4356 405.749 47.1385L405.759 47.1482Z" fill="#6EC0E6"/>
<path d="M412.613 45.5394C404.082 9.16289 455.551 -34.0189 527.563 -50.8958C536.562 -53.0018 545.464 -54.6007 554.151 -55.7122C558.499 -56.268 562.789 -56.7067 567.03 -57.0187C569.146 -57.1747 571.252 -57.3014 573.329 -57.3989H571.398V77.3919H571.691C567.362 78.6399 562.935 79.8001 558.441 80.8531C486.429 97.73 421.144 81.9256 412.613 45.5491V45.5394Z" fill="#6EC1E7"/>
<path d="M419.477 43.9306C411.394 9.46513 460.153 -31.4352 528.372 -47.4249C545.425 -51.4223 562.087 -53.4893 577.599 -53.7915H571.388V72.2538H576.263C574.255 72.8875 572.227 73.5018 570.17 74.0965C566.065 75.286 561.882 76.3779 557.612 77.3822C489.393 93.3718 427.54 78.3961 419.457 43.9306H419.477Z" fill="#6FC2E7"/>
<path d="M426.341 42.322C418.707 9.76746 464.755 -28.8612 529.191 -43.9636C545.298 -47.7368 561.034 -49.6868 575.688 -49.9792H571.408V69.0657H574.43C572.539 69.6702 570.618 70.2454 568.678 70.8109C564.807 71.9321 560.849 72.9656 556.822 73.9113C492.396 89.0137 433.975 74.8668 426.341 42.322Z" fill="#70C3E8"/>
<path d="M433.205 40.7132C426.019 10.0793 469.367 -26.2776 530 -40.4928C545.161 -44.0418 559.971 -45.8845 573.758 -46.1477H571.398V64.1322H577.872C570.901 66.5501 563.589 68.6658 556.003 70.45C495.36 84.6652 440.38 71.3568 433.205 40.7132Z" fill="#71C3E9"/>
<path d="M440.068 39.1045C433.341 10.3817 473.968 -23.7036 530.819 -37.0316C545.035 -40.366 558.909 -42.082 571.847 -42.3354H571.408V61.0611H575.698C569.156 63.323 562.302 65.312 555.204 66.9792C498.353 80.3072 446.806 67.8274 440.078 39.1045H440.068Z" fill="#72C4EA"/>
<path d="M446.932 37.4959C440.654 10.6937 478.57 -21.1199 531.629 -33.5606C544.898 -36.6708 557.846 -38.2697 569.916 -38.5135C571.427 -38.5427 572.919 -38.5525 574.401 -38.5427H571.398V57.9802H573.504C567.401 60.0959 561.005 61.9484 554.375 63.5083C501.317 75.9491 453.202 64.2981 446.923 37.4959H446.932Z" fill="#73C5EA"/>
<path d="M453.796 35.8871C447.966 10.9958 483.172 -18.546 532.448 -30.0898C544.762 -32.9757 556.793 -34.4674 568.005 -34.6917C570.803 -34.7502 573.563 -34.7209 576.244 -34.6234H571.408V53.3977H575.542C574.157 53.9144 572.763 54.4214 571.34 54.9089C565.675 56.8686 559.737 58.5943 553.576 60.0373C504.3 71.5908 459.636 60.7685 453.796 35.8773V35.8871Z" fill="#74C6EB"/>
<path d="M460.66 34.2785C455.278 11.2983 487.774 -15.9621 533.257 -26.6284C544.625 -29.2901 555.73 -30.6648 566.075 -30.8696C568.658 -30.9183 571.203 -30.8988 573.68 -30.8013H571.398V48.9714H576.8C574.313 49.9854 571.759 50.9409 569.146 51.8476C563.91 53.6611 558.431 55.2503 552.747 56.586C507.264 67.2426 466.032 57.2588 460.641 34.2883L460.66 34.2785Z" fill="#75C7EC"/>
<path d="M467.514 32.6697C462.581 11.6102 492.376 -13.3883 534.066 -23.1576C544.489 -25.6048 554.668 -26.8625 564.154 -27.0477C568.893 -27.1452 573.465 -26.9698 577.804 -26.5408H571.408V46.1342H573.992C571.71 47.0604 569.38 47.9379 566.982 48.7666C562.185 50.4241 557.163 51.8865 551.947 53.1053C510.257 62.8746 472.457 53.7293 467.524 32.66L467.514 32.6697Z" fill="#76C8ED"/>
<path d="M474.378 31.061C469.893 11.9124 496.978 -10.8046 534.875 -19.6964C544.352 -21.9194 553.605 -23.0601 562.224 -23.2356C566.533 -23.3234 570.686 -23.1576 574.625 -22.7676H571.388V40.6548H577.19C569.39 44.3304 560.595 47.4211 551.119 49.6441C513.221 58.5261 478.853 50.2096 474.368 31.061H474.378Z" fill="#77C9ED"/>
<path d="M481.242 29.4523C477.205 12.2245 501.58 -8.23061 535.694 -16.2254C544.225 -18.2241 552.552 -19.2576 560.313 -19.4039C564.193 -19.4819 567.927 -19.3356 571.476 -18.9846H571.408V38.1004H573.787C566.767 41.4153 558.85 44.1843 550.319 46.183C516.205 54.1778 485.278 46.69 481.242 29.4621V29.4523Z" fill="#78CAEE"/>
<path d="M488.106 27.8437C484.518 12.5267 506.182 -5.65662 536.504 -12.7642C551.665 -16.3131 566.114 -16.4301 577.228 -13.7392H571.398V33.2255H574.889C573.436 34.0153 571.925 34.7855 570.365 35.5167C564.125 38.4612 557.085 40.9279 549.51 42.7023C519.188 49.8099 491.703 43.1508 488.106 27.8339V27.8437Z" fill="#79CBEF"/>
<path d="M494.97 26.2348C491.83 12.8288 510.784 -3.07311 537.323 -9.29347C550.592 -12.4037 563.238 -12.5012 572.958 -10.1515H571.408V28.799H574.586C572.237 30.2712 569.682 31.6654 566.952 32.9524C561.492 35.5263 555.331 37.6908 548.701 39.241C522.172 45.4613 498.119 39.631 494.97 26.2348Z" fill="#79CCF0"/>
<path d="M501.834 24.6261C499.143 13.1409 515.395 -0.499102 538.132 -5.82249C549.5 -8.48418 560.342 -8.57193 568.678 -6.55372C570.765 -6.04673 572.685 -5.413 574.43 -4.65252H571.408V22.8614H575.571C569 28.37 559.25 33.1182 547.882 35.7799C525.145 41.113 504.524 36.1211 501.834 24.6261Z" fill="#7ACDF1"/>
<path d="M508.697 23.0173C506.455 13.443 519.997 2.08449 538.951 -2.36141C557.905 -6.80731 575.084 -2.64415 577.326 6.93014H571.408V14.3107H576.205C574.957 16.7872 572.88 19.2441 570.141 21.5451C564.671 26.1372 556.54 30.0859 547.073 32.3088C528.119 36.7547 510.94 32.5916 508.697 23.0173Z" fill="#7BCEF2"/>
<path d="M546.256 28.8579C561.417 25.3045 572.253 16.2148 570.458 8.55535C568.663 0.895901 554.917 -2.43277 539.755 1.12057C524.593 4.6739 513.758 13.7637 515.553 21.4231C517.348 29.0825 531.094 32.4112 546.256 28.8579Z" fill="#7CCFF3"/>
<path d="M522.415 19.7999C521.07 14.0573 529.191 7.24222 540.569 4.57078C551.938 1.90908 562.253 4.40503 563.598 10.1477C564.944 15.8903 556.822 22.7054 545.444 25.3768C534.076 28.0385 523.761 25.5426 522.415 19.7999Z" fill="#7DD0F4"/>
<path d="M529.279 18.1912C528.382 14.3595 533.803 9.81609 541.379 8.04163C548.954 6.26716 555.828 7.92463 556.725 11.7563C557.622 15.588 552.201 20.1314 544.625 21.9058C537.05 23.6803 530.176 22.0228 529.279 18.1912Z" fill="#7DD2F6"/>
<path d="M536.143 16.5825C535.695 14.6716 538.405 12.3999 542.198 11.5029C545.99 10.6157 549.422 11.4444 549.871 13.3651C550.319 15.2761 547.609 17.5478 543.816 18.4447C540.023 19.332 536.591 18.5032 536.143 16.5825Z" fill="#7ED3F7"/>
</g>
<path d="M275.502 313.2L295.167 59.2084C295.167 59.2084 433.624 42.0195 570.433 33.5957V313.2H275.512H275.502Z" fill="url(#paint0_radial_1457_1090)"/>
<path d="M249.636 186.18L251.937 69.4944L450.394 116.128L249.636 186.18Z" fill="url(#paint1_radial_1457_1090)"/>
<mask id="mask2_1457_1090" style="mask-type:luminance" maskUnits="userSpaceOnUse" x="158" y="122" width="365" height="192">
<path d="M522.825 122.865L517.657 313.2H161.751L158.582 275.488L522.825 122.865Z" fill="white"/>
</mask>
<g mask="url(#mask2_1457_1090)">
<path d="M522.815 122.865H158.582V313.21H522.815V122.865Z" fill="#0684B6"/>
<path d="M523.8 209.228V289.216H528.538C526.959 291.751 525.291 294.286 523.527 296.811C520.007 301.881 516.117 306.941 511.876 311.981C509.76 314.497 507.547 317.012 505.256 319.518V314.175H157.607V207.727H154.351C156.262 206.684 158.192 205.65 160.142 204.617C167.923 200.502 175.937 196.524 184.185 192.702C200.662 185.049 218.037 178 236.152 171.692C308.602 146.488 379.201 138.094 434.784 144.89C462.571 148.282 486.614 155.478 505.246 166.271C514.567 171.662 522.532 177.961 528.938 185.127H523.8V209.228Z" fill="#0684B6"/>
<path d="M523.8 210.447V282.03H529.523C526.783 287.032 523.663 292.043 520.183 297.045C516.702 302.046 512.851 307.058 508.658 312.04C506.562 314.536 504.378 317.022 502.116 319.498V314.165H157.607V208.955H155.141C157.032 207.922 158.943 206.898 160.864 205.884C168.556 201.818 176.483 197.88 184.634 194.097C200.926 186.531 218.105 179.55 236.015 173.33C307.647 148.409 377.455 140.112 432.415 146.82C459.89 150.174 483.66 157.291 502.087 167.957C511.301 173.291 519.178 179.511 525.516 186.599H523.79V210.428L523.8 210.447Z" fill="#0783B5"/>
<path d="M523.8 211.666V282.44H526.062C523.351 287.383 520.27 292.336 516.829 297.288C513.387 302.241 509.584 307.185 505.441 312.118C503.364 314.585 501.209 317.042 498.967 319.489V314.175H157.607V210.203H155.94C157.812 209.18 159.694 208.166 161.595 207.161C169.2 203.145 177.039 199.254 185.092 195.51C201.199 188.023 218.183 181.13 235.888 174.977C306.711 150.349 375.72 142.13 430.055 148.77C457.218 152.085 480.715 159.124 498.938 169.664C508.044 174.938 515.834 181.091 522.103 188.101C525.233 191.601 527.992 195.325 530.342 199.245H523.8V211.656V211.666Z" fill="#0982B3"/>
<path d="M523.8 212.894V268.263H529.494C525.672 277.935 520.28 287.743 513.475 297.532C510.072 302.427 506.309 307.321 502.214 312.186C500.166 314.624 498.031 317.051 495.818 319.469V314.175H157.607V214.493H151.231C154.868 212.446 158.573 210.428 162.326 208.439C169.843 204.461 177.594 200.619 185.55 196.924C201.472 189.524 218.261 182.709 235.762 176.625C305.765 152.28 373.984 144.158 427.696 150.72C454.547 154.006 477.781 160.947 495.779 171.38C504.778 176.596 512.48 182.67 518.671 189.602C521.772 193.063 524.492 196.739 526.812 200.619H523.78V212.885L523.8 212.894Z" fill="#0A81B2"/>
<path d="M523.8 214.113V268.839H525.954C522.172 278.403 516.848 288.094 510.121 297.766C506.757 302.602 503.042 307.438 498.986 312.254C496.959 314.663 494.853 317.061 492.659 319.46V314.185H157.607V215.702H152.089C155.687 213.674 159.343 211.685 163.058 209.716C170.487 205.787 178.14 201.984 186.018 198.328C201.764 191.016 218.349 184.279 235.645 178.263C374.023 130.128 505.363 146.177 528.987 214.103H523.79L523.8 214.113Z" fill="#0B80B0"/>
<path d="M523.8 215.332V241.578H528.909C528.363 250.636 526.149 259.966 522.415 269.414C518.681 278.861 513.416 288.436 506.767 298C503.442 302.778 499.766 307.555 495.769 312.313C493.77 314.692 491.684 317.061 489.519 319.43V314.175H157.607V216.901H152.947C156.506 214.903 160.113 212.933 163.789 210.993C171.13 207.113 178.696 203.359 186.476 199.742C202.037 192.517 218.427 185.858 235.518 179.911C372.268 132.342 502.058 148.204 525.408 215.332H523.79H523.8Z" fill="#0C7FAF"/>
<path d="M521.84 216.56C527.612 233.145 526.257 251.318 518.876 269.999C515.181 279.339 509.984 288.796 503.413 298.244C500.127 302.973 496.5 307.692 492.542 312.391C490.563 314.741 488.505 317.09 486.37 319.421V314.185H157.607V218.11H153.805C157.315 216.131 160.893 214.181 164.52 212.27C171.774 208.439 179.252 204.724 186.935 201.156C202.31 194.019 218.505 187.438 235.391 181.568C370.514 134.565 498.762 150.242 521.83 216.57L521.84 216.56Z" fill="#0D7EAE"/>
<path d="M518.262 217.779C523.956 234.159 522.63 252.118 515.327 270.574C511.681 279.797 506.543 289.147 500.049 298.478C496.803 303.148 493.215 307.809 489.315 312.449C487.365 314.77 485.327 317.09 483.211 319.401V314.175H157.607V219.31H154.663C158.134 217.36 161.663 215.429 165.241 213.538C172.408 209.745 179.798 206.079 187.393 202.56C202.583 195.51 218.583 189.007 235.264 183.206C368.759 136.768 495.457 152.251 518.252 217.789L518.262 217.779Z" fill="#0E7DAD"/>
<path d="M514.684 218.998C520.309 235.182 518.993 252.917 511.788 271.149C508.19 280.265 503.111 289.498 496.695 298.712C493.488 303.324 489.948 307.925 486.088 312.518C484.157 314.809 482.149 317.1 480.062 319.381V314.175H157.607V220.509H155.521C158.953 218.578 162.434 216.677 165.973 214.805C173.051 211.061 180.354 207.444 187.851 203.954C202.856 196.983 218.661 190.567 235.147 184.834C367.013 138.971 492.171 154.259 514.684 218.988V218.998Z" fill="#0F7DAC"/>
<path d="M511.115 220.216C516.673 236.196 515.376 253.717 508.259 271.724C504.7 280.723 499.689 289.84 493.351 298.946C490.182 303.499 486.682 308.052 482.88 312.576C480.979 314.838 478.99 317.1 476.933 319.352V314.165H157.607V221.698H156.379C159.762 219.797 163.204 217.915 166.704 216.063C173.695 212.368 180.9 208.79 188.309 205.348C203.129 198.465 218.739 192.127 235.021 186.463C365.258 141.165 488.866 156.267 511.106 220.197L511.115 220.216Z" fill="#107CAA"/>
<path d="M507.537 221.445C513.026 237.23 511.739 254.536 504.71 272.309C501.2 281.201 496.247 290.2 489.997 299.199C486.868 303.694 483.416 308.189 479.653 312.664C477.771 314.897 475.811 317.129 473.774 319.362V314.195H157.607V222.937H157.237C160.581 221.055 163.984 219.202 167.435 217.379C174.338 213.733 181.455 210.194 188.777 206.801C203.412 200.005 218.826 193.746 234.904 188.149C363.513 143.417 485.581 158.325 507.537 221.464V221.445Z" fill="#107BA9"/>
<path d="M503.959 222.664C509.38 238.244 508.112 255.335 501.17 272.885C497.7 281.66 492.815 290.551 486.643 299.433C483.553 303.87 480.15 308.306 476.425 312.722C474.563 314.936 472.633 317.139 470.624 319.333V314.185H157.607V226.934H153.191C154.809 225.988 156.447 225.052 158.105 224.126C161.41 222.264 164.764 220.441 168.166 218.637C174.981 215.029 182.011 211.549 189.236 208.195C203.685 201.487 218.904 195.306 234.777 189.787C361.758 145.621 482.285 160.343 503.959 222.683V222.664Z" fill="#117AA8"/>
<path d="M500.39 223.882C505.743 239.267 504.485 256.135 497.641 273.46C494.219 282.118 489.393 290.902 483.299 299.667C480.247 304.055 476.884 308.432 473.218 312.791C471.385 314.975 469.474 317.149 467.495 319.313V314.185H157.607V228.104H154.107C155.706 227.178 157.325 226.252 158.953 225.335C162.209 223.502 165.524 221.698 168.888 219.914C175.615 216.355 182.557 212.914 189.684 209.599C203.948 202.979 218.973 196.875 234.64 191.425C359.994 147.824 478.97 162.361 500.371 223.892L500.39 223.882Z" fill="#117AA7"/>
<path d="M496.812 225.111C502.097 240.291 500.859 256.944 494.092 274.045C490.709 282.595 485.951 291.263 479.935 299.911C476.923 304.24 473.608 308.559 469.981 312.859C468.167 315.014 466.286 317.158 464.326 319.294V314.175H157.607V229.254H155.033C156.613 228.338 158.212 227.421 159.821 226.515C163.038 224.701 166.304 222.917 169.629 221.162C176.268 217.652 183.123 214.249 190.152 210.983C204.231 204.441 219.06 198.426 234.523 193.044C358.248 150.008 475.685 164.36 496.803 225.091L496.812 225.111Z" fill="#1279A6"/>
<path d="M493.234 226.329C498.45 241.315 497.222 257.743 490.553 274.62C487.219 283.054 482.519 291.604 476.581 300.145C473.608 304.416 470.332 308.676 466.763 312.927C464.979 315.053 463.117 317.168 461.187 319.284V314.185H157.607V233.174H151.309C175.849 218.481 203.87 205.328 234.397 194.711C356.493 152.241 472.379 166.398 493.224 226.339L493.234 226.329Z" fill="#1278A5"/>
<path d="M489.656 227.548C494.794 242.329 493.595 258.543 487.014 275.186C483.718 283.512 479.087 291.945 473.228 300.369C470.303 304.581 467.066 308.793 463.536 312.976C461.772 315.072 459.939 317.158 458.028 319.245V314.165H157.607V234.275H152.294C176.502 219.778 204.153 206.801 234.28 196.329C354.758 154.425 469.094 168.396 489.656 227.538V227.548Z" fill="#1377A4"/>
<path d="M486.087 228.767C491.157 243.353 489.968 259.342 483.475 275.761C480.228 283.97 475.655 292.297 469.874 300.603C466.988 304.757 463.79 308.91 460.319 313.044C458.583 315.111 456.77 317.178 454.888 319.225V314.165H157.607V235.407H153.278C177.165 221.104 204.445 208.302 234.153 197.967C353.003 156.628 465.788 170.414 486.087 228.747V228.767Z" fill="#1376A3"/>
<path d="M482.509 229.995C487.511 244.376 486.341 260.152 479.935 276.346C476.738 284.448 472.223 292.657 466.52 300.847C463.673 304.942 460.524 309.037 457.092 313.122C455.376 315.16 453.592 317.198 451.739 319.226V314.185H157.607V236.557H154.263C177.819 222.449 204.728 209.823 234.026 199.635C351.248 158.861 462.493 172.452 482.509 229.995Z" fill="#1476A2"/>
<path d="M478.931 231.214C483.865 245.4 482.704 260.951 476.396 276.921C473.237 284.906 468.791 292.999 463.166 301.081C460.358 305.118 457.248 309.164 453.864 313.181C452.178 315.189 450.413 317.197 448.58 319.196V314.175H157.607V237.678H155.248C178.482 223.765 205.011 211.325 233.909 201.273C349.503 161.064 459.198 174.47 478.941 231.214H478.931Z" fill="#1475A1"/>
<path d="M475.363 232.433C480.228 246.414 479.087 261.75 472.857 277.496C469.747 285.374 465.36 293.349 459.822 301.315C457.053 305.303 453.991 309.281 450.657 313.249C448.99 315.228 447.254 317.207 445.45 319.177V314.165H157.607V238.799H156.233C179.135 225.091 205.294 212.816 233.782 202.901C347.748 163.258 455.902 176.479 475.363 232.423V232.433Z" fill="#1474A0"/>
<path d="M471.785 233.652C476.582 247.438 475.46 262.55 469.318 278.072C466.247 285.832 461.928 293.701 456.468 301.559C453.738 305.488 450.715 309.407 447.43 313.317C445.782 315.267 444.076 317.217 442.301 319.167V314.175H157.607V239.94H157.208C179.788 226.427 205.567 214.328 233.646 204.558C345.983 165.481 452.587 178.517 471.775 233.652H471.785Z" fill="#15749F"/>
<path d="M468.206 234.88C472.935 248.461 471.824 263.359 465.779 278.657C462.756 286.31 458.496 294.061 453.114 301.803C450.423 305.673 447.449 309.544 444.212 313.395C442.594 315.316 440.907 317.246 439.152 319.157V314.185H157.607V243.596H154.058C155.423 242.758 156.798 241.919 158.192 241.081C180.441 227.763 205.849 215.839 233.529 206.206C344.238 167.704 449.302 180.535 468.206 234.88Z" fill="#15739E"/>
<path d="M464.628 236.099C469.289 249.485 468.197 264.159 462.23 279.232C459.246 286.769 455.054 294.403 449.75 302.037C447.098 305.849 444.173 309.661 440.975 313.454C439.376 315.355 437.719 317.246 435.993 319.128V314.175H157.607V247.184H151.104C153.746 245.498 156.437 243.84 159.177 242.202C181.095 229.079 206.132 217.331 233.402 207.844C342.483 169.908 446.006 182.553 464.628 236.099Z" fill="#15729D"/>
<path d="M461.06 237.317C465.642 250.499 464.57 264.958 458.7 279.807C455.766 287.236 451.632 294.753 446.406 302.271C443.793 306.024 440.907 309.778 437.768 313.522C436.198 315.394 434.56 317.256 432.854 319.118V314.185H157.607V248.257H152.206C154.809 246.599 157.461 244.961 160.162 243.343C181.758 230.415 206.415 218.842 233.285 209.501C340.738 172.13 442.711 184.591 461.06 237.337V237.317Z" fill="#16719C"/>
<path d="M457.482 238.546C461.996 251.533 460.943 265.767 455.161 280.392C452.266 287.704 448.2 295.114 443.052 302.514C440.478 306.209 437.641 309.914 434.54 313.59C432.99 315.433 431.381 317.266 429.705 319.099V314.175H157.607V249.3H153.317C155.882 247.672 158.495 246.053 161.147 244.464C182.411 231.731 206.698 220.333 233.158 211.13C338.983 174.324 439.415 186.589 457.482 238.536V238.546Z" fill="#16719B"/>
<path d="M453.903 239.765C458.349 252.547 457.306 266.567 451.612 280.967C448.765 288.163 444.758 295.465 439.688 302.748C437.153 306.395 434.355 310.031 431.303 313.658C429.782 315.472 428.193 317.275 426.546 319.079V314.175H157.607V250.353H154.419C156.944 248.744 159.509 247.155 162.131 245.595C183.074 233.057 206.99 221.835 233.032 212.777C337.228 176.537 436.11 188.617 453.903 239.765Z" fill="#16709A"/>
<path d="M450.335 240.984C454.713 253.571 453.689 267.367 448.083 281.543C445.285 288.631 441.336 295.816 436.344 302.982C433.848 306.57 431.099 310.149 428.096 313.717C426.594 315.501 425.034 317.285 423.406 319.06V314.175H157.607V251.406H155.521C158.007 249.827 160.532 248.257 163.116 246.716C183.727 234.373 207.273 223.327 232.915 214.406C335.483 178.731 432.824 190.626 450.335 240.974V240.984Z" fill="#166F99"/>
<path d="M446.757 242.202C451.066 254.584 450.052 268.166 444.544 282.118C441.784 289.089 437.904 296.157 432.99 303.216C430.533 306.746 427.823 310.275 424.869 313.785C423.396 315.54 421.856 317.295 420.257 319.04V314.175H157.607V252.469H156.623C159.07 250.909 161.556 249.378 164.091 247.857C184.38 235.709 207.546 224.838 232.778 216.063C333.718 180.954 429.509 192.663 446.747 242.212L446.757 242.202Z" fill="#176E98"/>
<path d="M443.179 243.431C447.42 255.618 446.425 268.975 440.995 282.703C438.284 289.567 434.462 296.518 429.627 303.46C427.209 306.931 424.547 310.402 421.641 313.853C420.189 315.579 418.678 317.305 417.108 319.021V314.175H157.607V255.832H154.156C155.336 255.062 156.525 254.292 157.724 253.522C160.133 251.991 162.58 250.48 165.076 248.988C185.034 237.035 207.829 226.339 232.652 217.711C331.963 183.167 426.214 194.682 443.169 243.431H443.179Z" fill="#176E97"/>
<path d="M439.601 244.649C443.773 256.642 442.789 269.774 437.456 283.278C434.784 290.025 431.031 296.869 426.282 303.694C423.903 307.106 421.281 310.519 418.424 313.922C416.991 315.618 415.509 317.314 413.959 319.001V314.175H157.607V259.147H151.875C156.418 256.066 161.156 253.054 166.06 250.109C185.697 238.361 208.111 227.831 232.535 219.339C330.218 185.361 422.919 196.69 439.601 244.64V244.649Z" fill="#176D96"/>
<path d="M436.032 245.868C440.137 257.656 439.172 270.574 433.926 283.853C431.303 290.493 427.608 297.22 422.938 303.928C420.598 307.282 418.024 310.646 415.216 313.98C413.812 315.647 412.35 317.314 410.829 318.982V314.165H157.607V260.122H153.093C157.568 257.09 162.219 254.126 167.045 251.24C186.35 239.687 208.394 229.332 232.408 220.987C328.463 187.574 419.623 198.718 436.022 245.868H436.032Z" fill="#176C95"/>
<path d="M432.454 247.096C436.481 258.689 435.545 271.383 430.377 284.438C427.794 290.961 424.167 297.571 419.575 304.181C417.283 307.487 414.739 310.782 411.979 314.068C410.595 315.706 409.162 317.344 407.66 318.982V314.185H157.607V261.117H154.312C158.709 258.143 163.282 255.228 168.03 252.381C187.003 241.022 208.677 230.853 232.281 222.634C326.708 189.787 416.318 200.736 432.444 247.096H432.454Z" fill="#186B94"/>
<path d="M428.876 248.315C432.834 259.703 431.908 272.192 426.838 285.013C424.303 291.429 420.735 297.922 416.221 304.416C413.968 307.662 411.472 310.899 408.752 314.126C407.397 315.745 405.983 317.354 404.511 318.952V314.175H157.607V262.092H155.531C159.85 259.167 164.344 256.3 169.015 253.512C187.666 242.348 208.959 232.355 232.164 224.282C324.962 192 413.032 202.764 428.876 248.315Z" fill="#186B93"/>
<path d="M425.307 249.534C429.197 260.727 428.291 272.992 423.309 285.589C420.822 291.887 417.312 298.273 412.876 304.65C410.663 307.838 408.216 311.026 405.545 314.195L157.617 314.185V263.077H156.769C161.01 260.2 165.427 257.392 170.009 254.643C188.329 243.675 209.262 233.856 232.047 225.93C323.217 194.224 409.747 204.792 425.307 249.544V249.534Z" fill="#186A92"/>
<path d="M421.729 250.753C425.551 261.741 424.654 273.792 419.76 286.164C417.313 292.355 413.871 298.624 409.513 304.884C407.338 308.013 404.93 311.143 402.308 314.253V314.175H157.607V268.322H151.855C153.854 266.879 155.891 265.455 157.978 264.042C162.151 261.214 166.489 258.455 170.984 255.764C188.982 244.991 209.535 235.348 231.92 227.558C321.462 196.417 406.441 206.801 421.729 250.753Z" fill="#186991"/>
<path d="M418.151 251.981C421.905 262.774 421.027 274.601 416.221 286.749C413.822 292.823 410.439 298.975 406.159 305.127C404.024 308.199 401.664 311.27 399.09 314.331V314.185H157.607V269.238H153.181C155.141 267.825 157.149 266.421 159.197 265.036C163.291 262.267 167.552 259.547 171.969 256.905C189.635 246.326 209.818 236.859 231.794 229.216C319.707 198.64 403.146 208.829 418.151 251.991V251.981Z" fill="#186990"/>
<path d="M414.573 253.2C418.258 263.788 417.39 275.4 412.681 287.324C410.322 293.291 407.007 299.326 402.805 305.361C400.709 308.374 398.388 311.397 395.863 314.39V314.175H157.607V270.126H154.517C156.437 268.741 158.407 267.366 160.415 266.002C164.432 263.281 168.615 260.62 172.954 258.026C190.298 247.643 210.1 238.351 231.667 230.844C317.952 200.834 399.841 210.837 414.573 253.19V253.2Z" fill="#18688F"/>
<path d="M411.004 254.419C414.622 264.812 413.773 276.2 409.142 287.9C406.832 293.749 403.575 299.677 399.451 305.595C397.394 308.559 395.122 311.514 392.646 314.458V314.175H157.607V271.032H155.843C157.734 269.667 159.665 268.322 161.634 266.986C165.573 264.315 169.678 261.702 173.929 259.157C190.942 248.969 210.373 239.853 231.54 232.491C316.197 203.047 396.545 212.865 410.995 254.419H411.004Z" fill="#18678E"/>
<path d="M407.426 255.647C410.975 265.836 410.137 277.009 405.603 288.484C403.331 294.217 400.143 300.038 396.107 305.839C394.089 308.745 391.856 311.64 389.428 314.526V314.175H157.617V275.976H151.758C158.836 270.545 166.587 265.28 174.923 260.288C191.615 250.295 210.666 241.354 231.423 234.139C314.452 205.26 393.25 214.893 407.426 255.647Z" fill="#18668D"/>
<path d="M403.848 256.866C407.319 266.859 406.51 277.808 402.064 289.06C399.841 294.685 396.711 300.389 392.753 306.073C390.774 308.92 388.59 311.767 386.201 314.594V314.175H157.607V276.795H153.181C160.113 271.471 167.718 266.313 175.898 261.419C192.258 251.621 210.939 242.855 231.287 235.777C312.688 207.464 389.945 216.902 403.838 256.866H403.848Z" fill="#18668C"/>
<path d="M400.28 258.084C403.682 267.873 402.883 278.608 398.525 289.635C396.341 295.143 393.279 300.73 389.399 306.307C387.459 309.095 385.314 311.884 382.983 314.653V314.175H157.617V277.623H154.634C161.429 272.397 168.878 267.347 176.892 262.55C192.921 252.956 211.231 244.357 231.179 237.425C310.952 209.677 386.659 218.929 400.28 258.084Z" fill="#18658B"/>
<path d="M396.701 259.303C400.036 268.897 399.256 279.407 394.985 290.21C392.85 295.612 389.847 301.081 386.045 306.551C384.144 309.281 382.048 312.011 379.756 314.731V314.185H157.607V278.452H156.057C162.716 273.333 170.009 268.39 177.867 263.691C193.574 254.292 211.504 245.868 231.043 239.073C309.187 211.89 383.354 220.958 396.692 259.313L396.701 259.303Z" fill="#18648A"/>
<path d="M393.123 260.532C396.389 269.921 395.619 280.217 391.446 290.795C389.36 296.08 386.415 301.442 382.691 306.795C380.829 309.466 378.772 312.147 376.539 314.809V314.195H157.617V279.281H157.51C164.032 274.269 171.169 269.424 178.862 264.822C194.237 255.618 211.806 247.37 230.936 240.72C307.452 214.103 380.068 222.976 393.133 260.542L393.123 260.532Z" fill="#196489"/>
<path d="M389.545 261.751C392.743 270.945 391.992 281.016 387.897 291.37C385.85 296.548 382.974 301.793 379.327 307.029C377.504 309.651 375.496 312.264 373.302 314.867V314.185H157.598V283.805H154.253C155.774 282.557 157.325 281.328 158.924 280.1C165.31 275.196 172.3 270.457 179.827 265.953C194.881 256.944 212.07 248.871 230.789 242.368C305.677 216.317 376.753 225.004 389.535 261.77L389.545 261.751Z" fill="#196388"/>
<path d="M385.977 262.969C389.106 271.958 388.375 281.815 384.368 291.946C382.369 297.006 379.552 302.134 375.983 307.262C374.199 309.827 372.239 312.381 370.094 314.936V314.185H157.617V288.221H151.475C154.292 285.754 157.266 283.317 160.386 280.918C166.626 276.122 173.47 271.481 180.831 267.074C195.554 258.26 212.372 250.372 230.682 243.996C303.942 218.51 373.477 227.012 385.977 262.969Z" fill="#196287"/>
<path d="M382.399 264.188C385.46 272.982 384.738 282.615 380.829 292.511C378.869 297.464 376.12 302.475 372.629 307.487C370.884 309.992 368.963 312.498 366.867 314.984V314.165H157.607V288.865H153.103C155.852 286.456 158.758 284.068 161.81 281.728C167.913 277.038 174.601 272.504 181.797 268.195C196.197 259.576 212.635 251.864 230.546 245.634C302.177 220.714 370.163 229.03 382.399 264.188Z" fill="#196286"/>
<path d="M378.82 265.416C381.804 274.006 381.112 283.424 377.28 293.096C375.369 297.932 372.678 302.836 369.266 307.73C367.559 310.178 365.687 312.625 363.63 315.062V314.175H157.598V289.528H154.731C157.422 287.168 160.259 284.838 163.243 282.547C169.21 277.964 175.742 273.528 182.781 269.316C196.85 260.893 212.918 253.356 230.419 247.262C300.422 222.917 366.867 231.029 378.82 265.397V265.416Z" fill="#196185"/>
<path d="M375.252 266.635C378.167 275.03 377.485 284.224 373.75 293.671C371.879 298.4 369.256 303.187 365.931 307.965C364.264 310.353 362.431 312.742 360.432 315.121V314.175H157.617V290.191H156.379C159.002 287.89 161.78 285.618 164.695 283.376C170.526 278.9 176.902 274.571 183.776 270.457C197.523 262.228 213.21 254.867 230.302 248.92C298.677 225.14 363.572 233.067 375.252 266.635Z" fill="#196084"/>
<path d="M371.674 267.854C374.521 276.044 373.858 285.023 370.211 294.247C368.388 298.858 365.824 303.528 362.577 308.199C360.959 310.529 359.165 312.869 357.205 315.189V314.175H157.617V294.247H154.283C155.492 293.106 156.74 291.985 158.017 290.854C160.581 288.611 163.292 286.388 166.129 284.204C171.813 279.836 178.053 275.605 184.761 271.598C198.176 263.564 213.493 256.378 230.185 250.577C296.932 227.363 360.286 235.104 371.684 267.864L371.674 267.854Z" fill="#195F83"/>
<path d="M368.096 269.082C370.874 277.077 370.221 285.833 366.662 294.832C364.888 299.336 362.382 303.889 359.214 308.442C357.634 310.724 355.879 312.995 353.978 315.257V314.175H157.607V298.166H152.567C170.263 280.265 197.484 263.535 230.048 252.215C295.167 229.567 356.971 237.113 368.096 269.082Z" fill="#195F82"/>
<path d="M364.517 270.301C367.228 278.091 366.594 286.632 363.123 295.407C361.388 299.794 358.95 304.24 355.86 308.676C354.319 310.899 352.613 313.112 350.751 315.326V314.175H157.607V298.653H154.38C171.628 281.201 198.176 264.89 229.922 253.853C293.412 231.77 353.676 239.131 364.517 270.301Z" fill="#195E81"/>
<path d="M360.949 271.52C363.591 279.115 362.967 287.431 359.594 295.982C357.907 300.252 355.528 304.591 352.515 308.91C351.014 311.075 349.347 313.239 347.543 315.384V314.165H157.617V299.141H156.203C173.012 282.137 198.878 266.245 229.805 255.481C291.667 233.964 350.38 241.139 360.949 271.51V271.52Z" fill="#195D81"/>
<path d="M357.371 272.739C359.945 280.129 359.34 288.231 356.045 296.557C354.397 300.72 352.077 304.942 349.152 309.154C347.689 311.26 346.071 313.366 344.306 315.462V314.175H157.607V305.898H152.294C154.058 303.801 155.969 301.715 158.007 299.648C174.377 283.093 199.561 267.62 229.678 257.139C289.912 236.187 347.085 243.177 357.371 272.739Z" fill="#195D80"/>
<path d="M353.793 273.967C356.298 281.162 355.704 289.04 352.506 297.142C350.907 301.188 348.645 305.293 345.798 309.398C344.374 311.445 342.795 313.493 341.079 315.53V314.175H157.598V306.219H154.244C155.96 304.182 157.812 302.154 159.811 300.136C175.732 284.029 200.233 268.975 229.541 258.777C288.147 238.39 343.77 245.186 353.783 273.957L353.793 273.967Z" fill="#195C7F"/>
<path d="M350.214 275.186C352.642 282.176 352.077 289.84 348.967 297.718C347.407 301.656 345.213 305.644 342.444 309.632C341.059 311.621 339.529 313.61 337.861 315.599V314.185H157.607V312.518H151.641C154.409 308.53 157.763 304.552 161.634 300.642C177.117 284.984 200.935 270.34 229.424 260.434C286.402 240.613 340.484 247.223 350.214 275.196V275.186Z" fill="#195B7E"/>
<path d="M346.646 276.404C349.005 283.2 348.46 290.649 345.427 298.293C343.916 302.115 341.781 305.995 339.09 309.866C337.744 311.796 336.263 313.736 334.634 315.657V314.175H157.607V312.664H153.737C156.428 308.793 159.684 304.932 163.438 301.13C178.482 285.92 201.618 271.695 229.298 262.072C284.647 242.816 337.189 249.242 346.636 276.414L346.646 276.404Z" fill="#195B7D"/>
<path d="M343.068 277.633C345.359 284.224 344.823 291.458 341.888 298.878C340.416 302.592 338.349 306.356 335.736 310.109C334.43 311.991 332.987 313.863 331.417 315.735V314.185H157.607V312.83H155.843C158.456 309.076 161.615 305.322 165.261 301.627C179.856 286.866 202.32 273.06 229.181 263.72C282.902 245.03 333.893 251.26 343.068 277.633Z" fill="#195A7C"/>
<path d="M339.49 278.852C341.713 285.248 341.196 292.258 338.349 299.453C336.926 303.051 334.917 306.697 332.392 310.344C331.124 312.167 329.73 313.98 328.199 315.794V314.175H157.617L154.546 318.436C155.54 316.622 156.671 314.799 157.939 312.976C160.474 309.33 163.535 305.693 167.074 302.115C181.231 287.802 203.012 274.416 229.054 265.348C281.147 247.223 330.598 253.268 339.49 278.842V278.852Z" fill="#19597B"/>
<path d="M335.921 280.07C338.076 286.261 337.569 293.057 334.81 300.028C333.435 303.519 331.485 307.048 329.038 310.577C327.809 312.342 326.454 314.107 324.982 315.862V314.175H157.617L156.749 318.426C157.715 316.661 158.816 314.897 160.045 313.132C162.502 309.602 165.466 306.083 168.898 302.612C182.616 288.738 203.714 275.771 228.947 266.996C279.411 249.446 327.312 255.296 335.931 280.07H335.921Z" fill="#19597A"/>
<path d="M332.343 281.289C336.516 293.281 330.393 307.574 317.114 320.99V314.165H158.943V318.397C159.879 316.69 160.942 314.984 162.131 313.278C164.51 309.866 167.377 306.453 170.692 303.099C183.961 289.674 204.377 277.126 228.8 268.634C277.637 251.65 323.997 257.314 332.333 281.289H332.343Z" fill="#195879"/>
<path d="M328.765 282.518C332.792 294.11 326.873 307.926 314.043 320.903V314.185H161.147V318.397C162.053 316.749 163.077 315.101 164.227 313.444C166.519 310.139 169.297 306.843 172.505 303.606C185.336 290.629 205.069 278.501 228.674 270.291C275.882 253.873 320.692 259.342 328.755 282.518H328.765Z" fill="#195778"/>
<path d="M325.187 283.736C329.077 294.929 323.364 308.267 310.981 320.795V314.175H163.36V318.377C164.227 316.788 165.222 315.189 166.333 313.6C168.547 310.412 171.228 307.233 174.328 304.094C186.71 291.565 205.771 279.856 228.566 271.929C274.147 256.076 317.416 261.361 325.197 283.736H325.187Z" fill="#195778"/>
<path d="M321.618 284.955C325.372 295.748 319.863 308.608 307.92 320.688V314.175H165.573V318.358C166.411 316.827 167.367 315.287 168.439 313.746C170.575 310.675 173.158 307.604 176.151 304.581C188.095 292.501 206.473 281.211 228.449 273.567C272.401 258.28 314.121 263.379 321.628 284.955H321.618Z" fill="#195677"/>
<path d="M318.04 286.174C321.657 296.567 316.344 308.949 304.849 320.581V314.165H167.767V318.329C168.576 316.856 169.502 315.374 170.526 313.892C172.583 310.928 175.069 307.974 177.945 305.069C189.45 293.437 207.146 282.557 228.303 275.195C270.627 260.473 310.806 265.377 318.03 286.164L318.04 286.174Z" fill="#195576"/>
<path d="M314.462 287.402C317.933 297.396 312.834 309.3 301.777 320.493V314.185H169.97V318.338C170.75 316.915 171.637 315.491 172.622 314.068C174.601 311.221 176.99 308.384 179.759 305.586C190.815 294.403 207.829 283.941 228.186 276.863C268.882 262.706 307.51 267.425 314.462 287.402Z" fill="#185575"/>
<path d="M310.894 288.621C314.228 298.215 309.334 309.651 298.716 320.386V314.175H174.728V314.214C176.629 311.484 178.92 308.754 181.582 306.073C192.2 295.339 208.531 285.296 228.069 278.501C267.146 264.909 304.225 269.443 310.894 288.621Z" fill="#185474"/>
<path d="M307.315 289.84C310.513 299.034 305.814 309.992 295.645 320.278V314.175H176.824V314.37C178.647 311.747 180.851 309.134 183.386 306.561C193.565 296.274 209.213 286.651 227.933 280.139C265.382 267.113 300.91 271.461 307.306 289.84H307.315Z" fill="#185373"/>
<path d="M303.737 291.068C306.799 299.862 302.304 310.343 292.574 320.181V314.175H178.92V314.526C180.666 312.02 182.772 309.524 185.199 307.058C194.93 297.211 209.905 288.016 227.816 281.786C263.636 269.326 297.624 273.479 303.737 291.068Z" fill="#185372"/>
<path d="M300.159 292.287C303.074 300.681 298.794 310.685 289.503 320.084V314.185H181.017V314.692C182.684 312.303 184.692 309.915 187.013 307.565C196.304 298.166 210.597 289.381 227.689 283.444C261.881 271.549 294.329 275.517 300.159 292.297V292.287Z" fill="#185271"/>
<path d="M296.591 293.506C299.369 301.5 295.284 311.026 286.441 319.976V314.175H183.123V314.838C184.702 312.557 186.623 310.285 188.836 308.052C197.679 299.102 211.299 290.737 227.572 285.072C260.136 273.743 291.033 277.526 296.591 293.506Z" fill="#185170"/>
<path d="M293.012 294.724C295.655 302.319 291.774 311.367 283.37 319.869V314.175H185.219V314.994C186.72 312.83 188.543 310.675 190.64 308.55C199.044 300.048 211.972 292.102 227.445 286.72C258.381 275.956 287.738 279.544 293.012 294.734V294.724Z" fill="#185070"/>
<path d="M289.434 295.953C291.94 303.148 288.264 311.718 280.299 319.771V314.175H187.305V315.14C188.729 313.093 190.454 311.045 192.443 309.027C200.409 300.974 212.655 293.447 227.309 288.348C256.616 278.159 284.423 281.552 289.425 295.943L289.434 295.953Z" fill="#18506F"/>
<path d="M285.866 297.171C288.225 303.967 284.754 312.069 277.237 319.674V314.175H189.411V315.296C190.757 313.366 192.385 311.426 194.267 309.524C201.784 301.92 213.357 294.812 227.192 289.996C254.871 280.373 281.137 283.58 285.856 297.162L285.866 297.171Z" fill="#184F6E"/>
<path d="M282.288 298.39C284.511 304.786 281.244 312.41 274.166 319.567V314.175H188.524V320.902C189.947 317.305 192.531 313.61 196.07 310.031C203.149 302.875 214.039 296.177 227.065 291.653C253.116 282.596 277.832 285.618 282.278 298.4L282.288 298.39Z" fill="#174E6D"/>
</g>
<path d="M161.751 313.2C161.751 313.2 362.002 227.607 406.364 204.324C448.795 182.046 531.736 135.062 522.045 120.525C511.184 104.223 313.273 80.6189 303.961 66.9692C295.352 54.353 570.423 33.5957 570.423 33.5957C570.423 33.5957 348.284 45.3345 282.97 56.0982C162.434 75.9683 430.865 113.641 424.254 119.638C383.9 156.229 -4.47314 191.923 -4.47314 191.923V313.2H161.751Z" fill="url(#paint2_linear_1457_1090)"/>
<path d="M241.056 244.483C243.376 244.99 245.19 246.355 245.541 246.638C245.823 246.687 245.979 246.706 245.979 246.706C245.979 246.706 244.839 248.081 238.462 249.661L239.311 249.856C239.311 249.856 239.067 249.924 238.677 250.021L242.255 250.577C246.106 250.411 250.971 250.626 253.682 251.026C254.452 251.143 253.682 251.191 253.584 251.289C258.274 251.991 260.068 252.927 255.378 254.058C250.494 255.228 244.819 254.887 240.422 254.009C237.575 253.434 235.986 252.81 235.888 252.225C235.83 252.157 235.791 252.098 235.762 252.04L232.281 251.445C231.92 251.494 231.599 251.533 231.316 251.562L229.229 251.357C221.361 252.391 213.873 252.537 213.873 252.537L212.937 252.293C211.816 252.186 210.295 251.942 209.798 251.874C209.096 251.776 191.741 250.811 189.479 250.411C187.237 250.002 182.645 247.321 182.645 247.321L183.23 247.301L183.181 247.009H183.99C183.834 246.921 183.63 246.823 183.444 246.716C182.109 246.599 181.095 246.346 180.588 246.19C177.643 246.502 174.748 246.775 173.714 246.775C172.612 246.892 171.267 246.853 170.35 246.658L155.521 243.382C154.4 243.138 154.361 242.709 155.453 242.436C155.901 242.319 156.467 242.261 157.052 242.231C159.226 241.958 163.214 241.49 166.353 241.295C150.539 238.224 131.692 235.28 131.692 235.28L129.772 234.802C129.596 234.763 125.579 234.704 124.809 234.305C124.38 234.08 123.103 232.043 123.805 231.809C124.361 231.624 125.804 231.692 126.545 231.711C129.46 231.78 135.017 233.525 135.017 233.525L136.148 233.349C136.148 233.349 168.712 238.097 186.194 240.74C186.194 240.74 186.194 240.74 186.194 240.73L167.63 236.528L143.655 231.048L144.367 230.873C144.367 230.873 139.268 230.19 139.161 230.005C139.161 230.005 136.889 228.767 136.889 228.757C137.201 228.065 139.902 228.26 139.902 228.26L140.35 227.655C140.35 227.655 138.527 226.622 145.196 227.597C145.264 227.597 146.385 228.513 146.434 229.011C146.493 229.625 147.136 229.683 147.965 229.82L148.696 229.644L198.137 238.741C199.171 238.604 199.795 238.536 199.795 238.536C199.795 238.536 203.051 239.111 207.166 239.852C207.029 239.784 206.932 239.726 206.922 239.667C206.893 239.531 207.341 239.482 207.897 239.472C208.687 239.336 212.323 239.277 212.323 239.277L212.469 239.306C212.596 239.209 212.791 239.111 213.064 239.024C213.162 238.994 213.435 238.985 213.717 238.994C213.961 238.907 214.332 238.848 214.897 238.858C217.959 238.897 234.777 241.139 235.391 241.247C236.005 241.354 238.521 243.908 241.105 244.474L241.056 244.483ZM187.929 246.287C187.851 246.268 187.773 246.258 187.695 246.238C187.695 246.258 187.676 246.287 187.656 246.316C187.656 246.316 187.783 246.316 187.929 246.287ZM188.972 247.155H189.314C189.314 247.155 192.453 248.998 193.799 249.173C194.774 249.3 199.697 249.495 202.456 249.592L197.718 248.364C197.718 248.364 193.457 247.486 188.943 246.511C188.846 246.531 188.738 246.541 188.621 246.531C188.797 246.599 188.846 246.677 188.524 246.716C188.524 246.716 188.319 246.736 188.027 246.745L188.114 246.931H188.66L188.972 247.145V247.155ZM182.859 246.248C182.762 246.17 182.83 246.102 183.24 246.063C184.244 245.965 186.35 246.082 187.266 246.141C186.574 245.995 185.882 245.839 185.219 245.692C184.234 245.8 183.093 245.926 181.904 246.063C182.313 246.19 182.859 246.248 182.859 246.248ZM210.286 240.437C214.878 241.266 219.782 242.163 222.239 242.641C223.906 242.963 226.733 243.47 229.873 244.006C229.015 243.45 227.309 242.358 226.87 242.241C226.363 242.114 217.705 240.964 215.014 240.613L215.034 240.671L212.928 240.418C212.928 240.418 212.801 240.35 212.645 240.252L212.401 240.272C212.46 240.34 212.499 240.389 212.499 240.389C212.518 240.515 211.533 240.535 211.143 240.486C211.056 240.476 210.978 240.447 210.909 240.418L210.685 240.437C210.685 240.437 210.617 240.418 210.51 240.398C210.441 240.408 210.363 240.428 210.295 240.437H210.286Z" fill="url(#paint3_linear_1457_1090)"/>
<path d="M147.926 165.764L146.268 166.505C146.268 166.505 146.424 169.888 146.99 169.859C147.555 169.83 149.262 168.153 149.262 168.153L149.291 166.836C149.291 166.836 148.735 165.169 147.926 165.774V165.764Z" fill="url(#paint4_linear_1457_1090)"/>
<path d="M145.664 166.797C145.664 166.797 146.795 166.417 147.078 166.895C147.36 167.363 147.741 168.777 147.741 168.777C147.741 168.777 146.892 170.658 146.239 169.908C145.586 169.157 145.674 166.807 145.674 166.807L145.664 166.797Z" fill="#D7EDE2"/>
<path d="M147.107 165.735C147.107 165.735 148.579 167.802 147.702 167.519C146.824 167.236 146.288 166.456 146.356 166.173C146.415 165.891 146.853 165.452 147.107 165.735Z" fill="#D7EDE2"/>
<path d="M122.274 163.317L123.425 164.73C123.425 164.73 121.748 167.675 121.26 167.392C120.773 167.109 120.002 164.838 120.002 164.838L120.568 163.648C120.568 163.648 121.816 162.41 122.274 163.317Z" fill="url(#paint5_linear_1457_1090)"/>
<path d="M123.815 165.266C123.815 165.266 122.976 164.418 122.518 164.711C122.06 165.003 121.085 166.085 121.085 166.085C121.085 166.085 120.987 168.143 121.913 167.772C122.84 167.402 123.824 165.257 123.824 165.257L123.815 165.266Z" fill="#D7EDE2"/>
<path d="M123.005 163.668C123.005 163.668 120.753 164.847 121.67 164.994C122.586 165.14 123.405 164.682 123.483 164.399C123.551 164.116 123.356 163.531 123.015 163.668H123.005Z" fill="#D7EDE2"/>
<path d="M141.618 123.196C141.618 123.196 141.842 123.957 141.988 124.698C142.095 125.234 142.788 124.766 142.68 125.448C142.349 127.467 140.623 130.041 138.547 131.152C136.177 132.42 134.393 132.644 132.531 129.524C128.27 122.377 136.792 114.412 141.618 123.196Z" fill="#D7EDE2"/>
<path d="M138.42 134.165L138.927 130.655L133.155 130.411L132.784 134.048L138.42 134.165Z" fill="#D7EDE2"/>
<path d="M122.06 162.108L122.606 163.122L119.72 165.647L118.55 164.389L122.06 162.108Z" fill="white"/>
<path d="M150.646 167.655C150.646 167.655 150.324 168.387 150.081 168.338C148.199 167.958 147.224 165.471 147.224 165.471L147.575 163.941L150.636 167.646L150.646 167.655Z" fill="white"/>
<path d="M148.082 137.675C148.082 137.675 146.668 151.763 146.58 156.482C146.483 161.191 145.576 175.796 145.576 175.796C145.576 175.796 131.527 181.315 124.263 175.046C123.366 174.266 123.766 155.488 123.766 155.488L122.264 138.689C122.264 138.689 127.91 134.301 135.807 134.301C143.704 134.301 148.092 137.684 148.092 137.684L148.082 137.675Z" fill="#0D1137"/>
<path d="M132.219 133.355L131.595 135.052L139.18 134.798L139.112 133.736C139.112 133.736 133.594 132.731 132.219 133.355Z" fill="#0D1137"/>
<path d="M124.039 149.482C124.039 149.482 120.373 154.503 120.1 155.556C119.837 156.609 122.43 162.303 122.43 162.303L118.764 165.227C118.764 165.227 114.962 156.833 115.167 154.805C115.362 152.777 121.64 142.51 121.767 141.984C121.904 141.457 122.235 139.137 122.771 139.059C123.308 138.981 124.039 149.482 124.039 149.482Z" fill="#0D1137"/>
<path d="M147.975 137.87C147.975 137.87 150.412 142.121 150.49 144.382C150.568 146.644 154.565 153.04 154.546 153.528C154.517 154.015 152.323 166.29 151.163 167.801C150.003 169.313 147.594 164.672 147.594 164.672C147.594 164.672 149.32 155.819 149.252 155.224C149.184 154.629 146.512 149.287 146.512 149.287C146.512 149.287 144.65 139.556 147.984 137.86L147.975 137.87Z" fill="#0D1137"/>
<path d="M131.127 124.249C131.02 128.217 132.736 131.172 135.739 131.552C138.742 131.922 141.179 129.348 141.988 125.595C142.768 121.987 141.793 118.975 137.377 118.292C132.96 117.619 131.224 120.564 131.127 124.249Z" fill="#0D1137"/>
<path d="M124.156 222.868L123.395 222.537C123.395 222.537 123.805 189.446 125.306 174.236C130.396 174.929 135.261 175.328 140.565 174.685C141.9 174.519 143.226 174.344 144.552 174.158L142.164 222.976L141.432 223.044C141.364 223.843 141.198 224.37 142.524 225.706C143.607 226.788 145.215 227.578 145.176 227.617C143.07 229.723 140.926 228.309 140.926 228.309L140.896 228.991C140.896 228.991 138.781 229.82 136.87 228.777C136.46 228.553 137.416 223.054 137.416 223.054L136.684 223.122L135.661 197.109L134.998 177.863C132.726 192.937 127.754 222.859 127.754 222.859L126.769 223.19C126.769 223.19 128.085 230.619 126.769 232.696C126.437 233.223 125.852 234.324 125.131 234.295C124.214 234.256 123.142 232.92 122.84 232.15C122.294 230.766 122.801 227.041 123.083 225.998C123.356 224.955 124.156 222.859 124.156 222.859V222.868Z" fill="#0D1137"/>
<path d="M125.823 166.875C125.823 166.875 116.697 169.839 115.537 171.058C114.699 171.36 114.094 172.16 114.094 173.105V188.744C114.094 189.953 115.069 190.928 116.278 190.928C116.775 190.928 117.224 190.762 117.584 190.479C119.837 189.68 124.361 187.915 125.813 186.17C127.773 183.82 125.813 166.865 125.813 166.865L125.823 166.875Z" fill="#0D1137"/>
<path d="M121.114 166.895L121.299 167.548C121.299 167.548 121.075 168.367 121.455 169.02L120.402 169.293C120.402 169.293 119.564 166.251 121.455 165.013H122.147C122.147 165.013 121.026 165.832 121.124 166.895H121.114Z" fill="#0D1137"/>
<path d="M123.464 164.028C123.464 164.028 123.542 164.467 123.327 164.613L123.425 164.73L123.327 164.877L123.483 164.984C123.483 164.984 123.639 164.808 124.049 164.984C124.458 165.159 124.263 164.028 124.263 164.028C124.263 164.028 123.678 163.755 123.473 164.028H123.464Z" fill="#0D1137"/>
<path d="M117.77 170.765C117.77 170.765 121.182 172.413 118.277 188.344C118.277 188.344 122.138 171.282 117.77 170.765Z" fill="#283380"/>
<path d="M123.805 168.659L124.049 174.802L125.345 175.855L124.575 183.489L124.79 176.079L123.493 175.085L123.805 168.659Z" fill="#283380"/>
</g>
<defs>
<radialGradient id="paint0_radial_1457_1090" cx="0" cy="0" r="1" gradientUnits="userSpaceOnUse" gradientTransform="translate(236.181 102.829) scale(390.206 390.206)">
<stop offset="0.05" stop-color="#154560"/>
<stop offset="1" stop-color="#0684B6"/>
</radialGradient>
<radialGradient id="paint1_radial_1457_1090" cx="0" cy="0" r="1" gradientUnits="userSpaceOnUse" gradientTransform="translate(421.417 124.405) scale(158.649 158.649)">
<stop stop-color="#154560"/>
<stop offset="1" stop-color="#0684B6"/>
</radialGradient>
<linearGradient id="paint2_linear_1457_1090" x1="548.5" y1="8" x2="-12.5" y2="259" gradientUnits="userSpaceOnUse">
<stop offset="0.376718" stop-color="white"/>
<stop offset="0.794153" stop-color="#ADE4FF"/>
</linearGradient>
<linearGradient id="paint3_linear_1457_1090" x1="252.171" y1="251.572" x2="14.2367" y2="216.365" gradientUnits="userSpaceOnUse">
<stop stop-color="#231F20"/>
<stop offset="1" stop-color="#00002D"/>
</linearGradient>
<linearGradient id="paint4_linear_1457_1090" x1="149.356" y1="167.596" x2="146.356" y2="167.739" gradientUnits="userSpaceOnUse">
<stop stop-color="#93BFC0"/>
<stop offset="0.89" stop-color="#D7EDE2"/>
</linearGradient>
<linearGradient id="paint5_linear_1457_1090" x1="120.177" y1="164.443" x2="122.796" y2="165.932" gradientUnits="userSpaceOnUse">
<stop stop-color="#93BFC0"/>
<stop offset="0.89" stop-color="#D7EDE2"/>
</linearGradient>
</defs>
</svg>
